<svg xmlns="http://www.w3.org/2000/svg" viewBox="0 0 138.87 55.02"><defs><style>.cls-1{fill:#fff;}</style></defs><g id="圖層_2" data-name="圖層 2"><g id="圖層_1-2" data-name="圖層 1"><path class="cls-1" d="M20,.27c-.37.19-.73.39-1.09.59l.5.89c.07-.13.13-.27.19-.4A10.15,10.15,0,0,0,20,.27,6.22,6.22,0,0,0,18.83,0l-.46,0,.49.86C19.22.66,19.58.46,20,.27Z"/><path class="cls-1" d="M18.49,2.84a3.11,3.11,0,0,0,.87-1.09l-.5-.89A30.62,30.62,0,0,0,16,2.72h0A5.46,5.46,0,0,0,16.9,3,2.13,2.13,0,0,0,18.49,2.84Z"/><path class="cls-1" d="M16.9.3A2.25,2.25,0,0,0,16,1.75a4.14,4.14,0,0,0,0,1A30.62,30.62,0,0,1,18.86.86L18.37,0A2.52,2.52,0,0,0,16.9.3Z"/><path class="cls-1" d="M12.56,5.23a5,5,0,0,0,.62-.62,2.64,2.64,0,0,0,.73-1.47,4.17,4.17,0,0,0-.37-1.87,8.06,8.06,0,0,0-.46-1l-.25.25a5.16,5.16,0,0,0-.55.66A4.09,4.09,0,0,0,11.43,3,2.34,2.34,0,0,0,12,4.6,3.74,3.74,0,0,0,12.56,5.23Z"/><path class="cls-1" d="M17.36,6.28l.25-.13a10.14,10.14,0,0,0-.81-.73,3.62,3.62,0,0,0-1.68-.82,2.39,2.39,0,0,0-1.52.47,3.74,3.74,0,0,0-.63.59,4.57,4.57,0,0,0,.62.61A2.66,2.66,0,0,0,15,6.93a3.66,3.66,0,0,0,1.7-.36Z"/><path class="cls-1" d="M8.52,8.54a4.38,4.38,0,0,0,.69.52,4.59,4.59,0,0,0,.53-.7,4.11,4.11,0,0,0,.33-.73,2.41,2.41,0,0,0,.14-.85A6.12,6.12,0,0,0,8.9,4.1s-1.3,1.76-1.16,3A2.37,2.37,0,0,0,8.52,8.54Z"/><path class="cls-1" d="M14.34,9.13A5.37,5.37,0,0,0,11.64,8a1.78,1.78,0,0,0-.8.24,3,3,0,0,0-.61.48,3.82,3.82,0,0,0-.54.67,4.38,4.38,0,0,0,.71.51,2.77,2.77,0,0,0,1.55.42,4.12,4.12,0,0,0,1.61-.65A6.21,6.21,0,0,0,14.34,9.13Z"/><path class="cls-1" d="M5.79,13a3.78,3.78,0,0,0,.77.4s.05-.08.12-.22.16-.34.26-.57A2.67,2.67,0,0,0,7.15,11a4.45,4.45,0,0,0-1-1.65,7.69,7.69,0,0,0-.77-.77l-.15.31A4.46,4.46,0,0,0,5,9.68a4.36,4.36,0,0,0-.2,2A2.38,2.38,0,0,0,5.79,13Z"/><path class="cls-1" d="M11.43,12.82l.19-.2a7.9,7.9,0,0,0-1-.43A3.62,3.62,0,0,0,8.77,12a2.41,2.41,0,0,0-1.28.95,2.38,2.38,0,0,0-.31.53c-.06.14-.09.23-.09.23a4.25,4.25,0,0,0,.78.38,2.72,2.72,0,0,0,1.58.15,3.62,3.62,0,0,0,1.49-.91Z"/><path class="cls-1" d="M3.83,17.85a4.11,4.11,0,0,0,.83.27,4.29,4.29,0,0,0,.26-.84,4.86,4.86,0,0,0,.07-.8,2.23,2.23,0,0,0-.15-.84,6.07,6.07,0,0,0-2.12-2.11,10.22,10.22,0,0,0-.25,1.19,3.78,3.78,0,0,0,.15,2A2.35,2.35,0,0,0,3.83,17.85Z"/><path class="cls-1" d="M7.66,18.42A4.17,4.17,0,0,0,9,17.28a5.65,5.65,0,0,0,.55-.78,5.27,5.27,0,0,0-2.91-.16,2,2,0,0,0-.68.48,3.46,3.46,0,0,0-.42.66,4.41,4.41,0,0,0-.28.82,4.35,4.35,0,0,0,.84.24A2.77,2.77,0,0,0,7.66,18.42Z"/><path class="cls-1" d="M1.33,22.09A2.4,2.4,0,0,0,2.72,23a3.87,3.87,0,0,0,.86.12s.07-.37.11-.86a2.69,2.69,0,0,0-.36-1.62,4.2,4.2,0,0,0-1.44-1.23,8.2,8.2,0,0,0-1-.49l0,.36a5.46,5.46,0,0,0,0,.85A4.4,4.4,0,0,0,1.33,22.09Z"/><path class="cls-1" d="M4.3,22.32a2.85,2.85,0,0,0-.14.85,4.6,4.6,0,0,0,.87.1,2.77,2.77,0,0,0,1.55-.38,3.47,3.47,0,0,0,1.09-1.35c.13-.24.25-.45.32-.61a1.52,1.52,0,0,0,.11-.25A8.15,8.15,0,0,0,7,20.61,3.62,3.62,0,0,0,5.19,21,2.43,2.43,0,0,0,4.3,22.32Z"/><path class="cls-1" d="M1,27.55a2.31,2.31,0,0,0,1.51.64,3.74,3.74,0,0,0,.87,0,4.11,4.11,0,0,0-.05-.88,2.75,2.75,0,0,0-.6-1.53,4.24,4.24,0,0,0-1.65-1,8.85,8.85,0,0,0-1-.31s0,.13,0,.35.07.52.14.85A3.79,3.79,0,0,0,1,27.55Z"/><path class="cls-1" d="M3.94,28.15a4.38,4.38,0,0,0,.87,0,2.8,2.8,0,0,0,1.47-.64A4.08,4.08,0,0,0,7.14,26a6.71,6.71,0,0,0,.19-.66A2.63,2.63,0,0,1,7.39,25a8.22,8.22,0,0,0-1.08.11,3.62,3.62,0,0,0-1.71.7,2.26,2.26,0,0,0-.68,1.45A3.87,3.87,0,0,0,3.94,28.15Z"/><path class="cls-1" d="M1.51,33a2.28,2.28,0,0,0,1.58.38,4,4,0,0,0,.85-.16,3.78,3.78,0,0,0-.17-.86A3,3,0,0,0,2.91,31a6.09,6.09,0,0,0-2.86-.83,9.27,9.27,0,0,0,.34,1.16A3.83,3.83,0,0,0,1.51,33Z"/><path class="cls-1" d="M4.52,33.11a4.56,4.56,0,0,0,.85-.19,2.82,2.82,0,0,0,1.36-.87,5.82,5.82,0,0,0,.7-2.59A5.31,5.31,0,0,0,4.8,30.72a2.13,2.13,0,0,0-.41,1.54A3.87,3.87,0,0,0,4.52,33.11Z"/><path class="cls-1" d="M4.58,38.41a3.72,3.72,0,0,0,.81-.31,1.74,1.74,0,0,0-.08-.24c-.06-.14-.15-.34-.24-.57A2.68,2.68,0,0,0,4,36a4.38,4.38,0,0,0-1.87-.38A7.73,7.73,0,0,0,1,35.7l.13.33a5.26,5.26,0,0,0,.4.77,4.24,4.24,0,0,0,1.37,1.5A2.44,2.44,0,0,0,4.58,38.41Z"/><path class="cls-1" d="M5.84,37.66a1.59,1.59,0,0,0,.11.23,4.24,4.24,0,0,0,.8-.33,2.7,2.7,0,0,0,1.17-1.08,3.62,3.62,0,0,0,.32-1.71c0-.27,0-.51,0-.68s0-.28,0-.28a8.31,8.31,0,0,0-1,.46A3.69,3.69,0,0,0,5.8,35.5a2.43,2.43,0,0,0-.15,1.58A2.46,2.46,0,0,0,5.84,37.66Z"/><path class="cls-1" d="M6.88,43.11a3.77,3.77,0,0,0,.75-.44,4.07,4.07,0,0,0-.45-.75,4.19,4.19,0,0,0-.54-.59,2.21,2.21,0,0,0-.73-.46,6.2,6.2,0,0,0-3,.17,9.21,9.21,0,0,0,.72,1,5.88,5.88,0,0,0,.74.76,2.76,2.76,0,0,0,.88.49A2.33,2.33,0,0,0,6.88,43.11Z"/><path class="cls-1" d="M7.72,41.62a4.15,4.15,0,0,0,.42.75,4.27,4.27,0,0,0,.74-.46,2.8,2.8,0,0,0,1-1.27,2.47,2.47,0,0,0,.09-.86,4.79,4.79,0,0,0-.07-.87A5.66,5.66,0,0,0,9.67,38S8,38.93,7.61,40a2,2,0,0,0-.1.84A3,3,0,0,0,7.72,41.62Z"/><path class="cls-1" d="M10.6,46.8a2,2,0,0,0-.15-.2c-.11-.11-.25-.28-.42-.46a2.71,2.71,0,0,0-1.43-.82,4.25,4.25,0,0,0-1.89.25,8.78,8.78,0,0,0-1,.4l.23.27a7.4,7.4,0,0,0,.62.59,4.36,4.36,0,0,0,1.8,1,2.31,2.31,0,0,0,1.58-.45A4,4,0,0,0,10.6,46.8Z"/><path class="cls-1" d="M10.88,46.24l.17.18a4.28,4.28,0,0,0,.65-.58,2.77,2.77,0,0,0,.76-1.41,3.55,3.55,0,0,0-.27-1.71c-.09-.25-.17-.49-.24-.64s-.11-.26-.11-.26a9,9,0,0,0-.78.76,3.63,3.63,0,0,0-.93,1.63,2.88,2.88,0,0,0,.75,2Z"/><path class="cls-1" d="M14.22,50.38a3.77,3.77,0,0,0-.67-.56A2.94,2.94,0,0,0,12,49.25a6.08,6.08,0,0,0-2.77,1.14,11.47,11.47,0,0,0,1,.69,7,7,0,0,0,.95.47,3.3,3.3,0,0,0,1,.18A2.37,2.37,0,0,0,13.65,51,4.15,4.15,0,0,0,14.22,50.38Z"/><path class="cls-1" d="M14.6,49.93a4.4,4.4,0,0,0,.55-.68,2.71,2.71,0,0,0,.51-1.52,2.28,2.28,0,0,0-.19-.84,5.48,5.48,0,0,0-.35-.81,7.27,7.27,0,0,0-.52-.81,5.29,5.29,0,0,0-1.27,2.62A2.1,2.1,0,0,0,14,49.35,4,4,0,0,0,14.6,49.93Z"/><path class="cls-1" d="M16,52.57a6,6,0,0,0-2.52,1.56,7.34,7.34,0,0,0,1.09.54,4.38,4.38,0,0,0,2,.32,2.34,2.34,0,0,0,1.36-.94,4.58,4.58,0,0,0,.45-.74s-.32-.21-.76-.44A2.65,2.65,0,0,0,16,52.57Z"/><path class="cls-1" d="M18,52.34a2.5,2.5,0,0,0,.73.46,4.15,4.15,0,0,0,.42-.75,2.9,2.9,0,0,0,.26-1.59,3.56,3.56,0,0,0-.82-1.53,9.35,9.35,0,0,0-.62-.73A5.37,5.37,0,0,0,17.08,51,2.39,2.39,0,0,0,18,52.34Z"/><path class="cls-1" d="M118.91.27l1.1.59.48-.86L120,0a6.22,6.22,0,0,0-1.13.23,10.15,10.15,0,0,0,.4,1.08c.06.13.12.27.19.4L120,.86Z"/><path class="cls-1" d="M120.37,2.84A2.17,2.17,0,0,0,122,3a5.12,5.12,0,0,0,.91-.25h0A32,32,0,0,0,120,.86l-.51.89A3.23,3.23,0,0,0,120.37,2.84Z"/><path class="cls-1" d="M122.88,2.72a4.45,4.45,0,0,0-.06-1A2.24,2.24,0,0,0,122,.3a2.55,2.55,0,0,0-1.48-.3L120,.86A32,32,0,0,1,122.88,2.72Z"/><path class="cls-1" d="M125.26,5.07a2.38,2.38,0,0,0-1.52-.47,3.62,3.62,0,0,0-1.68.82,9,9,0,0,0-.8.73l.25.13.62.29a3.62,3.62,0,0,0,1.69.36,2.6,2.6,0,0,0,1.45-.66,4.57,4.57,0,0,0,.62-.61A3.74,3.74,0,0,0,125.26,5.07Z"/><path class="cls-1" d="M125.68,4.61a5,5,0,0,0,.62.62,3.74,3.74,0,0,0,.59-.63A2.37,2.37,0,0,0,127.44,3a4.11,4.11,0,0,0-.86-1.85A4.67,4.67,0,0,0,126,.53l-.26-.25a8.06,8.06,0,0,0-.46,1A4.31,4.31,0,0,0,125,3.14,2.64,2.64,0,0,0,125.68,4.61Z"/><path class="cls-1" d="M128,8.26a1.74,1.74,0,0,0-.81-.24,5.37,5.37,0,0,0-2.7,1.11,5.93,5.93,0,0,0,.79.56,4.07,4.07,0,0,0,1.6.65,2.83,2.83,0,0,0,1.56-.42,4.56,4.56,0,0,0,.7-.51,4,4,0,0,0-.53-.67A2.94,2.94,0,0,0,128,8.26Z"/><path class="cls-1" d="M129.13,8.36a4.22,4.22,0,0,0,.52.7,3.91,3.91,0,0,0,.69-.52,2.3,2.3,0,0,0,.78-1.44c.14-1.25-1.16-3-1.16-3a6.09,6.09,0,0,0-1.3,2.69,2.4,2.4,0,0,0,.13.85A3.52,3.52,0,0,0,129.13,8.36Z"/><path class="cls-1" d="M131.38,12.91A2.49,2.49,0,0,0,130.1,12a3.66,3.66,0,0,0-1.86.23,7.9,7.9,0,0,0-1,.43l.2.2.49.47a3.65,3.65,0,0,0,1.48.91,2.84,2.84,0,0,0,1.59-.15,4.25,4.25,0,0,0,.78-.38,2,2,0,0,0-.1-.23A2.73,2.73,0,0,0,131.38,12.91Z"/><path class="cls-1" d="M132.18,13.18l.13.22a4.09,4.09,0,0,0,.77-.4,2.47,2.47,0,0,0,1-1.3,4.19,4.19,0,0,0-.2-2,5.46,5.46,0,0,0-.3-.81l-.16-.32a7.87,7.87,0,0,0-.76.78,4.45,4.45,0,0,0-1,1.65,2.67,2.67,0,0,0,.2,1.63C132,12.84,132.11,13,132.18,13.18Z"/><path class="cls-1" d="M133,16.82a2,2,0,0,0-.69-.49,5.33,5.33,0,0,0-2.91.17,7,7,0,0,0,.55.78,4.17,4.17,0,0,0,1.3,1.14,2.81,2.81,0,0,0,1.61.12,4.38,4.38,0,0,0,.83-.24,3.66,3.66,0,0,0-.28-.82A3,3,0,0,0,133,16.82Z"/><path class="cls-1" d="M133.88,16.48a3.41,3.41,0,0,0,.07.8,4.29,4.29,0,0,0,.26.84,3.93,3.93,0,0,0,.82-.27,2.29,2.29,0,0,0,1.21-1.1,2.71,2.71,0,0,0,.22-1,5.16,5.16,0,0,0-.06-1,9,9,0,0,0-.26-1.19A6.15,6.15,0,0,0,134,15.64,2,2,0,0,0,133.88,16.48Z"/><path class="cls-1" d="M133.68,21a3.64,3.64,0,0,0-1.83-.39,8.41,8.41,0,0,0-1.09.07s0,.1.12.25.19.37.31.61a3.57,3.57,0,0,0,1.09,1.35,2.91,2.91,0,0,0,1.56.38,4.41,4.41,0,0,0,.86-.1,2.51,2.51,0,0,0-.14-.85A2.36,2.36,0,0,0,133.68,21Z"/><path class="cls-1" d="M135.53,20.61a2.66,2.66,0,0,0-.35,1.61c0,.49.11.87.11.87a3.94,3.94,0,0,0,.86-.12,2.35,2.35,0,0,0,1.38-.88,4.4,4.4,0,0,0,.5-2,7,7,0,0,0,0-.85l0-.36a7.43,7.43,0,0,0-1,.49A4.23,4.23,0,0,0,135.53,20.61Z"/><path class="cls-1" d="M134.93,28.15a4.34,4.34,0,0,0,0-.85,2.25,2.25,0,0,0-.67-1.45,3.65,3.65,0,0,0-1.72-.7,8,8,0,0,0-1.07-.11,2.63,2.63,0,0,1,.06.27,6.71,6.71,0,0,0,.19.66,4.08,4.08,0,0,0,.86,1.5,2.77,2.77,0,0,0,1.47.64A4.38,4.38,0,0,0,134.93,28.15Z"/><path class="cls-1" d="M138.87,24.48a8.85,8.85,0,0,0-1.05.31,4.21,4.21,0,0,0-1.66,1,2.9,2.9,0,0,0-.6,1.53,4.48,4.48,0,0,0,0,.88,3.74,3.74,0,0,0,.87,0,2.33,2.33,0,0,0,1.51-.64,3.79,3.79,0,0,0,.81-1.87c.06-.33.11-.63.13-.85A2.88,2.88,0,0,0,138.87,24.48Z"/><path class="cls-1" d="M134.34,33.11a4.24,4.24,0,0,0,.14-.85,2.13,2.13,0,0,0-.41-1.54,5.46,5.46,0,0,0-2.64-1.26,5.75,5.75,0,0,0,.71,2.59,2.84,2.84,0,0,0,1.35.87A4.74,4.74,0,0,0,134.34,33.11Z"/><path class="cls-1" d="M135.09,32.37a4.59,4.59,0,0,0-.17.86,4.19,4.19,0,0,0,.86.16,2.29,2.29,0,0,0,1.58-.38,3.73,3.73,0,0,0,1.11-1.72,9.27,9.27,0,0,0,.34-1.16A6.12,6.12,0,0,0,136,31,3.14,3.14,0,0,0,135.09,32.37Z"/><path class="cls-1" d="M132.12,37.56a4.24,4.24,0,0,0,.8.33,1.59,1.59,0,0,0,.11-.23,2.5,2.5,0,0,0,.18-.58,2.3,2.3,0,0,0-.15-1.58,3.61,3.61,0,0,0-1.41-1.23,8.65,8.65,0,0,0-1-.46s0,.11,0,.28,0,.41,0,.69a3.5,3.5,0,0,0,.33,1.7A2.7,2.7,0,0,0,132.12,37.56Z"/><path class="cls-1" d="M136.74,35.66a4.23,4.23,0,0,0-1.86.39,2.66,2.66,0,0,0-1.08,1.24c-.1.23-.19.43-.24.57s-.09.25-.09.25a4,4,0,0,0,.82.3,2.36,2.36,0,0,0,1.64-.11,4.27,4.27,0,0,0,1.38-1.5,4.64,4.64,0,0,0,.39-.77l.13-.33A7.73,7.73,0,0,0,136.74,35.66Z"/><path class="cls-1" d="M129.2,38a6.27,6.27,0,0,0-.23.94,7.86,7.86,0,0,0-.07.87,2.45,2.45,0,0,0,.1.86,2.8,2.8,0,0,0,1,1.27,4.44,4.44,0,0,0,.73.46,4.15,4.15,0,0,0,.42-.75,2.6,2.6,0,0,0,.21-.75,1.85,1.85,0,0,0-.09-.84C130.87,38.93,129.2,38,129.2,38Z"/><path class="cls-1" d="M133,40.87a2.11,2.11,0,0,0-.73.46,4.28,4.28,0,0,0-.55.59,4.9,4.9,0,0,0-.45.75,4.18,4.18,0,0,0,.75.44,2.35,2.35,0,0,0,1.63.16,3,3,0,0,0,.88-.49,5.3,5.3,0,0,0,.74-.76,8.28,8.28,0,0,0,.71-1A6.16,6.16,0,0,0,133,40.87Z"/><path class="cls-1" d="M127,41.82l-.12.26c-.07.16-.14.39-.24.64a3.55,3.55,0,0,0-.27,1.71,2.77,2.77,0,0,0,.76,1.41,4.28,4.28,0,0,0,.65.58l.18-.18a2.88,2.88,0,0,0,.75-2,3.75,3.75,0,0,0-.94-1.63A8.22,8.22,0,0,0,127,41.82Z"/><path class="cls-1" d="M130.27,45.32a2.74,2.74,0,0,0-1.44.82c-.17.18-.31.35-.41.46l-.16.2a3.77,3.77,0,0,0,.67.56,2.38,2.38,0,0,0,1.58.44,4.3,4.3,0,0,0,1.8-1,5.2,5.2,0,0,0,.62-.59l.24-.27a9.49,9.49,0,0,0-1-.4A4.21,4.21,0,0,0,130.27,45.32Z"/><path class="cls-1" d="M123.75,46.08a5.49,5.49,0,0,0-.36.81,2.5,2.5,0,0,0-.19.84,2.8,2.8,0,0,0,.52,1.52,4.76,4.76,0,0,0,.54.68,4,4,0,0,0,.64-.58,2.15,2.15,0,0,0,.64-1.46,5.36,5.36,0,0,0-1.28-2.62A6.51,6.51,0,0,0,123.75,46.08Z"/><path class="cls-1" d="M125.32,49.82a4.79,4.79,0,0,0-.68.56,4.15,4.15,0,0,0,.57.66,2.37,2.37,0,0,0,1.48.69,3.11,3.11,0,0,0,1-.18,6.87,6.87,0,0,0,.94-.47,9.84,9.84,0,0,0,1-.69,6.08,6.08,0,0,0-2.77-1.14A2.93,2.93,0,0,0,125.32,49.82Z"/><path class="cls-1" d="M120.32,48.93a3.65,3.65,0,0,0-.81,1.53,2.76,2.76,0,0,0,.25,1.58,3.75,3.75,0,0,0,.43.76A2.92,2.92,0,0,0,121.78,51,5.4,5.4,0,0,0,121,48.2,8.21,8.21,0,0,0,120.32,48.93Z"/><path class="cls-1" d="M121.24,52.87c-.43.23-.75.44-.75.44a3.84,3.84,0,0,0,.45.74,2.29,2.29,0,0,0,1.35.94,4.44,4.44,0,0,0,2-.32,7.52,7.52,0,0,0,1.08-.54,6,6,0,0,0-2.52-1.56A2.65,2.65,0,0,0,121.24,52.87Z"/><path class="cls-1" d="M60.68,5.24c0,1.79-1.41,3.53-3.53,5.48l-.9.84v.08H61v.9H54.51v-.72l1.08-1c2.3-2,3.64-4,3.67-5.48s-.54-2.24-2-2.24a3.9,3.9,0,0,0-2.46,1V3a6.45,6.45,0,0,1,2.69-.69C59.6,2.35,60.68,3.42,60.68,5.24Z"/><path class="cls-1" d="M62.32,7.65c0-3.23,1.53-5.34,3.52-5.34s3.37,2.14,3.37,5.2c0,3.27-1.34,5.22-3.5,5.21C63.78,12.7,62.32,10.82,62.32,7.65Zm5.47-.09c0-2.36-.66-4.47-2-4.47-1.16,0-2,1.94-2,4.57s.81,4.28,2,4.28S67.79,10,67.79,7.56Z"/><path class="cls-1" d="M76.55,5.24c0,1.79-1.41,3.53-3.53,5.48l-.9.84v.08h4.7v.9H70.38v-.72l1.08-1c2.3-2,3.64-4,3.66-5.48s-.53-2.24-2-2.24a3.9,3.9,0,0,0-2.46,1V3a6.36,6.36,0,0,1,2.69-.69C75.47,2.35,76.55,3.42,76.55,5.24Z"/><path class="cls-1" d="M78.18,7.65c0-3.23,1.53-5.34,3.53-5.34s3.36,2.14,3.36,5.2c0,3.27-1.34,5.22-3.5,5.21C79.65,12.7,78.18,10.82,78.18,7.65Zm5.47-.09c0-2.36-.65-4.47-2-4.47-1.16,0-2,1.94-2,4.57s.8,4.28,2,4.28S83.65,10,83.65,7.56Z"/><path class="cls-1" d="M54.49,31.73l-.71,1.48a6.86,6.86,0,0,1-5.32-3.9c-.79,2.19-2.78,3.46-6.21,4l-.15-.46c2.94-.74,4.34-1.93,4.95-3.52H42.57V28.7h4.67a7.73,7.73,0,0,0,.21-1.4l1.39.11a5.9,5.9,0,0,1-.2,1.29h5.28v.61H49C50.5,31.29,53,31.6,54.49,31.73ZM54.08,27H42.44v-.61h5.09V25.09H43.78v-.62h3.75v-1.3H42.92v-.61h3.39a18.38,18.38,0,0,0-1.71-1.79l.26-.43a13,13,0,0,1,2.71,1.51l-.64.71h2a9.29,9.29,0,0,0,1.1-2.3l1.36.66a9.89,9.89,0,0,1-1.66,1.64h3.82v.61H48.82v1.3h3.92v.62H48.82v1.34h5.26Z"/><path class="cls-1" d="M67.38,21V33.13H66.17v-.7H57.6v.74H56.4V21Zm-1.21.62H57.6V31.81h8.57Zm-8,9-.39-1.11a26.07,26.07,0,0,0,4.24-1.14l.17.44A19.22,19.22,0,0,1,58.2,30.67ZM62,24.32H57.86v-.61H62c0-.58,0-1.17,0-1.73h1.1c0,.58,0,1.17,0,1.73h1.32c-.27-.55-.68-1.26-.93-1.68l.39-.29a8,8,0,0,1,1.47,1.49l-.67.48h1.25v.61h-2.8a24,24,0,0,0,.36,3.13,10.43,10.43,0,0,0,.82-2.53l1.06.39a11.17,11.17,0,0,1-1.53,3.37,2,2,0,0,0,.94,1.26c.3.11.34-.53.34-2h.49c.6,2.75.06,3.43-.82,3.27A2.56,2.56,0,0,1,63,29.64a8.84,8.84,0,0,1-2.68,1.85l-.23-.43a8.69,8.69,0,0,0,2.57-2.28A18.2,18.2,0,0,1,62,24.32Zm-3.74,3.91v-3h3.29v3Zm1-.57h1.27V25.83H59.3Z"/><path class="cls-1" d="M75,29H71.24l-1,3.08H68.89l3.54-10H74l3.58,10H76Zm-1.86-5.7h-.08c-.16.56-.35,1.13-.56,1.69l-1,3.19h3.21l-1.12-3.36C73.43,24.28,73.27,23.78,73.14,23.27Z"/><path class="cls-1" d="M87.56,23.45h-.08c-.93,2.81-2,5.79-3.1,8.6H83.17c-1-2.75-2.24-6.33-3.07-8.6H80v8.6H78.89V22h1.84c1.16,2.88,2.27,5.84,3.14,8.21H84c.91-2.33,2.07-5.56,3-8.21h1.93v10H87.56Z"/><path class="cls-1" d="M93.75,28.07H92.49v4H91.1v-10c.81-.05,1.79-.09,2.68-.09,2.23,0,3.88.79,3.88,2.9S96.17,28.07,93.75,28.07Zm-.16-5.16a10.14,10.14,0,0,0-1.1.06v4.2h1.14c1.65,0,2.61-.63,2.61-2.21S94.94,22.91,93.59,22.91Z"/><path class="cls-1" d="M48.65,49l-.43,1.45c-1.15.08-2.46.14-3.7.1-2.72-.1-4.62-.55-5.86-1.82a7.7,7.7,0,0,1-2.2,2.17l-.3-.39A7.5,7.5,0,0,0,38.07,48,7.9,7.9,0,0,1,37,45l.48-.13a7.76,7.76,0,0,0,1,2.31,14.42,14.42,0,0,0,.8-3.64H38a6.41,6.41,0,0,1-.58.94l-1-.41a31.74,31.74,0,0,0,2.18-4.44H36.42V39h3.77a36.5,36.5,0,0,1-1.8,3.89h.76l.3-.22,1.06.39A12.84,12.84,0,0,1,39.11,48c1.15,1.07,2.8,1.36,5.15,1.36A40.62,40.62,0,0,0,48.65,49Zm-5.31-7.38h-3V41h3V39.91H41V39.3h2.36V38.08h1.17V39.3h2.67V41h1.17v.59H47.18v1.82H44.51v1.08H47.3v.61H44.51v1.28h3.42V47H44.51v1.81H43.34V47h-3v-.61h3V45.13H40.82v-.61h2.52V43.44H40.92v-.62h2.42ZM44.51,41H46.1V39.91H44.51Zm0,1.79H46.1v-1.2H44.51Z"/><path class="cls-1" d="M50.1,42l-.29-.38a7.64,7.64,0,0,0,2.24-3.65l1.32.37a6.51,6.51,0,0,1-.62,1.06h3.5V40H53.91a7.3,7.3,0,0,1,1,1.23l-1,.37a8.85,8.85,0,0,0-.63-1.6h-1A9.72,9.72,0,0,1,50.1,42Zm12.19,7-.72,1.35a8.4,8.4,0,0,1-4.94-3.22v3.67H55.46V47.16c-1,1.43-3.41,2.65-5.46,3.13l-.16-.44A10,10,0,0,0,54.34,47H50.23v-.62h5.23V45.19a5.87,5.87,0,0,1-1.15.57l-.23-.43a3.45,3.45,0,0,0,1.21-1.08,23.67,23.67,0,0,1-4.69,1.29l-.31-1.13c.78,0,1.45-.1,2.08-.16V42.43h-1.9v-.62h5v.62h-1.9V44.1c.57-.1,1.16-.21,1.8-.36l.08.3a5.61,5.61,0,0,0,.28-2.36h4.37v2c0,.5.19.58.64.58s.61-.12.59-1.51h.49c.59,2.14.24,2.48-1.1,2.5s-1.75-.27-1.75-1.44V42.29h-2.1a3.11,3.11,0,0,1-1.25,2.82h1.06v1.24h5.25V47H57.13A9.61,9.61,0,0,0,62.29,49Zm-6.82-7.85a8.2,8.2,0,0,0,1.82-3.25l1.26.42a8.46,8.46,0,0,1-.63,1h4.13V40H59.39a5.26,5.26,0,0,1,1,1.08l-1,.41A10.4,10.4,0,0,0,58.7,40H57.44a9.6,9.6,0,0,1-1.65,1.53Zm1.6,1.59.41-.17a8.08,8.08,0,0,1,1,2.16l-1,.26A18.11,18.11,0,0,0,57.07,42.73Z"/><path class="cls-1" d="M76,49.18l-1,1.56c-1.31-.6-4.15-3.19-4.88-8-.68,4.16-3.11,7-6.29,8.06l-.24-.47c2.57-1.35,4.56-3.59,5.15-7.87H64v-.76h4.8c0-.31,0-.64.07-1,0-.84.06-1.79.06-2.69h1.4c0,1.08,0,2.07-.08,3.12l0,.53H75.4v.76H70.59A9.69,9.69,0,0,0,76,49.18Z"/><path class="cls-1" d="M79,45.34h3.58v4.94H81.45v-.93H79v1.31H77.82V40.29h1.4A13.42,13.42,0,0,0,79.66,38l1.35.34a12.11,12.11,0,0,1-1.16,1.94h2.44V44.1H79Zm0-1.86h2.18V40.91H79ZM79,46v2.78h2.46V46Zm7.51-6.42v2H89v6.64c0,1-1,1.44-2.32.54l.12-.48c.88.15,1,.07,1-.45V42.15H86.5v8.6H85.32v-8.6H84.24V49.5H83.09v-8h2.23v-2H82.44v-.62h7v.62Z"/><path class="cls-1" d="M103.19,49.33l-.67,1.41a7,7,0,0,1-5.28-3.57c-.88,2.38-2.87,3.32-6.1,3.77L91,50.48c2.8-.62,4.27-1.63,4.91-3.36H91.2V46.5h4.88a7.37,7.37,0,0,0,.2-1.41l1.4.13a9.11,9.11,0,0,1-.24,1.28h1.74c-.31-.33-.74-.76-1.11-1.09l.19-.34a6.48,6.48,0,0,1,1.75.87l-.45.56H103v.62H97.81C99,48.55,101.23,49.17,103.19,49.33ZM92.56,42.8H91.37v-.59h3.16V41H93.29v.66h-1.1V38.37h1.1v2h1.24V38.16h1.15v7.63H94.53v-3h-.86a3.58,3.58,0,0,1-2.11,3.31l-.24-.39A3.29,3.29,0,0,0,92.56,42.8Zm8.22-3.33H98.55a3.2,3.2,0,0,1-.27.25,6.74,6.74,0,0,1,1.08.59l-.59.64c-.25-.31-.59-.7-.85-1a7,7,0,0,1-.75.51,5,5,0,0,1,.85.72l-.7.52c-.19-.38-.37-.72-.56-1a7,7,0,0,1-.79.35l-.19-.38a6.48,6.48,0,0,0,2.54-2.64l1.15.39-.39.49H101l.25-.17,1.16.65a9.73,9.73,0,0,1-4.73,3h2.79v-1h1.12v1h1.48V43h-1.48v1.62c0,.95-1,1.47-2.61.34l.14-.42c1.27.27,1.35.17,1.35-.36V43H96.64v-.31c-.25.05-.51.11-.77.15l-.11-.46A9.24,9.24,0,0,0,100.78,39.47ZM99.14,44l-.64.81a16.83,16.83,0,0,0-1.3-1.37l.22-.37A6.66,6.66,0,0,1,99.14,44Z"/></g></g></svg>