<svg xmlns="http://www.w3.org/2000/svg" viewBox="0 0 138.87 55.02"><defs><style>.cls-1{fill:#fff;}</style></defs><g id="圖層_2" data-name="圖層 2"><g id="圖層_1-2" data-name="圖層 1"><path class="cls-1" d="M20,.27c-.37.19-.73.39-1.09.59l.5.89c.07-.13.13-.27.19-.4A10.15,10.15,0,0,0,20,.27,6.22,6.22,0,0,0,18.83,0l-.46,0,.49.86C19.22.66,19.58.46,20,.27Z"/><path class="cls-1" d="M18.49,2.84a3.11,3.11,0,0,0,.87-1.09l-.5-.89A30.62,30.62,0,0,0,16,2.72h0A5.46,5.46,0,0,0,16.9,3,2.13,2.13,0,0,0,18.49,2.84Z"/><path class="cls-1" d="M16.9.3A2.25,2.25,0,0,0,16,1.75a4.14,4.14,0,0,0,0,1A30.62,30.62,0,0,1,18.86.86L18.37,0A2.52,2.52,0,0,0,16.9.3Z"/><path class="cls-1" d="M12.56,5.23a5,5,0,0,0,.62-.62,2.64,2.64,0,0,0,.73-1.47,4.17,4.17,0,0,0-.37-1.87,8.06,8.06,0,0,0-.46-1l-.25.25a5.16,5.16,0,0,0-.55.66A4.09,4.09,0,0,0,11.43,3,2.34,2.34,0,0,0,12,4.6,3.74,3.74,0,0,0,12.56,5.23Z"/><path class="cls-1" d="M17.36,6.28l.25-.13a10.14,10.14,0,0,0-.81-.73,3.62,3.62,0,0,0-1.68-.82,2.39,2.39,0,0,0-1.52.47,3.74,3.74,0,0,0-.63.59,4.57,4.57,0,0,0,.62.61A2.66,2.66,0,0,0,15,6.93a3.66,3.66,0,0,0,1.7-.36Z"/><path class="cls-1" d="M8.52,8.54a4.38,4.38,0,0,0,.69.52,4.59,4.59,0,0,0,.53-.7,4.11,4.11,0,0,0,.33-.73,2.41,2.41,0,0,0,.14-.85A6.12,6.12,0,0,0,8.9,4.1s-1.3,1.76-1.16,3A2.37,2.37,0,0,0,8.52,8.54Z"/><path class="cls-1" d="M14.34,9.13A5.37,5.37,0,0,0,11.64,8a1.78,1.78,0,0,0-.8.24,3,3,0,0,0-.61.48,3.82,3.82,0,0,0-.54.67,4.38,4.38,0,0,0,.71.51,2.77,2.77,0,0,0,1.55.42,4.12,4.12,0,0,0,1.61-.65A6.21,6.21,0,0,0,14.34,9.13Z"/><path class="cls-1" d="M5.79,13a3.78,3.78,0,0,0,.77.4s.05-.08.12-.22.16-.34.26-.57A2.67,2.67,0,0,0,7.15,11a4.45,4.45,0,0,0-1-1.65,7.69,7.69,0,0,0-.77-.77l-.15.31A4.46,4.46,0,0,0,5,9.68a4.36,4.36,0,0,0-.2,2A2.38,2.38,0,0,0,5.79,13Z"/><path class="cls-1" d="M11.43,12.82l.19-.2a7.9,7.9,0,0,0-1-.43A3.62,3.62,0,0,0,8.77,12a2.41,2.41,0,0,0-1.28.95,2.38,2.38,0,0,0-.31.53c-.06.14-.09.23-.09.23a4.25,4.25,0,0,0,.78.38,2.72,2.72,0,0,0,1.58.15,3.62,3.62,0,0,0,1.49-.91Z"/><path class="cls-1" d="M3.83,17.85a4.11,4.11,0,0,0,.83.27,4.29,4.29,0,0,0,.26-.84,4.86,4.86,0,0,0,.07-.8,2.23,2.23,0,0,0-.15-.84,6.07,6.07,0,0,0-2.12-2.11,10.22,10.22,0,0,0-.25,1.19,3.78,3.78,0,0,0,.15,2A2.35,2.35,0,0,0,3.83,17.85Z"/><path class="cls-1" d="M7.66,18.42A4.17,4.17,0,0,0,9,17.28a5.65,5.65,0,0,0,.55-.78,5.27,5.27,0,0,0-2.91-.16,2,2,0,0,0-.68.48,3.46,3.46,0,0,0-.42.66,4.41,4.41,0,0,0-.28.82,4.35,4.35,0,0,0,.84.24A2.77,2.77,0,0,0,7.66,18.42Z"/><path class="cls-1" d="M1.33,22.09A2.4,2.4,0,0,0,2.72,23a3.87,3.87,0,0,0,.86.12s.07-.37.11-.86a2.69,2.69,0,0,0-.36-1.62,4.2,4.2,0,0,0-1.44-1.23,8.2,8.2,0,0,0-1-.49l0,.36a5.46,5.46,0,0,0,0,.85A4.4,4.4,0,0,0,1.33,22.09Z"/><path class="cls-1" d="M4.3,22.32a2.85,2.85,0,0,0-.14.85,4.6,4.6,0,0,0,.87.1,2.77,2.77,0,0,0,1.55-.38,3.47,3.47,0,0,0,1.09-1.35c.13-.24.25-.45.32-.61a1.52,1.52,0,0,0,.11-.25A8.15,8.15,0,0,0,7,20.61,3.62,3.62,0,0,0,5.19,21,2.43,2.43,0,0,0,4.3,22.32Z"/><path class="cls-1" d="M1,27.55a2.31,2.31,0,0,0,1.51.64,3.74,3.74,0,0,0,.87,0,4.11,4.11,0,0,0-.05-.88,2.75,2.75,0,0,0-.6-1.53,4.24,4.24,0,0,0-1.65-1,8.85,8.85,0,0,0-1-.31s0,.13,0,.35.07.52.14.85A3.79,3.79,0,0,0,1,27.55Z"/><path class="cls-1" d="M3.94,28.15a4.38,4.38,0,0,0,.87,0,2.8,2.8,0,0,0,1.47-.64A4.08,4.08,0,0,0,7.14,26a6.71,6.71,0,0,0,.19-.66A2.63,2.63,0,0,1,7.39,25a8.22,8.22,0,0,0-1.08.11,3.62,3.62,0,0,0-1.71.7,2.26,2.26,0,0,0-.68,1.45A3.87,3.87,0,0,0,3.94,28.15Z"/><path class="cls-1" d="M1.51,33a2.28,2.28,0,0,0,1.58.38,4,4,0,0,0,.85-.16,3.78,3.78,0,0,0-.17-.86A3,3,0,0,0,2.91,31a6.09,6.09,0,0,0-2.86-.83,9.27,9.27,0,0,0,.34,1.16A3.83,3.83,0,0,0,1.51,33Z"/><path class="cls-1" d="M4.52,33.11a4.56,4.56,0,0,0,.85-.19,2.82,2.82,0,0,0,1.36-.87,5.82,5.82,0,0,0,.7-2.59A5.31,5.31,0,0,0,4.8,30.72a2.13,2.13,0,0,0-.41,1.54A3.87,3.87,0,0,0,4.52,33.11Z"/><path class="cls-1" d="M4.58,38.41a3.72,3.72,0,0,0,.81-.31,1.74,1.74,0,0,0-.08-.24c-.06-.14-.15-.34-.24-.57A2.68,2.68,0,0,0,4,36a4.38,4.38,0,0,0-1.87-.38A7.73,7.73,0,0,0,1,35.7l.13.33a5.26,5.26,0,0,0,.4.77,4.24,4.24,0,0,0,1.37,1.5A2.44,2.44,0,0,0,4.58,38.41Z"/><path class="cls-1" d="M5.84,37.66a1.59,1.59,0,0,0,.11.23,4.24,4.24,0,0,0,.8-.33,2.7,2.7,0,0,0,1.17-1.08,3.62,3.62,0,0,0,.32-1.71c0-.27,0-.51,0-.68s0-.28,0-.28a8.31,8.31,0,0,0-1,.46A3.69,3.69,0,0,0,5.8,35.5a2.43,2.43,0,0,0-.15,1.58A2.46,2.46,0,0,0,5.84,37.66Z"/><path class="cls-1" d="M6.88,43.11a3.77,3.77,0,0,0,.75-.44,4.07,4.07,0,0,0-.45-.75,4.19,4.19,0,0,0-.54-.59,2.21,2.21,0,0,0-.73-.46,6.2,6.2,0,0,0-3,.17,9.21,9.21,0,0,0,.72,1,5.88,5.88,0,0,0,.74.76,2.76,2.76,0,0,0,.88.49A2.33,2.33,0,0,0,6.88,43.11Z"/><path class="cls-1" d="M7.72,41.62a4.15,4.15,0,0,0,.42.75,4.27,4.27,0,0,0,.74-.46,2.8,2.8,0,0,0,1-1.27,2.47,2.47,0,0,0,.09-.86,4.79,4.79,0,0,0-.07-.87A5.66,5.66,0,0,0,9.67,38S8,38.93,7.61,40a2,2,0,0,0-.1.84A3,3,0,0,0,7.72,41.62Z"/><path class="cls-1" d="M10.6,46.8a2,2,0,0,0-.15-.2c-.11-.11-.25-.28-.42-.46a2.71,2.71,0,0,0-1.43-.82,4.25,4.25,0,0,0-1.89.25,8.78,8.78,0,0,0-1,.4l.23.27a7.4,7.4,0,0,0,.62.59,4.36,4.36,0,0,0,1.8,1,2.31,2.31,0,0,0,1.58-.45A4,4,0,0,0,10.6,46.8Z"/><path class="cls-1" d="M10.88,46.24l.17.18a4.28,4.28,0,0,0,.65-.58,2.77,2.77,0,0,0,.76-1.41,3.55,3.55,0,0,0-.27-1.71c-.09-.25-.17-.49-.24-.64s-.11-.26-.11-.26a9,9,0,0,0-.78.76,3.63,3.63,0,0,0-.93,1.63,2.88,2.88,0,0,0,.75,2Z"/><path class="cls-1" d="M14.22,50.38a3.77,3.77,0,0,0-.67-.56A2.94,2.94,0,0,0,12,49.25a6.08,6.08,0,0,0-2.77,1.14,11.47,11.47,0,0,0,1,.69,7,7,0,0,0,.95.47,3.3,3.3,0,0,0,1,.18A2.37,2.37,0,0,0,13.65,51,4.15,4.15,0,0,0,14.22,50.38Z"/><path class="cls-1" d="M14.6,49.93a4.4,4.4,0,0,0,.55-.68,2.71,2.71,0,0,0,.51-1.52,2.28,2.28,0,0,0-.19-.84,5.48,5.48,0,0,0-.35-.81,7.27,7.27,0,0,0-.52-.81,5.29,5.29,0,0,0-1.27,2.62A2.1,2.1,0,0,0,14,49.35,4,4,0,0,0,14.6,49.93Z"/><path class="cls-1" d="M16,52.57a6,6,0,0,0-2.52,1.56,7.34,7.34,0,0,0,1.09.54,4.38,4.38,0,0,0,2,.32,2.34,2.34,0,0,0,1.36-.94,4.58,4.58,0,0,0,.45-.74s-.32-.21-.76-.44A2.65,2.65,0,0,0,16,52.57Z"/><path class="cls-1" d="M18,52.34a2.5,2.5,0,0,0,.73.46,4.15,4.15,0,0,0,.42-.75,2.9,2.9,0,0,0,.26-1.59,3.56,3.56,0,0,0-.82-1.53,9.35,9.35,0,0,0-.62-.73A5.37,5.37,0,0,0,17.08,51,2.39,2.39,0,0,0,18,52.34Z"/><path class="cls-1" d="M118.91.27l1.1.59.48-.86L120,0a6.22,6.22,0,0,0-1.13.23,10.15,10.15,0,0,0,.4,1.08c.06.13.12.27.19.4L120,.86Z"/><path class="cls-1" d="M120.37,2.84A2.17,2.17,0,0,0,122,3a5.12,5.12,0,0,0,.91-.25h0A32,32,0,0,0,120,.86l-.51.89A3.23,3.23,0,0,0,120.37,2.84Z"/><path class="cls-1" d="M122.88,2.72a4.45,4.45,0,0,0-.06-1A2.24,2.24,0,0,0,122,.3a2.55,2.55,0,0,0-1.48-.3L120,.86A32,32,0,0,1,122.88,2.72Z"/><path class="cls-1" d="M125.26,5.07a2.38,2.38,0,0,0-1.52-.47,3.62,3.62,0,0,0-1.68.82,9,9,0,0,0-.8.73l.25.13.62.29a3.62,3.62,0,0,0,1.69.36,2.6,2.6,0,0,0,1.45-.66,4.57,4.57,0,0,0,.62-.61A3.74,3.74,0,0,0,125.26,5.07Z"/><path class="cls-1" d="M125.68,4.61a5,5,0,0,0,.62.62,3.74,3.74,0,0,0,.59-.63A2.37,2.37,0,0,0,127.44,3a4.11,4.11,0,0,0-.86-1.85A4.67,4.67,0,0,0,126,.53l-.26-.25a8.06,8.06,0,0,0-.46,1A4.31,4.31,0,0,0,125,3.14,2.64,2.64,0,0,0,125.68,4.61Z"/><path class="cls-1" d="M128,8.26a1.74,1.74,0,0,0-.81-.24,5.37,5.37,0,0,0-2.7,1.11,5.93,5.93,0,0,0,.79.56,4.07,4.07,0,0,0,1.6.65,2.83,2.83,0,0,0,1.56-.42,4.56,4.56,0,0,0,.7-.51,4,4,0,0,0-.53-.67A2.94,2.94,0,0,0,128,8.26Z"/><path class="cls-1" d="M129.13,8.36a4.22,4.22,0,0,0,.52.7,3.91,3.91,0,0,0,.69-.52,2.3,2.3,0,0,0,.78-1.44c.14-1.25-1.16-3-1.16-3a6.09,6.09,0,0,0-1.3,2.69,2.4,2.4,0,0,0,.13.85A3.52,3.52,0,0,0,129.13,8.36Z"/><path class="cls-1" d="M131.38,12.91A2.49,2.49,0,0,0,130.1,12a3.66,3.66,0,0,0-1.86.23,7.9,7.9,0,0,0-1,.43l.2.2.49.47a3.65,3.65,0,0,0,1.48.91,2.84,2.84,0,0,0,1.59-.15,4.25,4.25,0,0,0,.78-.38,2,2,0,0,0-.1-.23A2.73,2.73,0,0,0,131.38,12.91Z"/><path class="cls-1" d="M132.18,13.18l.13.22a4.09,4.09,0,0,0,.77-.4,2.47,2.47,0,0,0,1-1.3,4.19,4.19,0,0,0-.2-2,5.46,5.46,0,0,0-.3-.81l-.16-.32a7.87,7.87,0,0,0-.76.78,4.45,4.45,0,0,0-1,1.65,2.67,2.67,0,0,0,.2,1.63C132,12.84,132.11,13,132.18,13.18Z"/><path class="cls-1" d="M133,16.82a2,2,0,0,0-.69-.49,5.33,5.33,0,0,0-2.91.17,7,7,0,0,0,.55.78,4.17,4.17,0,0,0,1.3,1.14,2.81,2.81,0,0,0,1.61.12,4.38,4.38,0,0,0,.83-.24,3.66,3.66,0,0,0-.28-.82A3,3,0,0,0,133,16.82Z"/><path class="cls-1" d="M133.88,16.48a3.41,3.41,0,0,0,.07.8,4.29,4.29,0,0,0,.26.84,3.93,3.93,0,0,0,.82-.27,2.29,2.29,0,0,0,1.21-1.1,2.71,2.71,0,0,0,.22-1,5.16,5.16,0,0,0-.06-1,9,9,0,0,0-.26-1.19A6.15,6.15,0,0,0,134,15.64,2,2,0,0,0,133.88,16.48Z"/><path class="cls-1" d="M133.68,21a3.64,3.64,0,0,0-1.83-.39,8.41,8.41,0,0,0-1.09.07s0,.1.12.25.19.37.31.61a3.57,3.57,0,0,0,1.09,1.35,2.91,2.91,0,0,0,1.56.38,4.41,4.41,0,0,0,.86-.1,2.51,2.51,0,0,0-.14-.85A2.36,2.36,0,0,0,133.68,21Z"/><path class="cls-1" d="M135.53,20.61a2.66,2.66,0,0,0-.35,1.61c0,.49.11.87.11.87a3.94,3.94,0,0,0,.86-.12,2.35,2.35,0,0,0,1.38-.88,4.4,4.4,0,0,0,.5-2,7,7,0,0,0,0-.85l0-.36a7.43,7.43,0,0,0-1,.49A4.23,4.23,0,0,0,135.53,20.61Z"/><path class="cls-1" d="M134.93,28.15a4.34,4.34,0,0,0,0-.85,2.25,2.25,0,0,0-.67-1.45,3.65,3.65,0,0,0-1.72-.7,8,8,0,0,0-1.07-.11,2.63,2.63,0,0,1,.06.27,6.71,6.71,0,0,0,.19.66,4.08,4.08,0,0,0,.86,1.5,2.77,2.77,0,0,0,1.47.64A4.38,4.38,0,0,0,134.93,28.15Z"/><path class="cls-1" d="M138.87,24.48a8.85,8.85,0,0,0-1.05.31,4.21,4.21,0,0,0-1.66,1,2.9,2.9,0,0,0-.6,1.53,4.48,4.48,0,0,0,0,.88,3.74,3.74,0,0,0,.87,0,2.33,2.33,0,0,0,1.51-.64,3.79,3.79,0,0,0,.81-1.87c.06-.33.11-.63.13-.85A2.88,2.88,0,0,0,138.87,24.48Z"/><path class="cls-1" d="M134.34,33.11a4.24,4.24,0,0,0,.14-.85,2.13,2.13,0,0,0-.41-1.54,5.46,5.46,0,0,0-2.64-1.26,5.75,5.75,0,0,0,.71,2.59,2.84,2.84,0,0,0,1.35.87A4.74,4.74,0,0,0,134.34,33.11Z"/><path class="cls-1" d="M135.09,32.37a4.59,4.59,0,0,0-.17.86,4.19,4.19,0,0,0,.86.16,2.29,2.29,0,0,0,1.58-.38,3.73,3.73,0,0,0,1.11-1.72,9.27,9.27,0,0,0,.34-1.16A6.12,6.12,0,0,0,136,31,3.14,3.14,0,0,0,135.09,32.37Z"/><path class="cls-1" d="M132.12,37.56a4.24,4.24,0,0,0,.8.33,1.59,1.59,0,0,0,.11-.23,2.5,2.5,0,0,0,.18-.58,2.3,2.3,0,0,0-.15-1.58,3.61,3.61,0,0,0-1.41-1.23,8.65,8.65,0,0,0-1-.46s0,.11,0,.28,0,.41,0,.69a3.5,3.5,0,0,0,.33,1.7A2.7,2.7,0,0,0,132.12,37.56Z"/><path class="cls-1" d="M136.74,35.66a4.23,4.23,0,0,0-1.86.39,2.66,2.66,0,0,0-1.08,1.24c-.1.23-.19.43-.24.57s-.09.25-.09.25a4,4,0,0,0,.82.3,2.36,2.36,0,0,0,1.64-.11,4.27,4.27,0,0,0,1.38-1.5,4.64,4.64,0,0,0,.39-.77l.13-.33A7.73,7.73,0,0,0,136.74,35.66Z"/><path class="cls-1" d="M129.2,38a6.27,6.27,0,0,0-.23.94,7.86,7.86,0,0,0-.07.87,2.45,2.45,0,0,0,.1.86,2.8,2.8,0,0,0,1,1.27,4.44,4.44,0,0,0,.73.46,4.15,4.15,0,0,0,.42-.75,2.6,2.6,0,0,0,.21-.75,1.85,1.85,0,0,0-.09-.84C130.87,38.93,129.2,38,129.2,38Z"/><path class="cls-1" d="M133,40.87a2.11,2.11,0,0,0-.73.46,4.28,4.28,0,0,0-.55.59,4.9,4.9,0,0,0-.45.75,4.18,4.18,0,0,0,.75.44,2.35,2.35,0,0,0,1.63.16,3,3,0,0,0,.88-.49,5.3,5.3,0,0,0,.74-.76,8.28,8.28,0,0,0,.71-1A6.16,6.16,0,0,0,133,40.87Z"/><path class="cls-1" d="M127,41.82l-.12.26c-.07.16-.14.39-.24.64a3.55,3.55,0,0,0-.27,1.71,2.77,2.77,0,0,0,.76,1.41,4.28,4.28,0,0,0,.65.58l.18-.18a2.88,2.88,0,0,0,.75-2,3.75,3.75,0,0,0-.94-1.63A8.22,8.22,0,0,0,127,41.82Z"/><path class="cls-1" d="M130.27,45.32a2.74,2.74,0,0,0-1.44.82c-.17.18-.31.35-.41.46l-.16.2a3.77,3.77,0,0,0,.67.56,2.38,2.38,0,0,0,1.58.44,4.3,4.3,0,0,0,1.8-1,5.2,5.2,0,0,0,.62-.59l.24-.27a9.49,9.49,0,0,0-1-.4A4.21,4.21,0,0,0,130.27,45.32Z"/><path class="cls-1" d="M123.75,46.08a5.49,5.49,0,0,0-.36.81,2.5,2.5,0,0,0-.19.84,2.8,2.8,0,0,0,.52,1.52,4.76,4.76,0,0,0,.54.68,4,4,0,0,0,.64-.58,2.15,2.15,0,0,0,.64-1.46,5.36,5.36,0,0,0-1.28-2.62A6.51,6.51,0,0,0,123.75,46.08Z"/><path class="cls-1" d="M125.32,49.82a4.79,4.79,0,0,0-.68.56,4.15,4.15,0,0,0,.57.66,2.37,2.37,0,0,0,1.48.69,3.11,3.11,0,0,0,1-.18,6.87,6.87,0,0,0,.94-.47,9.84,9.84,0,0,0,1-.69,6.08,6.08,0,0,0-2.77-1.14A2.93,2.93,0,0,0,125.32,49.82Z"/><path class="cls-1" d="M120.32,48.93a3.65,3.65,0,0,0-.81,1.53,2.76,2.76,0,0,0,.25,1.58,3.75,3.75,0,0,0,.43.76A2.92,2.92,0,0,0,121.78,51,5.4,5.4,0,0,0,121,48.2,8.21,8.21,0,0,0,120.32,48.93Z"/><path class="cls-1" d="M121.24,52.87c-.43.23-.75.44-.75.44a3.84,3.84,0,0,0,.45.74,2.29,2.29,0,0,0,1.35.94,4.44,4.44,0,0,0,2-.32,7.52,7.52,0,0,0,1.08-.54,6,6,0,0,0-2.52-1.56A2.65,2.65,0,0,0,121.24,52.87Z"/><path class="cls-1" d="M60.68,5.24c0,1.79-1.41,3.53-3.53,5.48l-.9.84v.08H61v.9H54.51v-.72l1.08-1c2.3-2,3.64-4,3.67-5.48s-.54-2.24-2-2.24a3.9,3.9,0,0,0-2.46,1V3a6.45,6.45,0,0,1,2.69-.69C59.6,2.35,60.68,3.42,60.68,5.24Z"/><path class="cls-1" d="M62.32,7.65c0-3.23,1.53-5.34,3.52-5.34s3.37,2.14,3.37,5.2c0,3.27-1.34,5.22-3.5,5.21C63.78,12.7,62.32,10.82,62.32,7.65Zm5.47-.09c0-2.36-.66-4.47-2-4.47-1.16,0-2,1.94-2,4.57s.81,4.28,2,4.28S67.79,10,67.79,7.56Z"/><path class="cls-1" d="M76.55,5.24c0,1.79-1.41,3.53-3.53,5.48l-.9.84v.08h4.7v.9H70.38v-.72l1.08-1c2.3-2,3.64-4,3.66-5.48s-.53-2.24-2-2.24a3.9,3.9,0,0,0-2.46,1V3a6.36,6.36,0,0,1,2.69-.69C75.47,2.35,76.55,3.42,76.55,5.24Z"/><path class="cls-1" d="M78.18,7.65c0-3.23,1.54-5.34,3.53-5.34s3.37,2.14,3.37,5.2c0,3.27-1.34,5.22-3.5,5.21C79.65,12.7,78.18,10.82,78.18,7.65Zm5.47-.09c0-2.36-.65-4.47-2-4.47-1.16,0-2,1.94-2,4.57s.8,4.28,2,4.28S83.65,10,83.65,7.56Z"/><path class="cls-1" d="M42.74,23.32a13,13,0,0,1,2.75,1.81l-1,1.06c-.53-.72-1.49-1.83-2.06-2.44Zm2.2,3.7.46.16a44.4,44.4,0,0,1-1.31,5.47L42.72,32A50.16,50.16,0,0,0,44.94,27Zm.44-3.78a27.71,27.71,0,0,0-1.93-2.36l.29-.4a11.07,11.07,0,0,1,2.59,1.8Zm7.9,10c-.21-.68-.47-1.4-.77-2.13a32,32,0,0,1-6.45,1.41l-.41-1.59c.55,0,1.19,0,1.87,0a21.35,21.35,0,0,0,1.33-3.78H45.94v-.62h3.5V23.8H46.58v-.61h2.86V20.58h1.28v2.61h3.12v.61H50.72v2.68h3.76v.62h-4.1a19.5,19.5,0,0,1-2.16,3.77,40.2,40.2,0,0,0,4.06-.35,20.4,20.4,0,0,0-1-1.93l.41-.29a18.74,18.74,0,0,1,3,4.14Z"/><path class="cls-1" d="M67.74,21V33.13h-1.2v-.7H58v.74h-1.2V21Zm-1.2.62H58V31.81h8.58Zm-8,9-.4-1.11a26.07,26.07,0,0,0,4.24-1.14l.17.44A19.37,19.37,0,0,1,58.57,30.67Zm3.82-6.35H58.22v-.61h4.15c0-.58,0-1.17,0-1.73h1.09c0,.58,0,1.17,0,1.73h1.33c-.28-.55-.69-1.26-.93-1.68l.38-.29a8.35,8.35,0,0,1,1.48,1.49l-.67.48h1.24v.61h-2.8a23.84,23.84,0,0,0,.37,3.13,10.43,10.43,0,0,0,.82-2.53l1,.39a11.17,11.17,0,0,1-1.53,3.37,2,2,0,0,0,.94,1.26c.3.11.34-.53.34-2H66c.6,2.75,0,3.43-.82,3.27a2.56,2.56,0,0,1-1.75-1.56,9.09,9.09,0,0,1-2.68,1.85l-.24-.43a8.69,8.69,0,0,0,2.57-2.28A19.21,19.21,0,0,1,62.39,24.32Zm-3.74,3.91v-3h3.29v3Zm1-.57h1.27V25.83H59.66Z"/><path class="cls-1" d="M70.18,32V22.09c.95-.06,2.07-.13,3.09-.09,2.31.09,3.56,1,4.2,2.23A5.71,5.71,0,0,1,78,27a5.32,5.32,0,0,1-.82,3.15,4.84,4.84,0,0,1-4,1.86C72.18,32.07,71.18,32,70.18,32ZM76.57,27c0-2.9-1.19-4.09-3.8-4.09a7.84,7.84,0,0,0-1.19.07v8a4.11,4.11,0,0,0,1.1.11C75.35,31.14,76.57,29.86,76.57,27Z"/><path class="cls-1" d="M81.13,23.71h-.08v8.34H79.93V22h1.64c1.87,3.23,3.18,5.5,4.73,8.34h.08V22H87.5v10H85.9C83.81,28.33,82.46,26,81.13,23.71Z"/><path class="cls-1" d="M94.87,29H91.11l-1,3.08H88.76L92.3,22h1.6l3.58,10H95.86ZM93,23.27h-.08c-.17.56-.36,1.13-.57,1.69l-1,3.19h3.21l-1.12-3.36A14.65,14.65,0,0,1,93,23.27Z"/><path class="cls-1" d="M47,50.1c-2.07.09-4.87.09-7,0s-2.65-.4-2.65-2.57V39.11h9.74v6.17H45.84v-1H38.63v3.48c0,1,.17,1.08,1.29,1.12,2,.08,4.62.09,6.68,0,1,0,1-.35,1.07-2.83h.5C48.65,48.74,48.8,50,47,50.1ZM38.63,39.72v3.94h3V39.72Zm4.28,3.94h2.93V39.72H42.91Z"/><path class="cls-1" d="M62,45.3l-.61,1.35a12,12,0,0,1-5.24-2.83,11,11,0,0,1-2.51,1.78A10,10,0,0,1,55,46.82l-.92.69a11.24,11.24,0,0,0-1-1.64,12.43,12.43,0,0,1-3,1L50,46.38a10.4,10.4,0,0,0,5.62-3.8l1.2.53a3.75,3.75,0,0,1-.26.33A11.94,11.94,0,0,0,62,45.3Zm-9.8-4.49H50.58v-.58h2.13v-.8a16.38,16.38,0,0,1-1.83.14l-.1-.48a11.54,11.54,0,0,0,4-1.11l.92.84a9.44,9.44,0,0,1-1.9.46v.95h1.93v.58H53.83V41a11.93,11.93,0,0,1,1.79,1l-.64.84a15.52,15.52,0,0,0-1.15-1.14v2.48H52.71V41.73a7.81,7.81,0,0,1-2.27,2.16l-.26-.41A6.12,6.12,0,0,0,52.23,40.81Zm5.43,6.65A31.31,31.31,0,0,1,61,48.91l-.76,1.17a42.51,42.51,0,0,0-3.6-2.36v1.93c0,1.06-1,1.51-3,.47l.13-.49c1.5.28,1.69.23,1.69-.35V47.6a17.79,17.79,0,0,1-4,2.33L51,48.8A19.56,19.56,0,0,0,55.51,47V44.86h1.15v2.26l.38.12a11.7,11.7,0,0,0,1.14-1.7l1.09.73A10.3,10.3,0,0,1,57.66,47.46Zm-1.9-6.13A6.72,6.72,0,0,0,57.3,38l1.15.27a5.52,5.52,0,0,1-.52,1.2h3.5A24.06,24.06,0,0,1,61,43.25c-.28,1.11-1.38,1.17-2.83.12L58.3,43c1.3.36,1.49.29,1.59-.11a20.66,20.66,0,0,0,.37-2.76h-.61A6.79,6.79,0,0,1,57.06,43l-.26-.41a4.89,4.89,0,0,0,1.73-2.5h-1a7,7,0,0,1-1.47,1.6Z"/><path class="cls-1" d="M69,41.13H63.64V40.5h2.52c-.39-.81-.89-1.72-1.19-2.23l.37-.31a10.59,10.59,0,0,1,1.94,2.1l-.66.44H69ZM64.13,43v-.6h4.28V43Zm4.28,1.92H64.13v-.61h4.28Zm.09,4.82H65.35v.93H64.18V46.26H68.5Zm-1.15-2.87h-2v2.26h2Zm7.86,3.87A8.1,8.1,0,0,1,72,49a10,10,0,0,1-3.76,1.95l-.17-.45a9.3,9.3,0,0,0,3.28-2.18,8.2,8.2,0,0,1-1.6-3.41H69v-.61H73.2l.37-.25,1.21.53a9.47,9.47,0,0,1-1.92,3.6,9.51,9.51,0,0,0,3.06,1.16Zm-6.74-7.15c1.16-.9,1.45-1.29,1.45-3.47V38.91H73.7V41.7c0,.43.07.6.56.6a1.23,1.23,0,0,0,1-.38l.55.94a2.41,2.41,0,0,1-1.78.54c-1.26,0-1.56-.34-1.56-1.51V39.53H71.15v.63A3.58,3.58,0,0,1,68.74,44ZM72,47.5a7.81,7.81,0,0,0,1.26-2.64h-3A5.82,5.82,0,0,0,72,47.5Z"/><path class="cls-1" d="M83.06,41.25H77.24v-.63H80c-.47-.78-1.13-1.77-1.49-2.25l.34-.36a12.09,12.09,0,0,1,2.28,1.86l-.85.75h2.76Zm-5.29,3.17H82.5V45H77.77Zm0-1.9h4.73v.6H77.79Zm0,3.84h4.69v4.2H81.36v-.78H79v1H77.79ZM79,49.17h2.4V47H79Zm10.48-6.61v.62H86.82v7.59H85.57V43.18H83v-.62h2.57V38.18h1.25v4.38Z"/><path class="cls-1" d="M103.19,49.33l-.67,1.41a7,7,0,0,1-5.28-3.57c-.88,2.38-2.87,3.32-6.1,3.77L91,50.48c2.8-.62,4.27-1.63,4.91-3.36H91.2V46.5h4.88a7.37,7.37,0,0,0,.2-1.41l1.4.13a9.11,9.11,0,0,1-.24,1.28h1.74c-.31-.33-.74-.76-1.11-1.09l.19-.34a6.48,6.48,0,0,1,1.75.87l-.45.56H103v.62H97.81C99,48.55,101.23,49.17,103.19,49.33ZM92.56,42.8H91.37v-.59h3.16V41H93.29v.66h-1.1V38.37h1.1v2h1.24V38.16h1.15v7.63H94.53v-3h-.86a3.58,3.58,0,0,1-2.11,3.31l-.24-.39A3.29,3.29,0,0,0,92.56,42.8Zm8.22-3.33H98.55a3.2,3.2,0,0,1-.27.25,6.74,6.74,0,0,1,1.08.59l-.59.64c-.25-.31-.59-.7-.85-1a7,7,0,0,1-.75.51,5,5,0,0,1,.85.72l-.7.52c-.19-.38-.37-.72-.56-1a7,7,0,0,1-.79.35l-.19-.38a6.48,6.48,0,0,0,2.54-2.64l1.15.39-.39.49H101l.25-.17,1.16.65a9.73,9.73,0,0,1-4.73,3h2.79v-1h1.12v1h1.48V43h-1.48v1.62c0,.95-1,1.47-2.61.34l.14-.42c1.27.27,1.35.17,1.35-.36V43H96.64v-.31c-.25.05-.51.11-.77.15l-.11-.46A9.24,9.24,0,0,0,100.78,39.47ZM99.14,44l-.64.81a16.83,16.83,0,0,0-1.3-1.37l.22-.37A6.66,6.66,0,0,1,99.14,44Z"/></g></g></svg>