<svg xmlns="http://www.w3.org/2000/svg" viewBox="0 0 79.53 96.62"><defs><style>.cls-1{opacity:0.28;}.cls-2{fill:#fff;}</style></defs><g id="圖層_2" data-name="圖層 2"><g id="圖層_1-2" data-name="圖層 1"><g class="cls-1"><path class="cls-2" d="M73.05,56.65c2.51,1.78,3,1.07,3.9,4.12a14.24,14.24,0,0,1,.53,6.74c2.19-4.54,2.2-6.43,1.94-8.92-.2-1.92,0-4.44-1.62-5.89-.87-.79-4.41-2-4.92-.45a3.08,3.08,0,0,1,3.3.88c.11.13.08.37.16.53-1.16.17-3.18-.88-3.67.58,4,.25,6.32,1,6.08,4.95,0,.47-.71-1.4-1.12-1.61s1.27,3.88-1.37,0c-.58-.84-2.09-1-3.21-1"/><path class="cls-2" d="M68.77,53.82c-.89-.47-2.56-.4-3.6-.5a6.11,6.11,0,0,0-3.65.63c-1.77,1-2.5,3-4.12,4.19s-3.66.65-5.49,1.51c-2.27,1.06-3.24,2.77-5,4.32s-4.34,2-6.43,2.79a10.76,10.76,0,0,0-4.54,3.63c-1.38,1.61-1.82,3.49-2.5,5.3-.41,1.07-1.37,2.19-1,3.43.24.84,1,1.24,1.68,1.88,3.22,3,14.66,8,11.63,14-.45-1.62-4.17-9.85-6.46-6.52-.93-1.2-1.59-3-2.79-4.23-1.41-1.41-4.18-1.12-5.24-2.77s.61-3.88,1.22-5.53c.35-1,.17-2.12.62-3s.95-1.41,1.29-2.23c.67-1.67,1.37-3.9,2.82-5.11A17.87,17.87,0,0,1,39.79,64c.51-.29,2.71-.88,2.77-1.35.13-1.06-2.1-.95-.8-2.37.74-.82,2.33-.76,3.29-.9,2.37-.34,3.34-2.09,5.37-3,1.46-.63,3.1-.56,4.65-1.26S58.23,54,59.81,53.4c1.84-.66,2.78-1.09,4.74-.6,1.53.38,3.33-.35,4.22.76"/><path class="cls-2" d="M53.09,52a13.38,13.38,0,0,0-3.42-2.51C48.31,48.82,47.3,49,46.11,48a14.24,14.24,0,0,0-6.7-3.14c-.08.92,2.42,2.13,2.83,3.28-3.14-.71-.43,4.2,1.74,4.32,0-.65-.14-1.38.54-1.56s.75.59,1.22.77c1.51.58,1.39-1,2.87-.54.92.26,1.61,1.14,2.47,1.52.62.27.83.66,1.61.49.57-.12,1.3-.47.53-.92"/><path class="cls-2" d="M53.62,32.48c.52-.78,2.12-5.11.89-5.51-.92-.3-1.67,1.28-2.61,1s-.42-1.82-.26-2.64c.83-4.41,1.55-8.79,2.67-13,.21-.8.46-1.59.61-2.35-2.74-.32-5.51,5.67-6.41,7.65a26.17,26.17,0,0,0-2.3,9.44c-1-1.48-.89-4.48-.89-6.31a23.91,23.91,0,0,1,.1-3.19A14.38,14.38,0,0,0,46,14.7c-1.53.93-2.83,5.56-3.14,7.24-.54,2.89.33,5.28,1,7.88-1.79-.81-3-3.88-4.19-5.4-.9,1,.27,4.32.27,5.68,0,1.9-.86,3.39-1.46,5.14-.53,1.54-1.27,4-1,5.57.22,1.06,1.81,3.62,2.9,3.64.74-1.57.33-3.1,1.48-4.6.61-.78,1.53-1.29,2.14-2.07.46-.59.67-1.4,1.25-1.91a13.44,13.44,0,0,1,4.28-2c1.08-.33,3.86-.47,4.32-1.61"/><path class="cls-2" d="M35.57,39.06a35.53,35.53,0,0,0,1.18-6.19c.08-2-.29-4.27-.26-6.32s-2.56-3-4.12-4.19a62.54,62.54,0,0,0-5.9-4.08c-1.88-1.1-4.28-1.75-5.95-3.16a11.75,11.75,0,0,1-3.37-5.31c-.69-2-.94-4.14-1.48-6.19-.22-.81.12-2.47-.26-3.16-.71-1.27-1,.42-1.05,1.18-.47,4.16,1.3,7.75,1.81,11.71-1.52-.68-2.85-3.06-3.76-4.36A19.17,19.17,0,0,1,10.7,6.78c-.47-.92-.32-1.91-.72-2.87A3.42,3.42,0,0,0,8.06,2C6.49,1.6,7.51,2.63,8,3.52s.67,2,1.18,2.9S10.3,8,10.76,8.79a16.53,16.53,0,0,1,1.47,3.64C10.8,12.61,8.37,9.1,7.6,8c-1-1.53-2-4-3.49-5.17C1.82,1,3,5.62,3.58,6.62c1,1.81,2.2,3.63,3.26,5.43,1.49,2.53,3.68,4.67,4.86,7.36-1.21-.48-2.21-1.9-3.41-2.65-1-.64-2-1.42-3-2.1S1.39,10.89,0,11c-.23,3.08,3.14,5,4.76,7.09,1.74,2.29,6,3.91,6.67,6.84-1.74-.2-3.39-1-5.1-1.15-.45,1.73,2.93,2.56,4,3.44S14,30.67,12,31.71C11.86,34,14.21,34,15.44,35.63A20.55,20.55,0,0,1,18,41.3a17.36,17.36,0,0,0,3.16,5.31c.39.48,1.52,1.59,1.59,2.2.12,1.26-1,1.25-2,1.45-1.78.38-2.43.92-.5,1.82,1.32.6,2.58,1.73,4.06,2.17a14,14,0,0,0,4.34.36c1.46,0,3.72.35,1.57-1.18.59-.86,1.79-.19,2.52.16a6.08,6.08,0,0,0,3.27.74,8.88,8.88,0,0,1-.48-1.28c1.08-.63,3.83-.38,5.09-.17.34-1.62-3.31-3.17-4.46-3.7a34.29,34.29,0,0,0-3.16-1.42c-1.05-.37-2.2,0-3.25-.4a27.27,27.27,0,0,1,3.25-1c1.5-.27,2.07.53,3.41.91.58-3-4.34-4.86-6.57-4.86-1.85,0-2.75-.26-3.78-1.84-.7-1.07-.52-1.14-.27-2.08.19-.71.67-1.2.08-2,.85-.55,2.05-.63,3-1.22a4.19,4.19,0,0,0,2-2c-1.34-.5-2.59.49-3.94.37a4.52,4.52,0,0,1-3-1.44c-1.47-1.89.13-5.34-1.33-7.07.87-.05,1.58,1.07,2.46,1.28-.09-1-1.35-1.6-1.27-2.6,1.12-.3,3.29,1.7,4.16,2.38,1.48,1.16,2.6,2.69,4,3.89,3.07,2.59,2,6.13,3.36,9.35a1.46,1.46,0,0,0,0-.36"/><path class="cls-2" d="M7,49.6c-1.31,0,1.86,4.53,3,6.07,1.31,1.77,2.18,3.66,3.76,5.13A14.24,14.24,0,0,0,19,64.36a26.13,26.13,0,0,0,3.17,1,23.8,23.8,0,0,0,3.27,0c-.4-2.2,1.82-.68,2.63-1.59,1.2-1.34-1.72-1.56-2.32-1.84-2.45-1.18-4.19-3.27-5.81-5.32.15,0,.32.05.47.08a7.92,7.92,0,0,1-2.67-3,6.49,6.49,0,0,0,.85.49c-.52-1.05-.89-2-2-2.45a15,15,0,0,0-3.39-.56c-1.8-.22-5-.51-6.2-1.45"/><path class="cls-2" d="M29.9,59.75a12.94,12.94,0,0,0,5,2.87c.85.27,2.9,1,3.43-.23.29-.66-.59-1.1,0-1.62.35-.34,1.37,0,1.72.15,0-1.26-1.37-1.21-2.07-1.67.68.14,1.28-.07,1.28-.78-.9-.66-2,.07-3,.23a6,6,0,0,1-3.69-.43c-.61-.28-2.31-1.8-2.88-1.53-1,.45-.37,2.58.24,3"/><path class="cls-2" d="M35.7,86.5c.21,4.13,6,6,6.57,10.12C40.49,96.43,39.59,94,38.5,93c-2.26-2.27-2.14,2-2.14,3.45a8.83,8.83,0,0,1-.8-4.9,5.75,5.75,0,0,0,.11-2.34c-.15-.69-.87-1.93.16-2.27"/></g></g></g></svg>