<svg xmlns="http://www.w3.org/2000/svg" viewBox="0 0 202.09 87.18"><defs><style>.cls-1,.cls-3{fill:#fff;fill-rule:evenodd;}.cls-1{opacity:0.28;}.cls-2{opacity:0.3;}</style></defs><g id="圖層_2" data-name="圖層 2"><g id="圖層_1-2" data-name="圖層 1"><path class="cls-1" d="M91.61,29.56c.12-.06.3-.1.33-.19a3,3,0,0,0,0-.52c0-.13,0-.33.14-.38a5,5,0,0,1,1.24-.59,2.45,2.45,0,0,1,2.52,1.38,1.54,1.54,0,0,1-1,2,2.54,2.54,0,0,1-2.66-.84c-.21-.28-.38-.59-.57-.89Z"/><path class="cls-1" d="M79.07,35.16c.35.06.63.1.91.17a4.14,4.14,0,0,1,.59.21.46.46,0,0,1,.27.53.47.47,0,0,1-.63.21c-.34-.18-.66-.39-1-.59-.07,0-.17,0-.21,0-1,.8-2,.44-3-.09a3.87,3.87,0,0,1-.72-.62,4.93,4.93,0,0,0-1.2-1c-.09,0-.13-.24-.13-.37a.37.37,0,0,1,.39-.28,3.94,3.94,0,0,0,1.37,0,4.44,4.44,0,0,1,2,.48A3,3,0,0,1,79.07,35.16Z"/><path class="cls-1" d="M45.62,30.9a3.54,3.54,0,0,1-2-.86,2.31,2.31,0,0,0-1.42-.62,8.87,8.87,0,0,1-1.34-.28.36.36,0,0,1-.2-.44.41.41,0,0,1,.41-.28l.3.09c.13,0,.25.13.39.17a6.41,6.41,0,0,0,2.18.33,8,8,0,0,1,1.37.1,2,2,0,0,1,1.12.55.59.59,0,0,1,.24.55c0,.26-.22.34-.44.4s-.5,0-.62.31Z"/><path class="cls-1" d="M9.26,25.36a1.66,1.66,0,0,1-.39.12,2.41,2.41,0,0,1-1.45-.19c-.44-.22-.9-.43-1.31-.69a1.72,1.72,0,0,0-1.5-.29A.48.48,0,0,1,3.93,24,.37.37,0,0,1,4,23.52a1,1,0,0,1,.39-.12.13.13,0,0,1,.1,0,3,3,0,0,0,2.14.38,4.45,4.45,0,0,1,2,.36,2.83,2.83,0,0,1,.76.55A.44.44,0,0,1,9.26,25.36Z"/><path class="cls-1" d="M71.62,33.5c.32.46.18.91-.22,1a1.18,1.18,0,0,1-.41.07,2.55,2.55,0,0,1-1.57-.54,6.9,6.9,0,0,0-1.3-1c-.06,0-.1-.19-.09-.28a.26.26,0,0,1,.31-.22,5.11,5.11,0,0,0,1.35.07A2.44,2.44,0,0,1,71.62,33.5Z"/><path class="cls-1" d="M102.58,34.85a1.47,1.47,0,0,1,1.65.37.9.9,0,0,1-.39,1.52,1.34,1.34,0,0,1-1,0,1.14,1.14,0,0,1-.75-1.15C102.07,35.09,102.13,35,102.58,34.85Z"/><path class="cls-1" d="M97.69,27.2a1.27,1.27,0,0,0,.21-1L99,25.83c.34.2.65.36.94.55a.75.75,0,0,1,.15,1.18,1.16,1.16,0,0,1-1.23.39A2.33,2.33,0,0,1,97.69,27.2Z"/><path class="cls-1" d="M56.54,41.17a1.5,1.5,0,0,1-1-.21c-1.42-.59-2.83-1.24-4.28-1.77-.79-.29-1.56-.66-2.32-1a3.48,3.48,0,0,1-.63-.53v0a6.89,6.89,0,0,1,1.11.26c2.16.91,4.32,1.84,6.46,2.78a3.48,3.48,0,0,1,.67.49Z"/><path class="cls-1" d="M39.58,38.58a12.06,12.06,0,0,1-3-.55,18.15,18.15,0,0,0-3.92-.84,1.67,1.67,0,0,1-.39-.14c.07-.1.1-.2.14-.2a1.43,1.43,0,0,1,.51,0,9.76,9.76,0,0,0,2.06.47,21.29,21.29,0,0,1,3.62.81,8.06,8.06,0,0,1,1,.42Z"/><path class="cls-1" d="M16.82,25.24a.63.63,0,0,1-.29.06,2.27,2.27,0,0,1-.51-.14l-5.22-2c-.25-.1-.55-.14-.72-.4v0a.77.77,0,0,1,.3,0c.8.25,1.61.49,2.39.79,1,.37,2,.79,3,1.21.35.15.69.34,1,.52Z"/><path class="cls-1" d="M37.16,30.4a1.14,1.14,0,0,1-.41,0,7.36,7.36,0,0,1-1-.34c-.67-.29-1.33-.61-2-.91,0-.23.14-.29.28-.24.43.16.85.34,1.27.52s1,.45,1.54.7c.12.05.2.19.29.29Z"/><path class="cls-1" d="M80.92,50.53c.1-.29.21-.58.31-.88-.26-.52-.92-.7-1-1.3.12-.13.24-.09.36,0a2.22,2.22,0,0,1,1.15,1.28c-.12.45-.53.63-.83.9Z"/><path class="cls-1" d="M62.25,47.2c.09-.16.25-.12.36-.1.69.15,1.37.32,2,.49,0,0,.06.11.09.17s-.1.12-.14.11A5.62,5.62,0,0,1,62.25,47.2Z"/><path class="cls-1" d="M47.57,37.36c-.06,0-.14.06-.19,0l-2-.7s-.11-.13-.1-.16a.51.51,0,0,1,.19-.22.39.39,0,0,1,.3,0c.52.27,1,.54,1.56.83.09.05.14.15.21.23Z"/><path class="cls-1" d="M39.57,38.6a4.12,4.12,0,0,1,2,.59s0,.12.06.18a2.81,2.81,0,0,1-2-.79Z"/><path class="cls-1" d="M9.06,22.4s-.06.05-.09.05A10.38,10.38,0,0,1,6.88,22c.63-.32.94-.24,2.18.48Z"/><path class="cls-1" d="M82.6,48.58c-.77-.49-.77-.49-1.12-1.07a1.72,1.72,0,0,1,1.11,1.1Z"/><path class="cls-1" d="M56.53,41.2a.51.51,0,0,1,.2,0,3.44,3.44,0,0,1,1.13.57c-.7,0-.72,0-1.32-.56Z"/><path class="cls-1" d="M61.62,47.19c-.2,0-.41,0-.61,0,0,0-.11-.1-.11-.15a.24.24,0,0,1,.11-.16C61.27,46.72,61.48,46.83,61.62,47.19Z"/><path class="cls-1" d="M1.09,24.82C.24,25,.24,25,0,24.66.35,24.55.35,24.55,1.09,24.82Z"/><path class="cls-1" d="M10.08,22.75c-.09,0-.2.11-.26.08-.28-.1-.59-.14-.76-.43v0a1.37,1.37,0,0,1,1,.34Z"/><path class="cls-1" d="M1.65,26l.62.14C2,26.32,2,26.32,1.65,26Z"/><path class="cls-1" d="M23.27,27a1.83,1.83,0,0,1-.24-.13s-.06-.09-.1-.13.13-.05.17,0a.75.75,0,0,1,.2.15Z"/><path class="cls-1" d="M37.15,30.43a.31.31,0,0,1,.48.14c-.23.14-.36,0-.47-.17Z"/><path class="cls-1" d="M79.35,52.1c.06-.08.1-.17.17-.25a1.24,1.24,0,0,1,.28-.09l-.48.34Z"/><path class="cls-1" d="M3,26.58v-.1a.49.49,0,0,1,.17,0c.1,0,.11.08,0,.11A.55.55,0,0,1,3,26.58Z"/><path class="cls-1" d="M28.37,35.63c0,.06,0,.14,0,.18a.24.24,0,0,1-.35-.06.1.1,0,0,1,0-.09A.21.21,0,0,1,28.37,35.63Z"/><path class="cls-1" d="M16.82,25.27l.72.22v0c-.37.15-.43.14-.73-.22Z"/><path class="cls-1" d="M48.3,37.64a.55.55,0,0,1-.73-.28v0a.65.65,0,0,1,.72.29Z"/><path class="cls-1" d="M1,25.94l-.2,0,0-.14.17.07S1,25.91,1,25.94Z"/><path class="cls-1" d="M45.61,30.92l.18.06c-.13.13-.12-.05-.17-.08Z"/><polygon class="cls-1" points="96.82 26.94 96.88 26.92 96.87 26.99 96.82 26.94"/><path class="cls-1" d="M91.63,29.55l-.08,0h.08Z"/><path class="cls-1" d="M17.54,25.49l.18.11c-.16.08-.13-.07-.17-.14Z"/><path class="cls-1" d="M80.89,50.52c0,.07,0,.13,0,.19l-.08,0c-.1-.13,0-.16.1-.21Z"/><polygon class="cls-1" points="80.6 43.05 80.55 43.11 80.52 43.05 80.6 43.05"/><path class="cls-1" d="M80.89,47.08,80.82,47a.39.39,0,0,0,.1-.08A.41.41,0,0,1,81,47S80.91,47.06,80.89,47.08Z"/><g class="cls-2"><path class="cls-3" d="M81.46,56.34A89.11,89.11,0,0,0,98.27,66.1C91,64.67,85.46,61.35,81.46,56.34Z"/><path class="cls-3" d="M99.45,68.23c0-.8,1.54-.22,2.16-.46C101.61,68.57,100.08,68,99.45,68.23Z"/><path class="cls-3" d="M97.41,71.23a9.13,9.13,0,0,1-4.55,3.85C93.63,73.12,95.46,72.11,97.41,71.23Z"/><path class="cls-3" d="M105.8,71.94a7,7,0,0,1,7.74,2.19C111,73.35,108.89,72.11,105.8,71.94Z"/><path class="cls-3" d="M193.65,69.35c.64,1.16,0,1.39.13,2.9-.75.24-1,.94-2.14.82.21-1.23,1.75-.82-.07-1.45.6-.24,2.58-1.65.3-1.47C191.88,69.36,192.75,69.33,193.65,69.35Z"/><path class="cls-3" d="M190.1,71.33c.84-1.46.59,1.17,0,0Z"/><path class="cls-3" d="M125.23,75.4c6.88,1.6,16.16,3.88,26,3.53C142.12,81.23,132.17,78,125.23,75.4Z"/><path class="cls-3" d="M172.73,72.85c.85,1.72-3.53,1.64-5.36,2.07C168.16,73.32,171.58,74.12,172.73,72.85Z"/><path class="cls-3" d="M176.82,74.85c-4.56-.38-11.43,4.7-16.27,1.84-.44-2.25,2-1.89,3.9-2-.58,1-2.74.51-3.2,1.6,4.32,1.52,10-1.18,13.7-2.45C176,73.72,176.93,73.7,176.82,74.85Z"/><path class="cls-3" d="M136.18,76.35c2.7-.42,6.63,1.11,9.87,1.37C143,78.57,139,77.11,136.18,76.35Z"/><path class="cls-3" d="M173.31,77.55c-.32.76-1.36.85-2.51.84A3.29,3.29,0,0,1,173.31,77.55Z"/><path class="cls-3" d="M202.09,71.14c-3.52,7.4-13.37,9.21-21.66,11.17-18.1,4.3-38,3.5-53.48-1.17-3.43-1-7.19-2.38-10.71-3.5s-7.71-3.17-10.68-3.15c-10.48.1-12.91,13.07-22.68,12.68,1.28-7,6.67-10.13,8.7-16.4C86.89,63.34,78,60.56,74.35,51.94c.29-.08.35-.38.71-.4,8,1.16,17.24,11.66,26.37,12.24,12,.76,24.23-3.45,35.4-4.9a125.65,125.65,0,0,1,25.42-.45C177.81,59.56,191.44,63,202.09,71.14Zm-4.47-2.34c-15.69-7.34-34.64-11.28-56.39-9-12.32,1.28-24.72,4.59-36.14,4.58a47,47,0,0,1-5.08.23C90.18,63.18,84,53.92,75.13,53c5,6.55,12.34,10.59,17.5,17-1.47,6.76-6.55,10.24-8.7,16.39,8.93-1.18,11.59-13.49,22.3-13,2.84.13,7,2,10.69,3.14,13.87,4.25,28.86,9.6,48,7.61,13-1.36,26.22-4.26,35.47-11.09-1.56-.24-3.17,1.26-4.35.21,1.56-.9,4.61-.44,5-2.41-26.31-8.75-67.61-1.06-99.06-4.17,4.59-.58,9.58.41,13.07-.23-.58.29-1.61-.65-.76-.7,1.57-.43,2.56,1.74,3.66.56-.9-.28-2.1-.23-2.24-1.35,1.87,0,3.38,2.38,5.14,1.22-1-.43-2.27-.56-2.62-1.7,2.06.29,4.29,2.4,6.25,1.53-.88-.57-3.61-1.1-3-2,1.85.51,4.16,2.54,5.9,1.91-.92-.53-3.47-1.26-3-2,2,.31,3.82,2.92,5.91,1.91-.93-.52-3.47-1.25-3-2,2.47.35,4.3,3.41,7,2.22-1.7-.93-3.74-1.49-4.86-3.05,2.78.64,5.19,3.71,8.13,2.9-1.69-.45-4.24-2-4.49-2.7,2.69.36,4.62,3.57,7.39,2.57-2-.69-5.1-2.27-5.61-3.38,3.13.51,5.21,4.2,8.51,3.24-1.9-1.09-5.31-2.55-6-3.72,3.56.42,5.38,4.77,9.25,3.57-2.38-1.19-4.47-2.71-6.72-4,4.42.1,6,5.33,10.37,4.25-2.2-1.15-5.8-2.78-6.39-4.43,3.45,1,5.91,5.2,10,4.26A68.13,68.13,0,0,1,146.37,61c4.15.41,6.55,4.76,10.38,4.25-2.15-1.33-5.67-3.19-6.4-4.8,3.19,1.07,5.57,5.07,8.94,4.68-1.84-1.29-5.17-3-5.66-4.46,3.14.88,4.9,5.29,8.56,4.33a17.43,17.43,0,0,1-6.4-4.8c3.54,1.07,5.64,5.75,9.68,5-2.63-1.57-5.46-2.91-7.51-5.11,3.85,1,6.26,5.59,10.41,5-2.06-.92-5.25-2.62-6-3.73,3.4.6,5.58,4.55,8.91,4-1.6-.8-4.45-2.23-4.52-3.43,2.4.93,4.61,4.09,7.07,3.67-1.05-1.13-3.94-2.27-3.79-3.46,2.35,1,4.54,4.17,7.08,3.67-2-1.09-5.26-2.86-5.66-4.46,2.6,1.47,5.46,4.68,8.21,4.71-1.85-1.27-4-2.2-5.28-4.12,2.93,1.11,5.34,4.81,8.56,4.33-1.71-.66-4.39-2.29-4.52-3.42,2.33,1,4.7,4,7.08,3.67-1-.83-3.69-1.78-3.4-2.75C185.68,66.91,192.8,68.24,197.62,68.8Zm.4.71c.25.22-.16-.15,0,0Zm.74.33c.25.22-.16-.15,0,0Z"/><path class="cls-3" d="M89.44,64c1.56,0,4.09,2.12,6,3C93.32,67.58,91,65.22,89.44,64Z"/><path class="cls-3" d="M94.34,67.74c-.06.41-2.35.07-2.22-1C93.22,66.68,93.56,67.45,94.34,67.74Z"/><path class="cls-3" d="M95.22,71c.21,1.23-1,1.14-1.37,1.88C93.25,72.61,94.19,70.87,95.22,71Z"/><path class="cls-3" d="M101.44,71.77c-4.49,3.45-9.57,6.34-13,10.78C89.82,77.63,95.68,73.82,101.44,71.77Z"/><path class="cls-3" d="M158.92,80.76c-9.25,1.43-17.68.4-27-1.3-5.39-1-12.86-2-15.85-4.73-.67-.61,4.32.89,6.61,1.52C133.24,79.12,146.39,81.65,158.92,80.76Z"/><path class="cls-3" d="M139.77,75.46c.18-.53,2.12.19,2.92.23C142.05,76.74,140.36,75.73,139.77,75.46Z"/><path class="cls-3" d="M173.59,75.72c.47,1-2.74,1.67-4.27,2C169.75,76.16,172.65,76.83,173.59,75.72Z"/><path class="cls-3" d="M193.22,75.91C185.57,80.33,172,82.75,159.79,84,171.45,81.77,183.63,80,193.22,75.91Z"/></g><g class="cls-2"><path class="cls-3" d="M71.57,0C79.14.64,82.84,7.57,93.3,6.27c6.31-.79,13-3.12,19.82-3.82,11-1.13,21.77,0,29.65,4.45-1.69,4.28-6.67,5.28-10.24,6.65-5.61,2.15-10.94,4.22-19.07,4.15-8.62-.08-16.54-3.69-23.81-4-8.19-.34-9.54,6.92-15.63,8-.28-4.72,4.6-7.58,6.76-11.22C78.42,6.21,73.09,5.19,71.57,0ZM81.85,10.07c-1.52,4.06-6.54,6.77-6.77,10.85,3.84-2,5.92-7.29,11.25-8.15,4.28-.69,9.22,1.62,14.3,2.61,15.34,3,32.42.2,41.05-8.43C133,3.58,123,2.31,111.72,3.6c-8.11.93-16.24,4.59-23.08,4S78.25,2.32,72.71,1C75.34,4.51,79.48,6.31,81.85,10.07Z"/><path class="cls-3" d="M77.21,4.1c2.49,1.59,5.51,2.6,7.49,4.75C81.5,8,78.85,6.63,77.21,4.1Z"/><path class="cls-3" d="M114.36,5.66c1-.23-.61-.51-.76-.69.78-1,2.42.37,3.3.58.2-1-.79-.67-1.14-1,.94-1.14,2.38.41,3.3.57.5-.15,0-.64-.4-.71,2-.45,5.34,1,8.39.71-10,1-20.74,3.07-30.76,2.87A46.4,46.4,0,0,1,105,6.82c.53-.18-.16-.46,0-1.09,1.48.39,1.9,1.36,3.66.56-.25-.36-.85-.33-.77-1,2.15-.46,2.14,1.46,4.4.89,0-1.58-2.74,0-2.62-1.7A13,13,0,0,1,114.36,5.66Z"/><path class="cls-3" d="M137.29,6.42c-1.1.88-.89.15-.29,1.47a2.38,2.38,0,0,1-2.61-1.33A2.82,2.82,0,0,1,137.29,6.42Z"/><path class="cls-3" d="M115.65,10c-1.66,1.74-6.49.58-9.4,1.16C108.49,9.92,112.37,10.22,115.65,10Z"/><path class="cls-3" d="M127.65,10.14c-1.46-.05-2,.74-3.61.53C124.14,9.77,127.57,8.8,127.65,10.14Z"/><path class="cls-3" d="M92.48,12.12c9-.47,20.42.53,30.49-1C114.5,13.64,100.91,13.28,92.48,12.12Z"/><path class="cls-3" d="M127.32,10.88c-.3.65-1.1.85-2.14.83C125.4,10.89,126.82,10.42,127.32,10.88Z"/><path class="cls-3" d="M127.73,12c0,.93-1.18.78-2.14.83C125.19,11.48,127,12.21,127.73,12Z"/><path class="cls-3" d="M104.57,14.11c3.11-1,7.85-.48,11.59-.9C113.39,14.45,107.91,14.49,104.57,14.11Z"/><path class="cls-3" d="M85.85,10.25c-1.77,2.08-4.32,3.47-5.91,5.72C79.9,13.62,83,11.09,85.85,10.25Z"/></g></g></g></svg>