<svg xmlns="http://www.w3.org/2000/svg" viewBox="0 0 161.2 99.55"><defs><style>.cls-1{opacity:0.48;}.cls-2,.cls-3{fill-rule:evenodd;}.cls-3{opacity:0.28;}</style></defs><g id="圖層_2" data-name="圖層 2"><g id="圖層_1-2" data-name="圖層 1"><g class="cls-1"><path class="cls-2" d="M124.93,66.84l0,0,0,0c0,.17.09.35.14.52a.59.59,0,0,1,0,.45c-.06.12-.1.26-.16.4.18.1.22.35.47.37,0,0,.06,0,.08.07a4.44,4.44,0,0,0,.7.67s0,.12,0,.17a.35.35,0,0,1-.46,0c-.13-.1-.24-.23-.37-.34S125.16,69,125,69c.06.17.11.33.16.48s.14.52.21.78a5.48,5.48,0,0,0,.51,1.38c-.18.14-.34.27-.52.39a1.14,1.14,0,0,1-.44.14.35.35,0,0,1-.41-.21c-.17-.33-.38-.65-.52-1a1.08,1.08,0,0,0-.12-.24,18.68,18.68,0,0,1-1.06-2,1.32,1.32,0,0,0-.23-.35s0,0,0,0c.06.17.13.34.2.5.2.41.41.83.62,1.24s.49,1.08.73,1.62.64,1.26,1,1.88.62,1.1.95,1.64.57.94.88,1.4.64.87.94,1.32a11.7,11.7,0,0,0,.81,1,1.05,1.05,0,0,1,.18.25,1.07,1.07,0,0,0,.31.39,9.61,9.61,0,0,1,.83.86.9.9,0,0,1,.23.4,1.1,1.1,0,0,0,.44.66c.09.07.16.16.25.24a3.07,3.07,0,0,0,.29.24,4.82,4.82,0,0,1,1.07.94,2,2,0,0,0,.53.44,5,5,0,0,1,.76.54,8.55,8.55,0,0,0,.74.61,8,8,0,0,1,1.35,1.26s0,0,0,0,0,0,0,0-.05,0-.06,0l-.32-.3a1.06,1.06,0,0,1-.53-.24c-.39-.28-.79-.53-1.17-.82s-1-.75-1.43-1.18c-.24-.23-.5-.44-.73-.67s-.72-.74-1.08-1.11a1.25,1.25,0,0,0-.12-.08c-.06.13,0,.19.08.26a1.12,1.12,0,0,0,.17.2c.06.07.16.1.16.22s-.07,0-.1,0l-.21-.16a2.2,2.2,0,0,0-.56-.4,1.49,1.49,0,0,1-.4-.31,1.89,1.89,0,0,0-.37-.32,1,1,0,0,1-.41-.4,2.31,2.31,0,0,0-.45-.57c-.29-.3-.59-.58-.9-.85A1.55,1.55,0,0,1,127,79c-.19-.27-.38-.54-.55-.83a3.45,3.45,0,0,0-.39-.53,12,12,0,0,1-.94-1.31c-.19-.26-.32-.56-.5-.82s-.38-.62-.6-.91a6.82,6.82,0,0,1-.64-1c-.29-.56-.53-1.14-.8-1.71-.12-.26-.24-.51-.38-.76a1,1,0,0,0-.34-.41,2,2,0,0,1-.54-.59,1.76,1.76,0,0,1-.32-.66,2.3,2.3,0,0,0-.21-.57c-.16-.31-.31-.62-.45-.94s-.22-.58-.34-.86-.13-.31-.19-.47a7,7,0,0,0-.64-1.43.54.54,0,0,1,0-.11,7.63,7.63,0,0,1-.34-1,6.63,6.63,0,0,1-.18-1c0-.07,0-.14-.07-.22a4.38,4.38,0,0,0-.34-.64,3.32,3.32,0,0,0-.51-.77.91.91,0,0,1-.13-.19,16.58,16.58,0,0,0-1.16-1.59,1.6,1.6,0,0,1-.18-.25c-.12-.19-.23-.4-.37-.59a1.23,1.23,0,0,1-.22-.64.66.66,0,0,0-.3-.55,2.24,2.24,0,0,1-.46-.35.67.67,0,0,0-.21-.09,2,2,0,0,1-.29-.1c-.24-.17-.47-.36-.69-.55a.19.19,0,0,1-.06-.21.22.22,0,0,1,.19-.17.27.27,0,0,1,.28.09c.17.18.39.3.49.53,0,.05.07.08.11.12s.23.2.36.29a1.13,1.13,0,0,0,.51.26,2.47,2.47,0,0,0,.21-.27c.07-.1.2-.13.24-.26l-.25-.18a2,2,0,0,1-.27-.22c-.19-.21-.38-.42-.55-.65a3.18,3.18,0,0,1-.58-1,.84.84,0,0,0-.11-.21c-.22-.33-.16-.32,0-.62a1.27,1.27,0,0,1,.13-.19l.5-.68a1.27,1.27,0,0,1,.23-1l.1-.12a.48.48,0,0,0,.07-.54,1.13,1.13,0,0,1-.16-.54.1.1,0,0,1,.09-.11s.09,0,.1,0l.29.46.1.19h.14a.2.2,0,0,1,.26.1l.09.17a4.57,4.57,0,0,1,.48,1.34,2.27,2.27,0,0,0,.47,1l.17.21.71.91c.06.09.11.18.16.27s.06.12,0,.18a1,1,0,0,1-.38.73,1,1,0,0,0-.3.29,1.37,1.37,0,0,1-.6.46.49.49,0,0,0-.31.16,1.39,1.39,0,0,0,.33.46c.11.11.22.22.32.34.54.64,1.08,1.28,1.6,1.93A5.88,5.88,0,0,1,120,62.09a1.53,1.53,0,0,0,.16.31c.07.12,0,.24,0,.37a1.83,1.83,0,0,0,.37.84.82.82,0,0,1,.22.52.43.43,0,0,0,.2.35.7.7,0,0,0,.24.13,1.48,1.48,0,0,1,.45.28,1.82,1.82,0,0,0,.23.15l.57.4s.07.07.13,0c-.08-.25-.17-.51-.26-.76s-.11-.29-.15-.44a1.88,1.88,0,0,0-.26-.64c-.1-.15-.19-.3-.28-.46a3.13,3.13,0,0,1-.32-.78.22.22,0,0,1,.08-.24.21.21,0,0,1,.25,0,1.18,1.18,0,0,1,.53.43l.31.45a.2.2,0,0,0,.2.11l.2-.21a.65.65,0,0,1,.59-.22,1.25,1.25,0,0,1,.26.07,7.47,7.47,0,0,1,.92.39.34.34,0,0,0,.28.05.1.1,0,0,0,0,0,12.16,12.16,0,0,1-.69-1.07.47.47,0,0,1-.12-.32.41.41,0,0,0-.14-.3c-.3-.3-.56-.64-.89-.91a1.43,1.43,0,0,1-.23-.26,1.34,1.34,0,0,0-.39-.36,1.43,1.43,0,0,1-.26-.23.42.42,0,0,1-.12-.35.21.21,0,0,1,.24-.19.34.34,0,0,1,.28.19,1,1,0,0,0,.33.36,7.33,7.33,0,0,1,.68.57s0,0,.08,0a.55.55,0,0,0,0-.18.66.66,0,0,0-.26-.37,2.55,2.55,0,0,1-.49-.55c-.22-.3-.49-.56-.68-.88a1.71,1.71,0,0,0-.2-.18.83.83,0,0,1-.17-.21,1,1,0,0,0-.28-.41,1.92,1.92,0,0,1-.16-.21,4.51,4.51,0,0,0-.4-.47,1.88,1.88,0,0,1-.46-.65,3.48,3.48,0,0,0-.2-.38,1.19,1.19,0,0,0-.36-.44,1.94,1.94,0,0,1-.5-.53.7.7,0,0,0-.28-.26,1.69,1.69,0,0,1-.69-.76,10,10,0,0,0-.63-1l-.28-.41c-.29-.5-.56-1-.86-1.51a5.79,5.79,0,0,1-.47-1,1.35,1.35,0,0,0-.26-.47,2.9,2.9,0,0,0-.34-.36,1.93,1.93,0,0,1-.59-.85,2,2,0,0,0-.28-.46c-.21-.26-.42-.51-.62-.78a.65.65,0,0,0-.37-.27,11.33,11.33,0,0,1-1.17-.36,4.24,4.24,0,0,1-1.14-.64,1.16,1.16,0,0,1-.37-.53,2.85,2.85,0,0,0-.29-.75.36.36,0,0,1,0-.11,2.22,2.22,0,0,1,0-.77c0-.21.1-.42.14-.64l.09-.33a.12.12,0,0,1,.16-.07,2,2,0,0,1,.28.19l.65.56a12.29,12.29,0,0,0,1.4,1,14.71,14.71,0,0,0,1.64.93c.57.28,1.15.51,1.74.74.38.15.78.27,1.17.4l.77.25.17,0c.06-.07.07-.12,0-.18a.82.82,0,0,1-.52-.07c-.17-.07-.34-.13-.5-.21a.65.65,0,0,1-.22-.16.11.11,0,0,1,.09-.16.58.58,0,0,1,.18,0c.13.06.25.14.37.2s.1,0,.14,0a.94.94,0,0,1-.09-.12.13.13,0,0,1,.06-.19.41.41,0,0,1,.19,0c.05,0,.1,0,.14,0s0-.06,0-.07a.52.52,0,0,1-.25-.49c0-.11-.07-.18-.17-.23s-.29-.11-.43-.18a.35.35,0,0,1-.21-.47c.08-.29.18-.57.27-.85a.43.43,0,0,1,.33-.29l.17,0,.17,0a4.55,4.55,0,0,0,1.07.44,5.28,5.28,0,0,1,.75.29c.21.1.43.18.64.27a3.11,3.11,0,0,1,.41.2,5,5,0,0,0,.87.42,8.2,8.2,0,0,1,1.46.71.48.48,0,0,0,.3.13c.1-.06.09-.16.09-.25a2.6,2.6,0,0,1,0-.28.44.44,0,0,0-.45-.2.54.54,0,0,1-.37-.08,6.62,6.62,0,0,0-1.07-.52,19.53,19.53,0,0,0-2.1-.77,1.52,1.52,0,0,0-.6-.11.37.37,0,0,1-.18-.05,2.15,2.15,0,0,0-.82-.2l-.17,0-.17,0-.25-.11a.17.17,0,0,1-.09-.19c.07-.24.14-.47.2-.71a1,1,0,0,0,0-.18.43.43,0,0,0-.16-.07c-.29,0-.57-.12-.87-.15a1,1,0,0,1-.66-.27.35.35,0,0,1-.13-.27,3.85,3.85,0,0,1,.07-.49.28.28,0,0,1,.34-.24,5.31,5.31,0,0,1,.8.11c.66.14,1.31.29,1.95.48a5.81,5.81,0,0,1,1,.42,3.42,3.42,0,0,0,.54.18l.3.07a16.88,16.88,0,0,1,2,.63,6.91,6.91,0,0,1,.78.36,3.58,3.58,0,0,1,.56.4.46.46,0,0,1,.12.53,2.12,2.12,0,0,1-.12.2c-.06.08-.11.16-.18.24l-.22.26c.15.13.15.13.32.11l.64-1a2.39,2.39,0,0,0,.13-.28,1.13,1.13,0,0,0,0-.73l-.2-.09a.16.16,0,0,1-.11-.18.66.66,0,0,1,0-.15.29.29,0,0,0-.13-.34,4.31,4.31,0,0,0-.47-.26,5.28,5.28,0,0,0-.77-.24c-.64-.16-1.28-.3-1.93-.41a13.86,13.86,0,0,1-1.67-.28h0l-1.49-.19a5.49,5.49,0,0,1-.8-.11c-.69-.17-1.4-.16-2.09-.31l-.16,0-.15,0c-.12,0-.17-.09-.13-.22a4.81,4.81,0,0,0,.1-.84,2.71,2.71,0,0,0-.27-.16.37.37,0,0,1-.24-.36.89.89,0,0,1,0-.23.53.53,0,0,0-.06-.37.67.67,0,0,1-.06-.15.12.12,0,0,1,.11-.16c.08,0,.18.06.25-.08l-.21-.17s0-.09,0-.14a.42.42,0,0,0-.26-.53.35.35,0,0,1-.21-.38c0-.14,0-.28,0-.42a.64.64,0,0,1,.54-.7l.07,0a.44.44,0,0,0,.25-.17.66.66,0,0,1,.43-.23l.2,0c0-.28.2-.51.21-.79a.32.32,0,0,1,.22-.29l.29-.08.57-.13s.1,0,.1-.09a.77.77,0,0,0-.4-.06L117,33a.13.13,0,0,1-.11-.2.58.58,0,0,1,.11-.15,1,1,0,0,1,.53-.23,5.32,5.32,0,0,1,1.06-.16s.09,0,.14,0a5.67,5.67,0,0,1,1.28-.3.65.65,0,0,0,.35-.13.32.32,0,0,1,.2-.1,2,2,0,0,0,.67-.18,5.09,5.09,0,0,1,.56-.14.46.46,0,0,1,.26,0,.47.47,0,0,0,.47-.06.77.77,0,0,1,.29-.1,1.17,1.17,0,0,0,.55-.16l.29-.1c.13-.05.27-.08.4-.14.37-.14.73-.32,1.11-.44.64-.2,1.27-.43,1.89-.67a1,1,0,0,1,.33-.09,2.74,2.74,0,0,0,.75-.18,1.8,1.8,0,0,1,.22-.06l1.4-.31a1.73,1.73,0,0,0,.53-.21c.37-.2.75-.41,1.13-.59a1.62,1.62,0,0,0,.61-.45.5.5,0,0,1,.22-.16c.48-.14.91-.41,1.4-.53a.91.91,0,0,0,.14-.07l.64-.26.39-.17.42-.19c.42-.19.85-.36,1.27-.56s.82-.43,1.23-.65a.7.7,0,0,0,.16-.1,3,3,0,0,1,.67-.38l1.66-.82c.34-.17.68-.36,1-.55a.36.36,0,0,0,.2-.22.84.84,0,0,0,0-.42s-.07-.08-.11-.07a.12.12,0,0,0-.08,0,12.82,12.82,0,0,0-1.62.8,1.18,1.18,0,0,1-.28.12c-.2.09-.41.16-.6.26a18,18,0,0,1-1.87.92l-.2.11c-.36.17-.72.35-1.08.5s-.94.36-1.41.54l-.32.13c-.58.21-1.16.41-1.74.64a9.25,9.25,0,0,1-1.35.44l-.34.08c-.39.1-.77.2-1.17.27-.58.11-1.17.11-1.76.18-.41,0-.82-.07-1.23-.06a.64.64,0,0,1-.18-.06.13.13,0,0,1,0-.2.59.59,0,0,1,.19-.13,4,4,0,0,1,1-.27.63.63,0,0,0,.22-.07,1.84,1.84,0,0,1,.56-.14c.43-.06.87-.11,1.29-.21.89-.2,1.78-.42,2.66-.65.52-.14,1-.31,1.55-.48s.77-.28,1.17-.4a3.77,3.77,0,0,1,1.16-.26.94.94,0,0,0,.33-.08l2-.92a.54.54,0,0,0,.36-.41c0-.13.13-.19.24-.23a.47.47,0,0,1,.37.06,1.42,1.42,0,0,0,.36-.14,1.54,1.54,0,0,1,.34-.17l.36-.16c.58-.27,1.17-.52,1.74-.81.35-.18.71-.31,1.06-.47a.35.35,0,0,0,.13-.08s0-.08,0-.09a.23.23,0,0,0-.14,0c-.14,0-.28,0-.43,0a.29.29,0,0,1-.27-.11c0-.06.06-.16.22-.22l1.06-.35.55-.16a.34.34,0,0,0,.28-.37,1.23,1.23,0,0,0,0-.19.19.19,0,0,0-.25-.18,5,5,0,0,0-.66.19l-1.82.74a2.22,2.22,0,0,1-.32.14c-.5.13-.95.39-1.44.57a4.83,4.83,0,0,0-.52.23l-2.11,1-.45.21c-.36.18-.71.37-1.08.53-.93.41-1.83.87-2.73,1.35a1.83,1.83,0,0,1-.32.14,4.39,4.39,0,0,0-.61.21q-.27.12-.54.21l-1.2.42a.37.37,0,0,0-.14.07,2.26,2.26,0,0,1-1.21.32,2.24,2.24,0,0,0-.58.06.55.55,0,0,1-.4,0c0-.09-.06-.2-.1-.3l-.25-.06a1.34,1.34,0,0,0,.11-.46c0-.06-.13-.05-.07-.16a4.54,4.54,0,0,0,1-.23,1.78,1.78,0,0,1,.36-.14,3.13,3.13,0,0,0,.54-.19c.18,0,.38-.07.57-.11l.33-.11a5.4,5.4,0,0,1,1-.34,1.88,1.88,0,0,0,.5-.18c.44-.2.86-.41,1.29-.62l.12-.09c.05-.12-.09-.2,0-.29s.3,0,.45,0a.45.45,0,0,0,.36-.1.59.59,0,0,1,.19-.13,3.26,3.26,0,0,0,.62-.31l1.12-.6a.54.54,0,0,1,.55-.08.29.29,0,0,0,.18,0,1.42,1.42,0,0,0,.29-.1,6.64,6.64,0,0,1,1.21-.41,5.08,5.08,0,0,0,.52-.15l1.75-.7a14.1,14.1,0,0,1,1.89-.66,1.63,1.63,0,0,0,.87-.54,3.21,3.21,0,0,1,1-.7c.06,0,.14,0,.22-.07a2.59,2.59,0,0,0,.37-.11,7.72,7.72,0,0,1,1.33-.37c.41-.1.52,0,.72.31a.44.44,0,0,1,.07.33c0,.15-.06.31-.1.46a.5.5,0,0,1-.28.34.89.89,0,0,0-.37.2c0,.05,0,.09,0,.12a1.61,1.61,0,0,1-.34,1.23c-.1.15-.19.31-.3.45a6.56,6.56,0,0,1-1.38,1.5,3,3,0,0,1-1.38.64s0,0-.06,0a.49.49,0,0,0,.08.4.79.79,0,0,1-.13.89l-.17.17c0,.13,0,.26,0,.39a.74.74,0,0,1-.49.75c-.31.13-.63.24-.94.34-.46.16-.94.15-1.4.27h-.12c-.14,0-.28,0-.42.06a2.15,2.15,0,0,1-.72.07h-.15a.16.16,0,0,0-.12.13.49.49,0,0,0,0,.12.58.58,0,0,1-.18.63,1.17,1.17,0,0,0,0,.11l.21.26a2.92,2.92,0,0,1-.58,2,7.67,7.67,0,0,1-1.3,1.31,13.3,13.3,0,0,1-2.19,1.43l-.36.22a.37.37,0,0,0-.21.38,2.68,2.68,0,0,1,0,.49,5.69,5.69,0,0,1-.36,1.3,1.24,1.24,0,0,1-1.13.74h-.23a.32.32,0,0,0-.27.13.57.57,0,0,0-.08.13c-.18.28-.35.57-.51.86a1.84,1.84,0,0,1-.6.64.82.82,0,0,0-.45.41s-.09.09-.14.12a.36.36,0,0,0-.18.28c-.07.33-.14.65-.23,1A1.67,1.67,0,0,1,128,40.58l-.41.09a.35.35,0,0,0-.29.23l-.06.18c-.09.27-.16.55-.26.81a4.75,4.75,0,0,0-.4,1.52.78.78,0,0,1-.15.39c-.15.21-.29.43-.42.65a1.5,1.5,0,0,1-.45.52.34.34,0,0,0-.13.27,6.63,6.63,0,0,1-.11.76c-.07.32-.17.64-.22,1a.84.84,0,0,1-.25.46c-.31.29-.63.57-1,.83a4.19,4.19,0,0,0-.33.26.71.71,0,0,0-.25.34,1.39,1.39,0,0,1-.2.36,3.28,3.28,0,0,0-.31.45.78.78,0,0,1-.47.42l-1.24.44a1,1,0,0,0-.57.37.35.35,0,0,1-.31.14h-.34a.58.58,0,0,0-.14,0,.39.39,0,0,0,.1.29l.69,1.08.39.66.39.67c.18.29.38.58.54.88.26.48.5,1,.79,1.42s.5.81.79,1.19.48.7.7,1.06a2.85,2.85,0,0,0,.38.53,3.56,3.56,0,0,1,.43.59,5.91,5.91,0,0,0,.81,1.12,15.15,15.15,0,0,0,1.49,1.4,3.45,3.45,0,0,1,.28.26c.36.38.74.72,1.13,1.06s.95.86,1.42,1.3a.3.3,0,0,1,.08.08,6.72,6.72,0,0,0,1.35,1.09,5.35,5.35,0,0,1,.77.58l.64.55c.1.08.21.15.31.24.54.45,1.07.91,1.62,1.36l1.52,1.25.14.13c.63.57,1.29,1.1,2,1.61a3.7,3.7,0,0,0,.33.21c.19.11.4.23.59.36a13.51,13.51,0,0,0,1.5.94,4.05,4.05,0,0,1,.94.6l.19.13,1.55,1c.65.39,1.29.79,2,1.13.16.08.31.19.47.28a.91.91,0,0,1,.06.11l-.13,0a2.34,2.34,0,0,0-.77-.26l-1.25-.24a2.6,2.6,0,0,1-.62-.18c-.28-.14-.56-.26-.84-.39s-.75-.36-1.11-.55a4.87,4.87,0,0,0-.8-.38,1.34,1.34,0,0,1-.24-.12l-1.38-.85a1.24,1.24,0,0,0-.2-.1,2.51,2.51,0,0,1-1-.58,2.2,2.2,0,0,0-.51-.35,1.73,1.73,0,0,1-.47-.33c-.23-.26-.51-.46-.75-.72a5.29,5.29,0,0,0-1.11-.89.57.57,0,0,1-.16-.11,3.33,3.33,0,0,0-.71-.52,1.87,1.87,0,0,1-.5-.43,2.35,2.35,0,0,0-.62-.51l-.39-.24a8,8,0,0,1-1.15-.78,2.28,2.28,0,0,0-.65-.4,2.71,2.71,0,0,1-1-.7,2.81,2.81,0,0,0-.52-.46,1.76,1.76,0,0,1-.3-.24,1.19,1.19,0,0,0-.34-.28l-.26.33a.52.52,0,0,1-.3.22c-.1,0-.21,0-.28.15a.75.75,0,0,0,.19.4l1.33,2a5.06,5.06,0,0,1,.27.46.32.32,0,0,1,0,.3,1.67,1.67,0,0,1-.24.35.77.77,0,0,1-.55.24.9.9,0,0,1-.77-.37,2,2,0,0,0-.31-.39A11.94,11.94,0,0,0,126.18,68l-.21-.17c-.19-.21-.37-.42-.57-.63a1.17,1.17,0,0,0-.47-.38Zm-6.77-29.35,0-.05a0,0,0,0,0,0,0l0,0a.13.13,0,0,1,0,.06s0,.06,0,0,0,0,0,0ZM118.88,50a.48.48,0,0,0,.09.11H119s0-.08,0-.09a.58.58,0,0,0-.14,0,.64.64,0,0,0-.33-.39.19.19,0,0,0-.12-.13c0,.1.07.1.12.12a.79.79,0,0,0,.34.4Zm1.19-3.87.05,0h0s0,0,0,0h-.07a.77.77,0,0,0-.34-.22.13.13,0,0,0-.17.06s0,0,0,.05l.48.11Zm1.15,1.14a.35.35,0,0,0,.28.12.28.28,0,0,0-.28-.11,2.42,2.42,0,0,0-.69-.41s-.08,0-.09,0a.13.13,0,0,0,0,.1s0,0,0,0a4.64,4.64,0,0,0,.72.23Zm7.93-14.91h0a1,1,0,0,0,.41.09h.3a2.2,2.2,0,0,1,1,.23,1.32,1.32,0,0,0,.47.13c.26,0,.51.06.77.09a.15.15,0,0,0,.16-.13.16.16,0,0,0-.11-.18l-.26-.07a.62.62,0,0,1-.31-.14,1,1,0,0,1,.82.12.53.53,0,0,0,.18.05l.53.12a.31.31,0,0,0,.34-.11,2.09,2.09,0,0,1,.66-.53,6.13,6.13,0,0,0,1-.89c.46-.47.79-1,1.2-1.55a.29.29,0,0,0,.08-.14c.05-.26.11-.52.16-.79a.22.22,0,0,0,0-.11.24.24,0,0,0-.1-.1.29.29,0,0,0-.16,0c-.54.11-1.09.18-1.62.32s-.78.18-1.17.26a.5.5,0,0,0-.37.24c-.07.12-.15.23-.25.37l.36.18,0,.23a.93.93,0,0,0,.52.09l1.08,0,.15,0a.28.28,0,0,1,.13.46,1.48,1.48,0,0,0-.37.49,1,1,0,0,1-1.29.21,1.25,1.25,0,0,0-.41-.28,1.43,1.43,0,0,1-.24-.19c0-.11,0-.21.07-.33l-.21,0h-.57l-.73,0a.11.11,0,0,0-.08,0,4.63,4.63,0,0,1-1.17.2c-.22,0-.45,0-.68.11a1,1,0,0,1-.38,0,1.32,1.32,0,0,0-.56.09,1,1,0,0,1-.41.08.66.66,0,0,0-.34.05,2.32,2.32,0,0,1-.38.07c-.31,0-.59.17-.9.18-.22.17-.49.13-.73.2a1.78,1.78,0,0,0-.6.3.79.79,0,0,0,.44,0,.82.82,0,0,1,.38,0c.13.24.13.24.37.2l.16,0c.09,0,.08-.17.18-.17s0,.18.1.22.13,0,.18,0l.2-.17a.37.37,0,0,1,.34-.09s0,.09,0,.1a.52.52,0,0,0-.34.38c.16.11.15.1.28-.05A.55.55,0,0,1,128,32a1.22,1.22,0,0,0,.38,0,1.2,1.2,0,0,1,.38,0,1.67,1.67,0,0,0,.5.06,7.11,7.11,0,0,1,1.45.13,1.47,1.47,0,0,0,.42,0,1.59,1.59,0,0,1,.44,0l.07.21a6,6,0,0,1-.61,0c-.39-.06-.79-.07-1.18-.12a7.89,7.89,0,0,0-.84,0,.21.21,0,0,0-.23.12s0,.06.08.06ZM120,42.2a.47.47,0,0,0-.09-.06s0,0-.06,0,.1,0,.15,0a1.2,1.2,0,0,0,.56.26,1.86,1.86,0,0,1,.58.29,4,4,0,0,0,.86.41c.39.14.77.3,1.14.47l.76.38.14,0c.16-.19.18-.32.06-.47a1.08,1.08,0,0,0-.22-.21,4.19,4.19,0,0,0-.75-.41,12.39,12.39,0,0,0-1.43-.44c-.38-.1-.77-.19-1.17-.26a4.52,4.52,0,0,0-.53-.06Zm2.11,3.38a1,1,0,0,0-.48-.3s-.06,0-.06,0a.08.08,0,0,0,0,.07,1.13,1.13,0,0,0,.53.19.38.38,0,0,0,.12.1l1,.52a.88.88,0,0,1,.37.32.08.08,0,0,1,0,.07l-.06,0h-.08c-.3-.17-.66-.09-1-.26,0,.09,0,.13.07.14l.3.15c0,.1-.06.11-.1.09a1.7,1.7,0,0,1-.4-.13,11.89,11.89,0,0,0-1.28-.53,2.05,2.05,0,0,0-.28-.08s-.07,0-.07.06a.39.39,0,0,1-.28.23.17.17,0,0,0-.06.28,1.93,1.93,0,0,0,.36.22l1.08.58,0,0-.12.12c0,.1.11.11.19.11l.34-.05a1,1,0,0,1,.77.15l.15.07a1.18,1.18,0,0,0,.18-.13,2.55,2.55,0,0,1,.43-.38,1.12,1.12,0,0,0,.33-.47.19.19,0,0,0-.06-.21.91.91,0,0,0-.16-.11.35.35,0,0,1-.17-.33l-.84-.37a1,1,0,0,1-.18-.08.86.86,0,0,0-.58-.14Zm8.73-15.2h0a2.21,2.21,0,0,0,.68,0c.07,0,.13-.08.2-.13a1.23,1.23,0,0,0,.23.09.93.93,0,0,0,.23,0c.1,0,.2,0,.3-.05s.07-.06.11-.11a.46.46,0,0,0-.1-.07l-.34-.07a.67.67,0,0,1-.46-.24.48.48,0,0,0-.49-.16,8.73,8.73,0,0,0-1.24.23c-.13,0-.25.08-.37,0a.14.14,0,0,0-.11,0,3.39,3.39,0,0,0-.83.16,6.53,6.53,0,0,1-1,.27l-.82.2a5.05,5.05,0,0,0-1,.32,1.19,1.19,0,0,1-.48.13l-.19,0a.94.94,0,0,0-.52.23l-.22.16s0,.08,0,.09.08,0,.1,0,.2-.15.31-.23.08,0,.1.05a.3.3,0,0,0,.25.07c.6-.11,1.19-.2,1.77-.36a1,1,0,0,1,.5,0,.43.43,0,0,0,.33,0l0-.09.46-.17a.62.62,0,0,1,.19,0l.31,0,0,.07c.18.06.28-.06.37-.17l.14,0a.63.63,0,0,0,.65-.06c.14-.09.14-.08.35-.06l0,.09c.2,0,.38-.07.56-.1Zm-7.89,7c-.08-.07-.15-.17-.28-.17h0a1.59,1.59,0,0,0-.3-.06l-1-.07a.91.91,0,0,0-.49.06l-.07,0a7.2,7.2,0,0,0-.8.07s-.08,0-.1,0-.09-.1-.17-.06a.28.28,0,0,0-.13.18s0,0,0,0-.41.09-.46.36a.65.65,0,0,0,.42.16c.38,0,.76.08,1.15.1a1.27,1.27,0,0,0,.64,0h.08l.64.11.11,0a13.49,13.49,0,0,1,1.41.15,11,11,0,0,1,2.12.4,1.5,1.5,0,0,0,.81.09.38.38,0,0,0,.14-.28.28.28,0,0,0-.13-.33,2.27,2.27,0,0,0-.34-.19l-.73-.23-.85-.25a3.41,3.41,0,0,0-.46-.1l-.87-.1h-.2c-.07,0-.1.06-.13.13Zm3.85,2.5a1,1,0,0,0,.75-.33,1.49,1.49,0,0,0,.39-1.42.08.08,0,0,0-.07-.07.12.12,0,0,0-.1,0,1.53,1.53,0,0,0-.11.16,5.08,5.08,0,0,1-.38.53.61.61,0,0,0-.19.45,2.48,2.48,0,0,1,0,.27.33.33,0,0,1,0,.14.15.15,0,0,1-.23.05.48.48,0,0,1-.16-.26.45.45,0,0,0-.34-.34l-1.1-.34c-.15-.05-.3-.07-.45-.11a6.26,6.26,0,0,0-1.3-.17h0s-.07,0-.08.07a.11.11,0,0,0,0,.11.26.26,0,0,0,.13.06c.51.14,1,.31,1.53.42a6.14,6.14,0,0,1,.73.22l.22.08a1.5,1.5,0,0,1,.83.46Zm-6.32-.6.69.22a.57.57,0,0,0,.34,0,.26.26,0,0,1,.15,0l.61.24a1,1,0,0,0,.48.1.41.41,0,0,1,.19,0l1.19.33.41.12a8.75,8.75,0,0,1,1.1.45,2.56,2.56,0,0,0,.37.17c0-.12,0-.2,0-.29a1.28,1.28,0,0,0,0-.27.44.44,0,0,0-.13-.14,2.64,2.64,0,0,0-.38-.18l-1-.28h0c-.81-.13-1.61-.33-2.43-.39-.32,0-.64-.09-1-.13a1.31,1.31,0,0,0-.53,0Zm23.4-17.77-.83.28-.84.37a.39.39,0,0,0-.23.18c0,.13.09.18.14.27l.15.23a.39.39,0,0,0,.25.21,1.65,1.65,0,0,0,.92-.7,8.06,8.06,0,0,0,.44-.84Zm-18.15,45c-.06-.06-.11-.14-.17-.2-.23-.22-.46-.45-.7-.66s-.31-.27-.47-.4a2.39,2.39,0,0,1-.8-1,3.13,3.13,0,0,0-.15-.32.36.36,0,0,0-.27-.19l-.07,0a6.17,6.17,0,0,0,.85,1.58,1.31,1.31,0,0,0,.42.39l.89.55.44.29,0-.06Zm.11-29.75c0-.24-.06-.42-.08-.63-.11,0-.14.14-.27.12l-.09-.2a.85.85,0,0,0-.17,0,4,4,0,0,0-1,0c-.1,0-.23,0-.31.15l.09.05a1.1,1.1,0,0,1,.5.17,8.33,8.33,0,0,0,1.37.36Zm-6,11.87s0,.06,0,.08l.68.72a.17.17,0,0,0,.24,0c.1-.08.23-.15.23-.29s-.15-.18-.27-.23l-.78-.31Zm8.37-16.24,0,0s0-.06,0-.09,0-.08-.06-.08a2.3,2.3,0,0,0-.45,0,.08.08,0,0,0-.09.09c0,.05,0,.11.07.12a.66.66,0,0,0,.44,0Zm4.26-4.09a1.11,1.11,0,0,0,.91-.13c0-.08-.06-.07-.1-.07a3.69,3.69,0,0,0-.81.2Zm-5,4.12c-.19-.09-.37,0-.56,0l-.57,0s0,.07,0,.07a4.55,4.55,0,0,0,1.09-.12Zm-2,.16s0,0,0,0-.18,0-.2,0a0,0,0,0,0,0,0,.15.15,0,0,0,.2,0Zm-1.41.23a.09.09,0,0,0,.13,0s0,0,0-.06h-.14s0,0,0,.06Zm-3.87,6.41,0,0,0,0,0,0,0,0Zm11.65-5.12,0,.1h.06a.07.07,0,0,0,0-.07l-.06,0ZM120.5,45.89l0,.06.09,0s0,0,0-.06l-.06,0Zm2.81,14.32,0,0a.09.09,0,0,0,0,0s0,0,0,0,0,0,0,.05ZM133,30.05h0l.05,0,0,0Zm-10.4,6.09h0s0,0,0-.06h0s0,0,0,.06Zm.84,0,.06,0v0l-.06,0v0ZM119,37.72l0,0v0l0,0v0Zm1.23,8.06,0,0v0l-.06,0v0Zm3.41,14.79,0,0v0h0Z"/><path class="cls-2" d="M140.78,12.82h0a7.76,7.76,0,0,0-.78.84s0,.05,0,.09a.32.32,0,0,0,.16-.09c.16-.13.31-.27.48-.39a4.3,4.3,0,0,0,.61-.52l.74-.67.61-.53a.78.78,0,0,0,.29-.52h0l.17.07L144.38,10c.55-.46,1.08-.95,1.6-1.45a.49.49,0,0,0,.16-.33.84.84,0,0,1,.08-.4.73.73,0,0,1,.12,0c.06,0,.13,0,.15-.13a1.7,1.7,0,0,0-.24-.62.14.14,0,0,1,0-.19l.21,0,.22-.06.2.44a.68.68,0,0,1,0,.56.34.34,0,0,0,.07.35,7.66,7.66,0,0,0-.31,1,.52.52,0,0,1-.18.33.67.67,0,0,0-.24.46.3.3,0,0,1-.08.17,1.09,1.09,0,0,0-.29.61c0,.07,0,.12-.09.16a.11.11,0,0,0-.06.09c0,.1,0,.16-.12.21a.17.17,0,0,0-.08.12.58.58,0,0,1-.23.3,2,2,0,0,0-.47.54c0,.16,0,.32-.05.47s0,.11,0,.15a3.92,3.92,0,0,1-.33.56c-.31.39-.63.78-1,1.16,0,0-.08.08,0,.14l.07,0,.33-.1a5.48,5.48,0,0,1,.92-.29,2.46,2.46,0,0,0,.29-.09l1.51-.6,1.5-.61c.46-.18.94-.33,1.41-.52a4.34,4.34,0,0,1,1.47-.26h0a.74.74,0,0,1,.69.4,4.38,4.38,0,0,1,.25.69.38.38,0,0,1,0,.15l-.21.83a1.35,1.35,0,0,1-.8.88c-.37.16-.74.29-1.11.44a6.14,6.14,0,0,0-.64.27c-.49.29-1,.58-1.48.83a7.52,7.52,0,0,1-1.29.51l-.48.14-.93.37a.61.61,0,0,1-.18.05.18.18,0,0,1-.13-.06.17.17,0,0,1,0-.14.38.38,0,0,1,.11-.11c.15-.12.3-.25.46-.36a6.89,6.89,0,0,0,.83-.62,6.36,6.36,0,0,1,.57-.46c.41-.28.84-.54,1.26-.81l.91-.58s.09-.06,0-.14l-.32.11-.36.13-.54.22c-.27.11-.54.24-.82.34a3,3,0,0,1-.67.16,2.82,2.82,0,0,0-.64.14c-.21.07-.41.14-.62.19-.49.14-1,.27-1.44.44s-1.17.41-1.76.6-1.06.31-1.58.47a3,3,0,0,0-.36.14,4,4,0,0,0-.61.33c-.46.29-.94.55-1.38.85a5.33,5.33,0,0,1-.8.46c-.46.21-.89.46-1.33.71a1.18,1.18,0,0,1-.28.12,8.28,8.28,0,0,0-1.06.46c-.37.19-.69.45-1,.66a4.68,4.68,0,0,0-.82.58c-.16.14-.35.26-.52.39a12.94,12.94,0,0,1-1.26.82.31.31,0,0,0-.09.07,2.81,2.81,0,0,1-.76.46c-.26.13-.51.29-.78.4s-.67.34-1,.5a1.5,1.5,0,0,1-.36.11,1.09,1.09,0,0,0-.6.33l-.66.71c-.41.44-.86.84-1.31,1.24a1.21,1.21,0,0,0-.38.43.53.53,0,0,1-.1.12,3.61,3.61,0,0,1-.74.48.38.38,0,0,1-.37,0,.83.83,0,0,0-.37-.11.75.75,0,0,1-.32-.13c-.13-.08-.27-.15-.41-.22a.6.6,0,0,0-.62,0,.2.2,0,0,1-.11,0l-.11-.15a.2.2,0,0,0-.11,0,5.27,5.27,0,0,0-.79.39s0,0,0,.08l.26-.1a2.5,2.5,0,0,1,.25-.09c.09,0,.09,0,.25,0a3,3,0,0,1-.69.29c-.12,0-.24.09-.36.12l-.78.23a.2.2,0,0,1-.24-.08l-.11-.06-.12.14a.4.4,0,0,1-.17.15l-.8.28s-.09,0-.13,0a2.61,2.61,0,0,0,.27-.19c.09-.09.24-.09.33-.2-.11-.07-.19,0-.26,0a.93.93,0,0,1-.39.15.77.77,0,0,0-.28.12,1.7,1.7,0,0,0-.62.57,1.27,1.27,0,0,1-.48.44l-.39.24A17.11,17.11,0,0,0,114,30.93c-.73.59-1.44,1.2-2.17,1.8-.18.15-.38.3-.58.44a4.9,4.9,0,0,1-.67.45,1.89,1.89,0,0,0-.63.56c-.26.35-.55.68-.8,1s-.36.56-.53.85a5.3,5.3,0,0,1-.45.71.6.6,0,0,0-.16.5.42.42,0,0,1,0,.22c-.07.29-.15.58-.24.86a6.24,6.24,0,0,0-.25,1.12,2.68,2.68,0,0,1-.18.63,2.53,2.53,0,0,0-.24.53,3.47,3.47,0,0,1-.23.61,2.77,2.77,0,0,1-.51.81,3.2,3.2,0,0,0-.4.51,1.8,1.8,0,0,1-.53.5,1.06,1.06,0,0,1-.7.26s0,0-.08.05-.06.15-.1.23l-.12.24s-.07.08-.12,0a14.8,14.8,0,0,1-.26-1.6.37.37,0,0,0-.17-.29,2.84,2.84,0,0,0-.87-.39c-.19-.06-.4-.08-.6-.15a7,7,0,0,0-1.45-.11,2,2,0,0,0-.42,0l-.15,0a1.09,1.09,0,0,1-.31,0,1,1,0,0,0-.6.1,1.78,1.78,0,0,1-.43.18,5,5,0,0,0-.65.23,1.87,1.87,0,0,0-.81.58,2.19,2.19,0,0,1-.68.49,2,2,0,0,0-.73.41.78.78,0,0,1-.78.19h-.11a8.66,8.66,0,0,0-.69.57c-.28.26-.19.4,0,.62a.57.57,0,0,0,.22.15c.17.08.35.17.53.24a5.62,5.62,0,0,0,.58.19l1.28.29.71.16,1,.18a5.16,5.16,0,0,0,.88.11,2.07,2.07,0,0,1,.49.07,4,4,0,0,1,.81.26,1,1,0,0,0,.18.05l.56.15.26.08.13-.09a.74.74,0,0,1,.65-.26l.5,0,.73.09a.26.26,0,0,0,.3-.19.94.94,0,0,1,.07-.22.39.39,0,0,1,.12-.14.18.18,0,0,1,.28.1c0,.21.05.41.08.62a1.73,1.73,0,0,1,0,.68c-.07.24-.14.47-.2.71,0,.06,0,.12-.06.2l.12,0c.13,0,.19-.13.32-.11a2,2,0,0,1,.9.55c.09.08.21.12.28.21a2,2,0,0,1,.14.34s.09,0,.12,0a.34.34,0,0,1,.36.07l.36.29a.35.35,0,0,1,.16.43s0,0,0,.09l.14.1a2.25,2.25,0,0,1,.47.34,3.73,3.73,0,0,0,.6.41.34.34,0,0,0,.14.05l.19,0a.28.28,0,0,1,.18.23,1.18,1.18,0,0,0,0,.27.78.78,0,0,1-.06.6.43.43,0,0,0,0,.44c.09.14.19.28.29.41s.2.23.29.36a.7.7,0,0,1-.07.92,1.34,1.34,0,0,1-.31.22c-.15.07-.25.06-.34-.08a1.36,1.36,0,0,0-.62-.44.53.53,0,0,0-.22,0l-.11.17c-.06.13-.12.26-.19.39a.54.54,0,0,1-.37.3.76.76,0,0,0-.21.08,3,3,0,0,1-.08.35.94.94,0,0,1-.27.46.45.45,0,0,1-.52.1,3.14,3.14,0,0,0-.18-.37.47.47,0,0,1,0-.51,1.53,1.53,0,0,1,.37-.54s.1-.08.08-.16l0,0c-.29-.19-.32-.28-.13-.55a3.86,3.86,0,0,1,1.17-1.21.84.84,0,0,0,.18-.15.19.19,0,0,0,0-.24c-.11-.19-.23-.38-.35-.56a3.76,3.76,0,0,1-.59-1,.48.48,0,0,0-.26-.28l-.59-.28a4.42,4.42,0,0,1-.61-.32,3.72,3.72,0,0,0-.67-.38l-.31-.16a2.74,2.74,0,0,0-1.29-.45l-.12,0a6.93,6.93,0,0,1-1.8-.75l-.11,0c-.3-.15-.6-.29-.89-.45a5.7,5.7,0,0,0-.92-.4,5,5,0,0,1-1.19-.62A.73.73,0,0,0,98,46.3l-.9-.19-.6-.13c-.32-.08-.63-.14-.94-.24a12.14,12.14,0,0,0-1.17-.36,2.59,2.59,0,0,0-1.56.09c-.29.11-.59.18-.87.3a.63.63,0,0,1-.19,0,.19.19,0,0,1-.18-.27,1.7,1.7,0,0,1,.26-.38,6,6,0,0,1,.87-.87,2.32,2.32,0,0,0,.7-.91,6.31,6.31,0,0,1,1.29-2c.21-.23.42-.45.65-.66a8,8,0,0,1,1.57-1.12A5.41,5.41,0,0,1,98.11,39a8.09,8.09,0,0,1,1.83-.27,16.61,16.61,0,0,1,1.73,0c.76,0,1.52.09,2.28.11.38,0,.77,0,1.15,0a2.56,2.56,0,0,1,.27,0l.29,0s.06,0,.06-.06a1.87,1.87,0,0,0,.07-.22c0-.2.07-.4.12-.6s.16-.57.23-.86a8.35,8.35,0,0,1,1-2.45c.26-.42.53-.83.8-1.23s.64-.78.94-1.18a.86.86,0,0,1,.14-.13c.67-.58,1.34-1.16,2-1.73l1.12-.89a17.14,17.14,0,0,1,2.26-1.61l.16-.11a.28.28,0,0,0,.15-.25s0-.07,0-.11A.43.43,0,0,1,115,27l.21-.1c.42-.22.86-.41,1.26-.66a12.61,12.61,0,0,0,1.83-1.42c.78-.71,1.5-1.48,2.22-2.25l1.12-1.17L123,20c.44-.46.86-.93,1.29-1.39l1.48-1.56c.63-.65,1.25-1.31,1.88-2s1.13-1.12,1.7-1.68a8.26,8.26,0,0,0,.91-1c.31-.41.6-.83.9-1.25a17.3,17.3,0,0,0,1-1.42,1.12,1.12,0,0,1,.17-.21l.9-1.25a3.26,3.26,0,0,0,.24-.4,1.85,1.85,0,0,0,.23-.84,1.43,1.43,0,0,1,.09-.41c.1-.28.21-.56.32-.83a1.89,1.89,0,0,1,.45-.67A.49.49,0,0,1,135,5a3.09,3.09,0,0,1,1,.38,1.71,1.71,0,0,0,.27.14.84.84,0,0,1,.31.22,4.44,4.44,0,0,0,.37.38.35.35,0,0,0,.12,0l.29-.2a6.67,6.67,0,0,1,.67-.52,4,4,0,0,0,.59-.5l.86-.82,1.15-1.09a3.45,3.45,0,0,1,.26-.28,20.13,20.13,0,0,0,1.5-1.56.6.6,0,0,0,.17-.37.4.4,0,0,1,.23-.38,1.19,1.19,0,0,0,.33-.26.19.19,0,0,1,.3,0,2.54,2.54,0,0,0,.68.5,1.88,1.88,0,0,1,.61.58,2.66,2.66,0,0,1,.36.85c0,.1,0,.2.07.3a.29.29,0,0,0,.27.24h.35a.86.86,0,0,1,.91.89.22.22,0,0,1,0,.08c0,.28,0,.57,0,.85a3,3,0,0,1-.48,1.56c-.19.29-.35.6-.52.89,0,.14.16.24.11.4-.15,0-.15-.19-.28-.22l-.09.12a4.17,4.17,0,0,1-.77.9c-.22.2-.41.43-.62.64l-.54.55c-.07.08-.16.14-.22.22a6.15,6.15,0,0,1-.67.68c-.37.33-.74.65-1.08,1-.61.61-1.25,1.2-1.87,1.79-.19.19-.37.39-.57.58l-1.13,1.1a.79.79,0,0,0-.14.18.76.76,0,0,1-.42.47l0,0a.17.17,0,0,0,0,.07s0,0,.07,0l.2-.11.17.11c.08-.06.17-.11.25-.18s.34-.34.53-.5a4,4,0,0,1,.71-.59.24.24,0,0,0,.09-.11.51.51,0,0,1,.24-.24,1.12,1.12,0,0,0,.5-.46.31.31,0,0,1,.1-.12,1.27,1.27,0,0,0,.35-.3.17.17,0,0,1,.21,0Zm-10.94,2.7.07,0a.46.46,0,0,0,.43-.5.68.68,0,0,0,.31-.14,6.22,6.22,0,0,0,.76-.78,1.4,1.4,0,0,0,.1-.16.82.82,0,0,0,.38-.25c.23-.23.46-.48.68-.72,0,0,0,0,0,0s-.08,0-.1,0l-.26.23c-.18.17-.35.34-.52.52a2.15,2.15,0,0,0-.18.24c-.16.12-.33.24-.48.37a7.54,7.54,0,0,1-.58.55.54.54,0,0,0-.1.16,1.69,1.69,0,0,0-.51.52l0,0,0,0Zm3.61-3.43a2,2,0,0,0-.65.62s0,0,.07,0a1.75,1.75,0,0,0,.57-.64l0,0h0v0Zm-5.58,5.75.24-.25s.06-.07,0-.09c-.08-.2.11-.3.18-.45a1.9,1.9,0,0,0-.73.69c.07.09.21,0,.26.1l0,0,0,0Zm16.65-6.65h0s0,.07,0,.11,0,.16.12.14a.44.44,0,0,0,.36-.39,1.93,1.93,0,0,0,.05-.42.59.59,0,0,0-.64.18,3.14,3.14,0,0,1-.31.32c.1.17.14.19.27.15l.21-.08ZM103.31,39.81l0,0h0s0,0,0,0a12,12,0,0,0,1.1.77l.16.09c.26.13.35.1.51-.14a3.72,3.72,0,0,0,.19-.34.61.61,0,0,0,0-.13s-.06,0-.08,0a3.66,3.66,0,0,1-.81,0,1.3,1.3,0,0,0-.34,0,.67.67,0,0,1-.5-.12.75.75,0,0,0-.26,0Zm28.83-21.75.23-.12.79-.55a.64.64,0,0,0,.25-.29,1.39,1.39,0,0,1,.46-.56l1.27-1c.09-.07.1-.17.15-.26a.2.2,0,0,1,.27-.08l-.05,0h0l0,0a6.53,6.53,0,0,0,.95-.79c.44-.42.88-.83,1.34-1.22l.81-.66.64-.55c.13-.1.25-.21.4-.35-.07,0-.1,0-.12,0l-.35.23a.1.1,0,0,1-.06-.13c0-.09.12-.17.09-.28s-.14.07-.2.12a.3.3,0,0,1-.35.07h-.12a2.48,2.48,0,0,0-.51.41c-.27.28-.56.56-.84.84l-.36.35a4.5,4.5,0,0,1-.52.46,4.1,4.1,0,0,0-.66.59.52.52,0,0,1-.1.11c-.52.45-.93,1-1.44,1.45a8.59,8.59,0,0,1-.59.76,11.12,11.12,0,0,1-.81.87l-.61.65,0,0,0,0ZM143.33,2.19h-.08l0,0,.06,0c-.06.06-.1.16-.18.19a1.74,1.74,0,0,0-.51.5l-.46.57-.75.87-.29.3c-.09.11-.17.22-.25.34l-.05.07a1.8,1.8,0,0,0-.52.61c-.05.1-.12.2-.17.3a.66.66,0,0,0-.12.43c0,.2,0,.23-.24.27l-.08,0a.75.75,0,0,1-.17.49,1.27,1.27,0,0,1-.13.19c-.49.56-.88,1.2-1.33,1.79s-.75.95-1.13,1.42a.66.66,0,0,1-.51.23,3.25,3.25,0,0,1-.54,0,.5.5,0,0,0-.42.15c-.08.09-.17.16-.24.25a7.66,7.66,0,0,1-.93.87.86.86,0,0,0-.14.13c-.52.6-1.14,1.11-1.68,1.7s-1,1-1.46,1.48c-.25.31-.55.58-.82.87s-.73.76-1.11,1.13l-.1.11a6.19,6.19,0,0,1-.76,1.06c-.12.14-.11.32-.2.45s.08.27.13.42l.13,0,1.26-.83c.23-.14.45-.3.67-.45a2,2,0,0,0,.47-.4,1.38,1.38,0,0,1,.33-.31,6.34,6.34,0,0,0,.88-.75c.62-.6,1.22-1.22,1.84-1.81s1.1-1.12,1.64-1.69l.67-.69,1.68-1.75.33-.33,1-1.1,1-1.09L141.32,7c.22-.23.43-.48.64-.72.53-.58,1-1.16,1.59-1.73a1.31,1.31,0,0,0,.38-.86,9.49,9.49,0,0,1,.2-1.3,3.41,3.41,0,0,0,.05-.46.86.86,0,0,0,0-.17c-.1,0-.13,0-.17.08l-.47.61a.17.17,0,0,1-.15.1,0,0,0,0,0,0,0l.43-.6v0c-.31,0-.39,0-.45.35ZM145.75,6l-.17-.2s0-.07,0-.09a1.05,1.05,0,0,0,.06-.78,1,1,0,0,1,0-.34.81.81,0,0,0-.26-.59.66.66,0,0,0-.38-.25.56.56,0,0,0-.29.38.43.43,0,0,1-.21.27.7.7,0,0,0-.21.21,4.54,4.54,0,0,1-.39.48c-.24.25-.46.52-.69.78a3.39,3.39,0,0,1-.31.34c-.23.23-.42.48-.63.73s-.27.31-.41.46c-.28.3-.58.59-.85.89a5.21,5.21,0,0,0-.41.52c-.23.3-.47.61-.68.93a2.55,2.55,0,0,0-.49,1l.16.16a.62.62,0,0,0,.16-.1c.13-.12.25-.25.38-.38a.76.76,0,0,1,.43-.23.06.06,0,0,1,.07,0s0,.08,0,.1c-.13.2-.26.39-.4.57s-.19.27-.29.41a.14.14,0,0,0,.16,0l1.09-1c.67-.62,1.3-1.28,2-1.87s1.09-1,1.65-1.52a6.44,6.44,0,0,0,.91-.9Zm-3.15,7.88a.42.42,0,0,0-.29,0,3.66,3.66,0,0,1-.81,0,.24.24,0,0,0-.24.09l-.82.81-.6.61a.83.83,0,0,0-.14.22c0,.07.05.17.12.14l.54-.2A7.7,7.7,0,0,0,142.55,14l0-.07v0Zm-.76-.38a4,4,0,0,0,1.62-.56l-.13-.25.56-.67a.09.09,0,0,0-.14-.05l-.15.11c-.11.07-.21.18-.33.2a.65.65,0,0,0-.41.25l-.45.52c-.1.06-.28,0-.39.12a.49.49,0,0,0-.18.33ZM145,10.2c.18.29.2.35.17,1.07a1.07,1.07,0,0,0,.28-.43c.18-.52.4-1,.55-1.56,0-.07.06-.15,0-.22-.23.15-.33.27-1,1.14Zm-50.11,33a.7.7,0,0,0-.28-.37.87.87,0,0,0-.57.52c-.07.18-.15.35-.22.53a.54.54,0,0,0,0,.15.56.56,0,0,0,.13,0,3.77,3.77,0,0,0,.82-.62,1.66,1.66,0,0,0,.16-.21Zm19.53-12.82c.09,0,.15,0,.18-.05a5.12,5.12,0,0,0,.52-.4,1.86,1.86,0,0,1,.41-.28,3.47,3.47,0,0,0,1.12-.74c0-.08-.07-.06-.12-.05a.84.84,0,0,0-.14.06c-.17.06-.27.22-.45.29a2.31,2.31,0,0,0-.49.3l-.44.31a.86.86,0,0,1-.16.1c-.23.06-.31.24-.43.46Zm11.42-5c-.08,0-.11,0-.13,0a.09.09,0,0,0-.07,0l-.67.67s.07,0,.08,0a3.77,3.77,0,0,0,.79-.72Zm8-13.68a1.68,1.68,0,0,0,.58-.55s0,0-.07,0a2.72,2.72,0,0,0-.51.56Zm.66-3.46a.65.65,0,0,0-.35.41c.15-.11.31-.2.35-.41Zm-8.94,16.93c-.07-.07-.15,0-.22,0s-.1.08-.09.14.07.1.11.09a.26.26,0,0,0,.2-.2Zm3.31-8.61-.19.16c-.07.07-.1.14-.06.16s.12,0,.17-.07.14-.12.08-.25Zm-6.06,9.9a.62.62,0,0,0-.36.06c.16,0,.16,0,.36-.06Zm2.25-5.93a.2.2,0,0,0-.19.1s0,.06,0,.07a.08.08,0,0,0,.07,0,.17.17,0,0,0,.13-.18Zm11.18-4.46c-.1,0-.15.07-.2.15.12,0,.12,0,.2-.15Zm-9.67,2.81.13-.08s0,0,0-.06-.07,0-.09,0a.43.43,0,0,0-.1.09l0,.05Zm9.9-3s0,.05.06.05a.08.08,0,0,0,.06,0s0,0,0-.06l-.1,0Zm-7.27.3,0,0,0-.05,0,0,0,.05Zm15.56-4.53.05,0,0-.09,0,0a.46.46,0,0,0-.07.07ZM126.33,24.84l0,.09h0s.07-.06,0-.08Zm-.79.08,0,0,0-.05h0l0,0ZM136.27,6.78l0,0,.05,0,0,0,0,0Zm-8.51,12.85h0a.13.13,0,0,0,0-.06h0a.13.13,0,0,0,0,.06Zm-1.9,0v0h0Z"/><path class="cls-2" d="M109.93,41.51s0,0,0-.06a.84.84,0,0,0-.24-.55s0,0,0-.09h.09l.26.08a1.32,1.32,0,0,1,.62.29s.14,0,.23.09l.12-.15s.09-.1.15-.11a1.12,1.12,0,0,0,.59-.41.43.43,0,0,0,.06-.56,1.9,1.9,0,0,1-.29-.67.62.62,0,0,0-.3-.39.75.75,0,0,1-.31-.37,3.24,3.24,0,0,0-.31-.43.39.39,0,0,1,.08-.16c.39-.51.79-1,1.19-1.52a2,2,0,0,0,.29-.49.44.44,0,0,0,0-.15.25.25,0,0,0,0-.25.2.2,0,0,0-.25,0c-.18.1-.36.2-.53.31a1,1,0,0,0-.24.2,9.47,9.47,0,0,1-.86.93l-.7.71a3.68,3.68,0,0,0-.67,1,2.79,2.79,0,0,0-.16.75c0,.08,0,.16,0,.23a.64.64,0,0,0,.1.49.4.4,0,0,1-.47.14.21.21,0,0,0-.29.17,2.51,2.51,0,0,0,0,.27.53.53,0,0,1,.18,0l.66.45a.12.12,0,0,1,0,.1.12.12,0,0,1-.09,0,.78.78,0,0,1-.6-.44,1.12,1.12,0,0,0-.17-.21l-.11.13c0,.18.22.23.23.42H108l-.11,0,0,.05a2.5,2.5,0,0,1-.07.26.25.25,0,0,0,.07.28l.47.45a2.34,2.34,0,0,1,.47.57.18.18,0,0,0,.2.08c.08,0,.17-.12.17-.19a1.61,1.61,0,0,0-.08-.38,1.37,1.37,0,0,0-.34-.55.79.79,0,0,1-.15-.19l.12,0c.14,0,.24-.18.39-.12a2.62,2.62,0,0,1,.59.27,1.59,1.59,0,0,0,.43.22s0,0,0,0l-.21-.45Z"/><path class="cls-2" d="M111.45,56.78c.22,0,.39-.13.42-.35s.17-.15.22-.23a.11.11,0,0,0-.14-.07,1.24,1.24,0,0,1-.76-.05.58.58,0,0,0-.19,0,2.27,2.27,0,0,1-1.06-.25c-.1.06-.18.14-.29.09a1.28,1.28,0,0,0-.27-.05.63.63,0,0,0-.3,0c-.25.09-.52,0-.77.07a.83.83,0,0,0-.48.36,2.07,2.07,0,0,1-.61.64l-.53.44a1.08,1.08,0,0,0-.35.54.18.18,0,0,0,0,.14.17.17,0,0,0,.14,0l.21-.09.44-.23a.33.33,0,0,1,.13,0s0,.05,0,.07a3.82,3.82,0,0,1,.11.57,1.81,1.81,0,0,0,.3.82c.1.16.22.29.3.45a.19.19,0,0,0,.24.08.55.55,0,0,0,.37-.53,1.68,1.68,0,0,0-.17-.82,1.49,1.49,0,0,1-.15-1c.06-.06.12,0,.18,0a.42.42,0,0,0,.33,0,.39.39,0,0,1,.3,0c.28.1.56.21.84.28a1.72,1.72,0,0,0,.46,0,.39.39,0,0,0,.2-.08,1.94,1.94,0,0,1,.29-.21A.78.78,0,0,0,111.45,56.78Z"/><path class="cls-2" d="M122.12,30.54a2.46,2.46,0,0,0-.29.09,1,1,0,0,1-.6.1.42.42,0,0,0-.22,0,3.48,3.48,0,0,0-1,.49.23.23,0,0,0-.08.3c0,.08.11.14.18.12a2.75,2.75,0,0,0,.41-.11,2.8,2.8,0,0,1,.69-.23c.34-.08.67-.16,1-.26a2.53,2.53,0,0,0,.42-.18.19.19,0,0,0,.08-.26.24.24,0,0,0-.22-.18l-.42.08Z"/><path class="cls-2" d="M121.91,30.14l.75-.19a1.09,1.09,0,0,1,.26-.05,3.81,3.81,0,0,0,1.15-.29.38.38,0,0,0,.22-.15.21.21,0,0,0,0-.11.12.12,0,0,0-.09-.05.4.4,0,0,0-.15,0,3.44,3.44,0,0,1-.9.19,7.78,7.78,0,0,0-1.43.32,2.69,2.69,0,0,1-.79.15l-.15,0a.15.15,0,0,0-.14.19.18.18,0,0,0,.21.17l1.06-.23Z"/><path class="cls-2" d="M112,55.7a.65.65,0,0,0-.23-.36l-.75-.71,0,0c-.08-.06-.16-.13-.27-.1s-.11.07-.17.29a1.75,1.75,0,0,0,.6.61l.5.29A.3.3,0,0,0,112,55.7Z"/><path class="cls-2" d="M113.8,54.26s0-.07,0-.09a1.68,1.68,0,0,0-.35-.59.2.2,0,0,0-.3,0,.23.23,0,0,0-.07.33.49.49,0,0,0,.16.16,3.62,3.62,0,0,0,.45.2A.12.12,0,0,0,113.8,54.26Z"/><path class="cls-2" d="M132.62,23.23l-.07-.1c-.23-.16-.26-.16-.47,0l-.09.08a.46.46,0,0,0-.44,0s0,.05,0,.06,0,.09,0,.09a.53.53,0,0,0,.66-.15A.58.58,0,0,0,132.62,23.23Z"/><path class="cls-2" d="M125.68,27.1c0-.24,0-.27-.14-.33a1.17,1.17,0,0,0-.25-.07.11.11,0,0,0-.12.15.36.36,0,0,0,.12.15A.62.62,0,0,0,125.68,27.1Z"/><path class="cls-2" d="M113.07,55.75a.74.74,0,0,0-.57-.19s0,0,0,0,0,.06,0,.07A.65.65,0,0,0,113.07,55.75Z"/><path class="cls-2" d="M134.11,33.08a1.05,1.05,0,0,0,.11-.07s0,0,0-.06,0-.07-.06-.08a.31.31,0,0,0-.29.06.11.11,0,0,0,0,.06s0,.07.07.07A1.1,1.1,0,0,0,134.11,33.08Z"/><path class="cls-2" d="M131.31,28.05l.12-.07s0,0,0-.06a.08.08,0,0,0-.06,0l-.24.08s0,0,0,.06,0,0,.05,0Z"/><path class="cls-2" d="M114.48,50.67a.41.41,0,0,0-.1.09.2.2,0,0,0,0,.13s.11,0,.15,0a.38.38,0,0,0,.06-.13s0,0,0,0Z"/><path class="cls-2" d="M126.24,26.72a.42.42,0,0,0-.33.05.07.07,0,0,0,0,.06.09.09,0,0,0,.05,0C126,26.86,126.11,26.79,126.24,26.72Z"/><path class="cls-2" d="M142.35,11.16c.15,0,.15,0,.17-.22A.25.25,0,0,0,142.35,11.16Z"/><path class="cls-2" d="M129.71,24.25l0,0a.14.14,0,0,0,.16-.07.06.06,0,0,0,0,0s-.1,0-.16,0,0,0,0,0Z"/><path class="cls-2" d="M145.88,7.49c0,.06,0,.12,0,.17s0,0,.05,0,0-.06,0-.08a.19.19,0,0,0,0-.1A.1.1,0,0,0,145.88,7.49Z"/><path class="cls-2" d="M142.88,11l.12-.18c-.11,0-.15,0-.18.09s0,.08.07.09Z"/><path class="cls-2" d="M145.91,8.23s0,0,0,0h0a.47.47,0,0,0,.06-.09l0,0,0,0A.35.35,0,0,0,145.91,8.23Z"/><path class="cls-2" d="M122.36,72.89s.08.06.1.06a.16.16,0,0,0,.05-.08l-.05,0S122.41,72.87,122.36,72.89Z"/><path class="cls-2" d="M115.26,39s0,0,0-.05,0,0,0,0l0,0Z"/><path class="cls-2" d="M121.58,64.21h.15l0,0-.05,0Z"/><path class="cls-2" d="M141.37,12.15l0-.05h0s0,0,0,.06Z"/><path class="cls-2" d="M141.05,12.47l0-.05h0l0,.05Z"/><path class="cls-2" d="M145.19,12.29l0,0,0-.05,0,0Z"/><path class="cls-2" d="M104.63,99.53s0,0,0,0a0,0,0,0,0,0,0,0,0,0,0,0,0,0Z"/><path class="cls-2" d="M161.16,63.4l0,0-.06-.06,0,.06A.1.1,0,0,0,161.16,63.4Z"/><polygon class="cls-2" points="142.75 10.75 142.75 10.78 142.77 10.76 142.75 10.75"/><polygon class="cls-2" points="115.31 39.26 115.29 39.27 115.31 39.29 115.31 39.26"/><polygon class="cls-2" points="141.79 11.96 141.77 11.94 141.77 11.97 141.79 11.96"/><path class="cls-2" d="M120.32,62.72l0,0s0,0,0,0l0,0Z"/><path class="cls-2" d="M132.72,23s0,0,0,0l0,0Z"/><path class="cls-2" d="M140.78,12.82l.06,0s0,0,0,0Z"/><path class="cls-2" d="M109.93,41.51l0,0s0,0,0,0,0,0,0,0Z"/><path class="cls-2" d="M140.79,5.1h.09l0-.07Z"/><path class="cls-2" d="M134.08,31.74l0,.05h0l0-.05Z"/><path class="cls-2" d="M120,37.58l0,0H120v0Z"/><path class="cls-2" d="M120.3,37.66l0,0,0,0,0,0Z"/><polygon class="cls-2" points="122.35 37.33 122.35 37.36 122.37 37.34 122.35 37.33"/><path class="cls-2" d="M122.72,37.24s0,.07,0,.09,0,0,0,0l0-.07Z"/><polygon class="cls-2" points="121.43 37.28 121.4 37.28 121.41 37.3 121.43 37.28"/><path class="cls-2" d="M123,37.41h0Z"/><path class="cls-2" d="M129,30.11a.07.07,0,0,0-.05,0s0,0,0,0l0,0Z"/><path class="cls-2" d="M125.23,31s0,0,0,0h0a0,0,0,0,0,0,0Z"/><path class="cls-2" d="M130.88,30.37l0,0h0l0,0Z"/><path class="cls-2" d="M129.15,32.39l0,0h0l0,0Z"/><path class="cls-2" d="M128.71,18.45s0,.05,0,.05.09-.06.08-.13a.12.12,0,0,0-.05-.05S128.7,18.38,128.71,18.45Z"/><polygon class="cls-2" points="135.9 11.74 135.93 11.74 135.91 11.72 135.9 11.74"/><path class="cls-2" d="M142,8.16h.06v0l0,0Z"/><path class="cls-2" d="M142,8.42v.06h0s0,0,0-.06Z"/><polygon class="cls-2" points="144.59 5.35 144.57 5.34 144.56 5.36 144.59 5.35"/><path class="cls-2" d="M144.91,5a0,0,0,0,0,0,0V5l0,0A0,0,0,0,0,144.91,5Z"/><path class="cls-2" d="M137.22,13.22a1,1,0,0,0-.11.1s0,0,0,.07.07,0,.09,0,0-.1,0-.15Z"/><path class="cls-2" d="M137.22,13.22l0,0,0,0Z"/><path class="cls-2" d="M144.53,10.94a.52.52,0,0,0,.11-.1s0-.11,0-.09a.09.09,0,0,0-.06,0,.77.77,0,0,0,0,.15Z"/><path class="cls-2" d="M144.54,10.94a.28.28,0,0,0,0,.25h0a.15.15,0,0,0,0-.24Z"/><path class="cls-2" d="M41.05,20.31h0c.07.08.09.21.26.2a1.26,1.26,0,0,0,.12-.26l.23-.66c0-.12.08-.24.11-.36.15-.48.28-1,.43-1.44l1-3.22c.19-.58.4-1.16.6-1.73.26-.77.51-1.54.77-2.3a3.65,3.65,0,0,1,.14-.35c0-.07.1-.11.19,0s0,.37,0,.57a1.09,1.09,0,0,0,0,.31.74.74,0,0,1,0,.53,7.31,7.31,0,0,1-.36,1.12c-.15.74-.47,1.43-.68,2.15a.76.76,0,0,0,0,.47,2.2,2.2,0,0,1-.06,1.22,8.39,8.39,0,0,0-.3,1.09,14.66,14.66,0,0,0-.4,1.95l0,.11c-.2.78-.35,1.57-.51,2.37-.1.52-.22,1.05-.34,1.57l-.39,1.63a7.37,7.37,0,0,1-.16.79c-.17.51-.31,1-.46,1.54,0,.19-.11.39-.14.58a1.1,1.1,0,0,0,0,.31c-.05,0-.1.06-.12.1a.23.23,0,0,0,0,.29l.05,0a.22.22,0,0,0,.13-.26.42.42,0,0,0,0-.15s.07,0,.08-.07c.16-.4.32-.8.45-1.21s.32-1.1.5-1.65c.24-.74.49-1.47.73-2.2.07-.18.11-.38.18-.56.47-1.21.83-2.46,1.21-3.69a17.36,17.36,0,0,1,.63-1.84s0-.15.16-.07l-.27,1.09c-.23.91-.43,1.82-.68,2.72a4.69,4.69,0,0,0-.19,1.11c0,.2,0,.39-.06.59a5.13,5.13,0,0,1-.22,1.22,4.34,4.34,0,0,0-.16.62,1.11,1.11,0,0,0,0,.48,1,1,0,0,1,0,.58,5.2,5.2,0,0,0-.17.68c-.1.53-.2,1.06-.29,1.59a5.69,5.69,0,0,1-.34,1.41.66.66,0,0,0-.06.2,6.86,6.86,0,0,0-.14.79,10.48,10.48,0,0,1-.21,1.33c-.07.37-.11.74-.2,1.11s-.24.86-.36,1.3a13.29,13.29,0,0,1-1,2.72c-.39.73-.79,1.45-1.19,2.18a1,1,0,0,1-.75.55,2.28,2.28,0,0,1-.64,0,.3.3,0,0,0-.33.22c-.09.21-.18.43-.26.65a20,20,0,0,1-1.51,3.21,6.11,6.11,0,0,0-.38.77A5.67,5.67,0,0,1,35,45.49a13.94,13.94,0,0,0-.84,1.57,6.35,6.35,0,0,1-.7,1.21,7.69,7.69,0,0,0-.66,1c-.22.45-.44.9-.7,1.33-.08.14-.14.29-.21.44-.34.78-.68,1.55-1,2.33s-.52,1.3-.79,1.95c-.06.15-.15.28-.22.43a1.3,1.3,0,0,0-.14.29c-.05.19,0,.28.2.37s.16.06.2.15.16.24.23.36a16.42,16.42,0,0,1-1.24,2.15,19.13,19.13,0,0,0-1.4,2.55c-.11.22-.2.46-.31.68l-.93,1.76c-.26.51-.44,1.06-.68,1.58a.87.87,0,0,0-.08.57,2.69,2.69,0,0,1,0,1l-.06.53a1.46,1.46,0,0,0,.07.69,1,1,0,0,1,.05.58,7.47,7.47,0,0,1-.23,1.48,1.85,1.85,0,0,0,0,.58,3.22,3.22,0,0,1,0,.7,9.67,9.67,0,0,0-.11,1.41c.25.27.59.31.85.48l.62-.26c.07,0,.13-.1.2-.15s-.13-.29-.18-.42a.35.35,0,0,1,.17-.46,2.24,2.24,0,0,1,1-.3c.38,0,.75-.09,1.12-.13a5.89,5.89,0,0,0,1.26-.27c.93-.28,1.86-.56,2.78-.87s1.86-.67,2.79-1a2.32,2.32,0,0,0,.39-.18,4,4,0,0,1,.65-.25A4,4,0,0,0,38,69l0-.07s0-.11,0-.16a1,1,0,0,1,.63-.8.79.79,0,0,0,.26-.2l-.12-.91c0-.11,0-.21-.06-.32a.55.55,0,0,1,.39-.68l.15,0c.09,0,.18,0,.19-.1l-.25-.87a2.86,2.86,0,0,0-.1-.42,1.69,1.69,0,0,1-.16-1,.3.3,0,0,0,0-.16.23.23,0,0,0-.24-.17,1.49,1.49,0,0,0-.3.09,2.53,2.53,0,0,0-.27.18.2.2,0,0,1-.24-.06,2,2,0,0,1-.15-.29.35.35,0,0,1,.13-.43l.35-.26c-.07-.1-.1-.18-.16-.25s-.34-.32-.5-.49a1.33,1.33,0,0,1-.26-.27,3,3,0,0,1-.46-1.53.37.37,0,0,1,.18-.36,3.34,3.34,0,0,1,.63-.31,6.82,6.82,0,0,0,1.19-.64c.13-.08.24-.2.37-.3s0-.37-.06-.51.29-.23.28-.45c-.18-.33-.54-.55-.68-.94s-.48-.67-.53-1.13c.19-.2.38-.41.59-.61a10.64,10.64,0,0,1,1.13-1,8.51,8.51,0,0,0,1-.87.69.69,0,0,1,.3-.22,1,1,0,0,0,.46-.35,1.36,1.36,0,0,1,.29-.37,1.9,1.9,0,0,0,.61-.88,3.51,3.51,0,0,1,.51-.82.67.67,0,0,0,.22-.47c-.11-.15-.26-.1-.4-.1a1.82,1.82,0,0,1-1.11-.34,3.47,3.47,0,0,1-.29-.25.66.66,0,0,0-.64-.16l-.36.11c-.12-.17-.26-.28-.49-.18a1.65,1.65,0,0,1-.32,0,3.59,3.59,0,0,1-.8,0,2.68,2.68,0,0,1-1.16-.4l-.7-.41a.29.29,0,0,1-.16-.4,5.12,5.12,0,0,1,.28-.58c.16-.26.34-.5.5-.76.3-.49.57-1,.89-1.47a15.46,15.46,0,0,0,1.08-1.79c.15-.33.33-.64.5-1a1.74,1.74,0,0,0,.15-.4.19.19,0,0,0-.15-.24l-.16.15a.78.78,0,0,1-.2-.62,2.76,2.76,0,0,1,.17-.9,24.76,24.76,0,0,1,1.12-3c.08-.18.15-.37.22-.55l.66-1.77c0-.1.09-.19.13-.29a5.32,5.32,0,0,0,.21-.5,15.36,15.36,0,0,1,.69-1.69,6.69,6.69,0,0,0,.61-1.43,1.83,1.83,0,0,1,.14-.28,3.28,3.28,0,0,0,.45-1.26c0-.1.07-.2.11-.3l1.44-3.59c.12-.28.22-.57.34-.85a3.85,3.85,0,0,0,.27-.81,1.53,1.53,0,0,1,.14-.41L48,19.91a3.27,3.27,0,0,1,.51-.89s.06,0,.12,0a1.18,1.18,0,0,1,0,.21l-.87,2.14c-.22.57-.45,1.14-.66,1.71s-.55,1.45-.8,2.18-.41,1.41-.66,2.1a10.53,10.53,0,0,0-.44,1.45c-.06.31-.07.64-.14.95s-.21.65-.3,1a.66.66,0,0,0,0,.31,3.58,3.58,0,0,1-.21,1.52.19.19,0,0,0,.22.13c.06-.09.15-.18.21-.29.16-.3.31-.61.47-.9.31-.55.61-1.11.94-1.64a1.47,1.47,0,0,0,.29-.9,1.33,1.33,0,0,1,0-.53c.07-.22.18-.43.26-.65a.48.48,0,0,1,.54-.35h.39a1.59,1.59,0,0,0,.21-.15.41.41,0,0,1,.3-.11l.8,0a.34.34,0,0,1,.35.2,2.67,2.67,0,0,1,.09.26c0,.19,0,.39.06.58s0,.18.13.23.08-.05.11-.09c.41-.57.88-1.09,1.25-1.69a2,2,0,0,0,.31-.62.72.72,0,0,1,.53-.55,1.61,1.61,0,0,0,.51-.29,2.21,2.21,0,0,1,.56-.31.85.85,0,0,1,.73.05,2.76,2.76,0,0,1,.83.77,5.29,5.29,0,0,1-.25.54,2.16,2.16,0,0,0-.27.69.67.67,0,0,1-.16.34.62.62,0,0,0-.19.53.53.53,0,0,1-.12.29,2.9,2.9,0,0,0-.48.88c-.27.7-.56,1.39-.85,2.09-.08.19-.19.38-.29.57a1.65,1.65,0,0,0-.27.64,1.29,1.29,0,0,1-.08.26c-.26.68-.58,1.35-.88,2a2.84,2.84,0,0,0-.19.56,7.17,7.17,0,0,1-.42,1,.37.37,0,0,1-.19.18,1.63,1.63,0,0,0-.51.47c-.15.2-.32.38-.49.57a2.35,2.35,0,0,0-.48,1c0,.12,0,.25-.08.37-.14.34-.29.69-.45,1s-.3.62-.44.93a.41.41,0,0,0,0,.39h.07l.24-.21c.05,0,.1-.1.18,0,0,.23-.14.45,0,.7l.49-.15s.05.09,0,.11a8.6,8.6,0,0,0-.33.84,1.83,1.83,0,0,1-.22.49c-.2.26-.31.57-.48.84a21.14,21.14,0,0,0-1,2,5.27,5.27,0,0,1-.52,1,1,1,0,0,0-.11.25l-.17.39c-.25.5-.49,1-.73,1.5,0,0,0,.08.05.16a31.56,31.56,0,0,0,1.93-2.5,2.05,2.05,0,0,1,.59-.75.51.51,0,0,0,.17-.21l.5-.7c.38-.57.76-1.14,1.16-1.69s.95-1.31,1.37-2c.27-.44.57-.87.85-1.31a.79.79,0,0,0,.15-.61.55.55,0,0,1,.14-.5,1.51,1.51,0,0,0,.18-.26,7,7,0,0,1,.5-.68c.2,0,.37.1.55.12a3.37,3.37,0,0,1,1.5.55,5.09,5.09,0,0,0,.8.42,3.12,3.12,0,0,1,.94.53c.07.07.18.11.26.18s.13.13.2.18.09.2.24.18a.59.59,0,0,0,.09-.56,1.13,1.13,0,0,1,0-.63.82.82,0,0,0,0-.22,5.82,5.82,0,0,1,0-1.18,4.73,4.73,0,0,1,.11-1.12.9.9,0,0,0,0-.43c-.07-.46-.15-.92-.24-1.37a1.06,1.06,0,0,0-.42-.72,1.18,1.18,0,0,0-.63.41.53.53,0,0,1-.59.16.47.47,0,0,1-.36-.33,3.74,3.74,0,0,0,.16-.47,3.91,3.91,0,0,0,.05-.48,2.21,2.21,0,0,1,.08-.37,4.88,4.88,0,0,0,.18-1,1.91,1.91,0,0,1,.17-.62,1.24,1.24,0,0,0,.08-.46,10.75,10.75,0,0,1,.27-1.7c0-.22.09-.44.14-.67H56c-.19.25-.47.44-.55.78a1,1,0,0,1-.22.3c0,.06-.12.11-.12.17,0,.3-.28.45-.46.63l0,.34-.06.07-.15.05c-.28.1-.31.12-.27.43a.46.46,0,0,1-.26.48L53.4,31a1.82,1.82,0,0,0,.16-.36.93.93,0,0,1,.27-.57A.79.79,0,0,0,54,29.6a.7.7,0,0,1,.36-.49,1.59,1.59,0,0,0,.38.11s.13,0,.16-.1,0-.18-.12-.21-.25.06-.34-.07c.06-.3.1-.34.32-.28a.44.44,0,0,0,.37,0,.16.16,0,0,0,.08-.12.14.14,0,0,0-.09-.11c-.11,0-.25,0-.34-.09s.12-.21.26-.19.2.07.3.09a.24.24,0,0,0,.28-.2,1.91,1.91,0,0,0,0-.24,2.34,2.34,0,0,1-.32.07c-.08,0-.14,0-.16-.12a.62.62,0,0,1,.1-.17,2.86,2.86,0,0,1,.76-.67.5.5,0,0,0,.27-.49,2.43,2.43,0,0,0,0-.27,10.07,10.07,0,0,0-.1-1.34c-.08-.32-.13-.66-.19-1a.18.18,0,0,0,0-.1,4.31,4.31,0,0,0-.48-1,.17.17,0,0,1,0-.1.15.15,0,0,1,0-.09.18.18,0,0,1,.1,0,1.29,1.29,0,0,1,.46.52,6,6,0,0,1,.71,2.08c.07.44.12.88.19,1.34.24,0,.47.06.69.11a3.59,3.59,0,0,1,.47.12s0,0,0,.06c-.31.31-.78.22-1.15.44,0,.09,0,.2,0,.3,0,.52,0,1.05-.08,1.57a.6.6,0,0,1-.18.49.37.37,0,0,0-.15.32l-.21,2.36a.65.65,0,0,0,0,.2,1.31,1.31,0,0,1,1.23,1,2.66,2.66,0,0,0,.2.56,4.88,4.88,0,0,1,.4,1.4,1.65,1.65,0,0,0,.14.57.91.91,0,0,0,.14.07,1.08,1.08,0,0,0,.64-.06.18.18,0,0,1,.26.09.07.07,0,0,1,0,.05.48.48,0,0,1-.51.22c-.16,0-.33-.07-.46.13a10.42,10.42,0,0,1,0,2,1,1,0,0,0,0,.16,9.61,9.61,0,0,1,.11,1.61,11.66,11.66,0,0,1-.06,1.18,9.12,9.12,0,0,1-.19,1.55.55.55,0,0,0,0,.31,2.75,2.75,0,0,1,0,1.07,2,2,0,0,0,0,.54,3.1,3.1,0,0,1-.16.9l-.24.77a9.47,9.47,0,0,1-1,2.27,1,1,0,0,0,0,.27,2,2,0,0,1,.33.08.69.69,0,0,1,.32.19,8.19,8.19,0,0,0,.73.71,2.51,2.51,0,0,1,.87,1.18.42.42,0,0,0,.09.19,1,1,0,0,1,.17.61,5.78,5.78,0,0,1-.2,1.55,10.65,10.65,0,0,1-.55,1.74.87.87,0,0,0-.07.31.53.53,0,0,1-.21.47.52.52,0,0,0-.14.16,1.25,1.25,0,0,1-.69.5.93.93,0,0,1-1-.2l-.22-.24a.5.5,0,0,0-.21,0,9.12,9.12,0,0,0-.93.28,4.07,4.07,0,0,1-1.42.23.21.21,0,0,1-.15-.05.1.1,0,0,1,0-.09.65.65,0,0,1,.21-.16,3.6,3.6,0,0,1,1.29-.36,1.7,1.7,0,0,0,.88-.34,1.08,1.08,0,0,0,0-.5,3.85,3.85,0,0,1,0-.48c0-.16,0-.32,0-.46s-.08-.06-.12-.06a7.2,7.2,0,0,1-.78-.16,1.14,1.14,0,0,0-1,.21,9.77,9.77,0,0,0-.81.63.5.5,0,0,1-.5.12,1.1,1.1,0,0,0-.87.1c-.72.33-1.48.57-2.21.88-.34.14-.7.27-1.06.39a3.37,3.37,0,0,0-1.55.93l.12.28c-.21.09-.35-.1-.53-.08s-.3.14-.43.36l.18,0v.28c-.08.08-.2.09-.18.21s.23.07.35,0l1.3-.35a3.56,3.56,0,0,1,.47-.1s.09,0,.15.06a1.09,1.09,0,0,1-.71.46c-.16.06-.34.1-.5.17-.45.18-.9.38-1.35.54a1.76,1.76,0,0,0-.9.66s-.06,0-.09,0l-.23-.17a3,3,0,0,1-.6.19,3.12,3.12,0,0,0-1.2.58,7.11,7.11,0,0,0-.89.77s0,0,0,.08a2.92,2.92,0,0,1,.5-.09,4.93,4.93,0,0,1,.54,0h.32a3.81,3.81,0,0,1,.48,0A2.57,2.57,0,0,0,45,61.33c.16,0,.32,0,.47-.09a3.77,3.77,0,0,0,.58-.14,3.21,3.21,0,0,1,.63-.06c.14,0,.28-.08.42-.11s.42-.1.63-.13a2.27,2.27,0,0,0,.69-.12.68.68,0,0,1,.32,0l.9.13a7.39,7.39,0,0,0,1.88,0c.46-.07.93-.12,1.39-.17a1.18,1.18,0,0,0,.46-.14,1.38,1.38,0,0,1,.4-.15,4.26,4.26,0,0,1,1.33-.16s.1,0,.16,0a4.74,4.74,0,0,1,.94-.18.41.41,0,0,0,.19-.09,3.54,3.54,0,0,1,1-.38,1,1,0,0,0,.31-.08c.29-.14.61-.06.9-.16,0,0,.08.05.11.09a.16.16,0,0,1,0,.09c-.09,0-.23.05-.28.13s-.33.2-.48.31a4.47,4.47,0,0,1-1.25.45,8.33,8.33,0,0,1-1.11.2c-.08,0-.14,0-.16.12l.49.77c.15.09.28-.06.41.07l-.33.12c0,.24,0,.45-.07.65a4.65,4.65,0,0,0-.67,1.18,1.09,1.09,0,0,1-.08.15.69.69,0,0,1-.41.39,2.57,2.57,0,0,0-.8.54c-.06,0-.11.09,0,.21l.62.06.54,0c.06,0,.14,0,.09.16a6.76,6.76,0,0,0-1.5.17.53.53,0,0,0-.09.53.58.58,0,0,0,.28.45.76.76,0,0,0,.15,0A2.17,2.17,0,0,1,55,66a.14.14,0,0,0,.11,0,1.56,1.56,0,0,1,1,.07c.2.38.21.4.19.63s-.07.31-.41.37l-.21-.23a.08.08,0,0,1,0-.05c0-.06.08-.13,0-.2s-.09-.08-.13-.07c-.26.07-.54-.09-.8,0a.88.88,0,0,1-.73,0s-.1,0-.18,0a.92.92,0,0,1-1.09.71c-.1.19-.2.36-.29.54s-.21.37-.3.54,0,.45.07.68l.27.25a.66.66,0,0,1,.19.44.49.49,0,0,1-.19.42A3.55,3.55,0,0,0,51,70a32.63,32.63,0,0,0-3.7.36c-.23,0-.46.06-.69.11a.69.69,0,0,0-.25.1c-.08.06-.17.14-.06.29a3.33,3.33,0,0,0,.46,0,17.08,17.08,0,0,1,2.26.08c.28,0,.6-.07.84.09a3.92,3.92,0,0,1,.61.67,2.09,2.09,0,0,1,.14.17.66.66,0,0,1,.12.56c-.07.35-.12.71-.19,1.06a.86.86,0,0,0,.16.71c0,.07.11.14.16.22s0,.21-.08.22a.71.71,0,0,0-.47.23,1.32,1.32,0,0,1-.62.42c-.14.07-.3.13-.44.21l-.75.46-.68,1.09c.08.29.16.55.22.81a2.82,2.82,0,0,0,.07.31,1.5,1.5,0,0,0,.21.24c-.17.17-.33.31-.48.47a.26.26,0,0,0,.07.41,6.08,6.08,0,0,0,.68.33q1.75.75,3.54,1.44a14.79,14.79,0,0,0,1.74.58c.22.06.45.13.67.21a22.12,22.12,0,0,0,2.31.72l1.14.32c.31.08.63.14.93.24a13,13,0,0,1,1.91.73c.47.23,1,.37,1.45.58a7.17,7.17,0,0,0,1.36.51,4.37,4.37,0,0,1,.62.17,11,11,0,0,0,2.26.49c.67.12,1.36.14,2,.21l1.93.2,2,.22a11.36,11.36,0,0,1,2.38.45.71.71,0,0,0,.21,0,20.94,20.94,0,0,1,2.36.23l.32,0c.41,0,.82,0,1.23.07s1.08.09,1.61.18a10.9,10.9,0,0,0,2,.2c.37,0,.75.07,1.13.08.75,0,1.5.09,2.25.06s1.33,0,2,0l1.67,0,1,0,3.12,0a3.25,3.25,0,0,0,.54,0,8.65,8.65,0,0,1,1.61-.07c.75,0,1.5-.11,2.25-.16.91-.06,1.82-.17,2.73-.24a1.45,1.45,0,0,1,.83.08c.07.17.14.31.2.46a.56.56,0,0,1-.29.76,1.86,1.86,0,0,1-.25.1c-.56.11-1.11.28-1.66.43-.37.1-.74.15-1.1.27a7.61,7.61,0,0,1-1.64.28,3.67,3.67,0,0,0-.74.11q-.45.1-.9.18c-.37.06-.74.11-1.11.18a3.16,3.16,0,0,1-.81,0,1.67,1.67,0,0,0-.8,0,.75.75,0,0,1-.26,0c-.83,0-1.65,0-2.47.06a2.91,2.91,0,0,1-1,0,1.65,1.65,0,0,0-.21,0h-.7A6.13,6.13,0,0,0,87,90a8.35,8.35,0,0,1-1.5,0,2.56,2.56,0,0,1-.46-.11c-.07,0-.14,0-.16.09a.46.46,0,0,0,.13.08l1,.28,1.23.38a1.12,1.12,0,0,1,.24.13l.5.31-.08,0h0l0,0a1.33,1.33,0,0,0,.47.25,3.48,3.48,0,0,1,.69.29c.25.11.48.24.72.37,0,0,0,.07.09.12a1,1,0,0,1-1-.1.57.57,0,0,0-.25-.11,3.78,3.78,0,0,1-1-.31c-.79-.29-1.59-.57-2.38-.84a2.41,2.41,0,0,0-.37-.07l-1.49-.17-1.18-.1c-.21,0-.43,0-.64,0s-.43,0-.65,0l-1.71-.1a6.65,6.65,0,0,0-1.61,0,2.34,2.34,0,0,1-.59,0c-.78-.06-1.56-.19-2.35-.19-.48,0-1-.08-1.45-.12S72.58,90,72.17,90a11.1,11.1,0,0,1-1.29,0c-.2,0-.4,0-.6,0s-.68,0-1,0c-.66,0-1.32,0-2,0l-.64,0a4.15,4.15,0,0,0-1.64.25.82.82,0,0,0-.07.63c.06.21.1.44.35.55.06,0,.09.15.13.23l1.13-.08a.4.4,0,0,1,.4.12.5.5,0,0,1-.39.25,1.88,1.88,0,0,0-.64.26,3.07,3.07,0,0,1-.82.39,3.46,3.46,0,0,1-1.6.07l-.32,0a11.55,11.55,0,0,1-2-.18.56.56,0,0,0-.59.14.27.27,0,0,1-.14.07.9.9,0,0,1-.43,0c-.26-.11-.58,0-.79-.28a.11.11,0,0,1,0-.09.18.18,0,0,1,.12-.08s.1.06.15.06c.24,0,.49.13.72,0h0l0,0c0-.1-.14-.1-.23-.11L59.06,92a1.31,1.31,0,0,1-1-.48s0-.06,0-.07c0-.3,0-.39-.25-.4a2.12,2.12,0,0,0-1.06,0h-.1a4,4,0,0,0-.91.13,1.91,1.91,0,0,1-1.06,0c-.22-.08-.44-.14-.67-.2a.32.32,0,0,0-.35,0,.27.27,0,0,1-.3,0,1.35,1.35,0,0,0-.69,0,10.71,10.71,0,0,0-1.77.46,2.47,2.47,0,0,1-.36.11,3.5,3.5,0,0,0-1.15.26c-.06,0-.14,0-.21,0-.27,0-.54.07-.8.13s-.62.16-.93.25a3.47,3.47,0,0,1-.85.1c-.3,0-.58.16-.9.16a6,6,0,0,0-1.12.07,4.78,4.78,0,0,1-1.13,0,6.29,6.29,0,0,1-1.28-.15,6.19,6.19,0,0,0-1.06-.19l-2-.22a14.1,14.1,0,0,1-1.7-.31,10.65,10.65,0,0,0-2.39-.31,1.23,1.23,0,0,1-.33,0,9,9,0,0,0-1.38-.19,4.52,4.52,0,0,0-.53-.06,1.38,1.38,0,0,1-.53-.06,2.43,2.43,0,0,0-.47-.08c-.27,0-.53-.1-.8-.12s-.68-.23-1.05-.22a2.67,2.67,0,0,0-1.05-.13,1.84,1.84,0,0,1-.73-.16,1.21,1.21,0,0,0-.31-.09,13.31,13.31,0,0,0-1.55-.13,5.18,5.18,0,0,1-1.17-.13,1.75,1.75,0,0,1-1.09-.64,1.11,1.11,0,0,0-.71-.45,2.15,2.15,0,0,1-.36-.11,1.32,1.32,0,0,0-.73-.13,1.82,1.82,0,0,1-1.22-.34,2.07,2.07,0,0,0-.32-.19,9.08,9.08,0,0,0-1.44-.41c-.2,0-.38-.13-.57-.15-.41,0-.82-.08-1.23-.09a9.19,9.19,0,0,1-1.39,0,.44.44,0,0,0-.16,0l-1.66.22a.77.77,0,0,1-.37,0,1.61,1.61,0,0,0-.69,0c-.68.12-1.36,0-2,.09a1.33,1.33,0,0,1-.48,0l-.88-.23a.9.9,0,0,1-.6-.42c-.09-.18-.22-.33-.32-.5a.4.4,0,0,0-.26-.17c-.16,0-.33,0-.48-.07s-.6-.12-.89-.2-.62-.17-.93-.28a17.78,17.78,0,0,1-2-.65c-.26-.12-.53-.21-.8-.31a2.46,2.46,0,0,0-.47-.1,6,6,0,0,0-1.93.15l-1,.24A.16.16,0,0,1,0,85.32a.14.14,0,0,1,0-.14,2.18,2.18,0,0,1,.26-.34c.45-.44.92-.87,1.36-1.31.81-.82.86-.84,1-1.88a2.29,2.29,0,0,1,.18-.56c.06-.15.15-.29.22-.44a7.45,7.45,0,0,1,2.46-2.8A16.61,16.61,0,0,1,8,76.4a16.39,16.39,0,0,1,2-.85.52.52,0,0,0,.36-.21.15.15,0,0,0,0-.1c-.29-.34-.59-.67-.89-1a.35.35,0,0,0-.13-.08A.56.56,0,0,1,9,73.83a2,2,0,0,1-.33-.67,1.4,1.4,0,0,0-.2-.38A.52.52,0,0,0,8,72.53a3,3,0,0,1-.43,0,.44.44,0,0,1-.37-.35,3.14,3.14,0,0,1-.08-.86c.05-.39-.15-.73-.13-1.11a.12.12,0,0,0,0-.09.5.5,0,0,1-.14-.54,2.84,2.84,0,0,0,0-1.23,2.35,2.35,0,0,1,0-.53c0-.15,0-.29,0-.43,0-.31,0-.62,0-.92a14.74,14.74,0,0,0-.06-2.1c0-.7-.13-1.39-.19-2.09a23.7,23.7,0,0,0-.4-2.66A11.82,11.82,0,0,1,6,58.41l-.24-2.15c0-.34-.09-.67-.13-1-.1-.77-.2-1.53-.35-2.29,0-.23-.08-.46-.1-.69-.1-.82-.18-1.65-.28-2.46-.07-.54-.13-1.07-.25-1.6s-.21-1.31-.31-2c0-.32-.07-.64-.11-1L4,43.57c0-.43-.12-.85-.14-1.28a2.22,2.22,0,0,1,.27-1.51.37.37,0,0,0,0-.15.61.61,0,0,1,.37-.44L5,40a.42.42,0,0,1,.5.07l.43.4c.07.06.12.14.22.12.37-.62.26-.51.84-.78.75-.35.78-.33,1.46.07a10.71,10.71,0,0,1,1.71,1.3,5.18,5.18,0,0,1,1,1,3.37,3.37,0,0,0,.37.39l.58-.16a1.08,1.08,0,0,1,.88.11,4.21,4.21,0,0,1,.48.35,12.54,12.54,0,0,1,1.26,1.47,1.64,1.64,0,0,0,.41.42,1.91,1.91,0,0,1,.54.59c.37.57.71,1.17,1,1.77,0,.08.09.15.14.23a.4.4,0,0,0,.47.17l.36-.11a.6.6,0,0,1,.26,0,1.87,1.87,0,0,0,.91,0h.49a2,2,0,0,1,.15.29c.25.71.5,1.42.71,2.14s.31,1.26.44,1.9a26.77,26.77,0,0,1,.45,3.47,27.25,27.25,0,0,1,.08,3.38,1,1,0,0,0,0,.17,4.79,4.79,0,0,1,0,1.07l-.09.95.42.28c.07.13,0,.32.12.45a1.24,1.24,0,0,0,.06-.18c.07-.64.13-1.28.21-1.92.12-1,.19-1.93.22-2.9,0-1.42,0-2.84-.06-4.26A1.55,1.55,0,0,0,22,52c0-.06-.13-.09-.18,0l-.2.25a1.73,1.73,0,0,1,.15-1.79c.18-.13.37-.07.48-.2a2.06,2.06,0,0,0-.09-1c0-.08,0-.19-.05-.27a.84.84,0,0,1,0-.52s.05-.08.09-.11a.12.12,0,0,1,.1,0,2.8,2.8,0,0,1,.25.35,9.46,9.46,0,0,1,.71,1.63c.16.46.31.92.48,1.38a2.49,2.49,0,0,0,.16.33.09.09,0,0,0,.09,0,.19.19,0,0,0,.1-.1.43.43,0,0,0,0-.16c0-.23.06-.26.36-.25.07.16.13.33.2.49a4.25,4.25,0,0,1,.4,1.4c.05.42.08.85.12,1.28,0,.15,0,.29.05.43a.38.38,0,0,0,.37.33,6.26,6.26,0,0,0,.75,0c.26,0,.52-.09.79-.13a18.83,18.83,0,0,0,1.4-2.67q.7-1.64,1.53-3.21c.44-.84.84-1.7,1.25-2.56.25-.52.48-1,.77-1.54.5-.87,1-1.77,1.39-2.67s.82-1.77,1.22-2.65c.3-.63.53-1.29.77-1.95A13.77,13.77,0,0,0,36,36.6c0-.19.13-.37.18-.56s.12-.38.17-.57c.14-.48.26-1,.41-1.45.26-.86.53-1.71.84-2.56a4.77,4.77,0,0,1,.34-1,.47.47,0,0,0,.06-.2c.18-.85.51-1.65.77-2.47.34-1.08.72-2.15,1.06-3.23a4.27,4.27,0,0,1,.49-1.19.47.47,0,0,0,.08-.3.54.54,0,0,1,.14-.5.72.72,0,0,0,.2-.48c0-.26.12-.49.14-.73a2.64,2.64,0,0,1,.1-.74l.12-.35ZM40,61.9l-.09-.11,0,0s0,0,0,.06l.14.06a.29.29,0,0,0,.23.25.28.28,0,0,0,.29-.06A.5.5,0,0,0,40,61.9Zm-31.76-3a2,2,0,0,0,0,1,.19.19,0,0,0,.16.18,2,2,0,0,0-.21-1.17l0-.08,0,.09ZM21.6,86.81l.18,0,.23,0a2.18,2.18,0,0,0,.85.31c.53.13,1.08.25,1.61.41a1,1,0,0,1,.75.76s0,.07,0,.1a.45.45,0,0,0,.06.12.76.76,0,0,0,.18.06c.4.08.81.18,1.21.23.61.07,1.19.27,1.79.38.95.19,1.9.36,2.85.54l.74.16,1.75.31,1.91.33c.75.14,1.51.32,2.27.45s1.31.18,2,.26c.35,0,.71.08,1.07.09.7,0,1.4.09,2.1.09.55,0,1.11,0,1.66-.08.82-.08,1.64-.17,2.46-.28.58-.09,1.17-.2,1.75-.31l2.42-.49a6.94,6.94,0,0,0,.78-.22c.09,0,.2,0,.28-.11L52.2,90a.61.61,0,0,0-.57,0,2.69,2.69,0,0,1-.75.06,4.84,4.84,0,0,0-.53,0l-.16,0c-.85,0-1.67.24-2.51.28a2,2,0,0,1-.48,0,7.59,7.59,0,0,0-1.17,0,17.49,17.49,0,0,1-2.05.05.67.67,0,0,1-.51-.19,2,2,0,0,1,.55-.1l.49,0,.53-.07.53-.07.48-.07c.18,0,.36,0,.54-.09l.52-.11.48-.1.53-.1c.17,0,.35-.06.53-.09s.32,0,.48-.09a1.81,1.81,0,0,0,.57-.14,1.31,1.31,0,0,0-.27,0l-.64,0c-.81,0-1.62,0-2.43,0a10.29,10.29,0,0,1-1.23-.14,1.31,1.31,0,0,1-.78-.44.37.37,0,0,1,0-.53,1,1,0,0,1,.63-.39l1.43-.23,1.36-.21a3.52,3.52,0,0,0-.49-.24,5.73,5.73,0,0,0-1.53-.28.81.81,0,0,1-.22,0A11.32,11.32,0,0,0,44,86.52a1.17,1.17,0,0,0-.32,0,2.5,2.5,0,0,1-1-.18.27.27,0,0,1-.2-.29,4.71,4.71,0,0,1,0-.53c0-.2,0-.39,0-.6l-.28-.17a.65.65,0,0,1-.39-.7c0-.16,0-.33,0-.48a2.73,2.73,0,0,0,.13-.8.24.24,0,0,1,.24-.24c.47,0,.94,0,1.4,0,.84.07,1.68.18,2.52.27a1.94,1.94,0,0,1,.57.16,6.71,6.71,0,0,0,.75.27c.06,0,.13,0,.2-.05s.09.19.13.29a.23.23,0,0,1-.12.29l-.59-.11c0,.22,0,.41,0,.63s-.13.25-.21.38,0,.09.08.1l1.05.21.42.1a.32.32,0,0,1,.25.25,2.63,2.63,0,0,0,.45.75l.37,0a.82.82,0,0,0,.38,0c-.12-.19-.35-.13-.48-.29a9.78,9.78,0,0,1,.5-1.5l.38-.16-.2-.13-.55-.23a1.13,1.13,0,0,0-.63-.11.42.42,0,0,1-.31,0,7,7,0,0,0-1-.44.66.66,0,0,1-.26-.08,3.24,3.24,0,0,0-.9-.48L46,82.39a.78.78,0,0,1-.48-1,.53.53,0,0,0,0-.14l-.26-.15A1.75,1.75,0,0,1,45,81a2.2,2.2,0,0,0-1.22-.38.52.52,0,0,1-.21,0,5.41,5.41,0,0,0-1.74-.27,1.29,1.29,0,0,0-.48,0,1.47,1.47,0,0,1-.59,0,3.81,3.81,0,0,0-.59,0l-1.39,0a2.5,2.5,0,0,1-.54-.07,3.55,3.55,0,0,0-.8,0c-.52,0-1,.08-1.55.14a1.84,1.84,0,0,1-1.06-.13,1.79,1.79,0,0,0-.41-.13,2.22,2.22,0,0,1-.68-.28,2.77,2.77,0,0,1-.73-.63,2.88,2.88,0,0,0-.59-.62,1.52,1.52,0,0,1-.54-.66,2.41,2.41,0,0,0-.45-.61H31l-.27,0a1.38,1.38,0,0,1-1.3-.87.19.19,0,0,1,.17-.27,3.7,3.7,0,0,1,.8.09,2.92,2.92,0,0,0,.73.07c0-.25,0-.25-.19-.55l-.89,0a4.56,4.56,0,0,1-.64,0,1.15,1.15,0,0,1-.36-.11.45.45,0,0,1-.26-.38c0-.12,0-.24-.07-.36s.13-.14.19-.22a.36.36,0,0,0-.41-.32H28l-1,.78-.27.26a4.56,4.56,0,0,1-.5.48,2,2,0,0,0-.44.39s-.1.12-.16.12c-.28,0-.43.24-.62.41s-.48.44-.72.65l-.17.14a1,1,0,0,1-.76.15,5.51,5.51,0,0,0-1.05,1.21,1.37,1.37,0,0,1-.24.29,1,1,0,0,0-.38.56c-.64,0-1-.45-1.44-.74-.14,0-.15.13-.17.22a1.33,1.33,0,0,0,.32,1.3c.18.2.3.45.48.64a3.3,3.3,0,0,1,.49.64l.4.76.17,0a.51.51,0,0,1,.52.31.6.6,0,0,0,.38.35,1,1,0,0,1,.63.39,1,1,0,0,0,.19,0,.68.68,0,0,1,.61.46,2.88,2.88,0,0,1,.29,1.25.49.49,0,0,1-.18.42,1,1,0,0,1-.47.24,3.25,3.25,0,0,0-.42.11,3.4,3.4,0,0,1-.07.49.23.23,0,0,1-.33.18A1.76,1.76,0,0,0,22,86.83c-.19-.15-.19-.15-.42,0a.6.6,0,0,0-.06-.47.33.33,0,0,0-.18-.17,1,1,0,0,0-.37-.08.6.6,0,0,1-.63-.32c-.11-.21-.42-.14-.48-.4s-.24-.3-.38-.44a.46.46,0,0,0-.31-.2.53.53,0,0,1-.42-.34,1.75,1.75,0,0,1-.35,0,2.37,2.37,0,0,0-1.12.06,4.34,4.34,0,0,1-1,.08,5.06,5.06,0,0,1-.53-.06,2.35,2.35,0,0,1-.61-.82.66.66,0,0,0-.85-.36,1.85,1.85,0,0,0-.44.18,2.89,2.89,0,0,1-1,.28.31.31,0,0,1-.32-.16c-.1-.15-.08-.36-.31-.47a23.89,23.89,0,0,0-2.87-.41,18.2,18.2,0,0,0-2.86,0,9.48,9.48,0,0,0-3.5,1c-.05,0-.07.07-.11.11a1.55,1.55,0,0,0,.91.28,1.5,1.5,0,0,1,.9.3q.62.41,1.23.78a2.18,2.18,0,0,0,.5.2l1.71.47a.82.82,0,0,0,.21,0,5.83,5.83,0,0,1,1.72,0,10.09,10.09,0,0,0,1.45,0c.8-.09,1.61-.14,2.41-.28s1.46-.12,2.19-.22a2.52,2.52,0,0,1,1.12.09c.5.14,1,.22,1.52.34a4,4,0,0,1,.67.22c.51.22,1,.46,1.52.69l.59.25ZM44.94,40v0a2,2,0,0,0,.37-.65c.47-1,.88-2,1.4-3,.21-.4.39-.81.59-1.21.09-.17.18-.35.28-.52a1,1,0,0,1,.6-.5c.08-.32.12-.66.51-.74a.21.21,0,0,1,0,.27l-.63,1.42-.49,1.08s0,.08,0,.1a13.12,13.12,0,0,0-.77,1.66.46.46,0,0,0-.07.14,7.47,7.47,0,0,1-.5,1.24c-.16.42-.37.82-.55,1.23-.26.63-.52,1.26-.77,1.89a1.78,1.78,0,0,0,0,.28c.19.06.32-.09.48-.09h.46a1.87,1.87,0,0,0,.74-1.11c.1-.31.17-.62.26-.93s.14-.45.22-.67a2,2,0,0,1,.18-.26,1.5,1.5,0,0,0,.3-.62A4,4,0,0,1,48,37.94a6.38,6.38,0,0,0,.53-1.12,6,6,0,0,1,.6-1.07c.16-.23.33-.46.5-.72l.31,0a2.35,2.35,0,0,0,.31-.56c.19-.52.37-1,.59-1.56a5.54,5.54,0,0,1,.84-1.39.87.87,0,0,1,.17-.63,3,3,0,0,0,.49-1.33c-.07-.11-.16-.08-.25-.06l-.31.08a.61.61,0,0,1-.27,0,.32.32,0,0,1-.13-.15.26.26,0,0,1,0-.33A2.7,2.7,0,0,0,52.59,29a9,9,0,0,0,.84-1.52c-.14-.13-.28-.05-.41,0s-.23-.08-.38-.09c-.11.16-.2.36-.33.52s-.31.3-.46.45-.43.05-.64.25a1.62,1.62,0,0,1-.36.65c-.16.52-.56.92-.71,1.44a.72.72,0,0,1-.09.2,5.87,5.87,0,0,0-.55,1,2.68,2.68,0,0,1-.31.42h0l-.06-.26a.32.32,0,0,1,.2-.43l.2-.07a.44.44,0,0,0,0-.37.58.58,0,0,1-.06-.26.41.41,0,0,1,.08-.24c0-.05.13-.05.19-.07s.11,0,.14-.06,0-.08,0-.14a8.46,8.46,0,0,1-1.73.17,1.12,1.12,0,0,0-1,.53,15.81,15.81,0,0,0-1.26,2.18c-.3.62-.59,1.23-.84,1.87-.16.4-.36.78-.53,1.18s-.34.83-.5,1.24l-.42,1c-.14.35-.29.7-.42,1a3,3,0,0,0-.17.84,2.81,2.81,0,0,1-.42,1.27c-.21.39-.43.77-.63,1.18a2.73,2.73,0,0,0-.23,1.2.89.89,0,0,0,.31.63,1.07,1.07,0,0,0,.15-.17c.33-.62.66-1.24,1-1.86.07-.12.13-.25.21-.37l.72-1a2.64,2.64,0,0,0,.15-.29,1.8,1.8,0,0,1,.39-.63.74.74,0,0,0,.25-.53ZM22.23,64.73a1.56,1.56,0,0,0-.65-.42l-.34.16a.48.48,0,0,1-.26,0c-.5-.1-.63-.13-.54-.7s.17-1,.25-1.42c-.06,0-.1,0-.12,0l-.41.25a1.21,1.21,0,0,1-1,.19,1.14,1.14,0,0,0-.27,0,3.24,3.24,0,0,1-1,.59,1.77,1.77,0,0,1-.68.11.61.61,0,0,1-.27,0c-.32-.14-.64-.3-1-.47,0-.13,0-.25-.05-.37a.51.51,0,0,0-.26-.44c-.2-.11-.21-.36-.23-.57a3.64,3.64,0,0,1,0-.46c-.24-.14-.47-.3-.72-.43s-.48-.24-.73-.37c-.19.34-.2.78-.65.91a.83.83,0,0,0,0,.15A.83.83,0,0,1,13,62a1.35,1.35,0,0,1-.83.33,3.53,3.53,0,0,0-.56,0,1.77,1.77,0,0,0,0,.32c0,.36,0,.72,0,1.07a5.36,5.36,0,0,1-.06.7.84.84,0,0,1-.11.3.37.37,0,0,1-.46.19,2.3,2.3,0,0,0-.71-.11,1.88,1.88,0,0,1-.14-.34A4.67,4.67,0,0,1,10,63.05a1.27,1.27,0,0,0-.09-.58,5,5,0,0,1-.27-1.21,5.66,5.66,0,0,0-.22-1,1.89,1.89,0,0,1-.09-.85,1.28,1.28,0,0,0-.11-.63,2.29,2.29,0,0,1-.12-1.57c.13-.41.17-.85.26-1.27a3.9,3.9,0,0,0,0-1.23c0-.45-.08-.9-.16-1.34a10.59,10.59,0,0,0-.31-1.2c-.15-.51-.32-1-.42-1.56a3.1,3.1,0,0,1-.05-1,1.6,1.6,0,0,0-.12-.84c-.17-.44-.32-.88-.47-1.32a1.88,1.88,0,0,1-.08-.63,3,3,0,0,0-.09-.79c0-.09,0-.17,0-.28.06,0,.1.05.11.08.21.49.42,1,.62,1.49a1.45,1.45,0,0,1,.12.35,2.33,2.33,0,0,0,.46.9,1.17,1.17,0,0,1,.2.31,6.92,6.92,0,0,0,.83,1.68c.11,0,.08-.12.07-.18-.08-.48-.17-1-.25-1.43s-.23-1.09-.28-1.64a2.72,2.72,0,0,0-.32-1A2.38,2.38,0,0,1,9,45.89a6.43,6.43,0,0,0-.23-1.37,7.38,7.38,0,0,1,.06-1.82A1.52,1.52,0,0,1,9,42.3a.49.49,0,0,0-.08-.55,3.53,3.53,0,0,0-.65-.63c-.16-.11-.31-.24-.47-.37a1.64,1.64,0,0,0-.67-.34,1.67,1.67,0,0,0-.08.76,3.18,3.18,0,0,0,.09.69.63.63,0,0,1-.28.74,2,2,0,0,1-.23.14.34.34,0,0,1-.39-.29c0-.14-.07-.28-.11-.41a1.08,1.08,0,0,0-.13-.2.66.66,0,0,0-.15.59c.11.43,0,.86.07,1.28a5.65,5.65,0,0,1,0,.59,1.15,1.15,0,0,1,0,.37,1,1,0,0,0,0,.58c.28,1,.55,2,.83,3.07a3.9,3.9,0,0,0,.47,1.2.6.6,0,0,1,.1.25c.12.51.22,1,.34,1.52S8,52.44,8.07,53c.07.37.1.75.15,1.12.08.57.15,1.14.24,1.7,0,.25.12.49.16.74a1,1,0,0,1,0,.42,1.14,1.14,0,0,0,0,.58c.13.68.24,1.35.36,2a6.39,6.39,0,0,0,.13.63,21,21,0,0,1,.42,2.5,4.71,4.71,0,0,1,0,.75,1.39,1.39,0,0,0,.35,1.08.59.59,0,0,1,0,.18,4.87,4.87,0,0,0-.08,1.66,17.42,17.42,0,0,1,0,1.77.76.76,0,0,1-.06.26c-.15.39-.22.8-.34,1.19a2.75,2.75,0,0,0-.05,1.18,1.46,1.46,0,0,1,.35.1,1.54,1.54,0,0,1,.45.53,5.18,5.18,0,0,0,.28.58,3.88,3.88,0,0,0,.46.66c.44.45.91.87,1.37,1.3a1.44,1.44,0,0,0,.79.31,1.42,1.42,0,0,1,.56.15,2.27,2.27,0,0,0,.53.12,1.12,1.12,0,0,1,.72.33c.08.1.22.08.35.08a.49.49,0,0,1,.39.13c0,.2-.25.25-.23.45,0,0,0,.07.08.07a.31.31,0,0,1,.31.24.31.31,0,0,0,.33.22h.22a.2.2,0,0,1,.11.09.17.17,0,0,1-.05.14.54.54,0,0,1-.22.15,5.73,5.73,0,0,1-.58.07h-.18c-.07.11,0,.17,0,.22l.24.12c.07,0,.16,0,.19.1a1.12,1.12,0,0,0,.73.42,2.5,2.5,0,0,0,.07.26.31.31,0,0,0,.23.2,2,2,0,0,0,1.52,0c.18-.09.36-.16.52-.23s-.06-.31-.16-.3a9.22,9.22,0,0,1-1.38-.22.59.59,0,0,1-.48-.83c.13-.26.21-.53.32-.8a.45.45,0,0,1,.5-.32l.7.05a.45.45,0,0,0,.4-.12,1.13,1.13,0,0,1,.78-.31c.57,0,.55-.08.87-.52.57-.79,1.11-1.59,1.71-2.35a1.76,1.76,0,0,0,.38-1.25c0-.49-.06-1-.1-1.45a1.28,1.28,0,0,0,0-.27,5.33,5.33,0,0,1-.17-1.49,8.88,8.88,0,0,0-.13-1.45,2,2,0,0,1,.05-.85c0-.12,0-.24.06-.36ZM45.23,54a.55.55,0,0,1,.43-.42A7,7,0,0,0,46.88,53c.45-.23.84-.55,1.28-.8a1.51,1.51,0,0,1,.28-.15,3.27,3.27,0,0,0,1-.46,1.25,1.25,0,0,0,.66-.75,1.12,1.12,0,0,1,.4-.49l.59-.47a1,1,0,0,0,.39-.5.61.61,0,0,1,.43-.38,2.47,2.47,0,0,1,.36-.11,6.9,6.9,0,0,0,1.89-.77c.23-.14.47-.26.71-.39a.6.6,0,0,0,.31-.35c.21-.59.49-1.15.68-1.75a3.73,3.73,0,0,0,.12-.58,4.71,4.71,0,0,1,.37-1.51,4.75,4.75,0,0,0,.4-1.33c0-.3.1-.6.15-.91a2.11,2.11,0,0,0,0-.26v-.81c-.06-.06-.12,0-.18,0l-.45.35c-.15,0-.14-.17-.19-.26a2.83,2.83,0,0,1-.14-.26l-.57.2-.5-.52a.72.72,0,0,0-.66-.14.29.29,0,0,0-.14.08,2,2,0,0,1-.61.51,1.28,1.28,0,0,0-.33.42l-.82,1.2a2.71,2.71,0,0,1-.81.77,1.79,1.79,0,0,0-.57.56,13.57,13.57,0,0,1-1.14,1.37.5.5,0,0,1-.07.08,6.88,6.88,0,0,0-1.52,1.79c-.35.47-.72.94-1,1.43S46.31,48.9,46,49.49a7.17,7.17,0,0,1-.57.79c-.36.47-.73.93-1.07,1.41a3.27,3.27,0,0,0-.37.72,12,12,0,0,1-.66,1.35,6.24,6.24,0,0,0-.36.84.41.41,0,0,0,0,.16c0,.1.12.22.22.19s.43-.17.64-.27a4.3,4.3,0,0,0,.45-.29,2.66,2.66,0,0,1,1-.44ZM30.08,73c.06,0,.09.06.12,0a2.83,2.83,0,0,0,.42-.07l1.45-.43a5.14,5.14,0,0,1,1.1-.24A8.79,8.79,0,0,0,34.7,72a.16.16,0,0,1,.21,0,1.1,1.1,0,0,1-.4.24,30,30,0,0,1-2.86,1.09c-.11,0-.21.07-.31.09a1,1,0,0,0-.61.42,1,1,0,0,1-.6.43.92.92,0,0,0-.54.5.5.5,0,0,0,.47.22,10.23,10.23,0,0,1,1.24,0h2.21l.64,0a1.06,1.06,0,0,0,.75-.24,1.07,1.07,0,0,1,.17-.06l0,.28c1.76-.22,3.52-.35,5.29-.61a2.6,2.6,0,0,0-.1-.65c-.09-.23.1-.41.06-.65a2,2,0,0,0-1.14.19.87.87,0,0,1-1.05-.09,2.16,2.16,0,0,1-.75-1c0-.14,0-.24.18-.25l.48,0c.07,0,.16,0,.2-.06a1,1,0,0,1,.81-.3l.37-.37a.2.2,0,0,0-.12-.33,7.64,7.64,0,0,0-1-.13,4.08,4.08,0,0,1-.69-.09,1.79,1.79,0,0,0-.69-.07h-.11c-.28-.18-.54,0-.81,0-1.18.44-2.37.82-3.54,1.29-.17.06-.35.08-.52.13a1.18,1.18,0,0,0-.57.28,1.83,1.83,0,0,1-.51.29c-.22.09-.44.15-.66.24a.73.73,0,0,0-.18.11ZM48.27,55.16l1-.17c.13,0,.27-.06.31-.18.1-.27.33-.32.56-.38s.41-.07.66-.11c0,.06,0,.12-.06.13a1.2,1.2,0,0,1-.54.21c-.17,0-.19.1-.12.35h.2A10.92,10.92,0,0,0,53,54l.71-.38A1.48,1.48,0,0,1,54,53.5l2.36-.56a5,5,0,0,0,.35-1.61.69.69,0,0,0-.24,0,1.09,1.09,0,0,1-.69,0,1.1,1.1,0,0,0-.31,0,.84.84,0,0,1-.76-.42l-.2-.31c-.32,0-.62-.07-.91.06a.3.3,0,0,1-.21,0,.58.58,0,0,0-.37,0c-.2.06-.42,0-.57.25a1.22,1.22,0,0,0-.35.82.56.56,0,0,1,0,.18l-.4.43-.2,0c-.37,0-.38,0-.58-.33l-.37-.1-.13,0a17,17,0,0,0-2.18,1.57l-.15.15c-.15.2-.44.33-.37.62s.13.72.55.9Zm-34.49-7,.3.28a1.65,1.65,0,0,0,.17-.39.63.63,0,0,1,.56-.45l.1,0a.26.26,0,0,0,.16-.31,1.08,1.08,0,0,0-.07-.31c-.25-.41-.39-.88-.67-1.27a2.18,2.18,0,0,0-.28-.25L13.5,45a2.43,2.43,0,0,0-.25-.2,2.74,2.74,0,0,1-.79-.73.78.78,0,0,0-.44-.34,1,1,0,0,0-.45.32l-.41.4a1.4,1.4,0,0,0,.1.39A3.75,3.75,0,0,1,11.58,46c.12.61.23,1.23.35,1.84,0,.13.06.25.07.37.08.72.3,1.41.44,2.11.1.49.19,1,.29,1.48.06.3.14.59.2.89.25,1.14.49,2.28.73,3.41.12,0,.12-.08.14-.12a2.77,2.77,0,0,0,.28-1.19,1,1,0,0,1,0-.38,2.65,2.65,0,0,0,0-1.22c-.15-.81-.31-1.62-.47-2.43-.1-.47-.23-.94-.34-1.41a1.55,1.55,0,0,1,0-.21c-.06-.32-.11-.64-.19-.95s-.19-.72-.29-1.09a.63.63,0,0,1,0-.19,4.15,4.15,0,0,1,.65,1.25l.51,1.22c0-.4-.25-.77-.16-1.26ZM12.06,82.69a1,1,0,0,1,.83-.44,2.51,2.51,0,0,0,.62-.1.24.24,0,0,0,0-.27,1.46,1.46,0,0,0-.26-.34.69.69,0,0,1-.17-.83.34.34,0,0,0-.1-.39L12,80a.88.88,0,0,0-.58,0,.88.88,0,0,1-.86-.14l-.14-.08a.32.32,0,0,0-.36,0,.8.8,0,0,1-.66.11,1.14,1.14,0,0,0-.68,0c-.34.14-.65-.08-.68-.52a.54.54,0,0,0,0-.25,1.48,1.48,0,0,0-.08-.13c-.05,0-.09,0-.11,0a15.93,15.93,0,0,0-1.37.95l-.56.5s0,.07,0,.09a.16.16,0,0,0,.09,0l.19-.08L7.34,80l.22-.09s.09.09.13.15,0,.09.09.16a2.91,2.91,0,0,0,.3,0,1,1,0,0,1,.42,0,.33.33,0,0,0,.26,0,.58.58,0,0,1,.46,0c.44,0,.51.13.53.66l-.51.24a5.08,5.08,0,0,1-.51.17l-1.3.34a.54.54,0,0,0-.37.22.89.89,0,0,0,0,.15c0,.11.1.22.13.3a.66.66,0,0,0,.5.13,27.19,27.19,0,0,1,3.49.26l.86.06ZM43.84,65.12l.14.45.87.13a.55.55,0,0,0,.22,0,2.41,2.41,0,0,1,1,0c.42,0,.86,0,1.29,0l1.56,0a3.43,3.43,0,0,1,.64,0,1.34,1.34,0,0,0,.63-.09,3.25,3.25,0,0,0,.8-.36A.29.29,0,0,0,51,65l-.06-.09a4.5,4.5,0,0,1-.77-1.64c-.09-.34-.22-.42-.58-.45a2,2,0,0,0-.89.18,12.86,12.86,0,0,0-1.42.64c-.29.16-.62.27-.91.45a4.69,4.69,0,0,1-.79.44,7.22,7.22,0,0,1-.83.23,4.24,4.24,0,0,0-.5.18,3.21,3.21,0,0,0-.38.23Zm9.88,19.36c-.22.27-.38.53-.67.62,0,.13,0,.17.11.19l1.39.42L59,87c.45.13.9.26,1.36.35A13.58,13.58,0,0,1,62,87.8l.72.22a1.65,1.65,0,0,0,.32,0L64.29,88l.25,0c0-.12-.09-.12-.15-.12a2,2,0,0,1-.92-.3,1,1,0,0,0-.3-.11,2.65,2.65,0,0,1-.3-.11,3.26,3.26,0,0,0-.62-.31,4.35,4.35,0,0,1-.59-.25l-.79-.32c-.22-.09-.42-.21-.64-.28s-.43-.06-.63-.13a9.48,9.48,0,0,0-1.07-.33c-.51-.11-1-.24-1.51-.36-.16,0-.32-.07-.47-.12-.58-.18-1.16-.38-1.75-.55-.34-.09-.7-.12-1.08-.18Zm.74,4.77-.43.4.25,0c.07,0,.17,0,.21,0,.21.23.5.17.75.23a10,10,0,0,0,1.34.14c.08,0,.17,0,.28,0a7.73,7.73,0,0,0-.28-1,1,1,0,0,1,.19-.16,4.74,4.74,0,0,1,1.62-.38c.32,0,.64-.05,1-.08a2.2,2.2,0,0,0,.37-.07c.05,0,.09-.06.14-.1s-.07-.1-.11-.11c-.9-.1-1.77-.31-2.65-.46A6.1,6.1,0,0,0,56,87.61a1.69,1.69,0,0,0-1.39.7.7.7,0,0,0-.14.61,1.72,1.72,0,0,1,0,.33ZM22.07,62.79a1.3,1.3,0,0,0,.58-.5,4.67,4.67,0,0,1,.7-1,.89.89,0,0,0,.19-.39c.09-.3.17-.62.25-.9a1.08,1.08,0,0,0-.06-.19c-.28-.49-.21-.55-1-.58A13.25,13.25,0,0,0,22.44,61c-.12.6-.24,1.2-.37,1.79Zm-6.37-8a.17.17,0,0,0,.07-.21,1.74,1.74,0,0,1-.13-.9,1.24,1.24,0,0,0,0-.27c-.06-.42-.12-.85-.17-1.27a.5.5,0,0,0-.27-.43s-.12-.05-.15,0a.28.28,0,0,0-.09.17.94.94,0,0,0,0,.37c.14.56.29,1.11.44,1.66.07.25.12.49.19.73a.71.71,0,0,0,.08.18Zm28,22.73a2.49,2.49,0,0,0-.12-.3c-.15-.2-.31-.26-.5-.13a.5.5,0,0,1-.6,0,.88.88,0,0,0-.61-.12s-.08,0-.15.1a5.74,5.74,0,0,0,2,.44ZM46,69.37a.86.86,0,0,0,.18,0l1.22-.12s0,0,.05-.06a.36.36,0,0,0-.07-.1,1.65,1.65,0,0,0-1-.14.43.43,0,0,0-.31.19.54.54,0,0,0-.07.19Zm4.38-3.74s0,.08.08.08l1,.21c0-.31,0-.31-.36-.58a3.17,3.17,0,0,0-.73.29Zm-.19,2a.7.7,0,0,0-.46-.35.28.28,0,0,0-.37.2.78.78,0,0,0,0,.26s.08.1.11.09a2.1,2.1,0,0,0,.74-.2Zm-5.87-18c-.16-.16-.31-.08-.47,0a1.25,1.25,0,0,0-.27.44.17.17,0,0,0,.05.13.14.14,0,0,0,.14,0,2.64,2.64,0,0,1,.55-.5ZM8,47.26a.27.27,0,0,0,.09.28c0-.16,0-.16-.09-.28ZM40,71.11l0,.07,0,0,.1,0,0-.07s0,0-.05,0Zm9.82-16,0-.15-.13,0s0,.07,0,.08a.46.46,0,0,0,.12.09Zm3.89,34.56-.18.08,0,0,.14-.06s0,0,0,0ZM45.37,56.8l.06.07.07-.1-.11-.06,0,.09Zm6.83-2.16c-.12,0-.19,0-.24.11.12,0,.19,0,.24-.11ZM45.87,70.87l.07-.06-.09,0a.22.22,0,0,0-.06.07Zm-8.12-.72h0a.07.07,0,0,0,0,0h.07v0Zm8.31-11.93,0,0,0,0,0,0s0,0,0,0ZM50.19,69.5v0h0l0,0Zm-.74-33.62s.07,0,.08,0,0-.06,0-.09h0l0,.09ZM22.73,52.58l0,0v0Zm1.52-.82,0,0,0,0v0ZM56.17,26.9h0v-.07h0a.07.07,0,0,0,0,0ZM41.77,66.69l0,0,0,0ZM53,89.88h0l0,0h0Z"/><path class="cls-2" d="M47.68,9.3a12.76,12.76,0,0,0-.41-1.41c-.1.06-.06.15-.06.22s0,.29,0,.43a2.11,2.11,0,0,1,0,1,7.56,7.56,0,0,1-.32.91c-.16.32-.27.66-.4,1-.05.15,0,.21.23.29a4,4,0,0,0,.38-.51,2.7,2.7,0,0,1,.25-.34,1.14,1.14,0,0,0,.21-.37,3.81,3.81,0,0,1,.31-.56c0-.06.11-.09.18-.14a1.35,1.35,0,0,1,.3.58,4.18,4.18,0,0,0,.5,1.07,1.19,1.19,0,0,1,.16.39c.12.49.21,1,.33,1.47a7,7,0,0,1,.12.8,6.51,6.51,0,0,1,0,1.65,3.9,3.9,0,0,1-.28,1.36.46.46,0,0,0,.07.07c.29.27.45.25.65-.15s.38-.85.59-1.27.37-.74.57-1.1a1.57,1.57,0,0,1,.17-.21,1.47,1.47,0,0,1,.64.59,1.2,1.2,0,0,0,.16.27,2.51,2.51,0,0,1,.55,1.26c.1.44.16.89.29,1.32a4.74,4.74,0,0,0,.4.93c.06.11.22.16.36.26a4.65,4.65,0,0,0,.08,1l.13,0a6.72,6.72,0,0,1,.16-1,2.7,2.7,0,0,0-.1-.58,7,7,0,0,1-.26-1.1A4.93,4.93,0,0,0,53,15.48l-.24-.42A2.13,2.13,0,0,0,51,13.9a.52.52,0,0,0-.52.23c-.09.13-.17.26-.26.38s-.12-.08-.13-.15a10.73,10.73,0,0,0-.3-1.58A11.37,11.37,0,0,0,49.14,11a10.43,10.43,0,0,1-.48-1.08A.86.86,0,0,0,48,9.37Z"/><path class="cls-2" d="M42,15.41a1,1,0,0,0,.24-.59,1.51,1.51,0,0,1,.2-.61,1,1,0,0,0,.08-.88,1,1,0,0,1,.09-.83c0-.1.11-.18.17-.28a.33.33,0,0,0,.05-.3,1.52,1.52,0,0,1,.07-1,9.11,9.11,0,0,0,.41-2,2.06,2.06,0,0,0,0-.43,2.3,2.3,0,0,1,.12-1A11.66,11.66,0,0,0,44,5.62c0-.11,0-.21.06-.32a1.87,1.87,0,0,1,.88-1.13.88.88,0,0,1,.52.42l.4.71c0,.06,0,.15.1.19a1.86,1.86,0,0,1,.51.93A.79.79,0,0,0,47,7a.17.17,0,0,0,.11-.22A2.8,2.8,0,0,0,47,6.32c-.18-.45-.37-.9-.56-1.34,0,0,0,0,0-.05a1.85,1.85,0,0,0-2.05-1.15A.46.46,0,0,0,44,4c-.09.13-.2.25-.3.37a1.59,1.59,0,0,0-.18.27,3.65,3.65,0,0,0-.38,1.17,4.61,4.61,0,0,1-.14.62,8.15,8.15,0,0,0-.15,2.09,6.94,6.94,0,0,0,0,.91.92.92,0,0,1,0,.37,6.18,6.18,0,0,0-.22,1.71.37.37,0,0,1,0,.15,3.82,3.82,0,0,0-.23,1c-.11.6-.22,1.2-.34,1.8a2.08,2.08,0,0,0,0,1Z"/><path class="cls-2" d="M54.15,23.58c.37-.34.38-.8.6-1.16l-.23-.24s-.08,0-.1,0a3,3,0,0,0-.37,1.16C54,23.42,54.1,23.49,54.15,23.58Z"/><path class="cls-2" d="M41.7,17.11a.35.35,0,0,0-.08.13q-.1.5-.18,1a1.39,1.39,0,0,0,0,.24c.07-.06.12-.09.13-.12,0-.29.1-.59.13-.88a1.57,1.57,0,0,0,0-.37Z"/><path class="cls-2" d="M52.3,55.87l.7-.27c-.06-.05-.09-.09-.13-.1a1.54,1.54,0,0,0-.31,0,.24.24,0,0,0-.28.08.27.27,0,0,0,0,.34Z"/><path class="cls-2" d="M41.91,16.2c0,.07-.13.13-.15.2a1.23,1.23,0,0,0-.06.71h0a1,1,0,0,0,.21-.9Z"/><path class="cls-2" d="M41.34,18.81a1.68,1.68,0,0,0-.15.67C41.42,19.15,41.45,19,41.34,18.81Z"/><path class="cls-2" d="M54.34,69a.41.41,0,0,0,.36.33c.09,0,.1-.07.1-.16A.92.92,0,0,0,54.34,69Z"/><path class="cls-2" d="M49.39,57.83c-.16,0-.38-.09-.49.13L49,58Z"/><path class="cls-2" d="M52.31,55.87c-.17,0-.36,0-.45.24.22,0,.28-.19.44-.24Z"/><path class="cls-2" d="M40.07,50a.33.33,0,0,0,0,.14s.07,0,.07,0a.56.56,0,0,0,0-.12Z"/><path class="cls-2" d="M55.48,67.19l-.22,0s0,0,0,0,0,0,.06,0A1.21,1.21,0,0,0,55.48,67.19Z"/><path class="cls-2" d="M42,15.42c0,.13,0,.26-.07.39h0a.37.37,0,0,0,.07-.39Z"/><path class="cls-2" d="M42,15.81a.35.35,0,0,0-.05.39h0a.34.34,0,0,0,.06-.4Z"/><path class="cls-2" d="M41,20.3l.12-.26c-.19.08-.13.18-.1.27Z"/><path class="cls-2" d="M56.69,62.73l.11.06v0l-.13,0Z"/><path class="cls-2" d="M56.93,62.93v0h0v0Z"/><polygon class="cls-2" points="62.18 37.36 62.19 37.39 62.22 37.37 62.18 37.36"/><path class="cls-2" d="M56.68,62.73l-.06,0,0,0h0Z"/><path class="cls-2" d="M46.19,60.81l0,0,0,0,0,0S46.2,60.82,46.19,60.81Z"/><path class="cls-2" d="M44.94,40l0,.05,0-.07Z"/><path class="cls-2" d="M32.32,87.07a.86.86,0,0,0,.78,0c-.09,0-.14-.07-.18-.06C32.72,87.07,32.52,87,32.32,87.07Z"/><path class="cls-2" d="M45.28,82.2c-.11,0-.11.12-.07.19a.19.19,0,0,0,.22.1.18.18,0,0,0,0-.08Z"/><polygon class="cls-2" points="44.05 88.7 44.08 88.67 44.04 88.67 44.05 88.7"/><path class="cls-2" d="M6.7,43.3s0,.07,0,.1l0,0a.38.38,0,0,0,0-.1Z"/><path class="cls-2" d="M7,44.5a.07.07,0,0,0,0,0,.08.08,0,0,0,0,0,.11.11,0,0,1,0-.05Z"/><path class="cls-2" d="M52.69,43.2l.29-.09a.14.14,0,0,0,.06-.22,1.89,1.89,0,0,0-.25-.23c0-.27.24-.46.3-.73a.49.49,0,0,0-.44.44A1.2,1.2,0,0,0,52.69,43.2Z"/><path class="cls-2" d="M54,43.32l0-.08a.14.14,0,0,0-.09,0,.49.49,0,0,0,0,.07Z"/><path class="cls-2" d="M49.2,32.32a.69.69,0,0,0-.53.47c-.06.16,0,.23.24.31a1.41,1.41,0,0,0,.32-.54.26.26,0,0,0,0-.25Z"/><path class="cls-2" d="M33,74.37l.31.25.63-.54c-.26-.13-.47,0-.69.07S33.05,74.28,33,74.37Z"/><path class="cls-2" d="M44.37,65.37v0l.06,0Z"/><path class="cls-3" d="M66.94,29.37l-.27-.5-.47.07a.9.9,0,0,0-.66.84.47.47,0,0,0,.46.49.78.78,0,0,0,.56-.21C66.72,29.92,66.75,29.86,66.94,29.37Z"/><path class="cls-3" d="M64.13,10.3a.68.68,0,0,0,.74.59.71.71,0,0,0,.59-.75.67.67,0,0,0-.75-.58A.64.64,0,0,0,64.13,10.3Z"/><path class="cls-3" d="M90.06,21.79c-.31.68-.48,1.42-.77,2.1a1,1,0,0,0-.05.56,2.87,2.87,0,0,0,.2-.39c.25-.74.5-1.47.76-2.21Z"/><path class="cls-3" d="M100.22,19.31a2.1,2.1,0,0,0-.27.24A10.27,10.27,0,0,0,99,21.43h0c.16,0,.22-.12.28-.22a8.42,8.42,0,0,0,.76-1.57c0-.11.11-.22.16-.34Z"/><path class="cls-3" d="M88.38,26.85c.07-.25.15-.5.22-.75l-.08,0-.17.76Z"/><path class="cls-3" d="M92.42,23.53c.06,0,.12,0,.14-.05a.91.91,0,0,0,.13-.52A.61.61,0,0,0,92.42,23.53Z"/><path class="cls-3" d="M100.21,19.29c.11-.2.21-.39.3-.59-.1-.14-.19-.07-.21,0a5.59,5.59,0,0,0-.08.59Z"/><path class="cls-3" d="M87.7,28.44a.88.88,0,0,0-.15.7,2.8,2.8,0,0,0,.13-.39A1.85,1.85,0,0,0,87.7,28.44Z"/><path class="cls-3" d="M88.86,25.44c0-.11.07-.23.1-.34h0l-.08.35Z"/><path class="cls-3" d="M99,21.43l-.29.55v0a.57.57,0,0,0,.28-.54Z"/><path class="cls-3" d="M92.25,24.2a.14.14,0,0,0,0-.06v0s0,0,0,.05Z"/><path class="cls-3" d="M61.27,29.7l0-.13s-.1,0-.12,0,0,.08-.06.13Z"/><path class="cls-3" d="M98.73,22s0,.07,0,.06V22Z"/></g></g></g></svg>