<svg xmlns="http://www.w3.org/2000/svg" viewBox="0 0 125.86 104.97"><defs><style>.cls-1{opacity:0.3;}.cls-2{fill:#f7f7f7;fill-rule:evenodd;}</style></defs><g id="圖層_2" data-name="圖層 2"><g id="圖層_1-2" data-name="圖層 1"><g class="cls-1"><path class="cls-2" d="M83,35c1.87-1.25,4.24-1.63,6.09-3.14s3.2-3.7,5.88-3.52c1.31.08,2.31.93,3.52,1.32a16.11,16.11,0,0,0,3.6.64,12.74,12.74,0,0,0,4.09-.15,18.21,18.21,0,0,1,3.49-.72,3.13,3.13,0,0,0,.73-.16c-.05,1.35-5.07,2.74-6.3,3.19-2.1.77-4,1.55-6.1,2.51-1,.46-2.11.72-3.06,1.21s-1.73,1.24-2.69,1.7c-1.78.86-4.93.61-6.18,2.47-.12.18-.22.35-.33.53a3.88,3.88,0,0,1-.67.71C83.12,43.25,82,44,80.92,45a23.43,23.43,0,0,1-5.18,3.79c-2.07,1.07-3.87,2.47-5.92,3.56a14.18,14.18,0,0,1-3.45,1.44c-.49.09-1,0-1.54.11s-1.1.79-1.56.73a5.14,5.14,0,0,0-.55,0c0-1.5,3-2.93,3.86-4-1.29.14-2.65.84-4,1,.09-1.57,4.5-2.58,5.77-3.73,1-.88,2-1.09,3-1.89s4-1.36,3.45-2.6c-.49-1.06-2,1.06-3.31,1-.05-1.47,3.7-2.59,4.82-3.16,1.81-.93,3.78-1.52,5.45-2.47-2.58-.5.63-1.52,1.52-1.78,1.54-.46,3.09-1,4.7-1.39,2.29-.49,7.49-.19,8.62-3-.61.09-1.32.15-1.93.25a2.4,2.4,0,0,1,.86-1.15c-1.14-.94-1.83.16-2.82.61s-2.27.55-3.36,1c-2.31,1-3.85,2.11-6.51,1.94.12-.14.09-.27.14-.43"/><path class="cls-2" d="M93.76,71.19c.59-1.92,4.68-2.12,6.21-2.43,2.48-.49,4.61-2.16,7-2.69,2.91-.65,4.54,1.76,6.78,2.66,2.08.84,5.28-.08,7.42-.27,1.5-.13,3.19-.68,4.68-.43-.6,1.67-4.66,2-6.19,2.28-2.23.36-5.07.33-7,1.3-2.26,1.13-4,2.16-6.64,2.15a38.22,38.22,0,0,0-7.42,1c-2.48.5-4.85,1.43-7.27,2-1.25.29-2.52.37-3.76.63-1,.21-2.09,1.24-3,1.15,1.21-1.92,4.82-1.21,6-2.88.91-1.25-.33-1.6-1.37-1.33s-1.88,1-2.88,1.4a35.74,35.74,0,0,0-12.11,6.8c-.86-.73,1.12-1.93,1.2-2.9.12-1.22-1.4-2,0-3,.85-.65,2.41-.22,3.45-.33a20.7,20.7,0,0,0,3.52-.85C87,74.07,91.48,73.36,96,72a18.55,18.55,0,0,1,4.09-.83c1.35-.06,2.46.42,3.94.49,1.89.09,6.87.73,7-2.25-1-.09-1.68.56-2.69.4.52-.44,1.26-.52,1.48-1.16-1.38-.06-2.92.52-4.37.59a29.4,29.4,0,0,0-4.25.45c-2.52.49-4.94,1.29-7.52,1.84.24-.32.26-.05.4,0"/><path class="cls-2" d="M72.39,76.49c.66-2.15,4.39-2.42,3.76-4.55-.58-1.94-2.59-3.77-3.34-5.75-.69-1.83-.2-4.89-1.51-6.18-.65-.65-1.59-.78-2.2-1.74s-.57-2.35-1.25-3c-1,.79-.46,3.92-.46,5.17a22.05,22.05,0,0,0,.8,6.37c1,3.49,1.51,7.64,4.2,9.54"/><path class="cls-2" d="M53.15,87.7c-.47-2.61,14.39-6.06,11.67-9.36-1.34-1.63-6.07.81-7.28,1.64a10.84,10.84,0,0,1-2.72,1.81,9.47,9.47,0,0,0-3,1.67c-.74.6-1.14,1.24-2.11,1.52s-2,0-2.88.49c-.61.32-1.72,1.09-.88,1.75.5.39,2.16-.2,2.83-.1-.05,1.52.64.85,1.5.85.69,0,2.27.34,2.61-.11"/><path class="cls-2" d="M69.67,92c2.73-1.68,5.58-3.08,8.33-4.7,2-1.18,3.91-5.06,6.19-5.28-1.19,3-4.65,6.18-7.09,8.34-1.54,1.37-3,2.84-4.56,4.25-1,.94-2.35,2.83-3.6,3.28-.13-1.08.66-2,.7-3-1.75,0,0-2.65.48-3.21"/><path class="cls-2" d="M60.58,97.4c1-.67,2.38-.41,3.49-.94C65,96,65.63,95,66.77,95.15c-.15.9-1.07,1.56-1.5,2.4s-.27,1.8-1.1,2.39c-.39.28-2.34.69-2.84.35-.69-.46-.45-2-.45-2.74"/><path class="cls-2" d="M34.36,96.34c2.71.41,4.28,2,6.06,2.13,2.67.25,4.79-.67,7.13-1.64C52,95,57.52,96,60.77,91.68a3,3,0,0,0,.84-1.83c-1.47-.15-2.33,1.6-3.45,2.29-1,.57-2.94,1.45-4.08,1.3.18-1.14,1.81-1.51,2-2.55.21-1.59-1.68-.63-2.57-.27-2.32.93-4.9,1.44-7.13,2.5s-3.53,2.18-6.36,2c-1.32-.08-5.94-1.29-5.61,1.21"/><path class="cls-2" d="M33.3,94.07c1.82.24,3.39-2,4.55-3.18,1.3-1.31,2.7-2.54,4-3.91a43.75,43.75,0,0,0,3-3.82c.61-.81,2-2.78,2.81-3.13a3.48,3.48,0,0,1-.25,1.9c1.52-.45,3.42-2.67,5-3.51A27.35,27.35,0,0,1,58.88,76c0-2.13-7.69.65-8.76,1.12-1.95.84-2.61,0-1.25-1.74,1-1.24,2.69-1.92,2.44-3.72-2-1-4.58,2.77-5.47,4.21-1.2,2-2.54,3.55-3.26,5.76a14.36,14.36,0,0,1-4.1,6.11c-1.59,1.59-4.15,3-5.14,5.15-.28.61-.72.79-.19,1.32"/><path class="cls-2" d="M15.73,104.67c1.41,0,2.13.68,3.6,0a31,31,0,0,0,2.79-1.75c1.41-.88,5.59-2.67,5.25-4.71-1.82,0-2.94,3.12-4.65,3a3,3,0,0,0,.71-1.46c-1,0-2,1.43-2.85,2-1.06.71-2.53.95-3.35,1.78.45.45,1.08.23,1.65.49-.59.86-2.24.22-3.15.88"/><path class="cls-2" d="M11.33,103.46c2.23,1.42,4.64-1.43,6.48-2.31s4.82-2.09,5-4.64c-1.5-.38-3.2,2.26-4.34,3,.29-1.14,1.93-2.12,1.62-3.44-1.06-.17-2.32,1.26-3.28,1.69-1.12.49-2.92.69-3.66,1.75a6.34,6.34,0,0,0,3.3-.25c-1.09,1.46-3.72,3.48-5.57,3.79a1,1,0,0,0,.44.42"/><path class="cls-2" d="M56.94,22.4c1,2.19,1.47,4.63,3,6.52.62.78,1.68,2.1,2.76,1.67,1.43-.57.46-2.49,1.66-3.05s1.92.8,2.77,1.19c1.28.59,1.8.06,2.84-.76,2.75-2.21.32-3.52,0-6.33A10.23,10.23,0,0,0,69.71,19a7.44,7.44,0,0,1-.92-2.53,18.22,18.22,0,0,1,.88-5.3c.88-3.53.39-8,2-11.19-3,.19-4.56,7.42-5,9.67-.67,3.58-1.81,7.08-1.81,10.86a35.85,35.85,0,0,1-1.21-8.74c0-2.95.47-5.93.43-8.74-3.24,2-2.12,8.19-3.46,11.1-1.18-1.32-1.29-3.72-1.67-5.34a18.31,18.31,0,0,0-.79,3.74c-.12,1,.25,2.62-.15,3.46-.87-.48-1.38-1.94-2.06-2.7-.83-.94-1.86-1.71-2.72-2.62-.4-.41-1.55-2.24-2.28-1.9-.92.44.1,2.8.26,3.43-1.67.06-2.5-3.91-3-5.13a27.36,27.36,0,0,0-3.61-5.4c-.26,3.08,2.33,6.59,3.64,9.34a27.08,27.08,0,0,0,2.43,4.06c.43.62,3.05,3.57,3.16,1,1.41-.29,2.72,2.36,1.83,3.35-1,1.16-3-.71-3.71-1.52a14.36,14.36,0,0,0-3.13-2.65c-1.68-1.15-2.28-2.6-3.16-4.31-.2,1.91.76,3,1.15,4.63-1.28-1.07-1.77-2.81-2.59-4.22a20.12,20.12,0,0,0-3.33-4.21C39.63,6,37.92,5.62,36.9,4.25S36.08,1,34.8,0c.8,2.18-.07,5.22,1.34,7.07,1.59,2.09,4.37,3.3,6.25,5.14a19.36,19.36,0,0,1,3.68,6.18c.76,1.77,2.26,4.08,2.21,6.08-1-.31-1.19-1.76-1.83-2.52s-1.35-1.16-2-1.82c-1.65-1.72-2.86-4-4.47-5.77-1.7,3.65,3.23,6.39,4.69,9.37.82,1.65,1.07,3.22,2.27,4.69s3.05,2.73,3.9,4.23c-1.16.22-2.72-.9-3.62-1.53s-2-2.61-3.17-2.52A8.11,8.11,0,0,0,44.19,31c-2.3.51-4.17-3.51-5.13-5-.52-.8-1.85-3.08-2.73-3.49-1.62-.76-1.56,1-1.1,2.13s1.58,2.5,2.2,3.79,1.15,2.73,1.9,3.94c1.23,2,3.56,2.84,5.64,3.63a20,20,0,0,0,7.42,1.22c.87,0,6.67-.6,4.72-2.7,1.3,0,2.71.26,2.71-1.7,0-1.07-1.1-2.6-1.63-3.52-1.38-2.38-2.22-4.19-2-7.06a2.54,2.54,0,0,1,.73,0"/><path class="cls-2" d="M28.91,89.07c.69,1.76,4.05-2.6,4.66-3.22,1.69-1.74,3.71-2.93,5.34-4.81s2.2-4,3.33-6.21a10,10,0,0,1,5.46-4.55,39.32,39.32,0,0,0,9.81-5.35c2.7-2,6.89-5.12,7.74-8.42-2,.63-4.46,3.47-6.31,4.72S54.33,65.11,52.11,65a1.26,1.26,0,0,0-1.73-.78c-.51.39-.29,1.57-.9,2.14-.83.77-2.73,1.23-3.79,1.66a14.43,14.43,0,0,0-3.78,2.31c-1.74,1.38-2.55.34-4.64.43-.71-4.07-5.06,7.14-6.57,3.23-1.27-.3-2.56,1.2-3.73,1.62,0-.34-.25-.62-.21-1-1.14-.15-1.86.91-2.85,1-2.12.29-.88-.84-1.55-1.94s-1.85-.29-1.76-2c0-.85,1.32-1.77,1.31-2.74a3.86,3.86,0,0,1-1.77.57c.26-1.15,1.89-1.29,2.23-2.38-1.69-.39-3.52,2.33-4.67,3.34a16.36,16.36,0,0,1-3,2.28c-1,.54-2.44.92-3,1.94,1.32.18,4.82-2.86,5.86-1.37.79,1.12-2.86,3.37-2.56,5.28.95-.06,1.66-.91,2.68-.71.24,1-3.77,3.09-4.77,3.77,1.9,0,3.15-.83,4.8-1.56s3.15-1.07,4.66-1.61c-.8,4.1,4-.41,5.92-.45a4.79,4.79,0,0,0,.2,1.47c1.55.4,4.85-2.59,6-3.62.59-.5,2-2.36,2.78-1.82.51.34.36,3,.26,3.65-.7,4-5,7.93-7.92,10.56a11.15,11.15,0,0,0-.87.8"/><path class="cls-2" d="M54.82,74.07c2-1.28,2.47-3.39-.46-3.34-.69,0-2.27.22-2,1.37s1.88.26,1.54,2.1a1.25,1.25,0,0,0,1.34-.44"/><path class="cls-2" d="M56.18,40.88c.53,1.2,0,2.54,1.52,3.16s2-.56,3.07-1.3c1.71-1.17,4.57-1,5.76-3s1.11-5.79-2-3.83c-2.36,1.47-3.76,2.83-6.52,3.46-.7.15-2.75.51-1.67,1.54"/><path class="cls-2" d="M24.82,27.25c.78-1,.75-3.48.78-4.68,1.67,1,3.76,4.13,2.51,5.86a4.76,4.76,0,0,1-3.29,2c-.86,0-3.29-.76-3.31-1.64a12.53,12.53,0,0,0,3.31-1.85"/><path class="cls-2" d="M45.73,37.4c2,1.55,4.68,2.06,6.79,3.52,3.73,2.61-1.7,3.42-2.23,5.85,1.32.18,2.53-.89,3.92-.89A39.57,39.57,0,0,0,58.3,46a16,16,0,0,0,4-.83c1.27-.49,2.27-1.42,3.76-1.23-.8,1.69-3.56,2.64-5.28,3a60.2,60.2,0,0,0-6.06,1.64c-4,1.35-8.11,2.08-11.93,3.64,2.79,0,5.45-.26,8.14-.47,1.47-.12,6.62-.71,7.4.42-1.45,1-3.33.37-4.66,2.12,1,.28,3.05.78,1.05,1.56-1,.38-2.59-.53-2.86.88a11.89,11.89,0,0,0,4.68-.09C57.73,56.33,59,55,60.41,55.3c-.62,1.65-4.23,3.1-5.78,3.88-2.37,1.21-4.93,1.52-7.35,2.5-2,.8-3.83,2-5.79,2.69-1.19.41-2.44.54-3.65,1-1,.39-2.17,1.12-3.33.8-2.25-.63-.4-2.4,1.07-3.07,1-.48,4.15-.6,4.06-2.06a5.44,5.44,0,0,0-2.4.31c-1,.24-1.85.11-2.73.27-1.42.25-3.19,1.93-4.2,2.92C28.85,66,25.43,70.3,23.17,69.8c.21-1.36,3.11-3.86,4.18-4.86a45.84,45.84,0,0,1,5.75-4.67,15,15,0,0,0-2.52-.14,6,6,0,0,1-2.42-.61c-1.57-.76-3.38-.64-5.13-1.24-.28-2.45,8-3.8,9.35-5.4-.78-.25-5,0-4.5-1.66C28.22,50,32.07,50,33,49.82a46.55,46.55,0,0,0,5.15-1.24c1.07-.28,4.44-.49,4.83-1.45-1.17-.41-3.23-1.85-2.1-3,.84-.82,3.31-.6,4.38-1-.79-1.48-4.34-1.45-4.39-3.79s3.53-1,4.54-1.65c0,.2-.13.08-.29.12"/><path class="cls-2" d="M21.71,27.85c-1.68,0-4.06-2.33-4.85-3.66A50.1,50.1,0,0,1,14,18.08c-.76-1.85-1.88-3.51-2.64-5.33.05.11-.29,1.42-.22,1.79a10.47,10.47,0,0,0,.93,2.52c.8,1.67,2,3.11,2.84,4.72-1.51.39-3.2-3.67-3.83-4.73-1-1.6-2.42-2.78-3.36-4.42A36.24,36.24,0,0,1,5.21,7c-.47-1.27-.88-5-2.12-5.56C3,3,4.36,4.51,4.08,6.25c-.94-.58-.83-2-1.78-2.7-.12,1.9,1,3.85,1.37,5.64.36,1.61,1.4,3.12,1.46,4.88A27.92,27.92,0,0,1,1.94,8.64C1.21,6.91,1,4.69,0,3.12a32.75,32.75,0,0,0,1,7c.51,2.29,2.58,4.7,2.6,7-.31-.36-2.13-2.86-2.63-2.5-.68.48.84,2.48,1,2.95-.8-.76-1.39-.26-1,.69.22.53,1,1.08,1.47,1.47,1.32,1.17,2,2.85,3.39,3.92,1.19.91,2.44,1.82,3.66,2.68,1,.68,3.22,1.55,3.25,3-.91.19-1.94-.44-2.83-.64a8.76,8.76,0,0,1-2.81-1A13.7,13.7,0,0,0,4.58,26c-1.42-.44-.84.19-.24.95-.4.38-1.14.21-1.71.24.09.35.47.55.59.86s0,.72.1.92c.49.66,1.4.67,2.05,1,.85.44,1.4,1.24,2.36,1.51s1.64-.13,2.48,0c.75,1.44-2.57,1.8-3.36,1.8-1.41,0-3-1.48-4.22-1.23a3.16,3.16,0,0,1,.65,1.78c-.17-.07-.47,0-.64-.08a1.27,1.27,0,0,0,.1,1.35c-1.22.82-1.3,1.37.22,2A10.92,10.92,0,0,0,6.71,38c2.45.09,5.5.5,7.71-.56-.34,1.35-2.7,1.82-3.85,2.24-1.55.56-3.15.47-4.65.93s-1.45,2,0,2.76c.58.3.93.82,1.47,1.13s1.62-.09,2,.74c-.67.55-2.13,1.29-.55,1.29,1.17,0,2.15-.93,3.39-.44.14,1.27-1.45,1.29-2.1,2,2.18.55,4.65-1.85,6.53-1,0,.81-1.78.9-.89,1.89.65.74,1.66-.17,1.49,1.48.67,0,2.91-.35,2.83.81,0,.67-1.92,1.12-2.48,1.39C17,54.7,20,53.13,20.69,53c1.34-.31,2.55.65,3.86,0,.95-.5,1.76-2.1,2.36-2.95s.66-3.63-.95-2.49a3.1,3.1,0,0,0-.16-4.31c-.67-.52-1.84-.54-1.94-1.7,0-.41.54-.66.33-1.23-.1-.27-.69-.5-.9-.7.55-.78,1.46-1,1.72-1.93.18-.69.1-2.38-.43-2.87-1.47-1.37-3.59,2.47-5.47,1.47a9.84,9.84,0,0,1,1.83-1.42c.63-.34,2-.68,2.37-1.39.75-1.6-3.46-.36-4.31-1.16.63-1,2.81-.6,3.81-.57-.89-.65-2.36-.77-2.79-1.88.78-.16,1.38.24,2.13.18-.24-.58-1-1-1.1-1.66.3-.17.32,0,.32,0"/><path class="cls-2" d="M41.94,28.65c-1.17-.24-1.74-3.48-2.53-4.52s-3.17-2.89-3-4.33c.87.1,1.58,1.48,2.17,2.12a9.31,9.31,0,0,0,2.13,1.75c1.19.73,1.57,1,1.7,2.36a13.61,13.61,0,0,1,.44,3.06.7.7,0,0,1-.89-.33"/><path class="cls-2" d="M30.46,43.19a3.92,3.92,0,0,0-.9-3.38c1.38-.28,1.84,1.13,2.35,2.13s1.86,2,1.6,3.05c-1,.38-1.56.42-2.17,1.39s-.65,1.68-1.7.59A2.61,2.61,0,0,1,29,44.7c.29-.66,1.19-1,1.57-1.73"/><path class="cls-2" d="M33.76,48.08c-1.57-.66.64-2,1.36-2.19a3.14,3.14,0,0,1,1.71-.2c.52.21.11.94,1,.82C37.6,48,35.1,47.66,34,48.08"/></g></g></g></svg>