<svg xmlns="http://www.w3.org/2000/svg" viewBox="0 0 146.02 125.3"><defs><style>.cls-1{opacity:0.23;}.cls-2{fill:#fff;}</style></defs><g id="圖層_2" data-name="圖層 2"><g id="圖層_1-2" data-name="圖層 1"><g class="cls-1"><path class="cls-2" d="M43.89,125.14a38.55,38.55,0,0,1-5.13-.34A37.8,37.8,0,0,1,19,115.33,47.55,47.55,0,0,1,6.25,96.94C4.06,91.29,4.11,85.56,4.16,80c0-4.31.08-8.77-1-13.12-.4-1.65-.86-3.19-1.32-4.68-1.83-6.06-3.41-11.3,1.9-18.1a19.87,19.87,0,0,1,17.57-7.37c6.19.7,11.54,4.27,16.71,7.71,1,.69,2.08,1.39,3.12,2.06,8.11,5.19,15,6.73,20.58,4.55S70.57,43.3,72.29,39c1-2.4,1.71-4.94,2.44-7.4a75.07,75.07,0,0,1,2.87-8.45c3.66-8.48,12.48-16.51,22.47-20.45,8.07-3.18,16.08-3.37,22.55-.54l.79.35h0c15.7,7.45,15.47,25.5,15.29,40q0,1.13,0,2.22c-.06,5.76,1.59,11.76,3.18,17.57.78,2.87,1.59,5.83,2.17,8.68,3,15.05,2.28,26.83-2.34,36-2.94,5.86-7.34,10.16-12.4,12.11-7.14,2.77-14.82.84-22.24-1a78.42,78.42,0,0,0-11.51-2.3c-9.32-.89-18.62,1.89-27.61,4.59C60.08,122.72,52,125.14,43.89,125.14ZM19.27,37.23a19.31,19.31,0,0,0-15,7.26C-.86,51,.61,55.9,2.47,62.05c.46,1.5.92,3,1.32,4.71,1.06,4.42,1,8.92,1,13.27,0,5.48-.11,11.15,2,16.69,5.72,14.8,18.3,25.58,32,27.48,9.72,1.34,19.47-1.58,28.89-4.4,9.05-2.71,18.41-5.51,27.84-4.61a80.56,80.56,0,0,1,11.61,2.31c7.67,1.93,14.91,3.75,21.88,1,4.91-1.9,9.2-6.09,12.08-11.82,4.55-9.06,5.3-20.71,2.28-35.62-.58-2.83-1.38-5.79-2.17-8.64-1.6-5.85-3.25-11.89-3.19-17.73,0-.73,0-1.48,0-2.23.18-14.34.41-32.19-14.94-39.46h0l-.77-.35c-6.33-2.77-14.17-2.57-22.09.55C90.45,7.14,81.76,15,78.16,23.38a75.18,75.18,0,0,0-2.85,8.38c-.73,2.47-1.49,5-2.46,7.46C71.08,43.63,67.77,49.37,62,51.63s-12.84.7-21.13-4.6c-1-.67-2.1-1.38-3.13-2.06C32.62,41.56,27.34,38,21.29,37.35A17,17,0,0,0,19.27,37.23Z"/><path class="cls-2" d="M43.89,125.16a38.43,38.43,0,0,1-5.13-.34,37.88,37.88,0,0,1-19.82-9.48A47.58,47.58,0,0,1,6.23,97C4,91.29,4.09,85.56,4.14,80c0-4.31.08-8.77-1-13.11-.39-1.65-.86-3.19-1.31-4.68C0,56.16-1.55,50.91,3.77,44.1a19.89,19.89,0,0,1,17.59-7.37c6.2.7,11.55,4.27,16.72,7.72,1,.68,2.08,1.38,3.12,2,8.11,5.19,15,6.72,20.56,4.55S70.55,43.28,72.27,39c1-2.41,1.71-5,2.44-7.41a75.76,75.76,0,0,1,2.87-8.45c3.67-8.48,12.49-16.52,22.48-20.46,8.07-3.18,16.09-3.38,22.57-.54l.79.35c15.71,7.45,15.48,25.52,15.3,40q0,1.13,0,2.22c-.05,5.76,1.59,11.76,3.18,17.56.78,2.87,1.59,5.83,2.17,8.68,3.05,15.06,2.28,26.84-2.34,36-2.94,5.87-7.35,10.17-12.41,12.13-7.15,2.76-14.83.83-22.25-1a80.15,80.15,0,0,0-11.52-2.3c-9.31-.89-18.6,1.9-27.6,4.59C60.08,122.75,52,125.16,43.89,125.16ZM19.27,37.26a19.3,19.3,0,0,0-15,7.24C-.83,51.05.64,55.9,2.49,62c.46,1.5.93,3.05,1.32,4.72,1.06,4.42,1,8.92,1,13.27,0,5.48-.1,11.15,2,16.69,5.72,14.78,18.29,25.56,32,27.46,9.72,1.34,19.46-1.58,28.89-4.4,9.05-2.71,18.41-5.51,27.85-4.61a79.49,79.49,0,0,1,11.61,2.31c7.66,1.92,14.9,3.74,21.86,1,4.91-1.89,9.19-6.09,12.07-11.81,4.55-9,5.29-20.7,2.27-35.61-.57-2.83-1.38-5.78-2.16-8.63-1.6-5.85-3.25-11.9-3.2-17.74,0-.73,0-1.48,0-2.23.18-14.33.41-32.17-14.93-39.44h0l-.77-.35C116.05,0,108.21.15,100.3,3.27,90.46,7.16,81.78,15.05,78.18,23.39a75.18,75.18,0,0,0-2.85,8.38c-.73,2.47-1.49,5-2.46,7.46C71.1,43.64,67.78,49.38,62,51.65a14.79,14.79,0,0,1-5.46,1c-4.6,0-9.85-1.87-15.69-5.61-1-.67-2.1-1.37-3.13-2.06-5.11-3.4-10.39-6.92-16.43-7.61A17,17,0,0,0,19.27,37.26Z"/><path class="cls-2" d="M43.89,125.18a36.84,36.84,0,0,1-5.13-.34,37.87,37.87,0,0,1-19.83-9.48A47.61,47.61,0,0,1,6.21,97C4,91.3,4.07,85.57,4.12,80c0-4.31.08-8.77-1-13.11-.39-1.64-.86-3.19-1.31-4.68C0,56.16-1.57,50.91,3.75,44.09A19.94,19.94,0,0,1,21.36,36.7c6.21.71,11.56,4.28,16.73,7.73,1,.68,2.08,1.38,3.12,2,8.11,5.19,15,6.72,20.55,4.55S70.53,43.27,72.25,39c1-2.41,1.71-4.95,2.44-7.4a75.07,75.07,0,0,1,2.87-8.45c3.67-8.5,12.5-16.53,22.49-20.48,8.08-3.18,16.1-3.38,22.59-.54l.79.35h0C139.15,9.92,138.92,28,138.74,42.52l0,2.22c-.05,5.75,1.59,11.75,3.18,17.56.78,2.86,1.59,5.83,2.17,8.68,3.05,15.06,2.29,26.85-2.34,36-2.95,5.87-7.36,10.18-12.42,12.14-7.16,2.76-14.84.83-22.27-1a79.75,79.75,0,0,0-11.51-2.3c-9.3-.89-18.6,1.9-27.59,4.59C60.09,122.77,52,125.18,43.89,125.18ZM19.27,37.28a19.25,19.25,0,0,0-15,7.24C-.81,51.05.66,55.9,2.51,62c.46,1.5.93,3.06,1.33,4.72,1,4.42,1,8.93,1,13.28,0,5.48-.1,11.14,2,16.68,5.72,14.78,18.28,25.55,32,27.44,9.72,1.34,19.46-1.57,28.88-4.39,9.06-2.71,18.42-5.52,27.86-4.62a79.26,79.26,0,0,1,11.61,2.32c7.66,1.92,14.9,3.74,21.85,1.05,4.9-1.89,9.18-6.08,12.06-11.8,4.55-9,5.29-20.69,2.27-35.6-.57-2.82-1.38-5.77-2.16-8.63-1.6-5.85-3.25-11.9-3.2-17.74,0-.73,0-1.48,0-2.23.18-14.33.4-32.16-14.92-39.42h0l-.77-.35c-6.31-2.76-14.15-2.56-22,.56C90.47,7.18,81.79,15.07,78.2,23.4a75,75,0,0,0-2.85,8.37c-.73,2.47-1.49,5-2.46,7.47C71.12,43.66,67.8,49.4,62,51.67s-12.87.71-21.17-4.61c-1.05-.67-2.11-1.37-3.13-2.06-5.11-3.4-10.39-6.92-16.43-7.61A16.81,16.81,0,0,0,19.27,37.28Z"/><path class="cls-2" d="M43.89,125.21a37.1,37.1,0,0,1-5.14-.35,38,38,0,0,1-19.84-9.48A47.64,47.64,0,0,1,6.19,97C4,91.3,4.05,85.57,4.1,80c0-4.31.08-8.77-1-13.1-.39-1.65-.86-3.19-1.31-4.68C0,56.16-1.6,50.9,3.74,44.08a19.93,19.93,0,0,1,17.62-7.4c6.21.71,11.57,4.28,16.74,7.73,1,.68,2.09,1.39,3.13,2.05,8.09,5.19,15,6.72,20.52,4.55s8.76-7.75,10.47-12c1-2.41,1.72-4.94,2.45-7.4a75.07,75.07,0,0,1,2.87-8.45C81.21,14.62,90,6.58,100.05,2.63c8.08-3.19,16.11-3.38,22.6-.54l.79.35h0C139.17,9.9,139,28,138.76,42.52c0,.75,0,1.49,0,2.23-.06,5.74,1.58,11.74,3.17,17.54.78,2.87,1.6,5.83,2.17,8.68,3,15.07,2.29,26.86-2.34,36.06-3,5.88-7.36,10.19-12.43,12.15-7.17,2.77-14.85.84-22.28-1a78.39,78.39,0,0,0-11.51-2.29c-9.3-.89-18.6,1.89-27.58,4.58C60.09,122.79,52,125.21,43.89,125.21ZM19.27,37.3A19.24,19.24,0,0,0,4.32,44.53C-.78,51.06.68,55.9,2.54,62c.45,1.5.92,3,1.32,4.72,1.05,4.42,1,8.92,1,13.28,0,5.48-.1,11.14,2,16.67,5.72,14.77,18.27,25.54,32,27.43,9.72,1.34,19.46-1.57,28.88-4.39,9-2.72,18.42-5.52,27.86-4.62a79.39,79.39,0,0,1,11.62,2.32c7.65,1.92,14.89,3.74,21.83,1,4.9-1.89,9.18-6.08,12.05-11.79,4.54-9,5.29-20.68,2.27-35.58-.57-2.83-1.38-5.78-2.16-8.63-1.6-5.85-3.26-11.9-3.2-17.75l0-2.23c.18-14.32.4-32.14-14.91-39.4h0l-.77-.35C116,0,108.22.2,100.32,3.32c-9.83,3.87-18.51,11.76-22.1,20.09a74.34,74.34,0,0,0-2.85,8.37c-.73,2.47-1.49,5-2.46,7.46C71.14,43.67,67.81,49.42,62,51.69s-12.89.71-21.19-4.61c-1-.67-2.11-1.37-3.13-2.06-5.11-3.4-10.39-6.92-16.42-7.61A19.34,19.34,0,0,0,19.27,37.3Z"/><path class="cls-2" d="M43.89,125.23a37.1,37.1,0,0,1-5.14-.35,37.8,37.8,0,0,1-19.85-9.49A47.65,47.65,0,0,1,6.16,97C4,91.31,4,85.57,4.07,80c0-4.31.08-8.76-1-13.1-.39-1.64-.86-3.18-1.31-4.67C0,56.16-1.62,50.9,3.72,44.06a20,20,0,0,1,17.65-7.4c6.21.71,11.57,4.28,16.75,7.73,1,.68,2.08,1.39,3.12,2,8.09,5.18,15,6.71,20.5,4.55s8.75-7.74,10.46-12c1-2.4,1.72-4.94,2.44-7.4a77.93,77.93,0,0,1,2.88-8.45C81.19,14.6,90,6.56,100,2.61c8.09-3.19,16.12-3.38,22.62-.55l.79.36h0C139.2,9.89,139,28,138.78,42.52c0,.75,0,1.49,0,2.23-.06,5.74,1.58,11.74,3.17,17.54.79,2.86,1.6,5.83,2.17,8.68,3.06,15.07,2.29,26.87-2.34,36.07-2.95,5.88-7.37,10.2-12.44,12.16-7.18,2.77-14.86.84-22.3-1a78.52,78.52,0,0,0-11.5-2.29c-9.3-.89-18.59,1.89-27.58,4.58C60.1,122.81,52,125.23,43.89,125.23ZM19.27,37.32A19.26,19.26,0,0,0,4.33,44.54C-.76,51.06.71,55.9,2.56,62c.45,1.5.92,3,1.32,4.72,1.06,4.43,1,8.93,1,13.29-.05,5.47-.11,11.13,2,16.66,5.72,14.77,18.26,25.53,32,27.42,9.71,1.34,19.44-1.58,28.86-4.4,9.06-2.71,18.42-5.51,27.87-4.61a80.43,80.43,0,0,1,11.62,2.31c7.66,1.93,14.88,3.74,21.83,1.06,4.89-1.89,9.16-6.07,12-11.78,4.54-9,5.28-20.67,2.27-35.57-.57-2.82-1.38-5.77-2.16-8.63-1.6-5.85-3.26-11.9-3.2-17.75,0-.74,0-1.48,0-2.23.18-14.32.41-32.13-14.89-39.38h0l-.76-.35C116,0,108.22.22,100.32,3.34,90.5,7.21,81.83,15.1,78.24,23.42a74.34,74.34,0,0,0-2.85,8.37c-.73,2.47-1.48,5-2.46,7.46C71.16,43.68,67.83,49.44,62,51.72a14.9,14.9,0,0,1-5.48,1c-4.62,0-9.88-1.88-15.72-5.62-1-.67-2.11-1.38-3.14-2.06-5.1-3.4-10.37-6.92-16.4-7.6A16.94,16.94,0,0,0,19.27,37.32Z"/><path class="cls-2" d="M43.89,125.25a38.69,38.69,0,0,1-5.14-.34,38,38,0,0,1-19.87-9.5A47.79,47.79,0,0,1,6.14,97C4,91.31,4,85.57,4.05,80c0-4.31.08-8.76-.95-13.09-.4-1.65-.86-3.19-1.31-4.68C-.06,56.16-1.65,50.9,3.7,44.05a20,20,0,0,1,17.67-7.41c6.22.7,11.58,4.28,16.76,7.73,1,.68,2.08,1.39,3.12,2.05,8.08,5.18,15,6.71,20.48,4.55s8.74-7.74,10.45-12c1-2.4,1.72-4.94,2.44-7.39A77.36,77.36,0,0,1,77.5,23.1C81.17,14.59,90,6.54,100,2.59,108.12-.6,116.16-.8,122.67,2l.79.36C139.22,9.87,139,28,138.81,42.52l0,2.23c-.05,5.73,1.59,11.73,3.17,17.53.79,2.87,1.6,5.83,2.18,8.68,3.05,15.08,2.28,26.88-2.35,36.09-2.95,5.89-7.38,10.21-12.46,12.17-7.17,2.77-14.87.84-22.3-1a79.86,79.86,0,0,0-11.5-2.29c-9.3-.89-18.59,1.89-27.57,4.58C60.1,122.83,52,125.25,43.89,125.25ZM19.27,37.34A19.21,19.21,0,0,0,4.35,44.56C-.73,51.07.73,55.9,2.58,62c.45,1.51.92,3.06,1.32,4.73,1.06,4.43,1,8.93,1,13.29,0,5.47-.1,11.13,2,16.65,5.71,14.76,18.25,25.52,32,27.41,9.7,1.34,19.44-1.58,28.85-4.4,9.06-2.71,18.43-5.52,27.88-4.61a80.56,80.56,0,0,1,11.63,2.31c7.65,1.92,14.87,3.74,21.81,1.06,4.88-1.89,9.15-6.07,12-11.77,4.54-9,5.28-20.66,2.27-35.55-.58-2.83-1.38-5.78-2.16-8.63-1.61-5.86-3.26-11.91-3.21-17.76l0-2.23c.18-14.31.41-32.12-14.88-39.36h0l-.76-.35c-6.31-2.75-14.12-2.55-22,.56C90.51,7.23,81.85,15.11,78.26,23.43a74.81,74.81,0,0,0-2.84,8.36c-.74,2.47-1.49,5-2.47,7.47C71.18,43.69,67.85,49.45,62,51.74s-12.91.71-21.23-4.62c-1-.67-2.1-1.38-3.13-2.06-5.1-3.4-10.37-6.92-16.39-7.6A16.94,16.94,0,0,0,19.27,37.34Z"/><path class="cls-2" d="M43.89,125.27a37.22,37.22,0,0,1-5.15-.34,38,38,0,0,1-19.87-9.5A47.74,47.74,0,0,1,6.12,97C3.93,91.31,4,85.57,4,80c0-4.3.08-8.76-1-13.09-.4-1.64-.86-3.18-1.31-4.67C-.08,56.16-1.67,50.89,3.68,44a20,20,0,0,1,17.69-7.43c6.23.71,11.59,4.29,16.77,7.74,1,.68,2.08,1.39,3.12,2,8.08,5.18,15,6.7,20.46,4.55s8.73-7.73,10.44-12c1-2.4,1.71-4.94,2.44-7.39a76,76,0,0,1,2.88-8.46C81.15,14.58,90,6.52,100,2.57c8.1-3.2,16.15-3.39,22.66-.55l.79.36C139.24,9.86,139,28,138.83,42.52l0,2.23c-.05,5.73,1.59,11.73,3.17,17.52.79,2.87,1.6,5.84,2.18,8.69A80.08,80.08,0,0,1,146,89.37a42.21,42.21,0,0,1-4.17,17.69c-3,5.89-7.38,10.22-12.47,12.18-7.18,2.78-14.88.85-22.32-1a79.89,79.89,0,0,0-11.5-2.3c-9.28-.88-18.57,1.9-27.55,4.59C60.11,122.86,52,125.27,43.89,125.27ZM19.27,37.37a19.19,19.19,0,0,0-14.9,7.2C-.71,51.07.75,55.9,2.6,62c.45,1.5.92,3.05,1.32,4.72,1.06,4.43,1,8.94,1,13.3-.05,5.47-.1,11.13,2,16.65,5.7,14.75,18.24,25.5,31.92,27.39,9.7,1.33,19.43-1.58,28.85-4.4,9.06-2.71,18.43-5.52,27.89-4.62a79.39,79.39,0,0,1,11.62,2.32c7.65,1.92,14.87,3.74,21.8,1.06,4.88-1.89,9.14-6.06,12-11.76,4.54-9,5.28-20.65,2.26-35.54-.57-2.82-1.38-5.77-2.16-8.63-1.6-5.85-3.25-11.91-3.2-17.76l0-2.23c.18-14.3.4-32.1-14.87-39.34h0l-.76-.35c-6.3-2.75-14.11-2.55-22,.56C90.53,7.25,81.87,15.12,78.28,23.44a73.45,73.45,0,0,0-2.84,8.36c-.73,2.47-1.49,5-2.47,7.47C71.2,43.7,67.86,49.47,62,51.76a15,15,0,0,1-5.5,1c-4.63,0-9.9-1.88-15.75-5.63-1-.67-2.11-1.38-3.13-2.06-5.1-3.4-10.37-6.92-16.39-7.6A16.64,16.64,0,0,0,19.27,37.37Z"/><path class="cls-2" d="M43.89,125.3a37.24,37.24,0,0,1-5.15-.35,38,38,0,0,1-19.89-9.51A47.67,47.67,0,0,1,6.1,97C3.9,91.32,4,85.58,4,80c0-4.3.08-8.76-1-13.08-.39-1.64-.86-3.18-1.31-4.67C-.1,56.16-1.7,50.89,3.66,44a20.07,20.07,0,0,1,17.72-7.43c6.23.71,11.59,4.29,16.77,7.74,1,.69,2.08,1.39,3.12,2.06,8.07,5.16,14.95,6.69,20.44,4.54s8.72-7.72,10.43-12c1-2.41,1.71-4.94,2.44-7.39a73.49,73.49,0,0,1,2.88-8.47C81.14,14.56,90,6.5,100,2.55c8.11-3.2,16.16-3.39,22.68-.55l.79.36h0C139.26,9.85,139,28,138.85,42.52c0,.75,0,1.49,0,2.23-.06,5.73,1.58,11.72,3.17,17.52.78,2.87,1.59,5.83,2.17,8.68A80.21,80.21,0,0,1,146,89.37a42.26,42.26,0,0,1-4.17,17.7c-3,5.9-7.39,10.22-12.48,12.19a21.85,21.85,0,0,1-8,1.39c-4.77,0-9.63-1.22-14.39-2.41a79.49,79.49,0,0,0-11.49-2.3c-9.28-.88-18.57,1.9-27.55,4.59C60.11,122.88,52,125.3,43.89,125.3ZM19.27,37.39a19.15,19.15,0,0,0-14.88,7.2C-.68,51.08.78,55.9,2.62,62c.46,1.5.93,3.06,1.32,4.73C5,71.16,5,75.67,4.92,80c0,5.47-.1,11.12,2,16.64,5.7,14.74,18.23,25.49,31.91,27.37,9.69,1.34,19.42-1.57,28.83-4.39,9.06-2.71,18.44-5.52,27.9-4.62a79.26,79.26,0,0,1,11.63,2.32c7.64,1.92,14.86,3.73,21.78,1.06,4.88-1.89,9.14-6.06,12-11.75,4.53-9,5.27-20.65,2.26-35.52-.57-2.83-1.38-5.78-2.16-8.63-1.6-5.86-3.26-11.91-3.2-17.77l0-2.23c.18-14.3.4-32.09-14.86-39.32h0l-.76-.35C116,.09,108.23.29,100.35,3.4c-9.81,3.87-18.46,11.74-22,20a74.28,74.28,0,0,0-2.84,8.37c-.73,2.47-1.49,5-2.47,7.47-1.77,4.44-5.11,10.21-10.94,12.5s-12.94.71-21.27-4.62c-1.05-.67-2.11-1.38-3.13-2.06-5.1-3.4-10.37-6.91-16.38-7.6A19,19,0,0,0,19.27,37.39Z"/><path class="cls-2" d="M45.12,123.05a35.5,35.5,0,0,1-4.93-.33c-13.34-1.84-25.55-12.28-31.12-26.59C7,90.72,7,85.24,7,80A51.89,51.89,0,0,0,6,67.5c-.37-1.56-.82-3-1.25-4.43-1.67-5.45-3.11-10.16.73-16,.32-.48.67-1,1-1.46A19.18,19.18,0,0,1,23.49,38.4h0c5.94.66,11.06,4.05,16,7.32,1,.65,2,1.32,3,2C50.21,52.57,56.78,54,62,52s8.33-7.33,10-11.39c.93-2.28,1.65-4.69,2.36-7a70.82,70.82,0,0,1,2.78-8C80.24,18.43,87,11.73,95.2,7.59a36.63,36.63,0,0,1,12.64-3.83,24.55,24.55,0,0,1,12.53,1.79l.76.34C136.22,13.08,136,30.4,135.79,44.32c0,.69,0,1.36,0,2-.06,5.46,1.48,11.16,3,16.68.74,2.74,1.51,5.58,2.05,8.31,2.86,14.37,2.08,25.63-2.36,34.4-2.84,5.61-7.08,9.73-11.94,11.6-6.85,2.64-14.19.81-21.28-1a76.44,76.44,0,0,0-10.94-2.18c-8.84-.84-17.68,1.79-26.22,4.34C60.55,120.76,52.87,123.05,45.12,123.05ZM21.54,39.19A18.3,18.3,0,0,0,7.27,46.12c-.37.47-.7.94-1,1.4C2.66,53.05,4,57.36,5.64,62.81c.43,1.42.88,2.9,1.27,4.48A52.86,52.86,0,0,1,7.9,80c0,5.2-.05,10.59,2,15.84,5.45,14,17.38,24.23,30.4,26,9.23,1.28,18.5-1.49,27.46-4.16,8.63-2.57,17.56-5.23,26.56-4.37a75.67,75.67,0,0,1,11.08,2.2c7.27,1.82,14.15,3.54,20.74,1,4.65-1.79,8.72-5.75,11.46-11.17,4.35-8.58,5.09-19.65,2.28-33.81-.53-2.71-1.3-5.53-2-8.26-1.51-5.57-3.06-11.34-3-16.92l0-2c.19-13.66.43-30.67-14.15-37.61L120,6.37c-6.93-3-15.82-2.3-24.4,2C87.58,12.44,81,19,78,25.87a69,69,0,0,0-2.74,7.94c-.71,2.35-1.45,4.78-2.39,7.1-1.71,4.22-4.92,9.71-10.48,11.89S50,53.49,42,48.43c-1-.64-2-1.31-3-2-4.86-3.21-9.9-6.54-15.62-7.18C22.78,39.23,22.16,39.19,21.54,39.19Z"/><path class="cls-2" d="M46.35,120.81a34.13,34.13,0,0,1-4.72-.32C29,118.74,17.39,108.83,12,95.26c-2-5.15-2-10.34-2-15.37A49.39,49.39,0,0,0,9,68.06c-.37-1.47-.8-2.85-1.21-4.19-1.61-5.22-3-9.72.65-15.36.3-.46.63-.93,1-1.4a18.39,18.39,0,0,1,16.15-6.9h0c5.65.62,10.54,3.81,15.26,6.9.94.61,1.92,1.25,2.87,1.85,7.35,4.62,13.6,6,18.59,4s8-7,9.54-10.8c.89-2.16,1.59-4.44,2.27-6.65a69.69,69.69,0,0,1,2.68-7.62c3-6.71,9.46-13,17.28-17a35.25,35.25,0,0,1,12-3.61,23.57,23.57,0,0,1,11.93,1.73l.72.33c14.4,6.89,14.15,23.42,13.94,36.7,0,.62,0,1.24,0,1.84-.06,5.18,1.37,10.59,2.76,15.82.7,2.63,1.42,5.34,1.92,8,2.66,13.66,1.88,24.35-2.37,32.68-2.73,5.32-6.77,9.24-11.4,11-6.52,2.51-13.49.76-20.23-.92A72.49,72.49,0,0,0,93,112.43c-8.39-.8-16.78,1.7-24.9,4.11C61,118.64,53.7,120.81,46.35,120.81ZM23.81,41a17.51,17.51,0,0,0-13.66,6.65A15.75,15.75,0,0,0,9.2,49C5.77,54.28,7,58.4,8.65,63.61c.42,1.35.85,2.75,1.22,4.24a49.83,49.83,0,0,1,1,12c0,4.94,0,10.06,2,15,5.23,13.29,16.57,23,28.89,24.69,8.77,1.22,17.57-1.4,26.09-3.93,8.2-2.43,16.67-5,25.23-4.13a70.55,70.55,0,0,1,10.51,2.09c6.92,1.72,13.45,3.36,19.71.95,4.42-1.7,8.3-5.46,10.92-10.59,4.16-8.15,4.91-18.66,2.3-32.12-.5-2.58-1.22-5.27-1.91-7.88-1.4-5.29-2.85-10.76-2.78-16.06,0-.61,0-1.22,0-1.84.2-13,.46-29.25-13.44-35.89l-.7-.32c-6.58-2.9-15-2.22-23.22,1.86-7.64,3.82-13.94,10-16.86,16.53A66.5,66.5,0,0,0,75,35.81c-.68,2.23-1.39,4.53-2.3,6.73-1.65,4-4.72,9.21-10,11.28s-11.78.67-19.38-4.12c-1-.6-1.93-1.24-2.88-1.85-4.64-3-9.43-6.17-14.87-6.76A16.13,16.13,0,0,0,23.81,41Z"/><path class="cls-2" d="M47.57,118.56a32.36,32.36,0,0,1-4.49-.3c-11.94-1.66-23-11-28.07-23.88-1.94-4.87-2-9.79-2-14.55a47.35,47.35,0,0,0-1-11.21c-.35-1.38-.76-2.68-1.15-3.94-1.57-5-2.91-9.3.56-14.69.28-.44.6-.89.94-1.34A17.46,17.46,0,0,1,27.71,42c5.36.55,10,3.56,14.48,6.46.91.58,1.85,1.19,2.77,1.76,7,4.36,12.93,5.64,17.67,3.8s7.57-6.57,9.09-10.2c.85-2,1.52-4.18,2.17-6.25a65.24,65.24,0,0,1,2.6-7.24C79.37,24,85.53,18,93,14.35A33.6,33.6,0,0,1,104.42,11a22.49,22.49,0,0,1,11.33,1.68l.68.32c13.71,6.59,13.44,22.32,13.23,35l0,1.64c-.07,4.9,1.26,10,2.55,15,.65,2.5,1.33,5.09,1.79,7.57,2.46,13,1.68,23.08-2.39,31-2.6,5.05-6.46,8.75-10.85,10.43-6.18,2.37-12.79.72-19.18-.87a67.68,67.68,0,0,0-9.82-1.95c-8-.76-15.89,1.59-23.58,3.86C61.44,116.52,54.54,118.56,47.57,118.56ZM26.05,42.8a16.66,16.66,0,0,0-13,6.38c-.33.42-.63.86-.9,1.28-3.25,5-2,9-.46,14,.4,1.27.81,2.58,1.16,4a47.76,47.76,0,0,1,1,11.41c0,4.68.08,9.52,2,14.25,5,12.56,15.75,21.72,27.39,23.34,8.3,1.15,16.64-1.31,24.71-3.7,7.76-2.29,15.79-4.66,23.9-3.89a69.75,69.75,0,0,1,10,2c6.55,1.64,12.74,3.18,18.66.9,4.2-1.6,7.89-5.15,10.4-10,4-7.71,4.72-17.66,2.31-30.41-.46-2.45-1.13-5-1.78-7.51-1.31-5-2.66-10.19-2.58-15.21l0-1.64c.21-12.4.47-27.83-12.75-34.18l-.65-.3c-6.25-2.77-14.28-2.15-22.05,1.69-7.27,3.59-13.28,9.42-16.07,15.59a60.71,60.71,0,0,0-2.56,7.13c-.66,2.1-1.34,4.26-2.21,6.33C70.93,48,68,52.89,62.94,54.84S51.73,55.48,44.5,51L41.72,49.2c-4.4-2.85-8.95-5.79-14.09-6.32A13.93,13.93,0,0,0,26.05,42.8Z"/><path class="cls-2" d="M48.8,116.32a30.78,30.78,0,0,1-4.28-.29C33.27,114.46,22.85,105.62,18,93.51c-1.86-4.6-1.93-9.25-2-13.75a45.32,45.32,0,0,0-1-10.58c-.34-1.29-.72-2.52-1.1-3.7-1.51-4.76-2.81-8.87.47-14,.27-.42.57-.85.89-1.27a16.62,16.62,0,0,1,14.59-6.37c5.06.5,9.45,3.31,13.71,6,.87.55,1.76,1.13,2.65,1.67,6.62,4.09,12.25,5.28,16.74,3.55s7.19-6.19,8.65-9.61c.81-1.91,1.46-3.92,2.08-5.87a60.16,60.16,0,0,1,2.51-6.82c2.77-6,8.63-11.61,15.68-15,7.59-3.71,15.46-4.27,21.58-1.54.22.09.44.19.65.3,13,6.29,12.74,21.23,12.51,33.24l0,1.44c-.08,4.63,1.16,9.46,2.35,14.13.61,2.37,1.23,4.83,1.67,7.2,2.25,12.23,1.46,21.8-2.41,29.24-2.49,4.76-6.15,8.26-10.31,9.84-5.84,2.23-12.08.68-18.12-.82a65.36,65.36,0,0,0-9.28-1.84c-7.49-.71-15,1.49-22.24,3.62C61.88,114.41,55.37,116.32,48.8,116.32ZM28.31,44.6a15.82,15.82,0,0,0-12.4,6.11c-.31.4-.59.81-.85,1.22-3.07,4.8-1.88,8.55-.38,13.29.38,1.2.77,2.43,1.11,3.75a45.69,45.69,0,0,1,1,10.78c.07,4.42.14,9,1.94,13.45,4.76,11.83,14.92,20.47,25.88,22,7.84,1.1,15.72-1.22,23.34-3.45,7.33-2.16,14.91-4.38,22.56-3.65a64.8,64.8,0,0,1,9.4,1.85c6.18,1.54,12,3,17.62.85,4-1.51,7.47-4.86,9.86-9.44,3.78-7.27,4.54-16.66,2.33-28.7-.43-2.34-1.05-4.78-1.66-7.15-1.2-4.72-2.45-9.6-2.37-14.34l0-1.45c.22-11.76.5-26.41-12-32.46l-.62-.29c-5.9-2.63-13.51-2.07-20.87,1.52-6.88,3.36-12.6,8.84-15.29,14.65a58.29,58.29,0,0,0-2.46,6.73c-.63,2-1.29,4-2.12,5.94C70.83,49.37,68,54,63.24,55.86s-10.64.62-17.49-3.61c-.89-.55-1.8-1.12-2.67-1.68-4.17-2.66-8.48-5.42-13.34-5.9A13.56,13.56,0,0,0,28.31,44.6Z"/><path class="cls-2" d="M50,114.07A29,29,0,0,1,46,113.8a29.29,29.29,0,0,1-15.17-7.23A37.21,37.21,0,0,1,21,92.64c-1.77-4.32-1.87-8.69-2-12.92a42.51,42.51,0,0,0-1-10c-.32-1.22-.69-2.37-1.05-3.49-1.45-4.51-2.7-8.41.39-13.3.26-.4.54-.81.84-1.21a15.75,15.75,0,0,1,13.8-6.1c4.8.45,9,3.1,13,5.65.8.51,1.63,1,2.45,1.53,6.37,3.86,11.54,4.93,15.82,3.29s6.8-5.8,8.2-9c.77-1.79,1.4-3.68,2-5.5a54.13,54.13,0,0,1,2.41-6.41c5.49-11.61,22.84-21,35.27-15.47l.61.29c12.34,6,12,20.15,11.79,31.52,0,.42,0,.83,0,1.24-.09,4.35,1,8.88,2.14,13.27.56,2.26,1.14,4.59,1.54,6.84,2,11.51,1.26,20.52-2.43,27.52a19.11,19.11,0,0,1-9.76,9.25c-5.5,2.1-11.38.64-17.07-.77a60.54,60.54,0,0,0-8.72-1.72c-7-.67-14.1,1.39-20.92,3.38C62.32,112.29,56.2,114.07,50,114.07ZM30.57,46.4A15,15,0,0,0,18.8,52.24a14,14,0,0,0-.8,1.15C15.12,58,16.26,61.51,17.7,66c.36,1.13.73,2.29,1.06,3.53a43.92,43.92,0,0,1,1,10.18c.09,4.14.19,8.44,1.9,12.62C26.24,103.44,35.8,111.54,46.08,113c7.38,1,14.8-1.13,22-3.22,6.89-2,14-4.1,21.23-3.41a61.39,61.39,0,0,1,8.84,1.74c5.82,1.44,11.32,2.81,16.58.8A18.29,18.29,0,0,0,124,100c3.6-6.83,4.36-15.66,2.35-27-.39-2.22-1-4.54-1.53-6.78-1.11-4.44-2.25-9-2.17-13.49l0-1.24c.24-11.14.53-25-11.33-30.76l-.59-.28c-5.55-2.48-12.73-2-19.69,1.37-6.5,3.13-11.92,8.25-14.5,13.7a54.12,54.12,0,0,0-2.37,6.32c-.61,1.84-1.23,3.74-2,5.56-1.45,3.36-4.14,7.72-8.66,9.45s-9.94.64-16.54-3.36L44.53,52c-4-2.5-8.06-5.09-12.67-5.53h0Q31.22,46.4,30.57,46.4Z"/><path class="cls-2" d="M51.25,111.83a26.37,26.37,0,0,1-18.07-7,35.35,35.35,0,0,1-9.26-13c-1.68-4-1.81-8.15-1.94-12.11a40.57,40.57,0,0,0-1-9.36c-.3-1.13-.65-2.21-1-3.25-1.4-4.28-2.6-8,.29-12.61.25-.39.51-.78.79-1.15a14.93,14.93,0,0,1,13-5.84c4.52.4,8.47,2.86,12.28,5.23.76.47,1.54,1,2.32,1.42,6,3.59,10.87,4.58,14.89,3S70,51.73,71.3,48.74c.74-1.66,1.33-3.42,1.91-5.12a51.09,51.09,0,0,1,2.31-6c2.55-5.25,7.82-10.16,14.09-13.14,6.88-3.26,13.69-3.68,19.2-1.2l.57.27c11.65,5.7,11.33,19.06,11.08,29.79l0,1c-.09,4.07.94,8.31,1.94,12.42.52,2.13,1,4.34,1.41,6.46,1.85,10.81,1,19.25-2.44,25.81a18.11,18.11,0,0,1-9.22,8.66c-5.16,2-10.68.6-16-.72a58.26,58.26,0,0,0-8.16-1.61c-6.6-.62-13.21,1.29-19.6,3.14C62.77,110.17,57,111.83,51.25,111.83ZM32.83,48.2a14.14,14.14,0,0,0-11.15,5.57,13.18,13.18,0,0,0-.75,1.09c-2.7,4.32-1.6,7.68-.22,11.94.35,1,.7,2.14,1,3.29a41.36,41.36,0,0,1,1.06,9.55c.13,3.88.26,7.9,1.88,11.82,4.29,10.38,13.27,18,22.87,19.31,6.91,1,13.86-1,20.59-3,6.46-1.87,13.15-3.81,19.9-3.17a59.39,59.39,0,0,1,8.28,1.63c5.45,1.35,10.6,2.62,15.54.74a17.25,17.25,0,0,0,8.78-8.28C124,92.3,124.81,84,123,73.41c-.35-2.1-.88-4.29-1.4-6.41-1-4.16-2-8.46-2-12.63l0-1c.25-10.5.56-23.57-10.62-29l-.55-.26c-11.26-5.07-27.13,3.44-32.23,14A51.8,51.8,0,0,0,74,43.88c-.58,1.72-1.18,3.49-1.94,5.19-1.39,3.13-4,7.21-8.2,8.83s-9.37.61-15.6-3.11c-.77-.46-1.56-.95-2.32-1.42C42.17,51,38.3,48.64,34,48.25,33.6,48.22,33.21,48.2,32.83,48.2Z"/><path class="cls-2" d="M52.48,109.59A24.77,24.77,0,0,1,35.57,103,33.32,33.32,0,0,1,26.88,90.9c-1.59-3.78-1.75-7.6-1.91-11.3a38.72,38.72,0,0,0-1-8.74c-.29-1-.62-2-.94-3-1.34-4-2.5-7.54.21-11.93.23-.37.48-.74.74-1.09a14.05,14.05,0,0,1,12.23-5.57c4.23.35,8,2.62,11.54,4.82l2.17,1.31c5.65,3.31,10.22,4.22,14,2.8s6-5,7.31-7.82c.7-1.54,1.27-3.16,1.82-4.74A48.84,48.84,0,0,1,75.2,40c2.44-4.88,7.41-9.43,13.3-12.18,6.45-3,12.84-3.37,18-1l.54.26c11,5.41,10.63,18,10.36,28.07l0,.85c-.1,3.79.83,7.74,1.73,11.56.47,2,1,4.1,1.28,6.1,1.65,10.09.85,18-2.46,24.09a17.12,17.12,0,0,1-8.66,8.07c-4.84,1.81-10,.55-15-.67a53.54,53.54,0,0,0-7.61-1.49c-6.15-.59-12.32,1.19-18.27,2.9C63.21,108.05,57.87,109.59,52.48,109.59ZM35.09,50a13.29,13.29,0,0,0-10.53,5.3c-.25.33-.48.68-.7,1-2.51,4.08-1.46,7.25-.13,11.28.32,1,.66,2,.95,3a38.9,38.9,0,0,1,1.08,8.92c.16,3.62.31,7.37,1.85,11,4.06,9.65,12.44,16.7,21.36,18,6.45.91,12.94-1,19.22-2.76,6-1.73,12.26-3.53,18.56-2.93a55.41,55.41,0,0,1,7.72,1.51c5.09,1.25,9.9,2.43,14.51.7a16.32,16.32,0,0,0,8.25-7.71c3.22-6,4-13.67,2.37-23.58-.31-2-.8-4.05-1.27-6.05-.91-3.87-1.85-7.87-1.75-11.76l0-.85c.26-9.87.59-22.16-9.92-27.34l-.51-.25c-10.48-4.75-25.4,3.09-30.26,12.86a46.84,46.84,0,0,0-2.19,5.49c-.55,1.59-1.13,3.24-1.85,4.81-1.33,2.92-3.75,6.71-7.74,8.22s-8.79.58-14.66-2.85c-.73-.43-1.47-.88-2.18-1.32C43.77,52.6,40.14,50.38,36.1,50h0C35.76,50,35.42,50,35.09,50Z"/><path class="cls-2" d="M53.71,107.34a24.42,24.42,0,0,1-3.41-.23A24.08,24.08,0,0,1,38,101.25,31.2,31.2,0,0,1,29.85,90C28.35,86.51,28.16,83,28,79.54a36.71,36.71,0,0,0-1.07-8.11c-.27-1-.58-1.89-.88-2.77-1.29-3.82-2.41-7.12.12-11.26.21-.35.44-.7.68-1a13.2,13.2,0,0,1,11.46-5.3h0c3.94.3,7.42,2.39,10.78,4.4l2,1.2c5.28,3,9.55,3.87,13.05,2.56S69.81,54.57,71,52c.66-1.41,1.2-2.91,1.73-4.35a42.76,42.76,0,0,1,2.13-5.18c2.33-4.52,7-8.72,12.5-11.23,6-2.76,12-3.07,16.8-.87l.5.24C115,35.72,114.6,47.5,114.32,57l0,.63a44.24,44.24,0,0,0,1.53,10.72c.43,1.89.87,3.85,1.15,5.73,1.45,9.37.64,16.69-2.47,22.36a16,16,0,0,1-8.12,7.48c-4.51,1.68-9.29.52-13.92-.61a51.32,51.32,0,0,0-7-1.38c-5.71-.54-11.42,1.09-17,2.66C63.65,105.93,58.7,107.34,53.71,107.34ZM37.35,51.8a12.46,12.46,0,0,0-9.91,5c-.22.31-.44.64-.65,1-2.33,3.84-1.27,7,0,10.61.3.9.61,1.83.89,2.81a36.8,36.8,0,0,1,1.1,8.28c.18,3.36.37,6.84,1.82,10.23,3.82,8.92,11.61,15.45,19.85,16.62,6,.85,12-.87,17.85-2.53,5.59-1.59,11.38-3.24,17.23-2.68a52,52,0,0,1,7.16,1.39c4.73,1.15,9.19,2.24,13.47.64A15.23,15.23,0,0,0,113.83,96c3-5.52,3.82-12.67,2.39-21.88-.28-1.85-.72-3.79-1.14-5.68a44.81,44.81,0,0,1-1.55-10.9l0-.64c.28-9.24.62-20.75-9.21-25.64l-.48-.23c-9.7-4.44-23.66,2.75-28.3,11.75a45.74,45.74,0,0,0-2.09,5.09c-.53,1.46-1.08,3-1.76,4.42C70.45,55,68.15,58.54,64.43,60s-8.22.54-13.71-2.61c-.69-.39-1.38-.81-2-1.21-3.29-2-6.69-4-10.45-4.29A8.44,8.44,0,0,0,37.35,51.8Z"/><path class="cls-2" d="M54.93,105.1a22.66,22.66,0,0,1-3.18-.22,22.37,22.37,0,0,1-11.4-5.41,29.16,29.16,0,0,1-7.53-10.31c-1.42-3.25-1.64-6.52-1.86-9.68A34.87,34.87,0,0,0,29.89,72c-.26-.88-.55-1.72-.83-2.53-1.24-3.59-2.31-6.68,0-10.58.2-.34.41-.65.63-1a12.36,12.36,0,0,1,10.68-5c3.66.25,6.9,2.15,10,4,.62.37,1.26.74,1.9,1.1,4.92,2.76,8.88,3.51,12.13,2.3s5.27-4.27,6.42-6.62c.62-1.3,1.14-2.66,1.64-4a40.46,40.46,0,0,1,2-4.77c2.21-4.15,6.59-8,11.71-10.27,5.62-2.51,11.16-2.76,15.6-.7l.46.22c4.27,2.15,7,5.72,8.18,10.93,1,4.45.89,9.37.74,13.71v.43a41.44,41.44,0,0,0,1.33,9.92c.38,1.75.77,3.56,1,5.3,1.26,8.82.46,15.38-2.49,20.65a15,15,0,0,1-7.57,6.89c-4.17,1.55-8.59.47-12.87-.56a46.29,46.29,0,0,0-6.5-1.26c-5.25-.5-10.52,1-15.62,2.42C64.1,103.82,59.54,105.1,54.93,105.1ZM39.61,53.6a11.67,11.67,0,0,0-9.29,4.76c-.21.29-.4.59-.59.91-2.16,3.59-1.14,6.54,0,9.95.28.82.57,1.66.84,2.56a35.39,35.39,0,0,1,1.1,7.65c.22,3.24.43,6.3,1.8,9.43,3.64,8.33,10.67,14.18,18.34,15.27,5.53.79,11.1-.77,16.48-2.29,5.16-1.45,10.5-3,15.89-2.44a46.74,46.74,0,0,1,6.61,1.28c4.36,1,8.48,2,12.42.59a14.2,14.2,0,0,0,7.19-6.56c2.86-5.12,3.63-11.53,2.4-20.17-.24-1.71-.61-3.43-1-5.26a42.51,42.51,0,0,1-1.35-10.09l0-.44c.29-8.61.65-19.33-8.5-23.94l-.45-.21c-4.23-2-9.56-1.71-15,.7-5,2.22-9.21,5.93-11.35,9.94a39.89,39.89,0,0,0-2,4.68,43.58,43.58,0,0,1-1.67,4c-1.2,2.49-3.36,5.72-6.83,7s-7.64.52-12.76-2.36c-.64-.36-1.29-.73-1.91-1.1-3.06-1.79-6.23-3.64-9.71-3.88Z"/><path class="cls-2" d="M56.16,102.85a21.17,21.17,0,0,1-3-.2c-7.23-1-13.9-6.54-17.4-14.36A26.24,26.24,0,0,1,34,79.41a32.52,32.52,0,0,0-1.09-6.86c-.24-.79-.51-1.55-.77-2.28C31,67.05,29.88,64,32,60.37a8.3,8.3,0,0,1,.58-.91,11.51,11.51,0,0,1,9.89-4.77c3.37.2,6.38,1.91,9.29,3.57l1.77,1c4.55,2.49,8.22,3.16,11.21,2.06s4.89-3.89,6-6c.59-1.17,1.08-2.41,1.55-3.61a35.76,35.76,0,0,1,1.95-4.35A23.16,23.16,0,0,1,85.15,38c5.21-2.25,10.32-2.44,14.41-.53l.43.21c4,2,6.43,5.36,7.56,10.21,1,4.14.78,8.7.63,12.72v.22a39.16,39.16,0,0,0,1.13,9.06c.33,1.64.68,3.32.89,4.94,1,8.09.25,14.11-2.51,18.93a14,14,0,0,1-7,6.3c-3.83,1.41-7.89.43-11.82-.51a43.83,43.83,0,0,0-5.94-1.15c-4.81-.45-9.63.89-14.29,2.18C64.54,101.7,60.37,102.85,56.16,102.85ZM41.87,55.4a10.79,10.79,0,0,0-8.66,4.49c-.19.27-.37.54-.55.85-2,3.35-1,6.1.13,9.28.26.74.53,1.51.78,2.32a33.62,33.62,0,0,1,1.12,7A25.34,25.34,0,0,0,36.46,88c3.4,7.59,9.85,12.93,16.84,13.93,5.06.73,10.17-.69,15.1-2.06C73.13,98.55,78,97.19,83,97.66a46,46,0,0,1,6,1.16c4,1,7.77,1.87,11.39.54a13.21,13.21,0,0,0,6.65-6c2.68-4.68,3.44-10.55,2.42-18.47-.21-1.6-.53-3.2-.88-4.89a39.35,39.35,0,0,1-1.14-9.24v-.22c.3-8,.68-17.93-7.8-22.24l-.41-.2c-3.88-1.82-8.79-1.63-13.8.54a22.39,22.39,0,0,0-10.56,9A36.74,36.74,0,0,0,73,51.93c-.48,1.22-1,2.47-1.58,3.67C69.75,58.84,67.55,61.05,65,62c-3.2,1.17-7.06.49-11.82-2.1l-1.77-1c-2.84-1.61-5.77-3.28-9-3.47Z"/><path class="cls-2" d="M57.39,100.61a19.66,19.66,0,0,1-2.75-.19c-6.54-1-12.62-5.93-15.88-13A24.7,24.7,0,0,1,37,79.35a30.19,30.19,0,0,0-1.1-6.24c-.23-.7-.47-1.38-.71-2-1.09-3-2.13-5.83-.17-9.23.17-.3.35-.58.53-.84a10.66,10.66,0,0,1,9.11-4.51c3.09.15,5.86,1.68,8.55,3.15l1.62.88c4.25,2.24,7.52,2.81,10.29,1.81,2.19-.8,4-2.63,5.53-5.44.55-1,1-2.16,1.46-3.23a33.53,33.53,0,0,1,1.86-3.94C78,42.7,89.34,37.24,97.25,41l.39.19c3.66,1.89,5.93,5,6.94,9.49.87,3.84.69,8,.52,11.73a37.28,37.28,0,0,0,.93,8.22c.29,1.51.59,3.07.76,4.57.84,7.39,0,12.86-2.53,17.21a12.9,12.9,0,0,1-6.48,5.71c-3.49,1.27-7.19.39-10.76-.46a40.92,40.92,0,0,0-5.39-1c-4.36-.41-8.74.78-13,1.94C65,99.58,61.21,100.61,57.39,100.61ZM44.13,57.2a10,10,0,0,0-8,4.22c-.17.24-.34.5-.5.78-1.79,3.12-.86,5.67.22,8.63.24.67.49,1.35.72,2.07a31.16,31.16,0,0,1,1.13,6.37,23.61,23.61,0,0,0,1.75,7.85c3.16,6.85,9,11.68,15.33,12.59,4.6.67,9.24-.6,13.73-1.82,4.3-1.18,8.74-2.39,13.23-2a39.5,39.5,0,0,1,5.48,1c3.63.87,7.06,1.69,10.35.49a12.16,12.16,0,0,0,6.11-5.4c2.49-4.22,3.26-9.54,2.44-16.77-.17-1.47-.45-3-.75-4.52a37.19,37.19,0,0,1-.94-8.38c.32-7.36.73-16.52-7.08-20.55l-.37-.19C89.36,38,78.49,43.32,74.53,50.09A33.81,33.81,0,0,0,72.72,54c-.45,1.08-.92,2.21-1.49,3.28-1.57,3-3.56,4.92-5.91,5.78-3.91,1.42-8.08-.38-10.87-1.85l-1.64-.88c-2.61-1.44-5.31-2.92-8.23-3.07h-.45Z"/><path class="cls-2" d="M58.62,98.37a18.19,18.19,0,0,1-2.54-.18c-5.83-.86-11.33-5.32-14.35-11.64a23.24,23.24,0,0,1-1.79-7.27,28.46,28.46,0,0,0-1.11-5.6c-.2-.62-.43-1.21-.65-1.79-1-2.78-2-5.4-.26-8.56.15-.28.31-.53.47-.78a9.82,9.82,0,0,1,8.33-4.24c2.81.1,5.35,1.44,7.8,2.73l1.49.77c2.44,1.24,6.07,2.74,9.37,1.56a9.89,9.89,0,0,0,5.08-4.84c.51-.93,1-1.9,1.37-2.85a28.39,28.39,0,0,1,1.77-3.53,19.81,19.81,0,0,1,9.33-7.41c4.37-1.75,8.64-1.82,12-.18l.36.18c7.53,3.95,7.08,12.82,6.75,19.29a34.09,34.09,0,0,0,.73,7.36c.24,1.39.49,2.83.62,4.21.64,6.66-.17,11.59-2.55,15.49a11.83,11.83,0,0,1-5.93,5.12c-3.16,1.13-6.49.35-9.71-.41a37,37,0,0,0-4.83-.92c-3.91-.37-7.85.68-11.65,1.7A39.61,39.61,0,0,1,58.62,98.37ZM46.39,59A9.12,9.12,0,0,0,39,63q-.22.33-.45.72c-1.61,2.88-.72,5.24.31,8,.22.58.45,1.18.66,1.81a28.77,28.77,0,0,1,1.14,5.73,22.21,22.21,0,0,0,1.73,7.06c2.92,6.12,8.21,10.43,13.82,11.25,4.15.61,8.32-.51,12.36-1.59,3.86-1,7.86-2.1,11.89-1.72a37.56,37.56,0,0,1,4.93.93c3.27.77,6.35,1.5,9.31.44a11.17,11.17,0,0,0,5.58-4.83c2.29-3.77,3.07-8.56,2.45-15.06-.13-1.36-.37-2.72-.62-4.17a35.14,35.14,0,0,1-.74-7.5c.32-6.29.76-14.9-6.37-18.65l-.34-.17c-6.78-3.29-16.72,1.33-20.44,7.34A27.6,27.6,0,0,0,72.47,56c-.43,1-.87,2-1.4,2.91A10.58,10.58,0,0,1,65.61,64c-3.54,1.27-7.36-.3-9.92-1.59l-1.49-.78C51.81,60.4,49.34,59.1,46.7,59Z"/><path class="cls-2" d="M59.86,96.12A16.59,16.59,0,0,1,57.53,96c-5.22-.78-10-4.62-12.83-10.27a21.74,21.74,0,0,1-1.77-6.48,26.41,26.41,0,0,0-1.12-5c-.18-.52-.38-1-.58-1.53-1-2.56-1.95-5-.37-7.9a7.85,7.85,0,0,1,.43-.71,9,9,0,0,1,7.54-4c2.52.05,4.83,1.21,7.06,2.32l1.34.66c2.22,1.06,5.5,2.34,8.45,1.31a9.08,9.08,0,0,0,4.64-4.25c.48-.81.89-1.65,1.28-2.48a26.09,26.09,0,0,1,1.68-3.11c3.7-5.59,13-9.63,19.34-6.47l.32.17c6.85,3.67,6.36,11.91,6,17.37a31.61,31.61,0,0,0,.54,6.49c.19,1.28.39,2.6.48,3.86.44,5.94-.38,10.32-2.56,13.77A10.87,10.87,0,0,1,92,94.29c-2.82,1-5.79.3-8.66-.36a32,32,0,0,0-4.27-.8c-3.47-.33-7,.58-10.32,1.46A36.33,36.33,0,0,1,59.86,96.12ZM48.65,60.79a8.32,8.32,0,0,0-6.8,3.68c-.13.21-.26.42-.39.67-1.44,2.64-.58,4.81.4,7.33.2.5.4,1,.59,1.54A27.44,27.44,0,0,1,43.6,79.1a20.69,20.69,0,0,0,1.71,6.28c2.67,5.38,7.39,9.17,12.32,9.91,3.68.54,7.39-.42,11-1.36,3.42-.89,7-1.82,10.55-1.48a33.83,33.83,0,0,1,4.36.82c2.91.67,5.65,1.31,8.28.38a10.19,10.19,0,0,0,5-4.25C99,86.07,99.74,81.83,99.31,76c-.09-1.24-.28-2.49-.48-3.81a32.73,32.73,0,0,1-.53-6.63c.33-5.6.79-13.27-5.68-16.73l-.3-.16c-2.84-1.41-6.48-1.39-10.26,0a17.53,17.53,0,0,0-8.22,6.19,25.17,25.17,0,0,0-1.63,3c-.4.83-.81,1.7-1.3,2.52a9.82,9.82,0,0,1-5,4.55c-3.19,1.12-6.65-.23-9-1.34l-1.35-.66c-2.27-1.13-4.41-2.2-6.77-2.26h-.17Z"/><path class="cls-2" d="M61.09,93.88A15.22,15.22,0,0,1,59,93.73c-4.51-.69-8.73-4-11.3-8.91a20.4,20.4,0,0,1-1.75-5.69,25.72,25.72,0,0,0-1.12-4.32c-.17-.43-.34-.86-.51-1.26-1-2.35-1.88-4.57-.48-7.25.12-.24.25-.46.37-.65A7.88,7.88,0,0,1,51,61.93,18.79,18.79,0,0,1,57.62,64c.28.13.55.26.84.38,2.15,1,4.95,2,7.53,1.07a8.47,8.47,0,0,0,4.2-3.66c.43-.69.81-1.41,1.18-2.11A23.13,23.13,0,0,1,73,57a16.6,16.6,0,0,1,7.75-5.5c3.54-1.25,7-1.19,9.6.16l.29.15c6.16,3.38,5.63,10.94,5.31,15.45a29.47,29.47,0,0,0,.34,5.62c.14,1.16.29,2.36.34,3.51C96.82,81.6,96,85.43,94,88.43a9.79,9.79,0,0,1-4.85,3.94c-2.47.86-5.08.26-7.6-.31a30,30,0,0,0-3.72-.69c-3-.28-6,.48-9,1.22A32,32,0,0,1,61.09,93.88ZM50.63,62.58A7.28,7.28,0,0,0,44.74,66c-.12.18-.23.38-.35.6C43.13,69,44,71,44.9,73.29c.17.42.35.84.51,1.28A26.17,26.17,0,0,1,46.57,79a19.14,19.14,0,0,0,1.69,5.51c2.47,4.71,6.51,7.91,10.81,8.56,3.22.49,6.47-.33,9.62-1.12,3-.75,6.09-1.53,9.22-1.23a30.91,30.91,0,0,1,3.8.69c2.54.58,4.94,1.13,7.24.34a9.23,9.23,0,0,0,4.51-3.68c1.91-2.88,2.7-6.59,2.47-11.66-.05-1.12-.19-2.26-.34-3.46a30.58,30.58,0,0,1-.34-5.74c.41-5.9.37-11.9-5-14.83L90,52.24c-5.27-2.68-13.21.56-16.51,5.13A22,22,0,0,0,72,60c-.37.71-.76,1.45-1.21,2.15a9,9,0,0,1-4.54,3.93c-2.79,1-5.75-.08-8-1.09l-.85-.38a18,18,0,0,0-6.42-2Z"/><path class="cls-2" d="M62.33,91.64a12.37,12.37,0,0,1-1.91-.14C56.61,90.91,53,88.09,50.65,84A19,19,0,0,1,48.9,79a24.26,24.26,0,0,0-1.12-3.67l-.42-1c-.94-2.14-1.82-4.16-.61-6.61.11-.22.22-.41.32-.59a7,7,0,0,1,6-3.45,17.47,17.47,0,0,1,6,1.67l.63.25c1.9.78,4.37,1.57,6.62.83a7.75,7.75,0,0,0,3.75-3.08c.4-.56.75-1.15,1.09-1.73a18,18,0,0,1,1.51-2.28c3.28-4.07,10.54-6.73,15.35-4.2l.25.13c5.47,3.1,4.9,9.89,4.59,13.53A28.78,28.78,0,0,0,93,73.59c.1,1.06.2,2.15.2,3.19,0,4.49-.8,7.77-2.6,10.33a8.84,8.84,0,0,1-4.3,3.34c-2.14.72-4.38.22-6.55-.26a26.52,26.52,0,0,0-3.16-.57,23.76,23.76,0,0,0-7.66,1A28.84,28.84,0,0,1,62.33,91.64ZM52.87,64.37a6.43,6.43,0,0,0-5.25,3.16,5.28,5.28,0,0,0-.29.54c-1.09,2.18-.3,4,.62,6.06l.42,1a26.21,26.21,0,0,1,1.16,3.75,17.83,17.83,0,0,0,1.68,4.76c2.21,4,5.69,6.66,9.3,7.22,2.76.43,5.56-.24,8.26-.89a24.32,24.32,0,0,1,7.87-1,27.13,27.13,0,0,1,3.24.58c2.18.49,4.24.94,6.21.28a8.21,8.21,0,0,0,4-3.1c1.72-2.44,2.51-5.61,2.48-10,0-1-.1-2-.19-3.13a27.92,27.92,0,0,1-.16-4.84c.41-4.85.45-10.24-4.27-12.92l-.23-.13c-4.54-2.38-11.43.17-14.55,4A17.6,17.6,0,0,0,71.69,62a20.06,20.06,0,0,1-1.12,1.77,8.36,8.36,0,0,1-4.07,3.31c-2.44.81-5.06,0-7.06-.83L58.8,66A16.91,16.91,0,0,0,53,64.38h-.17Z"/><path class="cls-2" d="M63.59,89.4a11.2,11.2,0,0,1-1.73-.13c-3.15-.5-6.15-2.76-8.24-6.18a18.35,18.35,0,0,1-1.75-4.17,26.73,26.73,0,0,0-1.1-3l-.32-.68c-.92-1.93-1.79-3.76-.76-6a5.24,5.24,0,0,1,.28-.53,6.49,6.49,0,0,1,5.19-3.19A12.44,12.44,0,0,1,60,66.63l.88.32c1.77.62,3.82,1.17,5.71.57A7,7,0,0,0,69.92,65c.36-.44.68-.9,1-1.35a15.46,15.46,0,0,1,1.43-1.87c3-3.25,9.25-5.31,13.35-3.07l.21.13c4.22,2.48,4.32,7.26,3.87,11.6a28.65,28.65,0,0,0,0,3.82,27.94,27.94,0,0,1,0,2.89c-.17,3.76-1,6.49-2.62,8.6a7.85,7.85,0,0,1-3.75,2.75,10.61,10.61,0,0,1-5.5-.21,25.73,25.73,0,0,0-2.6-.46A20.66,20.66,0,0,0,69,88.6,25.16,25.16,0,0,1,63.59,89.4Zm-8.4-23.23h0a5.87,5.87,0,0,0-4.68,2.88,4.3,4.3,0,0,0-.25.48c-.91,2-.14,3.59.75,5.46.11.23.22.46.32.69a25,25,0,0,1,1.13,3,18.17,18.17,0,0,0,1.69,4C56.15,86,59,88.18,62,88.65A18.1,18.1,0,0,0,68.85,88a21.4,21.4,0,0,1,6.53-.75,24.22,24.22,0,0,1,2.68.47c1.81.39,3.53.76,5.17.23a7.26,7.26,0,0,0,3.44-2.54c1.54-2,2.33-4.62,2.5-8.25,0-.92,0-1.85,0-2.84a28.23,28.23,0,0,1,0-3.9c.46-4.36.34-8.71-3.56-11l-.2-.11c-3.84-2.11-9.73-.14-12.6,3A15.38,15.38,0,0,0,71.42,64c-.32.46-.64.94-1,1.4a7.78,7.78,0,0,1-3.62,2.69c-2.07.65-4.24.07-6.1-.58l-.89-.33A12,12,0,0,0,55.19,66.17Z"/><path class="cls-2" d="M64.85,87.16A10.21,10.21,0,0,1,63.3,87c-3.33-.56-5.63-3.25-6.7-4.81a19.79,19.79,0,0,1-1.82-3.49c-.3-.72-.62-1.45-1-2.23l-.17-.33c-.88-1.67-1.79-3.4-.94-5.42a4.12,4.12,0,0,1,.22-.47,5.71,5.71,0,0,1,4.4-2.93h0a11.24,11.24,0,0,1,4.15.67l.7.2a8.78,8.78,0,0,0,4.8.33,6.76,6.76,0,0,0,2.89-1.91c.31-.32.6-.66.88-1A13,13,0,0,1,72,64.22c2.81-2.46,8-3.9,11.35-1.93l.18.11c3.62,2.26,3.58,6.36,3.15,9.69a27,27,0,0,0-.17,2.84,25.83,25.83,0,0,1-.15,2.65,12.44,12.44,0,0,1-2.64,6.88,6.88,6.88,0,0,1-3.2,2.15,9.08,9.08,0,0,1-4.45-.16,18.08,18.08,0,0,0-2-.34,17.64,17.64,0,0,0-5,.5A21.76,21.76,0,0,1,64.85,87.16ZM57.31,68a5.1,5.1,0,0,0-3.92,2.62,4.18,4.18,0,0,0-.2.42c-.74,1.76.07,3.28.92,4.89l.18.34c.41.8.74,1.54,1.05,2.27a18.28,18.28,0,0,0,1.76,3.39c1,1.48,3.19,4,6.3,4.55A15.56,15.56,0,0,0,68.93,86a17.65,17.65,0,0,1,5.18-.51,18.57,18.57,0,0,1,2.11.35,8.53,8.53,0,0,0,4.15.17,6.21,6.21,0,0,0,2.92-2,11.87,11.87,0,0,0,2.5-6.55,23.94,23.94,0,0,0,.15-2.6,26.05,26.05,0,0,1,.17-2.9c.41-3.15.46-7-2.87-9.1l-.16-.09c-3.07-1.79-8-.48-10.65,1.85a13,13,0,0,0-1.29,1.38c-.29.34-.58.69-.91,1a7.41,7.41,0,0,1-3.14,2.07,9.33,9.33,0,0,1-5.15-.33l-.7-.2A10.63,10.63,0,0,0,57.31,68Z"/><path class="cls-2" d="M66.17,84.92a7.56,7.56,0,0,1-1.42-.12,9,9,0,0,1-5.17-3.42,24.9,24.9,0,0,1-2.18-3.21c-.21-.35-.42-.71-.66-1.08-.82-1.32-1.84-3-1.16-4.84a3,3,0,0,1,.17-.4,4.93,4.93,0,0,1,3.61-2.68h0a10.2,10.2,0,0,1,3.49.26l.46.08a8.77,8.77,0,0,0,3.91.08,6.9,6.9,0,0,0,2.46-1.33c.26-.2.51-.41.75-.62a12.33,12.33,0,0,1,1.31-1c2.55-1.63,6.69-2.45,9.34-.78l.14.1c2.26,1.53,3.06,4.07,2.42,7.76-.1.57-.17,1.15-.23,1.72A22.77,22.77,0,0,1,83,78a10.47,10.47,0,0,1-2.67,5.14,6.11,6.11,0,0,1-2.65,1.55,7.47,7.47,0,0,1-3.39-.11c-.49-.09-1-.18-1.48-.23a15,15,0,0,0-3.67.27A19.41,19.41,0,0,1,66.17,84.92ZM59.45,69.75h0a4.31,4.31,0,0,0-3.17,2.35c-.05.1-.1.22-.15.35-.58,1.6.32,3,1.11,4.33.24.38.45.74.66,1.09A25.07,25.07,0,0,0,60,81a8.4,8.4,0,0,0,4.82,3.23A12.91,12.91,0,0,0,69,84a15.57,15.57,0,0,1,3.81-.27c.51,0,1,.14,1.53.24a7.15,7.15,0,0,0,3.14.12,5.56,5.56,0,0,0,2.39-1.41,9.83,9.83,0,0,0,2.51-4.86,19.24,19.24,0,0,0,.4-2.52c.07-.56.14-1.15.24-1.74.6-3.44-.11-5.79-2.17-7.18l-.13-.08c-2.44-1.55-6.31-.75-8.7.78a9.53,9.53,0,0,0-1.25,1c-.24.21-.5.43-.77.64a7.75,7.75,0,0,1-2.66,1.43,9.61,9.61,0,0,1-4.17-.07L62.75,70A10.24,10.24,0,0,0,59.45,69.75Z"/><path class="cls-2" d="M73.92,82.86a9.53,9.53,0,0,1-1.5-.15l-.89-.11a13.34,13.34,0,0,0-2.28,0,11.23,11.23,0,0,1-3.06-.07,8.13,8.13,0,0,1-3.61-2,20.73,20.73,0,0,1-2.84-2.87,4.49,4.49,0,0,1-1.22-3.92,2.23,2.23,0,0,1,.12-.34A4.19,4.19,0,0,1,61.45,71a11.47,11.47,0,0,1,3-.18h.21a11.53,11.53,0,0,0,2.84-.17,10.13,10.13,0,0,0,2-.76l.53-.25a13.53,13.53,0,0,1,1.35-.6c2.12-.73,5.29-1.08,7.31.38l.1.08c1.72,1.32,2.3,3.35,1.69,5.85a15,15,0,0,1-1,3.1,8.78,8.78,0,0,1-2.7,3.4,5.56,5.56,0,0,1-2.08.94A3.68,3.68,0,0,1,73.92,82.86ZM70.76,82l.83,0,.92.12a6.08,6.08,0,0,0,2.16.07,5,5,0,0,0,1.87-.85,8.23,8.23,0,0,0,2.52-3.18,15.75,15.75,0,0,0,1-3c.56-2.3.06-4.07-1.49-5.26l-.09-.07c-1.83-1.33-4.8-1-6.78-.3-.44.16-.86.36-1.3.57l-.53.25a10,10,0,0,1-2.17.8,11.76,11.76,0,0,1-3,.19h-.2a11.61,11.61,0,0,0-2.9.17,3.66,3.66,0,0,0-2.43,2.08l-.09.3a3.91,3.91,0,0,0,1.12,3.41A19.57,19.57,0,0,0,63,80.11,7.75,7.75,0,0,0,66.3,82a10.87,10.87,0,0,0,2.91,0C69.71,82,70.23,82,70.76,82Z"/><path class="cls-2" d="M71.18,80.89a17,17,0,0,1-5.54-1.18,8.66,8.66,0,0,1-2.88-1.44,3.08,3.08,0,0,1,.76-5.46c2.67-1.23,10.36-2.42,13,.22a3.41,3.41,0,0,1,1,3.81c-.8,2.21-3.57,3.86-5.66,4C71.65,80.88,71.41,80.89,71.18,80.89ZM70.9,72a19.21,19.21,0,0,0-7.15,1.31h0a3,3,0,0,0-1.75,2,2.91,2.91,0,0,0,1.11,2.5,8.18,8.18,0,0,0,2.71,1.34,15.15,15.15,0,0,0,6,1.12A6.54,6.54,0,0,0,77,76.65a2.92,2.92,0,0,0-.86-3.23C75.12,72.39,73.08,72,70.9,72Z"/></g></g></g></svg>