<svg xmlns="http://www.w3.org/2000/svg" viewBox="0 0 144.88 134.83"><defs><style>.cls-1{opacity:0.3;}.cls-2{fill:#fff;}</style></defs><g id="圖層_2" data-name="圖層 2"><g id="圖層_1-2" data-name="圖層 1"><g class="cls-1"><path class="cls-2" d="M39.23,134.27A22.71,22.71,0,0,1,25.45,133a31.28,31.28,0,0,1-12.59-9.44c-6.52-8.17-9.3-18.7-11.34-28.87C.48,89.5-.48,84,.26,78.49,1.08,72.38,4,67.35,8.34,64.68c6.18-3.83,13.72-2.41,21-1,1.54.29,3.13.59,4.66.82,25,3.89,51.7-10.55,62.14-33.58,1.11-2.45,2.07-5,3-7.51A85.55,85.55,0,0,1,103.55,13c2.09-3.92,6.71-10.74,14.22-12.55l.09,0a17.74,17.74,0,0,1,13.82,2.9,25.93,25.93,0,0,1,9.39,11.4c1.71,4.11,3.55,12.14,3.79,20.82a47.35,47.35,0,0,1-.93,11.56c-.85,3.79-2.24,6.66-4.15,8.54a42,42,0,0,1-3.36,2.89c-2.38,1.92-4.63,3.72-5.91,6.33-2,4.08-1.22,9.39,2.41,16.21.28.53.57,1.06.86,1.59,2.54,4.68,5.16,9.53,4.69,14.8a14.79,14.79,0,0,1-6,10.31,22.71,22.71,0,0,1-11.64,4.59c-7.12.66-14.16-1.38-21-3.36l-3.23-.93c-7.52-2.11-16.25-3.85-23.91-.76-6.23,2.51-10.84,7.85-15.3,13-4.79,5.54-9.74,11.28-16.71,13.54C40.21,134,39.73,134.15,39.23,134.27ZM13.13,63.45a15.13,15.13,0,0,0-4.42,1.82c-4.13,2.56-7,7.41-7.75,13.31-.72,5.37.22,10.84,1.25,16,2,10.08,4.78,20.52,11.2,28.57,5.75,7.21,16.67,13.43,27.07,10.05,6.78-2.2,11.66-7.86,16.39-13.33,4.51-5.23,9.18-10.64,15.57-13.21,7.86-3.17,16.72-1.4,24.36.74l3.23.93c6.75,2,13.72,4,20.71,3.33,7.7-.72,16.28-6,17-14.26.45-5.07-2.12-9.81-4.61-14.4l-.86-1.6c-3.74-7-4.54-12.55-2.42-16.86,1.35-2.74,3.77-4.68,6.1-6.56a40.91,40.91,0,0,0,3.31-2.84c3.39-3.34,5.12-10.29,4.86-19.58-.23-8.59-2-16.52-3.73-20.57C136.84,6.4,127.49-1.13,118,1.09l-.09,0c-7.24,1.75-11.72,8.39-13.76,12.2a85,85,0,0,0-4.36,10.3c-.93,2.5-1.9,5.08-3,7.56-7.51,16.56-23.34,28.74-40.95,33a56.48,56.48,0,0,1-21.94,1c-1.54-.24-3.13-.54-4.68-.83C23.75,63.3,18.13,62.24,13.13,63.45Z"/><path class="cls-2" d="M39.23,134.27A22.71,22.71,0,0,1,25.45,133a31.28,31.28,0,0,1-12.59-9.44c-6.52-8.17-9.3-18.7-11.34-28.87C.48,89.5-.48,84,.26,78.49,1.08,72.38,4,67.35,8.34,64.68c6.18-3.83,13.72-2.41,21-1,1.54.29,3.13.59,4.66.82,25,3.89,51.7-10.55,62.14-33.58,1.11-2.45,2.07-5,3-7.51A85.55,85.55,0,0,1,103.55,13c2.09-3.92,6.71-10.74,14.22-12.55l.09,0a17.74,17.74,0,0,1,13.82,2.9,25.93,25.93,0,0,1,9.39,11.4c1.71,4.11,3.55,12.14,3.79,20.82a47.35,47.35,0,0,1-.93,11.56c-.85,3.79-2.24,6.66-4.15,8.54a42,42,0,0,1-3.36,2.89c-2.38,1.92-4.63,3.72-5.91,6.33-2,4.08-1.22,9.39,2.41,16.21.28.53.57,1.06.86,1.59,2.54,4.68,5.16,9.53,4.69,14.8a14.79,14.79,0,0,1-6,10.31,22.71,22.71,0,0,1-11.64,4.59c-7.12.66-14.16-1.38-21-3.36l-3.23-.93c-7.52-2.11-16.25-3.85-23.91-.76-6.23,2.51-10.84,7.85-15.3,13-4.79,5.54-9.74,11.28-16.71,13.54C40.21,134,39.73,134.15,39.23,134.27ZM13.13,63.45a15.13,15.13,0,0,0-4.42,1.82c-4.13,2.56-7,7.41-7.75,13.31-.72,5.37.22,10.84,1.25,16,2,10.08,4.78,20.52,11.2,28.57,5.75,7.21,16.67,13.43,27.07,10.05,6.78-2.2,11.66-7.86,16.39-13.33,4.51-5.23,9.18-10.64,15.57-13.21,7.86-3.17,16.72-1.4,24.36.74l3.23.93c6.75,2,13.72,4,20.71,3.33,7.7-.72,16.28-6,17-14.26.45-5.07-2.12-9.81-4.61-14.4l-.86-1.6c-3.74-7-4.54-12.55-2.42-16.86,1.35-2.74,3.77-4.68,6.1-6.56a40.91,40.91,0,0,0,3.31-2.84c3.39-3.34,5.12-10.29,4.86-19.58-.23-8.59-2-16.52-3.73-20.57C136.84,6.4,127.49-1.13,118,1.09l-.09,0c-7.24,1.75-11.72,8.39-13.76,12.2a85,85,0,0,0-4.36,10.3c-.93,2.5-1.9,5.08-3,7.56-7.51,16.56-23.34,28.74-40.95,33a56.48,56.48,0,0,1-21.94,1c-1.54-.24-3.13-.54-4.68-.83C23.75,63.3,18.13,62.24,13.13,63.45Z"/><path class="cls-2" d="M39.23,134.27A22.71,22.71,0,0,1,25.45,133a31.28,31.28,0,0,1-12.59-9.44c-6.52-8.17-9.3-18.7-11.34-28.87C.48,89.5-.48,84,.26,78.49,1.08,72.38,4,67.35,8.34,64.68c6.18-3.83,13.72-2.41,21-1,1.54.29,3.13.59,4.66.82,25,3.89,51.7-10.55,62.14-33.58,1.11-2.45,2.07-5,3-7.51A85.55,85.55,0,0,1,103.55,13c2.09-3.92,6.71-10.74,14.22-12.55l.09,0a17.74,17.74,0,0,1,13.82,2.9,25.93,25.93,0,0,1,9.39,11.4c1.71,4.11,3.55,12.14,3.79,20.82a47.35,47.35,0,0,1-.93,11.56c-.85,3.79-2.24,6.66-4.15,8.54a42,42,0,0,1-3.36,2.89c-2.38,1.92-4.63,3.72-5.91,6.33-2,4.08-1.22,9.39,2.41,16.21.28.53.57,1.06.86,1.59,2.54,4.68,5.16,9.53,4.69,14.8a14.79,14.79,0,0,1-6,10.31,22.71,22.71,0,0,1-11.64,4.59c-7.12.66-14.16-1.38-21-3.36l-3.23-.93c-7.52-2.11-16.25-3.85-23.91-.76-6.23,2.51-10.84,7.85-15.3,13-4.79,5.54-9.74,11.28-16.71,13.54C40.21,134,39.73,134.15,39.23,134.27ZM13.13,63.45a15.13,15.13,0,0,0-4.42,1.82c-4.13,2.56-7,7.41-7.75,13.31-.72,5.37.22,10.84,1.25,16,2,10.08,4.78,20.52,11.2,28.57,5.75,7.21,16.67,13.43,27.07,10.05,6.78-2.2,11.66-7.86,16.39-13.33,4.51-5.23,9.18-10.64,15.57-13.21,7.86-3.17,16.72-1.4,24.36.74l3.23.93c6.75,2,13.72,4,20.71,3.33,7.7-.72,16.28-6,17-14.26.45-5.07-2.12-9.81-4.61-14.4l-.86-1.6c-3.74-7-4.54-12.55-2.42-16.86,1.35-2.74,3.77-4.68,6.1-6.56a40.91,40.91,0,0,0,3.31-2.84c3.39-3.34,5.12-10.29,4.86-19.58-.23-8.59-2-16.52-3.73-20.57C136.84,6.4,127.49-1.13,118,1.09l-.09,0c-7.24,1.75-11.72,8.39-13.76,12.2a85,85,0,0,0-4.36,10.3c-.93,2.5-1.9,5.08-3,7.56-7.51,16.56-23.34,28.74-40.95,33a56.48,56.48,0,0,1-21.94,1c-1.54-.24-3.13-.54-4.68-.83C23.75,63.3,18.13,62.24,13.13,63.45Z"/><path class="cls-2" d="M39.23,134.27A22.71,22.71,0,0,1,25.45,133a31.28,31.28,0,0,1-12.59-9.44c-6.52-8.17-9.3-18.7-11.34-28.87C.48,89.5-.48,84,.26,78.49,1.08,72.38,4,67.35,8.34,64.68c6.18-3.83,13.72-2.41,21-1,1.54.29,3.13.59,4.66.82,25,3.89,51.7-10.55,62.14-33.58,1.11-2.45,2.07-5,3-7.51A85.55,85.55,0,0,1,103.55,13c2.09-3.92,6.71-10.74,14.22-12.55l.09,0a17.74,17.74,0,0,1,13.82,2.9,25.93,25.93,0,0,1,9.39,11.4c1.71,4.11,3.55,12.14,3.79,20.82a47.35,47.35,0,0,1-.93,11.56c-.85,3.79-2.24,6.66-4.15,8.54a42,42,0,0,1-3.36,2.89c-2.38,1.92-4.63,3.72-5.91,6.33-2,4.08-1.22,9.39,2.41,16.21.28.53.57,1.06.86,1.59,2.54,4.68,5.16,9.53,4.69,14.8a14.79,14.79,0,0,1-6,10.31,22.71,22.71,0,0,1-11.64,4.59c-7.12.66-14.16-1.38-21-3.36l-3.23-.93c-7.52-2.11-16.25-3.85-23.91-.76-6.23,2.51-10.84,7.85-15.3,13-4.79,5.54-9.74,11.28-16.71,13.54C40.21,134,39.73,134.15,39.23,134.27ZM13.13,63.45a15.13,15.13,0,0,0-4.42,1.82c-4.13,2.56-7,7.41-7.75,13.31-.72,5.37.22,10.84,1.25,16,2,10.08,4.78,20.52,11.2,28.57,5.75,7.21,16.67,13.43,27.07,10.05,6.78-2.2,11.66-7.86,16.39-13.33,4.51-5.23,9.18-10.64,15.57-13.21,7.86-3.17,16.72-1.4,24.36.74l3.23.93c6.75,2,13.72,4,20.71,3.33,7.7-.72,16.28-6,17-14.26.45-5.07-2.12-9.81-4.61-14.4l-.86-1.6c-3.74-7-4.54-12.55-2.42-16.86,1.35-2.74,3.77-4.68,6.1-6.56a40.91,40.91,0,0,0,3.31-2.84c3.39-3.34,5.12-10.29,4.86-19.58-.23-8.59-2-16.52-3.73-20.57C136.84,6.4,127.49-1.13,118,1.09l-.09,0c-7.24,1.75-11.72,8.39-13.76,12.2a85,85,0,0,0-4.36,10.3c-.93,2.5-1.9,5.08-3,7.56-7.51,16.56-23.34,28.74-40.95,33a56.48,56.48,0,0,1-21.94,1c-1.54-.24-3.13-.54-4.68-.83C23.75,63.3,18.13,62.24,13.13,63.45Z"/><path class="cls-2" d="M39.23,134.27A22.71,22.71,0,0,1,25.45,133a31.28,31.28,0,0,1-12.59-9.44c-6.52-8.17-9.3-18.7-11.34-28.87C.48,89.5-.48,84,.26,78.49,1.08,72.38,4,67.35,8.34,64.68c6.18-3.83,13.72-2.41,21-1,1.54.29,3.13.59,4.66.82,25,3.89,51.7-10.55,62.14-33.58,1.11-2.45,2.07-5,3-7.51A85.55,85.55,0,0,1,103.55,13c2.09-3.92,6.71-10.74,14.22-12.55l.09,0a17.74,17.74,0,0,1,13.82,2.9,25.93,25.93,0,0,1,9.39,11.4c1.71,4.11,3.55,12.14,3.79,20.82a47.35,47.35,0,0,1-.93,11.56c-.85,3.79-2.24,6.66-4.15,8.54a42,42,0,0,1-3.36,2.89c-2.38,1.92-4.63,3.72-5.91,6.33-2,4.08-1.22,9.39,2.41,16.21.28.53.57,1.06.86,1.59,2.54,4.68,5.16,9.53,4.69,14.8a14.79,14.79,0,0,1-6,10.31,22.71,22.71,0,0,1-11.64,4.59c-7.12.66-14.16-1.38-21-3.36l-3.23-.93c-7.52-2.11-16.25-3.85-23.91-.76-6.23,2.51-10.84,7.85-15.3,13-4.79,5.54-9.74,11.28-16.71,13.54C40.21,134,39.73,134.15,39.23,134.27ZM13.13,63.45a15.13,15.13,0,0,0-4.42,1.82c-4.13,2.56-7,7.41-7.75,13.31-.72,5.37.22,10.84,1.25,16,2,10.08,4.78,20.52,11.2,28.57,5.75,7.21,16.67,13.43,27.07,10.05,6.78-2.2,11.66-7.86,16.39-13.33,4.51-5.23,9.18-10.64,15.57-13.21,7.86-3.17,16.72-1.4,24.36.74l3.23.93c6.75,2,13.72,4,20.71,3.33,7.7-.72,16.28-6,17-14.26.45-5.07-2.12-9.81-4.61-14.4l-.86-1.6c-3.74-7-4.54-12.55-2.42-16.86,1.35-2.74,3.77-4.68,6.1-6.56a40.91,40.91,0,0,0,3.31-2.84c3.39-3.34,5.12-10.29,4.86-19.58-.23-8.59-2-16.52-3.73-20.57C136.84,6.4,127.49-1.13,118,1.09l-.09,0c-7.24,1.75-11.72,8.39-13.76,12.2a85,85,0,0,0-4.36,10.3c-.93,2.5-1.9,5.08-3,7.56-7.51,16.56-23.34,28.74-40.95,33a56.48,56.48,0,0,1-21.94,1c-1.54-.24-3.13-.54-4.68-.83C23.75,63.3,18.13,62.24,13.13,63.45Z"/><path class="cls-2" d="M39.23,134.27A22.71,22.71,0,0,1,25.45,133a31.28,31.28,0,0,1-12.59-9.44c-6.52-8.17-9.3-18.7-11.34-28.87C.48,89.5-.48,84,.26,78.49,1.08,72.38,4,67.35,8.34,64.68c6.18-3.83,13.72-2.41,21-1,1.54.29,3.13.59,4.66.82,25,3.89,51.7-10.55,62.14-33.58,1.11-2.45,2.07-5,3-7.51A85.55,85.55,0,0,1,103.55,13c2.09-3.92,6.71-10.74,14.22-12.55l.09,0a17.74,17.74,0,0,1,13.82,2.9,25.93,25.93,0,0,1,9.39,11.4c1.71,4.11,3.55,12.14,3.79,20.82a47.35,47.35,0,0,1-.93,11.56c-.85,3.79-2.24,6.66-4.15,8.54a42,42,0,0,1-3.36,2.89c-2.38,1.92-4.63,3.72-5.91,6.33-2,4.08-1.22,9.39,2.41,16.21.28.53.57,1.06.86,1.59,2.54,4.68,5.16,9.53,4.69,14.8a14.79,14.79,0,0,1-6,10.31,22.71,22.71,0,0,1-11.64,4.59c-7.12.66-14.16-1.38-21-3.36l-3.23-.93c-7.52-2.11-16.25-3.85-23.91-.76-6.23,2.51-10.84,7.85-15.3,13-4.79,5.54-9.74,11.28-16.71,13.54C40.21,134,39.73,134.15,39.23,134.27ZM13.13,63.45a15.13,15.13,0,0,0-4.42,1.82c-4.13,2.56-7,7.41-7.75,13.31-.72,5.37.22,10.84,1.25,16,2,10.08,4.78,20.52,11.2,28.57,5.75,7.21,16.67,13.43,27.07,10.05,6.78-2.2,11.66-7.86,16.39-13.33,4.51-5.23,9.18-10.64,15.57-13.21,7.86-3.17,16.72-1.4,24.36.74l3.23.93c6.75,2,13.72,4,20.71,3.33,7.7-.72,16.28-6,17-14.26.45-5.07-2.12-9.81-4.61-14.4l-.86-1.6c-3.74-7-4.54-12.55-2.42-16.86,1.35-2.74,3.77-4.68,6.1-6.56a40.91,40.91,0,0,0,3.31-2.84c3.39-3.34,5.12-10.29,4.86-19.58-.23-8.59-2-16.52-3.73-20.57C136.84,6.4,127.49-1.13,118,1.09l-.09,0c-7.24,1.75-11.72,8.39-13.76,12.2a85,85,0,0,0-4.36,10.3c-.93,2.5-1.9,5.08-3,7.56-7.51,16.56-23.34,28.74-40.95,33a56.48,56.48,0,0,1-21.94,1c-1.54-.24-3.13-.54-4.68-.83C23.75,63.3,18.13,62.24,13.13,63.45Z"/><path class="cls-2" d="M39.23,134.27A22.71,22.71,0,0,1,25.45,133a31.28,31.28,0,0,1-12.59-9.44c-6.52-8.17-9.3-18.7-11.34-28.87C.48,89.5-.48,84,.26,78.49,1.08,72.38,4,67.35,8.34,64.68c6.18-3.83,13.72-2.41,21-1,1.54.29,3.13.59,4.66.82,25,3.89,51.7-10.55,62.14-33.58,1.11-2.45,2.07-5,3-7.51A85.55,85.55,0,0,1,103.55,13c2.09-3.92,6.71-10.74,14.22-12.55l.09,0a17.74,17.74,0,0,1,13.82,2.9,25.93,25.93,0,0,1,9.39,11.4c1.71,4.11,3.55,12.14,3.79,20.82a47.35,47.35,0,0,1-.93,11.56c-.85,3.79-2.24,6.66-4.15,8.54a42,42,0,0,1-3.36,2.89c-2.38,1.92-4.63,3.72-5.91,6.33-2,4.08-1.22,9.39,2.41,16.21.28.53.57,1.06.86,1.59,2.54,4.68,5.16,9.53,4.69,14.8a14.79,14.79,0,0,1-6,10.31,22.71,22.71,0,0,1-11.64,4.59c-7.12.66-14.16-1.38-21-3.36l-3.23-.93c-7.52-2.11-16.25-3.85-23.91-.76-6.23,2.51-10.84,7.85-15.3,13-4.79,5.54-9.74,11.28-16.71,13.54C40.21,134,39.73,134.15,39.23,134.27ZM13.13,63.45a15.13,15.13,0,0,0-4.42,1.82c-4.13,2.56-7,7.41-7.75,13.31-.72,5.37.22,10.84,1.25,16,2,10.08,4.78,20.52,11.2,28.57,5.75,7.21,16.67,13.43,27.07,10.05,6.78-2.2,11.66-7.86,16.39-13.33,4.51-5.23,9.18-10.64,15.57-13.21,7.86-3.17,16.72-1.4,24.36.74l3.23.93c6.75,2,13.72,4,20.71,3.33,7.7-.72,16.28-6,17-14.26.45-5.07-2.12-9.81-4.61-14.4l-.86-1.6c-3.74-7-4.54-12.55-2.42-16.86,1.35-2.74,3.77-4.68,6.1-6.56a40.91,40.91,0,0,0,3.31-2.84c3.39-3.34,5.12-10.29,4.86-19.58-.23-8.59-2-16.52-3.73-20.57C136.84,6.4,127.49-1.13,118,1.09l-.09,0c-7.24,1.75-11.72,8.39-13.76,12.2a85,85,0,0,0-4.36,10.3c-.93,2.5-1.9,5.08-3,7.56-7.51,16.56-23.34,28.74-40.95,33a56.48,56.48,0,0,1-21.94,1c-1.54-.24-3.13-.54-4.68-.83C23.75,63.3,18.13,62.24,13.13,63.45Z"/><path class="cls-2" d="M39.23,134.27A22.71,22.71,0,0,1,25.45,133a31.28,31.28,0,0,1-12.59-9.44c-6.52-8.17-9.3-18.7-11.34-28.87C.48,89.5-.48,84,.26,78.49,1.08,72.38,4,67.35,8.34,64.68c6.18-3.83,13.72-2.41,21-1,1.54.29,3.13.59,4.66.82,25,3.89,51.7-10.55,62.14-33.58,1.11-2.45,2.07-5,3-7.51A85.55,85.55,0,0,1,103.55,13c2.09-3.92,6.71-10.74,14.22-12.55l.09,0a17.74,17.74,0,0,1,13.82,2.9,25.93,25.93,0,0,1,9.39,11.4c1.71,4.11,3.55,12.14,3.79,20.82a47.35,47.35,0,0,1-.93,11.56c-.85,3.79-2.24,6.66-4.15,8.54a42,42,0,0,1-3.36,2.89c-2.38,1.92-4.63,3.72-5.91,6.33-2,4.08-1.22,9.39,2.41,16.21.28.53.57,1.06.86,1.59,2.54,4.68,5.16,9.53,4.69,14.8a14.79,14.79,0,0,1-6,10.31,22.71,22.71,0,0,1-11.64,4.59c-7.12.66-14.16-1.38-21-3.36l-3.23-.93c-7.52-2.11-16.25-3.85-23.91-.76-6.23,2.51-10.84,7.85-15.3,13-4.79,5.54-9.74,11.28-16.71,13.54C40.21,134,39.73,134.15,39.23,134.27ZM13.13,63.45a15.13,15.13,0,0,0-4.42,1.82c-4.13,2.56-7,7.41-7.75,13.31-.72,5.37.22,10.84,1.25,16,2,10.08,4.78,20.52,11.2,28.57,5.75,7.21,16.67,13.43,27.07,10.05,6.78-2.2,11.66-7.86,16.39-13.33,4.51-5.23,9.18-10.64,15.57-13.21,7.86-3.17,16.72-1.4,24.36.74l3.23.93c6.75,2,13.72,4,20.71,3.33,7.7-.72,16.28-6,17-14.26.45-5.07-2.12-9.81-4.61-14.4l-.86-1.6c-3.74-7-4.54-12.55-2.42-16.86,1.35-2.74,3.77-4.68,6.1-6.56a40.91,40.91,0,0,0,3.31-2.84c3.39-3.34,5.12-10.29,4.86-19.58-.23-8.59-2-16.52-3.73-20.57C136.84,6.4,127.49-1.13,118,1.09l-.09,0c-7.24,1.75-11.72,8.39-13.76,12.2a85,85,0,0,0-4.36,10.3c-.93,2.5-1.9,5.08-3,7.56-7.51,16.56-23.34,28.74-40.95,33a56.48,56.48,0,0,1-21.94,1c-1.54-.24-3.13-.54-4.68-.83C23.75,63.3,18.13,62.24,13.13,63.45Z"/><path class="cls-2" d="M39.23,134.27A22.71,22.71,0,0,1,25.45,133a31.28,31.28,0,0,1-12.59-9.44c-6.52-8.17-9.3-18.7-11.34-28.87C.48,89.5-.48,84,.26,78.49,1.08,72.38,4,67.35,8.34,64.68c6.18-3.83,13.72-2.41,21-1,1.54.29,3.13.59,4.66.82,25,3.89,51.7-10.55,62.14-33.58,1.11-2.45,2.07-5,3-7.51A85.55,85.55,0,0,1,103.55,13c2.09-3.92,6.71-10.74,14.22-12.55l.09,0a17.74,17.74,0,0,1,13.82,2.9,25.93,25.93,0,0,1,9.39,11.4c1.71,4.11,3.55,12.14,3.79,20.82a47.35,47.35,0,0,1-.93,11.56c-.85,3.79-2.24,6.66-4.15,8.54a42,42,0,0,1-3.36,2.89c-2.38,1.92-4.63,3.72-5.91,6.33-2,4.08-1.22,9.39,2.41,16.21.28.53.57,1.06.86,1.59,2.54,4.68,5.16,9.53,4.69,14.8a14.79,14.79,0,0,1-6,10.31,22.71,22.71,0,0,1-11.64,4.59c-7.12.66-14.16-1.38-21-3.36l-3.23-.93c-7.52-2.11-16.25-3.85-23.91-.76-6.23,2.51-10.84,7.85-15.3,13-4.79,5.54-9.74,11.28-16.71,13.54C40.21,134,39.73,134.15,39.23,134.27ZM13.13,63.45a15.13,15.13,0,0,0-4.42,1.82c-4.13,2.56-7,7.41-7.75,13.31-.72,5.37.22,10.84,1.25,16,2,10.08,4.78,20.52,11.2,28.57,5.75,7.21,16.67,13.43,27.07,10.05,6.78-2.2,11.66-7.86,16.39-13.33,4.51-5.23,9.18-10.64,15.57-13.21,7.86-3.17,16.72-1.4,24.36.74l3.23.93c6.75,2,13.72,4,20.71,3.33,7.7-.72,16.28-6,17-14.26.45-5.07-2.12-9.81-4.61-14.4l-.86-1.6c-3.74-7-4.54-12.55-2.42-16.86,1.35-2.74,3.77-4.68,6.1-6.56a40.91,40.91,0,0,0,3.31-2.84c3.39-3.34,5.12-10.29,4.86-19.58-.23-8.59-2-16.52-3.73-20.57C136.84,6.4,127.49-1.13,118,1.09l-.09,0c-7.24,1.75-11.72,8.39-13.76,12.2a85,85,0,0,0-4.36,10.3c-.93,2.5-1.9,5.08-3,7.56-7.51,16.56-23.34,28.74-40.95,33a56.48,56.48,0,0,1-21.94,1c-1.54-.24-3.13-.54-4.68-.83C23.75,63.3,18.13,62.24,13.13,63.45Z"/><path class="cls-2" d="M39.23,134.27A22.71,22.71,0,0,1,25.45,133a31.28,31.28,0,0,1-12.59-9.44c-6.52-8.17-9.3-18.7-11.34-28.87C.48,89.5-.48,84,.26,78.49,1.08,72.38,4,67.35,8.34,64.68c6.18-3.83,13.72-2.41,21-1,1.54.29,3.13.59,4.66.82,25,3.89,51.7-10.55,62.14-33.58,1.11-2.45,2.07-5,3-7.51A85.55,85.55,0,0,1,103.55,13c2.09-3.92,6.71-10.74,14.22-12.55l.09,0a17.74,17.74,0,0,1,13.82,2.9,25.93,25.93,0,0,1,9.39,11.4c1.71,4.11,3.55,12.14,3.79,20.82a47.35,47.35,0,0,1-.93,11.56c-.85,3.79-2.24,6.66-4.15,8.54a42,42,0,0,1-3.36,2.89c-2.38,1.92-4.63,3.72-5.91,6.33-2,4.08-1.22,9.39,2.41,16.21.28.53.57,1.06.86,1.59,2.54,4.68,5.16,9.53,4.69,14.8a14.79,14.79,0,0,1-6,10.31,22.71,22.71,0,0,1-11.64,4.59c-7.12.66-14.16-1.38-21-3.36l-3.23-.93c-7.52-2.11-16.25-3.85-23.91-.76-6.23,2.51-10.84,7.85-15.3,13-4.79,5.54-9.74,11.28-16.71,13.54C40.21,134,39.73,134.15,39.23,134.27ZM13.13,63.45a15.13,15.13,0,0,0-4.42,1.82c-4.13,2.56-7,7.41-7.75,13.31-.72,5.37.22,10.84,1.25,16,2,10.08,4.78,20.52,11.2,28.57,5.75,7.21,16.67,13.43,27.07,10.05,6.78-2.2,11.66-7.86,16.39-13.33,4.51-5.23,9.18-10.64,15.57-13.21,7.86-3.17,16.72-1.4,24.36.74l3.23.93c6.75,2,13.72,4,20.71,3.33,7.7-.72,16.28-6,17-14.26.45-5.07-2.12-9.81-4.61-14.4l-.86-1.6c-3.74-7-4.54-12.55-2.42-16.86,1.35-2.74,3.77-4.68,6.1-6.56a40.91,40.91,0,0,0,3.31-2.84c3.39-3.34,5.12-10.29,4.86-19.58-.23-8.59-2-16.52-3.73-20.57C136.84,6.4,127.49-1.13,118,1.09l-.09,0c-7.24,1.75-11.72,8.39-13.76,12.2a85,85,0,0,0-4.36,10.3c-.93,2.5-1.9,5.08-3,7.56-7.51,16.56-23.34,28.74-40.95,33a56.48,56.48,0,0,1-21.94,1c-1.54-.24-3.13-.54-4.68-.83C23.75,63.3,18.13,62.24,13.13,63.45Z"/><path class="cls-2" d="M39.23,134.27A22.71,22.71,0,0,1,25.45,133a31.28,31.28,0,0,1-12.59-9.44c-6.52-8.17-9.3-18.7-11.34-28.87C.48,89.5-.48,84,.26,78.49,1.08,72.38,4,67.35,8.34,64.68c6.18-3.83,13.72-2.41,21-1,1.54.29,3.13.59,4.66.82,25,3.89,51.7-10.55,62.14-33.58,1.11-2.45,2.07-5,3-7.51A85.55,85.55,0,0,1,103.55,13c2.09-3.92,6.71-10.74,14.22-12.55l.09,0a17.74,17.74,0,0,1,13.82,2.9,25.93,25.93,0,0,1,9.39,11.4c1.71,4.11,3.55,12.14,3.79,20.82a47.35,47.35,0,0,1-.93,11.56c-.85,3.79-2.24,6.66-4.15,8.54a42,42,0,0,1-3.36,2.89c-2.38,1.92-4.63,3.72-5.91,6.33-2,4.08-1.22,9.39,2.41,16.21.28.53.57,1.06.86,1.59,2.54,4.68,5.16,9.53,4.69,14.8a14.79,14.79,0,0,1-6,10.31,22.71,22.71,0,0,1-11.64,4.59c-7.12.66-14.16-1.38-21-3.36l-3.23-.93c-7.52-2.11-16.25-3.85-23.91-.76-6.23,2.51-10.84,7.85-15.3,13-4.79,5.54-9.74,11.28-16.71,13.54C40.21,134,39.73,134.15,39.23,134.27ZM13.13,63.45a15.13,15.13,0,0,0-4.42,1.82c-4.13,2.56-7,7.41-7.75,13.31-.72,5.37.22,10.84,1.25,16,2,10.08,4.78,20.52,11.2,28.57,5.75,7.21,16.67,13.43,27.07,10.05,6.78-2.2,11.66-7.86,16.39-13.33,4.51-5.23,9.18-10.64,15.57-13.21,7.86-3.17,16.72-1.4,24.36.74l3.23.93c6.75,2,13.72,4,20.71,3.33,7.7-.72,16.28-6,17-14.26.45-5.07-2.12-9.81-4.61-14.4l-.86-1.6c-3.74-7-4.54-12.55-2.42-16.86,1.35-2.74,3.77-4.68,6.1-6.56a40.91,40.91,0,0,0,3.31-2.84c3.39-3.34,5.12-10.29,4.86-19.58-.23-8.59-2-16.52-3.73-20.57C136.84,6.4,127.49-1.13,118,1.09l-.09,0c-7.24,1.75-11.72,8.39-13.76,12.2a85,85,0,0,0-4.36,10.3c-.93,2.5-1.9,5.08-3,7.56-7.51,16.56-23.34,28.74-40.95,33a56.48,56.48,0,0,1-21.94,1c-1.54-.24-3.13-.54-4.68-.83C23.75,63.3,18.13,62.24,13.13,63.45Z"/><path class="cls-2" d="M40.8,132.55a21.89,21.89,0,0,1-13.3-1.2,30.23,30.23,0,0,1-12.16-9.08,45.38,45.38,0,0,1-7.41-13.93,102.62,102.62,0,0,1-3.55-14c-1-5-1.85-10.33-1.1-15.63C4.09,72.83,6.94,68,11.11,65.4c6-3.69,13.24-2.34,20.27-1,1.48.28,3,.56,4.5.79a56.72,56.72,0,0,0,35.77-6.84,56.91,56.91,0,0,0,24.2-25.65c.1-.22.21-.45.3-.67.95-2.14,1.79-4.37,2.6-6.53a82.94,82.94,0,0,1,4.29-10c2-3.75,6.48-10.29,13.68-12l.15,0A17.13,17.13,0,0,1,130.18,6.2a25,25,0,0,1,9,11c1.65,4,3.41,11.71,3.63,20.07.24,9.13-1.5,16-4.91,19.37a40.75,40.75,0,0,1-3.24,2.79c-2.29,1.85-4.46,3.6-5.7,6.1-1.94,3.94-1.19,9,2.28,15.63.27.51.55,1,.83,1.53,2.42,4.52,4.94,9.19,4.47,14.27a14.29,14.29,0,0,1-5.83,10,21.91,21.91,0,0,1-11.23,4.43c-6.86.65-13.65-1.3-20.22-3.19-1-.29-2.08-.6-3.11-.88-7.26-2-15.67-3.68-23.06-.7-6,2.41-10.46,7.56-14.76,12.53-3.41,3.93-6.93,8-11.2,10.7a21.4,21.4,0,0,1-4.94,2.35C41.74,132.3,41.27,132.44,40.8,132.55Zm-25-68.33A14.53,14.53,0,0,0,11.47,66c-4,2.47-6.73,7.14-7.51,12.82-.73,5.2.14,10.46,1.1,15.41a101.6,101.6,0,0,0,3.53,13.89,44.61,44.61,0,0,0,7.29,13.73C21.43,128.77,32,134.75,42,131.49a20.61,20.61,0,0,0,4.78-2.27c4.18-2.65,7.67-6.68,11-10.57,4.37-5,8.88-10.25,15-12.73,7.58-3,16.14-1.37,23.5.68l3.12.89c6.51,1.87,13.23,3.8,20,3.16a19.87,19.87,0,0,0,2.91-.49c6.52-1.57,12.87-6.3,13.52-13.26.45-4.88-2-9.45-4.39-13.88l-.83-1.54c-3.59-6.79-4.33-12.1-2.29-16.25,1.3-2.65,3.63-4.52,5.89-6.34,1.08-.87,2.2-1.77,3.19-2.74,3.27-3.22,4.93-9.92,4.7-18.86-.22-8.27-2-15.92-3.58-19.83C135.13,9.21,126.14,1.94,117,4.06h0l-.15,0c-6.94,1.67-11.26,8-13.23,11.68A82.35,82.35,0,0,0,99.4,25.7c-.82,2.17-1.66,4.41-2.61,6.57-.1.22-.2.45-.31.68A57.48,57.48,0,0,1,72,58.91a57.44,57.44,0,0,1-36.22,6.92c-1.48-.23-3-.51-4.52-.79C26,64.06,20.58,63.06,15.76,64.22Z"/><path class="cls-2" d="M42.37,130.83a21.08,21.08,0,0,1-12.82-1.15A29.19,29.19,0,0,1,17.82,121a43.56,43.56,0,0,1-7.21-13.45A93.48,93.48,0,0,1,7.23,94c-.89-4.79-1.69-9.9-.94-15,.8-5.65,3.57-10.32,7.58-12.81,5.76-3.56,12.76-2.28,19.53-1,1.44.26,2.92.53,4.35.75a54.89,54.89,0,0,0,34.46-6.67A55.15,55.15,0,0,0,95.55,34.44c.1-.21.2-.43.29-.64.92-2,1.73-4.19,2.52-6.25a77.19,77.19,0,0,1,4.17-9.65c2-3.59,6.25-9.83,13.14-11.49l.21,0h0A16.43,16.43,0,0,1,128.67,9.1a24,24,0,0,1,8.66,10.59C138.91,23.52,140.6,31,140.8,39c.22,8.79-1.46,15.41-4.74,18.65a39.84,39.84,0,0,1-3.12,2.69c-2.21,1.78-4.3,3.47-5.49,5.88-1.87,3.79-1.16,8.7,2.15,15,.26.49.53,1,.79,1.48,2.32,4.34,4.72,8.84,4.25,13.74a13.78,13.78,0,0,1-5.62,9.57,21.28,21.28,0,0,1-10.82,4.29c-6.61.64-13.15-1.23-19.48-3l-3-.84c-7-1.92-15.09-3.5-22.2-.64-5.78,2.33-10.08,7.28-14.24,12.06-3.28,3.78-6.68,7.69-10.8,10.29a20.91,20.91,0,0,1-4.77,2.26C43.28,130.6,42.83,130.72,42.37,130.83ZM18.38,65a14.34,14.34,0,0,0-4.15,1.71C10.39,69.09,7.74,73.58,7,79c-.74,5,.06,10.09.93,14.83a94.34,94.34,0,0,0,3.35,13.43,42.75,42.75,0,0,0,7.1,13.24c5.38,6.65,15.55,12.38,25.16,9.26a19.73,19.73,0,0,0,4.61-2.18c4-2.55,7.4-6.42,10.66-10.17,4.21-4.84,8.56-9.85,14.49-12.24,7.3-2.94,15.54-1.34,22.64.61l3,.85c6.26,1.78,12.74,3.63,19.23,3a20.68,20.68,0,0,0,2.76-.47c6.29-1.52,12.43-6.08,13.06-12.78.45-4.69-1.9-9.09-4.17-13.35L129,81.58c-3.43-6.54-4.13-11.66-2.16-15.65,1.26-2.55,3.5-4.36,5.67-6.11a38.9,38.9,0,0,0,3.07-2.65c3.15-3.1,4.76-9.54,4.54-18.14-.2-8-1.86-15.31-3.42-19.08C133.42,12,124.79,5,116,7h0c-6.75,1.53-11,7.68-12.9,11.21A79.74,79.74,0,0,0,99,27.79c-.79,2.08-1.6,4.22-2.52,6.28l-.3.66a55.84,55.84,0,0,1-23.63,25A55.46,55.46,0,0,1,37.65,66.5c-1.44-.21-2.93-.49-4.37-.75C28.22,64.83,23,63.88,18.38,65Z"/><path class="cls-2" d="M43.94,129.12A20.36,20.36,0,0,1,31.6,128a28.45,28.45,0,0,1-11.31-8.35,41.55,41.55,0,0,1-7-13,85.67,85.67,0,0,1-3.2-13.07c-.77-4.37-1.53-9.44-.78-14.47.81-5.44,3.48-9.93,7.33-12.31,5.54-3.43,12.28-2.22,18.79-1.06,1.38.25,2.81.51,4.19.71A52.93,52.93,0,0,0,72.76,60,53.49,53.49,0,0,0,95.25,36.23c.1-.21.19-.42.28-.62.88-2,1.67-4,2.43-6A75.21,75.21,0,0,1,102,20.36c1.91-3.47,6.11-9.51,12.87-11A15.82,15.82,0,0,1,127.16,12a23.15,23.15,0,0,1,8.31,10.18c1.51,3.69,3.12,10.86,3.3,18.57.21,8.44-1.42,14.8-4.57,17.92a36.88,36.88,0,0,1-3,2.59c-2.12,1.72-4.13,3.34-5.28,5.66-1.8,3.63-1.13,8.36,2,14.44.24.48.49.95.75,1.43,2.2,4.18,4.49,8.5,4,13.21a13.37,13.37,0,0,1-5.42,9.21,20.55,20.55,0,0,1-10.41,4.13c-6.36.63-12.65-1.14-18.74-2.86l-2.87-.8c-6.72-1.83-14.51-3.32-21.35-.57-5.56,2.24-9.7,7-13.7,11.57-3.17,3.64-6.45,7.39-10.41,9.89a20.16,20.16,0,0,1-4.59,2.17C44.81,128.89,44.38,129,43.94,129.12ZM21,65.78a13.34,13.34,0,0,0-4,1.65C13.31,69.7,10.75,74,10,79.27c-.73,4.93,0,9.94.78,14.25a84.61,84.61,0,0,0,3.17,13,41.22,41.22,0,0,0,6.89,12.76c5.2,6.36,15,11.85,24.22,8.87A19.75,19.75,0,0,0,49.47,126c3.88-2.44,7.13-6.16,10.26-9.76,4.06-4.64,8.25-9.45,14-11.75,7-2.83,15-1.31,21.77.54,1,.26,1.94.54,2.88.81,6,1.69,12.26,3.45,18.49,2.83,6.85-.67,14.51-5.37,15.23-12.74.44-4.5-1.79-8.73-4-12.82l-.75-1.44c-3.27-6.29-3.93-11.21-2-15.05,1.21-2.45,3.37-4.19,5.46-5.88,1-.81,2-1.65,2.95-2.55,3-3,4.57-9.17,4.37-17.42-.18-7.63-1.77-14.71-3.25-18.33C131.72,14.85,123.45,8.11,115,10c-6.5,1.46-10.57,7.32-12.42,10.69a75.67,75.67,0,0,0-4,9.2c-.76,2-1.55,4-2.43,6l-.29.63A54.24,54.24,0,0,1,73.09,60.6a53.56,53.56,0,0,1-33.57,6.57c-1.38-.2-2.82-.46-4.21-.71C30.45,65.59,25.46,64.7,21,65.78Z"/><path class="cls-2" d="M45.51,127.4a19.62,19.62,0,0,1-11.86-1,27.39,27.39,0,0,1-10.88-8A40.17,40.17,0,0,1,16,105.89a76.85,76.85,0,0,1-3-12.61c-.86-5.16-1.3-9.49-.62-13.88.81-5.23,3.39-9.53,7.08-11.81,5.33-3.29,11.8-2.16,18.06-1.07,1.33.24,2.7.48,4,.67a51,51,0,0,0,31.82-6.33A51.8,51.8,0,0,0,95,38l.27-.6c.85-1.86,1.61-3.8,2.34-5.67a72.06,72.06,0,0,1,4-8.92c1.84-3.31,5.9-9.09,12.38-10.51a15.26,15.26,0,0,1,11.77,2.6,22.21,22.21,0,0,1,7.94,9.78,55.91,55.91,0,0,1,3.15,17.82c.18,8.09-1.38,14.2-4.41,17.19a37.48,37.48,0,0,1-2.88,2.49c-2,1.65-4,3.21-5.07,5.43-1.73,3.49-1.11,8,1.9,13.86.23.46.47.92.71,1.38,2.1,4,4.27,8.15,3.82,12.67-.65,6.49-6.61,10.93-12.67,12.39a20.94,20.94,0,0,1-2.55.44c-6.11.61-12.15-1.07-18-2.7l-2.75-.76c-6.46-1.73-13.94-3.15-20.5-.5C69,106.55,65,111.09,61.19,115.49c-3,3.48-6.21,7.08-10,9.48a19.41,19.41,0,0,1-4.41,2.08C46.34,127.19,45.93,127.3,45.51,127.4ZM23.63,66.55a13.33,13.33,0,0,0-3.88,1.6c-3.53,2.18-6,6.32-6.78,11.35-.66,4.3-.23,8.58.62,13.67a77,77,0,0,0,3,12.5A39.61,39.61,0,0,0,23.28,118c5.18,6.29,14.39,11.35,23.27,8.48a19.2,19.2,0,0,0,4.26-2c3.74-2.35,6.86-5.91,9.88-9.36,3.9-4.45,7.93-9,13.42-11.26,6.74-2.72,14.35-1.29,20.91.48.92.24,1.85.5,2.76.76,5.78,1.61,11.77,3.27,17.75,2.67,6.57-.66,13.92-5.17,14.63-12.24.43-4.32-1.69-8.37-3.74-12.3-.25-.46-.49-.92-.72-1.37C122.59,75.74,122,71,123.8,67.33,125,65,127,63.3,129,61.68a37,37,0,0,0,2.84-2.45c2.89-2.86,4.39-8.8,4.21-16.71A55.2,55.2,0,0,0,133,24.94c-3-7.28-10.89-13.75-19-12-6.24,1.37-10.16,7-12,10.18A72.48,72.48,0,0,0,98.17,32c-.73,1.88-1.49,3.83-2.34,5.71-.1.2-.19.4-.28.6A52.51,52.51,0,0,1,73.64,61.44a54.51,54.51,0,0,1-13.81,5.43,49.17,49.17,0,0,1-18.44,1c-1.33-.19-2.71-.43-4-.67C32.68,66.36,27.9,65.52,23.63,66.55Z"/><path class="cls-2" d="M47.08,125.69a19,19,0,0,1-11.38-1,26.4,26.4,0,0,1-10.45-7.63,38.17,38.17,0,0,1-6.61-12A69.45,69.45,0,0,1,15.8,92.92a42.11,42.11,0,0,1-.46-13.29c.8-5,3.29-9.13,6.83-11.31,5.11-3.16,11.32-2.1,17.31-1.07,1.28.22,2.6.44,3.88.62a49.13,49.13,0,0,0,30.51-6.15A50.18,50.18,0,0,0,94.65,39.79c.09-.19.18-.38.26-.57.81-1.77,1.54-3.61,2.25-5.39A70.11,70.11,0,0,1,101,25.28c1.78-3.16,5.69-8.65,11.9-10a14.65,14.65,0,0,1,11.25,2.52,21.36,21.36,0,0,1,7.59,9.38,53.71,53.71,0,0,1,3,17.06c.17,7.75-1.34,13.6-4.24,16.47-.86.85-1.83,1.64-2.76,2.4-2,1.58-3.8,3.07-4.86,5.2-1.65,3.34-1.08,7.68,1.77,13.27.22.44.45.88.68,1.32,2,3.84,4,7.81,3.6,12.14-.74,7.09-8.08,11.64-14.61,12.31-5.86.6-11.65-1-17.26-2.53l-2.63-.71c-6.19-1.64-13.36-3-19.65-.44-5.11,2.06-8.93,6.4-12.63,10.6-2.93,3.34-6,6.78-9.63,9.08a18.87,18.87,0,0,1-4.23,2C47.88,125.48,47.48,125.59,47.08,125.69ZM26.26,67.33a12.7,12.7,0,0,0-3.75,1.54c-3.38,2.08-5.76,6-6.53,10.86a41.77,41.77,0,0,0,.46,13.09,68.75,68.75,0,0,0,2.82,12,37.62,37.62,0,0,0,6.49,11.8c5,6,13.83,10.82,22.32,8.08a18.74,18.74,0,0,0,4.09-1.93c3.58-2.25,6.58-5.66,9.49-9,3.74-4.25,7.62-8.65,12.87-10.77,6.47-2.61,13.76-1.26,20,.41.88.23,1.78.48,2.64.72,5.55,1.52,11.29,3.1,17,2.5,6.28-.64,13.33-5,14-11.73.43-4.13-1.58-8-3.53-11.77-.23-.44-.46-.88-.68-1.32-3-5.8-3.52-10.33-1.77-13.86,1.12-2.25,3.11-3.86,5-5.42.92-.75,1.87-1.52,2.71-2.35,2.78-2.75,4.21-8.43,4-16a52.76,52.76,0,0,0-2.94-16.84c-2.83-6.95-10.38-13.16-18.09-11.5-6,1.28-9.75,6.61-11.47,9.67a69,69,0,0,0-3.81,8.47c-.71,1.79-1.44,3.64-2.26,5.42-.08.2-.17.39-.26.58a50.9,50.9,0,0,1-21,22.21,49.73,49.73,0,0,1-30.92,6.23c-1.28-.18-2.61-.4-3.9-.62C34.92,67.12,30.35,66.34,26.26,67.33Z"/><path class="cls-2" d="M48.64,124A18.2,18.2,0,0,1,37.75,123a25.43,25.43,0,0,1-10-7.27,36.29,36.29,0,0,1-6.41-11.52,63.68,63.68,0,0,1-2.67-11.68,40.81,40.81,0,0,1-.3-12.71c.81-4.79,3.2-8.73,6.58-10.82,4.91-3,10.84-2,16.58-1.07,1.23.2,2.5.41,3.72.58a47.28,47.28,0,0,0,29.19-6,48.51,48.51,0,0,0,19.93-21c.09-.18.17-.36.25-.54.78-1.68,1.48-3.42,2.16-5.1a65.45,65.45,0,0,1,3.73-8.19c1.68-2.94,5.32-8,11.05-9.39l.37-.08a14,14,0,0,1,10.74,2.44,20.41,20.41,0,0,1,7.22,9A51.14,51.14,0,0,1,132.69,46c.11,5.23-.52,12.21-4.07,15.74-.83.82-1.75,1.57-2.65,2.3-1.86,1.51-3.62,2.94-4.64,5-1.61,3.23-1.09,7.26,1.64,12.68.21.42.42.84.64,1.26,1.88,3.68,3.83,7.48,3.38,11.61-.64,6-6.16,10.06-11.73,11.4a18.5,18.5,0,0,1-2.26.4c-5.61.59-11.15-.91-16.52-2.37L94,103.33c-5.92-1.55-12.78-2.8-18.79-.38-4.89,2-8.56,6.12-12.1,10.13-2.82,3.18-5.73,6.47-9.24,8.67a18.19,18.19,0,0,1-4.06,1.9A10.65,10.65,0,0,1,48.64,124ZM28.88,68.1a12.31,12.31,0,0,0-3.61,1.49c-3.22,2-5.52,5.77-6.29,10.37a40.22,40.22,0,0,0,.3,12.52,62.89,62.89,0,0,0,2.64,11.57,35.7,35.7,0,0,0,6.3,11.31c4.8,5.71,13.27,10.3,21.37,7.69a18,18,0,0,0,3.91-1.84c3.44-2.15,6.32-5.41,9.1-8.55,3.59-4.07,7.31-8.27,12.34-10.3,6.18-2.49,13.17-1.22,19.19.35l2.52.68c5.31,1.43,10.79,2.92,16.28,2.34,6-.63,12.74-4.78,13.43-11.23.42-3.94-1.48-7.66-3.32-11.25L122.4,82c-2.79-5.55-3.32-9.88-1.64-13.26a16.9,16.9,0,0,1,4.81-5.19c.88-.72,1.8-1.46,2.6-2.25,2.65-2.63,4-8.06,3.88-15.28a50.73,50.73,0,0,0-2.77-16.08c-2.69-6.64-9.87-12.58-17.24-11-5.7,1.2-9.34,6.26-11,9.16a68.69,68.69,0,0,0-3.69,8.11c-.68,1.7-1.38,3.45-2.17,5.14l-.25.55a49.15,49.15,0,0,1-20.2,21.27,47.8,47.8,0,0,1-29.59,6.06c-1.23-.16-2.5-.38-3.74-.58C37.15,67.89,32.79,67.16,28.88,68.1Z"/><path class="cls-2" d="M50.19,122.27c-7.65,1.84-15.46-2.48-20-7.8a34.21,34.21,0,0,1-6.21-11,56,56,0,0,1-2.49-11.23,39.44,39.44,0,0,1-.14-12.12c.8-4.57,3.11-8.33,6.33-10.32,4.69-2.89,10.35-2,15.83-1.08,1.18.19,2.4.39,3.56.54A45.34,45.34,0,0,0,75,63.42,46.88,46.88,0,0,0,94.05,43.36l.24-.52c.75-1.58,1.42-3.23,2.07-4.82A63.48,63.48,0,0,1,100,30.2c1.65-2.85,5.26-7.79,10.94-8.95a13.38,13.38,0,0,1,10.22,2.36A19.28,19.28,0,0,1,128,32.19a48.68,48.68,0,0,1,2.67,15.55c.13,7-1.26,12.39-3.91,15-.79.78-1.67,1.5-2.53,2.2a15.62,15.62,0,0,0-4.43,4.76c-1.53,3.07-1.06,6.91,1.51,12.09l.61,1.21c1.77,3.5,3.6,7.13,3.16,11.07-.72,6.46-7.43,10.63-13.39,11.28-5.35.58-10.64-.83-15.77-2.2l-2.39-.63c-5.65-1.45-12.2-2.62-17.94-.31-4.67,1.89-8.17,5.83-11.56,9.64-2.7,3-5.49,6.17-8.86,8.27A16.94,16.94,0,0,1,51.3,122C50.93,122.07,50.56,122.18,50.19,122.27ZM31.51,68.88A11.8,11.8,0,0,0,28,70.31C25,72.2,22.76,75.8,22,80.2a39.17,39.17,0,0,0,.14,11.93,55.67,55.67,0,0,0,2.46,11.1,33.61,33.61,0,0,0,6.1,10.84c4.6,5.41,12.7,9.77,20.42,7.29a16.84,16.84,0,0,0,3.73-1.76c3.29-2,6-5.14,8.72-8.14,3.44-3.87,7-7.87,11.8-9.81,5.9-2.38,12.57-1.19,18.32.28l2.41.64c5.06,1.35,10.3,2.74,15.54,2.18,5.71-.62,12.15-4.59,12.83-10.73.41-3.75-1.38-7.3-3.1-10.72-.21-.4-.41-.81-.61-1.21-1.68-3.38-3.65-8.36-1.51-12.65a16.17,16.17,0,0,1,4.6-5,31.69,31.69,0,0,0,2.48-2.16c2.52-2.51,3.85-7.68,3.72-14.56a48.12,48.12,0,0,0-2.62-15.33c-2.53-6.32-9.34-12-16.38-10.56-5.44,1.11-8.92,5.9-10.52,8.65a62.41,62.41,0,0,0-3.58,7.75c-.65,1.6-1.33,3.25-2.08,4.85-.08.17-.16.35-.25.52A47.5,47.5,0,0,1,75.28,64,46,46,0,0,1,47,69.85c-1.17-.15-2.4-.35-3.58-.54C39.38,68.65,35.23,68,31.51,68.88Z"/><path class="cls-2" d="M51.76,120.55c-7.27,1.75-14.73-2.34-19.07-7.38a32.11,32.11,0,0,1-6-10.55,50.69,50.69,0,0,1-2.32-10.76,38.51,38.51,0,0,1,0-11.55c.8-4.34,3-7.92,6.09-9.81,4.47-2.75,9.87-1.91,15.09-1.09,1.12.18,2.29.36,3.4.5a43.44,43.44,0,0,0,26.57-5.64A45.27,45.27,0,0,0,93.75,45.14l.24-.49c.7-1.49,1.34-3,2-4.53a60.28,60.28,0,0,1,3.51-7.46c1.58-2.69,5-7.36,10.46-8.43a12.76,12.76,0,0,1,9.71,2.29,18.37,18.37,0,0,1,6.5,8.16,46.9,46.9,0,0,1,2.5,14.81c.08,4.74-.51,11.07-3.74,14.29-.75.75-1.59,1.43-2.41,2.1a14.69,14.69,0,0,0-4.21,4.53c-1.47,2.93-1,6.58,1.37,11.51l.57,1.15c1.66,3.34,3.38,6.79,3,10.55-.71,6.14-7.11,10.12-12.78,10.75-5.1.57-10.14-.75-15-2l-2.28-.59c-5.39-1.36-11.63-2.45-17.09-.24-4.44,1.8-7.79,5.54-11,9.16-2.58,2.88-5.24,5.86-8.46,7.86a17,17,0,0,1-3.7,1.73C52.46,120.37,52.11,120.47,51.76,120.55ZM34.13,69.65A11.25,11.25,0,0,0,30.79,71c-2.92,1.79-5,5.22-5.8,9.4a37.52,37.52,0,0,0,0,11.35,50.51,50.51,0,0,0,2.29,10.64,31.81,31.81,0,0,0,5.89,10.35c4.42,5.13,12.15,9.25,19.47,6.9A15.79,15.79,0,0,0,56.19,118c3.13-1.94,5.77-4.89,8.32-7.74,3.29-3.67,6.68-7.47,11.26-9.32,5.63-2.28,12-1.17,17.47.22l2.28.59c4.83,1.26,9.82,2.57,14.81,2,5.42-.6,11.56-4.39,12.22-10.22.42-3.57-1.26-6.94-2.88-10.19-.19-.39-.39-.78-.57-1.16-1.58-3.22-3.43-8-1.38-12a15.37,15.37,0,0,1,4.38-4.74,30.79,30.79,0,0,0,2.36-2.06C126.87,61,128.13,56,128,49.5a45.86,45.86,0,0,0-2.47-14.59c-2.37-6-8.83-11.4-15.51-10.08-5.18,1-8.52,5.54-10,8.14a59.2,59.2,0,0,0-3.47,7.39c-.63,1.5-1.28,3-2,4.55l-.24.5a45.8,45.8,0,0,1-18.47,19.4,46.5,46.5,0,0,1-12,4.79,41.74,41.74,0,0,1-14.89.92c-1.13-.14-2.3-.32-3.43-.5C41.62,69.42,37.68,68.8,34.13,69.65Z"/><path class="cls-2" d="M53.34,118.83c-6.9,1.67-14-2.2-18.18-7a30.29,30.29,0,0,1-5.8-10.07,45.28,45.28,0,0,1-2.15-10.3,37.37,37.37,0,0,1,.19-11,13.76,13.76,0,0,1,5.83-9.31c4.26-2.62,9.39-1.85,14.35-1.1,1.08.17,2.19.33,3.25.46a41.57,41.57,0,0,0,25.25-5.46A43.6,43.6,0,0,0,93.45,46.92c.07-.15.15-.31.23-.46.67-1.4,1.28-2.85,1.87-4.24A58.65,58.65,0,0,1,99,35.11c2.63-4.37,6.17-7.18,10-7.91a12.16,12.16,0,0,1,9.19,2.22,17.37,17.37,0,0,1,6.14,7.76,44.55,44.55,0,0,1,2.35,14c.06,4.5-.51,10.51-3.58,13.57-.72.71-1.52,1.37-2.29,2a14.2,14.2,0,0,0-4,4.31c-1.84,3.64-.17,8,1.24,10.92l.54,1.1c1.55,3.17,3.15,6.44,2.72,10-.69,5.82-6.78,9.62-12.16,10.24-4.84.56-9.64-.68-14.28-1.87L92.65,101c-5.12-1.27-11.05-2.28-16.23-.18-4.23,1.71-7.42,5.25-10.5,8.67-2.46,2.74-5,5.57-8.07,7.45a15.8,15.8,0,0,1-3.52,1.65Q53.84,118.71,53.34,118.83ZM36.76,70.43a10.89,10.89,0,0,0-3.21,1.32c-2.77,1.7-4.79,5-5.56,8.91a36.77,36.77,0,0,0-.17,10.78,43.76,43.76,0,0,0,2.11,10.16,30,30,0,0,0,5.69,9.88c4.23,4.83,11.59,8.72,18.52,6.5a15.24,15.24,0,0,0,3.39-1.58c3-1.84,5.51-4.64,7.94-7.34,3.13-3.48,6.37-7.07,10.72-8.83,5.35-2.17,11.39-1.14,16.6.15l2.17.55c4.58,1.17,9.33,2.39,14.06,1.85a15.67,15.67,0,0,0,1.77-.32c4.63-1.12,9.28-4.5,9.86-9.4.41-3.38-1.16-6.58-2.67-9.67-.18-.37-.36-.73-.53-1.1-1.47-3.06-3.2-7.57-1.25-11.45a14.84,14.84,0,0,1,4.17-4.51c.76-.62,1.55-1.27,2.24-2,5.13-5.12,3.61-20.58,1.1-27-2.23-5.68-8.33-10.82-14.66-9.61h0c-4.91.94-8.1,5.18-9.57,7.63a57.26,57.26,0,0,0-3.37,7c-.6,1.41-1.21,2.86-1.89,4.27-.07.16-.15.31-.23.47A44.18,44.18,0,0,1,76.38,65.65a42.09,42.09,0,0,1-25.62,5.54c-1.07-.13-2.19-.29-3.27-.46C43.85,70.18,40.12,69.62,36.76,70.43Z"/><path class="cls-2" d="M54.92,117.11a15.12,15.12,0,0,1-9-.72,21.6,21.6,0,0,1-8.31-5.82A28.59,28.59,0,0,1,32,101a39.72,39.72,0,0,1-2-9.85,35,35,0,0,1,.34-10.37A13.25,13.25,0,0,1,36,72c4-2.49,8.91-1.79,13.61-1.1,1,.14,2.08.3,3.09.41A39.67,39.67,0,0,0,76.64,66,42.05,42.05,0,0,0,93.15,48.71c.07-.15.14-.3.22-.44.63-1.31,1.21-2.65,1.78-4a54.67,54.67,0,0,1,3.3-6.75c2.51-4.1,5.89-6.73,9.49-7.39h0a11.56,11.56,0,0,1,8.69,2.14,16.51,16.51,0,0,1,5.78,7.36A42.31,42.31,0,0,1,124.59,53c0,4.25-.5,9.93-3.41,12.84-.68.68-1.44,1.3-2.17,1.9a13.47,13.47,0,0,0-3.79,4.09c-1.74,3.44-.2,7.54,1.11,10.33.17.34.33.69.5,1,1.44,3,2.93,6.11,2.51,9.48a10.08,10.08,0,0,1-4,6.65,15.22,15.22,0,0,1-7.52,3.07c-4.59.55-9.14-.59-13.54-1.7l-2-.5c-4.85-1.17-10.47-2.1-15.38-.11-4,1.61-7,5-10,8.19-2.35,2.58-4.77,5.26-7.69,7a15,15,0,0,1-3.34,1.56C55.54,117,55.23,117,54.92,117.11ZM39.39,71.2a10.82,10.82,0,0,0-3.08,1.26A12.66,12.66,0,0,0,31,80.89a34.15,34.15,0,0,0-.34,10.2,38.49,38.49,0,0,0,1.94,9.7,27.81,27.81,0,0,0,5.49,9.39c4,4.55,11,8.2,17.57,6.11a14.5,14.5,0,0,0,3.21-1.49c2.84-1.75,5.24-4.39,7.56-6.94,3-3.28,6-6.68,10.18-8.35,5.06-2.05,10.8-1.1,15.74.09l2,.51c4.35,1.09,8.85,2.21,13.33,1.68,4.86-.58,10.38-4,11-9.2.4-3.2-1-6.23-2.46-9.15-.16-.35-.33-.7-.5-1-1.36-2.9-3-7.18-1.1-10.85a14.12,14.12,0,0,1,3.94-4.28c.72-.59,1.47-1.21,2.13-1.86,4.84-4.84,3.44-19.47,1.09-25.5-2.08-5.35-7.81-10.23-13.8-9.13-4.64.85-7.69,4.82-9.09,7.11a55.63,55.63,0,0,0-3.27,6.67c-.56,1.31-1.15,2.66-1.79,4-.07.15-.15.29-.22.44A42.51,42.51,0,0,1,76.93,66.49a40.22,40.22,0,0,1-24.29,5.37c-1-.11-2.09-.27-3.12-.42C46.09,71,42.56,70.44,39.39,71.2Z"/><path class="cls-2" d="M56.49,115.4a14.47,14.47,0,0,1-8.49-.67,20.78,20.78,0,0,1-7.88-5.45,27,27,0,0,1-5.41-9.11,35,35,0,0,1-1.79-9.38A34.31,34.31,0,0,1,33.43,81c.46-2.17,1.77-6.13,5.33-8.31,3.84-2.36,8.43-1.72,12.87-1.11,1,.13,2,.27,2.94.37a37.76,37.76,0,0,0,22.62-5.12A40.45,40.45,0,0,0,92.85,50.49l.21-.42c.59-1.2,1.15-2.45,1.68-3.65A52.21,52.21,0,0,1,97.94,40c2.4-3.83,5.6-6.27,9-6.87a11,11,0,0,1,8.17,2.06,15.28,15.28,0,0,1,5.42,7,39.71,39.71,0,0,1,2,12.54c0,4-.5,9.37-3.24,12.12-.65.64-1.36,1.23-2,1.8a12.86,12.86,0,0,0-3.58,3.87c-1.65,3.23-.23,7.11,1,9.74l.47,1c1.33,2.83,2.71,5.76,2.29,8.94a9.6,9.6,0,0,1-3.84,6.28,14.54,14.54,0,0,1-7.1,2.93c-4.34.53-8.64-.52-12.8-1.53l-1.92-.47c-4.58-1.08-9.89-1.93-14.53,0-3.77,1.53-6.65,4.67-9.43,7.71a35.19,35.19,0,0,1-7.29,6.64,14.52,14.52,0,0,1-3.16,1.47Q56.93,115.3,56.49,115.4ZM42,72a9.91,9.91,0,0,0-3,1.2C35.7,75.25,34.45,79,34,81.12a33.21,33.21,0,0,0-.49,9.62A34,34,0,0,0,35.26,100a26.07,26.07,0,0,0,5.3,8.9c3.84,4.27,10.46,7.69,16.62,5.72a13.62,13.62,0,0,0,3-1.41,35.27,35.27,0,0,0,7.16-6.53c2.83-3.09,5.74-6.28,9.64-7.86,4.79-1.94,10.21-1.08,14.88,0l1.93.47c4.1,1,8.35,2,12.59,1.52a13.19,13.19,0,0,0,1.48-.27c4.16-1,8.38-4.06,8.95-8.43.39-3-.95-5.87-2.24-8.63l-.47-1c-1.26-2.74-2.74-6.79-1-10.25a13.47,13.47,0,0,1,3.73-4c.68-.56,1.38-1.14,2-1.76,4.56-4.57,3.28-18.35,1.09-24-1.93-5-7.3-9.64-12.94-8.66h0c-4.37.77-7.27,4.47-8.62,6.61a51,51,0,0,0-3.15,6.32c-.54,1.2-1.1,2.46-1.7,3.67l-.21.42A41,41,0,0,1,77.48,67.34a38.43,38.43,0,0,1-23,5.19c-1-.1-2-.24-3-.37C48.32,71.71,45,71.26,42,72Z"/><path class="cls-2" d="M58.06,113.68a13.67,13.67,0,0,1-8-.62A19.71,19.71,0,0,1,42.6,108a24.89,24.89,0,0,1-5.21-8.63,30.39,30.39,0,0,1-1.61-8.92,32.5,32.5,0,0,1,.67-9.2c.46-2,1.73-5.77,5.08-7.82,3.62-2.21,7.95-1.65,12.13-1.11.92.12,1.87.24,2.78.33a35.9,35.9,0,0,0,21.3-4.95A38.81,38.81,0,0,0,92.55,52.27c.06-.13.13-.26.2-.39.56-1.11,1.08-2.25,1.58-3.36a49.74,49.74,0,0,1,3.1-6c2.29-3.57,5.32-5.82,8.53-6.35a10.37,10.37,0,0,1,7.66,2,14.38,14.38,0,0,1,5,6.56,37.19,37.19,0,0,1,1.86,11.79c0,3.76-.49,8.79-3.08,11.39-.6.6-1.27,1.16-1.92,1.7a12.22,12.22,0,0,0-3.37,3.64c-1.56,3-.26,6.68.86,9.16.13.31.28.62.42.93,1.22,2.67,2.49,5.42,2.08,8.41a9.18,9.18,0,0,1-3.64,5.92,13.81,13.81,0,0,1-6.69,2.77c-4.09.52-8.14-.44-12.06-1.36l-1.8-.43c-4.32-1-9.31-1.75-13.67,0-3.56,1.44-6.27,4.38-8.9,7.23a33.87,33.87,0,0,1-6.9,6.23,13.85,13.85,0,0,1-3,1.38C58.6,113.54,58.33,113.62,58.06,113.68ZM44.65,72.75a10,10,0,0,0-2.82,1.15c-3.17,1.94-4.38,5.5-4.83,7.45a32.61,32.61,0,0,0-.65,9.05,30,30,0,0,0,1.58,8.76A24.3,24.3,0,0,0,43,107.59c3.38,3.68,9.52,7.28,15.68,5.32a12.88,12.88,0,0,0,2.86-1.32,33.21,33.21,0,0,0,6.78-6.13c2.67-2.89,5.43-5.88,9.1-7.37,4.51-1.83,9.61-1,14,0l1.8.42c3.87.91,7.87,1.86,11.86,1.35,4.29-.55,9.2-3.61,9.83-8.19.39-2.83-.84-5.51-2-8.1l-.43-.94c-1.16-2.58-2.51-6.39-.84-9.65a12.92,12.92,0,0,1,3.51-3.82c.64-.53,1.3-1.08,1.89-1.67,4.27-4.28,3.11-17.23,1.09-22.57-1.79-4.71-6.8-9.05-12.08-8.18-4.12.68-6.87,4.11-8.15,6.1a47,47,0,0,0-3.06,6c-.5,1.11-1,2.26-1.59,3.38-.07.13-.14.26-.2.39A39.44,39.44,0,0,1,78,68.18a36.5,36.5,0,0,1-21.65,5c-.92-.09-1.87-.21-2.8-.33C50.56,72.48,47.45,72.07,44.65,72.75Z"/><path class="cls-2" d="M59.59,112c-5.72,1.38-11.34-1.92-14.51-5.3a23,23,0,0,1-5-8.14,27.5,27.5,0,0,1-1.44-8.47,32.21,32.21,0,0,1,.83-8.62c.46-1.91,1.7-5.39,4.83-7.31,3.41-2.08,7.47-1.59,11.39-1.12.87.11,1.77.22,2.63.29a34.11,34.11,0,0,0,20-4.77,37.39,37.39,0,0,0,14-14.49c.06-.12.12-.24.19-.36.52-1,1-2,1.48-3.06a45.28,45.28,0,0,1,3-5.68c2.18-3.3,5-5.37,8-5.84A9.78,9.78,0,0,1,112.11,41a13.46,13.46,0,0,1,4.7,6.15c2,5.25,3,17.47-1.22,21.7a23.11,23.11,0,0,1-1.81,1.61,11.69,11.69,0,0,0-3.15,3.41c-1.46,2.84-.29,6.25.73,8.57.12.29.25.58.38.87,1.12,2.5,2.27,5.08,1.86,7.89-.66,4.6-5.39,7.59-9.71,8.17-3.84.51-7.64-.36-11.32-1.2l-1.68-.38c-4-.89-8.74-1.58-12.82.08-3.33,1.35-5.89,4.09-8.36,6.74a31.56,31.56,0,0,1-6.52,5.83,13,13,0,0,1-2.8,1.29ZM47.28,73.52a9.36,9.36,0,0,0-2.69,1.1c-3,1.81-4.14,5.14-4.58,7a31.51,31.51,0,0,0-.81,8.47,26.75,26.75,0,0,0,1.4,8.3,22.43,22.43,0,0,0,4.89,7.94c3.2,3.42,9,6.76,14.73,4.93A12.13,12.13,0,0,0,62.9,110a31.44,31.44,0,0,0,6.4-5.73c2.51-2.7,5.11-5.48,8.56-6.88,4.22-1.72,9-1,13.15-.11l1.68.38c3.63.83,7.39,1.69,11.12,1.19,4-.54,8.62-3.41,9.24-7.7.38-2.64-.74-5.14-1.82-7.57l-.39-.88c-1.06-2.42-2.28-6-.71-9a12.39,12.39,0,0,1,3.29-3.59c.6-.5,1.23-1,1.77-1.57C117,66.68,118,63,118,58.22a34.82,34.82,0,0,0-1.67-10.84c-1.64-4.39-6.28-8.47-11.22-7.71-2.85.44-5.58,2.43-7.67,5.59a43.14,43.14,0,0,0-3,5.61c-.48,1-1,2.06-1.49,3.08l-.2.37A37.78,37.78,0,0,1,78.58,69a34.63,34.63,0,0,1-20.32,4.85c-.87-.07-1.77-.18-2.64-.29C52.79,73.24,49.9,72.89,47.28,73.52Z"/><path class="cls-2" d="M61.17,110.26c-5.33,1.29-10.62-1.76-13.61-4.88a21.24,21.24,0,0,1-4.81-7.66,23.3,23.3,0,0,1-1.26-8,30.89,30.89,0,0,1,1-8,11,11,0,0,1,4.58-6.81c3.19-2,7-1.53,10.65-1.12.81.09,1.66.18,2.47.24a32.19,32.19,0,0,0,18.67-4.6A36,36,0,0,0,92,55.84l.18-.34c.48-.92.93-1.85,1.37-2.76a41.36,41.36,0,0,1,2.91-5.34c2.06-3,4.75-4.91,7.57-5.31a9.17,9.17,0,0,1,6.63,1.84,12.51,12.51,0,0,1,4.33,5.75A32.87,32.87,0,0,1,116.48,60c0,3.27-.48,7.65-2.75,9.94-.53.53-1.12,1-1.69,1.51a11,11,0,0,0-2.94,3.19c-1.37,2.64-.31,5.82.6,8,.11.27.23.54.35.82,1,2.33,2,4.74,1.64,7.35-.65,4.28-5.07,7.09-9.1,7.65-3.59.5-7.14-.28-10.58-1L90.45,97c-3.78-.8-8.16-1.4-12,.15-3.11,1.26-5.5,3.8-7.82,6.26a30.22,30.22,0,0,1-6.13,5.42,12.6,12.6,0,0,1-2.63,1.2Zm-11.26-36a8.84,8.84,0,0,0-2.56,1C44.6,77,43.45,80.12,43,81.82a30.73,30.73,0,0,0-1,7.89,23.15,23.15,0,0,0,1.23,7.83A20.6,20.6,0,0,0,48,105c3,3.15,8.44,6.22,13.77,4.53a12,12,0,0,0,2.52-1.14,29.9,29.9,0,0,0,6-5.33c2.35-2.5,4.79-5.09,8-6.4,4-1.6,8.43-1,12.29-.17l1.57.34c3.39.74,6.89,1.51,10.38,1,3.83-.53,8-3.17,8.64-7.19.37-2.45-.63-4.78-1.61-7l-.35-.83c-1-2.26-2.06-5.6-.58-8.44A11.65,11.65,0,0,1,111.69,71c.56-.47,1.14-1,1.65-1.47,1.66-1.68,2.58-5.07,2.59-9.55a32.34,32.34,0,0,0-1.51-10.09c-1.49-4.07-5.77-7.88-10.36-7.23-2.67.38-5.22,2.18-7.19,5.07A40.17,40.17,0,0,0,94,53c-.44.91-.9,1.85-1.38,2.78-.06.11-.13.22-.19.34a36.36,36.36,0,0,1-13.3,13.76,32.73,32.73,0,0,1-19,4.68c-.82-.06-1.66-.15-2.48-.25A23.1,23.1,0,0,0,49.91,74.3Z"/><path class="cls-2" d="M62.76,108.54a11.46,11.46,0,0,1-6.56-.46,16.54,16.54,0,0,1-6.16-4,19.47,19.47,0,0,1-4.62-7.18,20.47,20.47,0,0,1-1.08-7.55,31.06,31.06,0,0,1,1.15-7.44,10.5,10.5,0,0,1,4.34-6.31c3-1.82,6.49-1.47,9.9-1.13.76.07,1.55.15,2.31.2A30.39,30.39,0,0,0,79.4,70.24,34.47,34.47,0,0,0,91.65,57.62l.17-.32c.44-.81.86-1.64,1.26-2.45a38.83,38.83,0,0,1,2.82-5c1.95-2.75,4.47-4.46,7.09-4.79a8.52,8.52,0,0,1,6.11,1.76,11.59,11.59,0,0,1,4,5.35,30.62,30.62,0,0,1,1.37,9.53c0,3-.48,7.08-2.58,9.21-.49.5-1,1-1.57,1.41a10.37,10.37,0,0,0-2.73,3c-1.27,2.43-.34,5.38.47,7.39l.31.76c.9,2.17,1.82,4.4,1.43,6.82-.65,4-4.76,6.59-8.49,7.13-3.34.49-6.64-.2-9.84-.86L90,96.24c-3.69-.74-7.59-1.22-11.12.21C76,97.63,73.77,100,71.6,102.23a28.11,28.11,0,0,1-5.73,5,12.12,12.12,0,0,1-2.45,1.11Q63.09,108.47,62.76,108.54ZM52.55,75.07a8.3,8.3,0,0,0-2.44,1,10,10,0,0,0-4.1,6,30.55,30.55,0,0,0-1.13,7.32,19.93,19.93,0,0,0,1,7.35,18.94,18.94,0,0,0,4.49,7c2.84,2.88,7.91,5.7,12.83,4.14a10.84,10.84,0,0,0,2.34-1.06,27.77,27.77,0,0,0,5.62-4.92c2.21-2.31,4.49-4.69,7.48-5.91,3.66-1.49,7.65-1,11.43-.24l1.44.3c3.15.66,6.41,1.33,9.65.86,3.53-.52,7.43-3,8-6.69.37-2.27-.52-4.43-1.39-6.52-.1-.26-.21-.51-.31-.77-.85-2.1-1.83-5.21-.45-7.84A10.86,10.86,0,0,1,110,71.91c.52-.44,1.06-.89,1.54-1.37,3.46-3.51,2.66-13.77,1.08-18.18s-5.65-7.25-9.51-6.75a10.09,10.09,0,0,0-6.72,4.56,38.26,38.26,0,0,0-2.78,4.92c-.4.81-.82,1.65-1.27,2.47-.05.11-.11.21-.17.32A35,35,0,0,1,79.68,70.71,31.05,31.05,0,0,1,62,75.21c-.77,0-1.57-.13-2.33-.2A21.83,21.83,0,0,0,52.55,75.07Z"/><path class="cls-2" d="M64.3,106.83c-4.53,1.09-9-1.32-11.78-4a17.7,17.7,0,0,1-4.42-6.69,17.07,17.07,0,0,1-.9-7.1,29.91,29.91,0,0,1,1.31-6.86,10,10,0,0,1,4.08-5.8c2.76-1.68,6-1.41,9.16-1.14.71.06,1.45.13,2.16.16A28.66,28.66,0,0,0,80,71.1,33.16,33.16,0,0,0,91.35,59.4l.16-.29c.4-.71.78-1.44,1.14-2.14a36.44,36.44,0,0,1,2.74-4.65A9.82,9.82,0,0,1,102,48.05h0c3.78-.42,7.74,2.43,9.21,6.63,1.41,4,2.26,13.74-1.2,17.26-.45.46-1,.89-1.45,1.31A9.88,9.88,0,0,0,106,76c-1.17,2.22-.43,4.8.34,6.81.09.24.19.47.28.71.78,2,1.59,4,1.2,6.28-.63,3.64-4.44,6.09-7.87,6.62-3.08.48-6.14-.12-9.1-.7l-1.32-.25c-3.41-.65-7-1.06-10.26.27-2.67,1.09-4.75,3.23-6.76,5.3a26.32,26.32,0,0,1-5.35,4.61,11.16,11.16,0,0,1-2.27,1Zm-9.12-31a7.81,7.81,0,0,0-2.31.94A9.54,9.54,0,0,0,49,82.28,29.42,29.42,0,0,0,47.73,89a16.73,16.73,0,0,0,.87,6.89,17.29,17.29,0,0,0,4.29,6.49c2.78,2.75,7.37,5.17,11.88,3.75a10.4,10.4,0,0,0,2.17-1,26,26,0,0,0,5.23-4.52c2-2.11,4.17-4.29,6.94-5.42,3.37-1.38,7.07-1,10.56-.31l1.32.26c2.91.57,5.93,1.16,8.92.69,3.24-.5,6.84-2.78,7.43-6.18.37-2.08-.42-4.07-1.17-6-.1-.23-.19-.47-.28-.71-.75-1.95-1.6-4.82-.32-7.24a10.22,10.22,0,0,1,2.65-2.91,18.93,18.93,0,0,0,1.41-1.28c3.17-3.22,2.5-12.65,1.08-16.71s-5.11-6.67-8.65-6.28a9.34,9.34,0,0,0-6.24,4.06,35.28,35.28,0,0,0-2.7,4.59c-.37.7-.75,1.43-1.15,2.15l-.16.29A33.65,33.65,0,0,1,80.23,71.55a29.16,29.16,0,0,1-16.35,4.33c-.71,0-1.46-.1-2.17-.16A20.66,20.66,0,0,0,55.18,75.84Z"/><path class="cls-2" d="M65.88,105.11c-4.14,1-8.3-1.17-10.88-3.63a16.07,16.07,0,0,1-4.22-6.21,14.44,14.44,0,0,1-.72-6.64,29.23,29.23,0,0,1,1.47-6.27,9.56,9.56,0,0,1,3.83-5.31c2.54-1.54,5.53-1.33,8.41-1.13.66,0,1.35.09,2,.11A26.87,26.87,0,0,0,80.51,72,31.85,31.85,0,0,0,91.05,61.18l.15-.26c.35-.61.69-1.23,1-1.82a30.59,30.59,0,0,1,2.67-4.33A9,9,0,0,1,101,51c3.46-.31,7,2.33,8.34,6.15,1.24,3.66,2,12.55-1.2,15.78-.42.43-.88.82-1.33,1.21a9,9,0,0,0-2.31,2.52c-1.07,2-.45,4.39.21,6.22l.24.66c.68,1.82,1.38,3.71,1,5.75-.62,3.32-4.12,5.58-7.26,6.09a24.42,24.42,0,0,1-8.36-.53l-1.2-.21c-3.13-.54-6.43-.88-9.41.34-2.44,1-4.36,2.94-6.22,4.81a24.83,24.83,0,0,1-5,4.21,10.7,10.7,0,0,1-2.09.93Q66.17,105.05,65.88,105.11Zm-8.06-28.5a7.54,7.54,0,0,0-2.19.89,9.06,9.06,0,0,0-3.61,5,29.09,29.09,0,0,0-1.45,6.16,14,14,0,0,0,.7,6.42,15.62,15.62,0,0,0,4.08,6c2.6,2.46,6.83,4.64,10.94,3.35a9.68,9.68,0,0,0,2-.88,24.54,24.54,0,0,0,4.85-4.12c1.9-1.92,3.86-3.9,6.39-4.93,3.1-1.27,6.5-.93,9.7-.37l1.2.21a24.19,24.19,0,0,0,8.18.53c3-.49,6.26-2.59,6.84-5.68.36-1.9-.31-3.71-1-5.47q-.14-.33-.24-.66c-.7-1.94-1.36-4.45-.19-6.64a9.68,9.68,0,0,1,2.43-2.67c.44-.38.9-.77,1.3-1.19,2.88-2.94,2.33-11.55,1.07-15.25s-4.57-6.09-7.79-5.8a8.49,8.49,0,0,0-5.76,3.55,31.9,31.9,0,0,0-2.63,4.26c-.33.6-.66,1.22-1,1.83l-.15.26a32.46,32.46,0,0,1-10.72,11,27.29,27.29,0,0,1-15,4.16c-.67,0-1.36-.07-2-.11A19.76,19.76,0,0,0,57.82,76.61Z"/><path class="cls-2" d="M67.46,103.4c-3.21.77-6.9-.41-10-3.21a14.4,14.4,0,0,1-4-5.74,12.09,12.09,0,0,1-.55-6.18,29.8,29.8,0,0,1,1.63-5.69,9,9,0,0,1,3.58-4.8c2.33-1.4,5.05-1.27,7.67-1.14.61,0,1.25.06,1.85.07A25,25,0,0,0,81.06,72.8,30.68,30.68,0,0,0,90.75,63c0-.08.1-.16.14-.24.3-.49.6-1,.88-1.49a29,29,0,0,1,2.61-4A8.16,8.16,0,0,1,100,54c3.12-.2,6.32,2.24,7.45,5.68a23.54,23.54,0,0,1,.89,7.27c-.06,2.29-.46,5.36-2.08,7-.38.39-.8.76-1.21,1.11a8.59,8.59,0,0,0-2.1,2.3c-1,1.82-.47,4,.09,5.64.06.19.13.39.2.59a9.87,9.87,0,0,1,.77,5.22c-.65,3.14-3.9,5.09-6.65,5.58a22.68,22.68,0,0,1-7.63-.37l-1.06-.17c-2.85-.44-5.87-.7-8.57.41a18.31,18.31,0,0,0-5.68,4.33,23.32,23.32,0,0,1-4.57,3.8,9.75,9.75,0,0,1-1.92.84Zm-7-26a7.16,7.16,0,0,0-2.08.84A8.65,8.65,0,0,0,55,82.75a30.16,30.16,0,0,0-1.61,5.59,11.71,11.71,0,0,0,.53,5.94,13.82,13.82,0,0,0,3.88,5.53c2.4,2.19,6.28,4.12,10,3a9.29,9.29,0,0,0,1.82-.79,22.78,22.78,0,0,0,4.46-3.72,19,19,0,0,1,5.85-4.45c2.82-1.15,5.91-.89,8.83-.43l1.08.17a22.17,22.17,0,0,0,7.45.37c2.67-.47,5.67-2.41,6.24-5.18a9.47,9.47,0,0,0-.75-4.95l-.21-.6c-.58-1.77-1.12-4,0-6a9.21,9.21,0,0,1,2.21-2.44c.4-.35.82-.71,1.19-1.09,2.7-2.78,2.12-10.57,1.07-13.79s-4-5.51-6.94-5.32h0a7.67,7.67,0,0,0-5.29,3,28.72,28.72,0,0,0-2.56,3.94c-.29.49-.58,1-.88,1.5l-.15.24a31.27,31.27,0,0,1-9.85,10,25.51,25.51,0,0,1-13.69,4c-.62,0-1.26,0-1.88-.07A18.66,18.66,0,0,0,60.47,77.38Z"/><path class="cls-2" d="M69,101.68c-2.88.7-6.24-.33-9.07-2.79a12.6,12.6,0,0,1-3.82-5.25,10.14,10.14,0,0,1-.37-5.74,23.88,23.88,0,0,1,1.44-4.22c.11-.29.23-.58.35-.88a8.52,8.52,0,0,1,3.33-4.29c2.11-1.27,4.55-1.2,6.92-1.14.56,0,1.14,0,1.7,0a23.42,23.42,0,0,0,12.11-3.73,30.05,30.05,0,0,0,8.83-8.92l.14-.21.71-1.15a26.37,26.37,0,0,1,2.57-3.7A7.37,7.37,0,0,1,99,57c2.79-.09,5.62,2.14,6.57,5.2S107,72.33,104.43,75c-.34.36-.73.7-1.09,1a7.87,7.87,0,0,0-1.89,2.08c-.89,1.62-.49,3.55,0,5,0,.18.11.36.16.54a8.86,8.86,0,0,1,.55,4.69c-.63,2.8-3.57,4.58-6,5a20.65,20.65,0,0,1-6.89-.2l-.94-.13c-2.57-.34-5.29-.52-7.71.47a17.25,17.25,0,0,0-5.15,3.85,21.3,21.3,0,0,1-4.19,3.4,8.79,8.79,0,0,1-1.74.75Zm-5.9-23.54a6.92,6.92,0,0,0-2,.8A8,8,0,0,0,58,83c-.11.29-.23.59-.35.88A23.14,23.14,0,0,0,56.26,88a9.57,9.57,0,0,0,.34,5.47,12.21,12.21,0,0,0,3.68,5c2.85,2.48,6.23,3.44,9,2.57a8.31,8.31,0,0,0,1.64-.71,20.81,20.81,0,0,0,4.09-3.32,17.75,17.75,0,0,1,5.3-4c2.53-1,5.32-.85,8-.5l.94.13a20.47,20.47,0,0,0,6.72.2c2.31-.44,5.07-2.09,5.65-4.67a8.58,8.58,0,0,0-.54-4.43c-.06-.19-.11-.37-.17-.55-.47-1.59-.89-3.65.08-5.43a8.61,8.61,0,0,1,2-2.21c.36-.32.73-.65,1.06-1,2.4-2.49,2-9.45,1.07-12.32s-3.51-4.94-6.08-4.85h0A6.89,6.89,0,0,0,94.25,60a25.46,25.46,0,0,0-2.53,3.64L91,64.8c-.05.07-.1.14-.14.21a30.5,30.5,0,0,1-9,9.07,23.86,23.86,0,0,1-12.37,3.81c-.56,0-1.15,0-1.72,0A17.65,17.65,0,0,0,63.13,78.14Z"/><path class="cls-2" d="M70.61,100c-2.56.62-5.58-.25-8.17-2.37a11,11,0,0,1-3.63-4.77,8.36,8.36,0,0,1-.18-5.28A19.41,19.41,0,0,1,60,84.3c.2-.41.41-.84.61-1.27a8,8,0,0,1,3.08-3.79c1.89-1.14,4.06-1.14,6.16-1.14l1.55,0a21.8,21.8,0,0,0,10.8-3.57,29.16,29.16,0,0,0,8-8l.13-.19.51-.77a23.46,23.46,0,0,1,2.58-3.43A6.58,6.58,0,0,1,98.06,60a6.33,6.33,0,0,1,5.69,4.72c.81,2.77,1.11,8.93-1.18,11.33-.31.33-.65.63-1,.92a7.68,7.68,0,0,0-1.67,1.86,6,6,0,0,0-.17,4.47c0,.16.08.32.13.48a8.17,8.17,0,0,1,.33,4.15C99.59,90.36,97,92,94.79,92.42a18.93,18.93,0,0,1-6.15,0l-.82-.09a14,14,0,0,0-6.86.53,16.15,16.15,0,0,0-4.61,3.37,19.56,19.56,0,0,1-3.8,3,8.38,8.38,0,0,1-1.56.66ZM65.8,78.9a6.57,6.57,0,0,0-1.89.76A7.56,7.56,0,0,0,61,83.23c-.2.44-.41.87-.61,1.29a17.92,17.92,0,0,0-1.31,3.15,7.72,7.72,0,0,0,.17,5,10.52,10.52,0,0,0,3.48,4.56c2.59,2.13,5.62,2.94,8.1,2.18a8,8,0,0,0,1.47-.62A19.41,19.41,0,0,0,76,95.85a16.39,16.39,0,0,1,4.75-3.46,14.53,14.53,0,0,1,7.11-.57l.81.09a18.58,18.58,0,0,0,6,0c2-.43,4.48-1.92,5-4.18a7.63,7.63,0,0,0-.34-3.91l-.12-.48a6.48,6.48,0,0,1,.21-4.83,8,8,0,0,1,1.78-2c.32-.29.65-.58,1-.89,2.13-2.24,1.83-8.26,1.06-10.86a5.9,5.9,0,0,0-5.23-4.37,6.11,6.11,0,0,0-4.33,2,22.65,22.65,0,0,0-2.52,3.36l-.52.78-.13.19a29.58,29.58,0,0,1-8.12,8.12,22.18,22.18,0,0,1-11,3.64c-.52,0-1,0-1.57,0A17.9,17.9,0,0,0,65.8,78.9Z"/><path class="cls-2" d="M72.17,98.25a8.8,8.8,0,0,1-7.25-2A9.61,9.61,0,0,1,61.49,92a6.7,6.7,0,0,1,0-4.83,15.5,15.5,0,0,1,1.31-2.53c.27-.45.55-.92.8-1.39A7.94,7.94,0,0,1,66.42,80a11,11,0,0,1,5.41-1.14l1.41-.07a20.19,20.19,0,0,0,9.48-3.4,29.41,29.41,0,0,0,7.14-7.06l.38-.53a19.35,19.35,0,0,1,2.63-3.18,5.75,5.75,0,0,1,4.2-1.65h0a5.62,5.62,0,0,1,4.81,4.24c.65,2.4.81,7.75-1.17,9.85-.27.29-.57.56-.86.83a6.79,6.79,0,0,0-1.46,1.63,5.58,5.58,0,0,0-.3,3.89l.09.42a7.35,7.35,0,0,1,.12,3.62c-.62,2.14-2.86,3.55-4.81,4a17.35,17.35,0,0,1-5.42.14l-.68,0a13.06,13.06,0,0,0-6,.6A15,15,0,0,0,77.31,95a18.39,18.39,0,0,1-3.43,2.59,7.74,7.74,0,0,1-1.38.57Zm-3.68-18.6a7,7,0,0,0-1.83.72A7.67,7.67,0,0,0,64,83.47c-.25.49-.54,1-.81,1.42a14.54,14.54,0,0,0-1.27,2.44,6.16,6.16,0,0,0,0,4.51,9.12,9.12,0,0,0,3.27,4.08c2.36,1.79,5,2.44,7.15,1.78a6.83,6.83,0,0,0,1.3-.53A18,18,0,0,0,77,94.64a15.56,15.56,0,0,1,4.2-3,13.4,13.4,0,0,1,6.24-.63l.68,0A17.28,17.28,0,0,0,93.38,91c1.82-.42,3.9-1.72,4.46-3.67a7,7,0,0,0-.13-3.4c0-.14-.06-.28-.08-.42A5.92,5.92,0,0,1,98,79.25a7.41,7.41,0,0,1,1.55-1.75c.28-.25.57-.52.83-.79,1.86-2,1.69-7.09,1.06-9.41a5.14,5.14,0,0,0-4.37-3.89,5.36,5.36,0,0,0-3.86,1.53,19.7,19.7,0,0,0-2.57,3.11l-.38.53A29.87,29.87,0,0,1,83,75.76a20.58,20.58,0,0,1-9.71,3.47c-.47,0-1,0-1.42.07A17.9,17.9,0,0,0,68.49,79.65Z"/><path class="cls-2" d="M73.72,96.54a9.33,9.33,0,0,1-9.55-5.35,5.32,5.32,0,0,1,.18-4.39,12.49,12.49,0,0,1,1.32-2,14.22,14.22,0,0,0,1-1.35,8,8,0,0,1,2.57-2.77,10.72,10.72,0,0,1,4.64-1.13c.42,0,.85-.07,1.27-.12a18.52,18.52,0,0,0,8.17-3.22,30.7,30.7,0,0,0,6.29-6.14l.11-.14a17.18,17.18,0,0,1,2.7-2.9A4.65,4.65,0,0,1,100,69.69c.45,1.91.58,6.47-1.17,8.36a10.18,10.18,0,0,1-.74.73,6.37,6.37,0,0,0-1.25,1.41,5.11,5.11,0,0,0-.42,3.31c0,.12,0,.24,0,.36a6.64,6.64,0,0,1-.1,3.09,6,6,0,0,1-4.18,3.48,16,16,0,0,1-4.7.32l-.54,0a12.58,12.58,0,0,0-5.17.67,14.08,14.08,0,0,0-3.53,2.39,16.09,16.09,0,0,1-3,2.19,7.9,7.9,0,0,1-1.2.48ZM71.23,80.39a6.66,6.66,0,0,0-1.81.7A7.58,7.58,0,0,0,67,83.71c-.3.48-.64.94-1,1.38A12.19,12.19,0,0,0,64.77,87a4.83,4.83,0,0,0-.16,4,7.7,7.7,0,0,0,3.06,3.59c1.23.84,3.66,2.15,6.21,1.39A6.65,6.65,0,0,0,75,95.56,16.09,16.09,0,0,0,78,93.44,14.31,14.31,0,0,1,81.61,91a12.76,12.76,0,0,1,5.36-.7h.54a15.7,15.7,0,0,0,4.57-.3,5.55,5.55,0,0,0,3.86-3.18A6.25,6.25,0,0,0,96,83.92c0-.12,0-.24,0-.36A5.54,5.54,0,0,1,96.46,80a7.14,7.14,0,0,1,1.33-1.51c.24-.23.5-.46.72-.7,1.56-1.69,1.52-6,1.06-7.95A4.47,4.47,0,0,0,96,66.38h0a4.52,4.52,0,0,0-3.38,1A17.56,17.56,0,0,0,90,70.23l-.11.14a31.08,31.08,0,0,1-6.38,6.23,18.85,18.85,0,0,1-8.39,3.3L73.87,80A16.76,16.76,0,0,0,71.23,80.39Z"/><path class="cls-2" d="M75.3,94.82a7.23,7.23,0,0,1-5.4-1.11,6.73,6.73,0,0,1-3.05-3.34,4.14,4.14,0,0,1,.37-4,10.15,10.15,0,0,1,1.36-1.56,11.64,11.64,0,0,0,1.07-1.18A8,8,0,0,1,72,81.42a10.7,10.7,0,0,1,3.87-1.11L77,80.12a17.28,17.28,0,0,0,6.87-3.05,36.85,36.85,0,0,0,5.45-5.22l.1-.11a12,12,0,0,1,2.51-2.26,4.28,4.28,0,0,1,3.24-.58h0a4.22,4.22,0,0,1,3,3.29c.36,1.86.24,5.33-1.16,6.88-.2.22-.41.43-.62.63a6.13,6.13,0,0,0-1,1.19,4.84,4.84,0,0,0-.55,2.74v.29a6.09,6.09,0,0,1-.32,2.56,5.63,5.63,0,0,1-3.56,3,14.51,14.51,0,0,1-4,.5h-.38a12.2,12.2,0,0,0-4.33.73,13.81,13.81,0,0,0-3,1.91,15.26,15.26,0,0,1-2.68,1.79,7.1,7.1,0,0,1-1,.39ZM74.08,81.08a7.11,7.11,0,0,0-1.9.73A7.9,7.9,0,0,0,70,84a13,13,0,0,1-1.11,1.23,10.76,10.76,0,0,0-1.3,1.49,3.64,3.64,0,0,0-.32,3.54,6.25,6.25,0,0,0,2.85,3.11,6.86,6.86,0,0,0,5.27,1,6.14,6.14,0,0,0,.95-.36A14.05,14.05,0,0,0,79,92.22a14.36,14.36,0,0,1,3.07-2,12.58,12.58,0,0,1,4.49-.76h.39A14.3,14.3,0,0,0,90.77,89,5.16,5.16,0,0,0,94,86.31a5.72,5.72,0,0,0,.29-2.38c0-.1,0-.2,0-.29a5.36,5.36,0,0,1,.62-3,6.86,6.86,0,0,1,1.12-1.28c.2-.2.41-.4.59-.61,1.24-1.37,1.41-4.64,1.06-6.48A3.79,3.79,0,0,0,95,69.34h0a3.87,3.87,0,0,0-2.91.53,11.55,11.55,0,0,0-2.41,2.18l-.1.11a37.72,37.72,0,0,1-5.51,5.28,17.69,17.69,0,0,1-7,3.13l-1.15.19C75.29,80.85,74.68,80.94,74.08,81.08Z"/><path class="cls-2" d="M76.86,93.11a6.63,6.63,0,0,1-4.47-.7,5.37,5.37,0,0,1-2.86-2.86,3.16,3.16,0,0,1,.57-3.5,8.19,8.19,0,0,1,1.42-1.21,8.8,8.8,0,0,0,1.16-1l.07-.07a9.09,9.09,0,0,1,2-1.67,11.44,11.44,0,0,1,3-1.07l1-.27a16.8,16.8,0,0,0,5.56-2.88,36.31,36.31,0,0,0,3.23-3c.48-.46.92-.91,1.38-1.34l.09-.08a8,8,0,0,1,2.32-1.61,3.6,3.6,0,0,1,2.77,0,3.53,3.53,0,0,1,2.13,2.81c.19,1.47-.05,4.12-1.16,5.39-.16.18-.33.36-.5.53a6.2,6.2,0,0,0-.83,1,5.15,5.15,0,0,0-.69,2.18l0,.21a6,6,0,0,1-.54,2,5.36,5.36,0,0,1-2.93,2.41,14.3,14.3,0,0,1-3.31.7l-.19,0a13,13,0,0,0-3.5.79,14.29,14.29,0,0,0-2.39,1.41,14.07,14.07,0,0,1-2.34,1.4,7,7,0,0,1-.84.3ZM92.1,72.17a3.74,3.74,0,0,0-.54.17,7.77,7.77,0,0,0-2.19,1.52l-.09.09c-.45.42-.89.86-1.36,1.33a37.39,37.39,0,0,1-3.28,3,16.93,16.93,0,0,1-5.71,3l-1.05.28a11,11,0,0,0-2.94,1,8.66,8.66,0,0,0-1.87,1.6L73,84.2a10.9,10.9,0,0,1-1.21,1,8.38,8.38,0,0,0-1.36,1.14,2.74,2.74,0,0,0-.49,3.06A5.07,5.07,0,0,0,72.59,92a6.11,6.11,0,0,0,4.33.61,4.87,4.87,0,0,0,.78-.28A13.86,13.86,0,0,0,80,91a14.09,14.09,0,0,1,2.47-1.46,13.79,13.79,0,0,1,3.61-.83l.19,0A13.49,13.49,0,0,0,89.45,88a5.05,5.05,0,0,0,2.7-2.2,5.76,5.76,0,0,0,.5-1.9l0-.21a5.57,5.57,0,0,1,.74-2.36,7.49,7.49,0,0,1,.89-1c.17-.17.33-.34.49-.52,1-1.15,1.22-3.68,1-5A3.12,3.12,0,0,0,94,72.3h0A3.05,3.05,0,0,0,92.1,72.17Z"/><path class="cls-2" d="M78.44,91.39a6.22,6.22,0,0,1-3.56-.27,4.42,4.42,0,0,1-2.67-2.38A2.44,2.44,0,0,1,73,85.68a7.69,7.69,0,0,1,1.55-.91,8.14,8.14,0,0,0,1.19-.67l.36-.27a12.38,12.38,0,0,1,1.41-1,16.21,16.21,0,0,1,2.1-.95c.35-.14.72-.28,1.06-.43a17.56,17.56,0,0,0,4.27-2.71c.51-.44,1-.92,1.49-1.38a22.83,22.83,0,0,1,2.29-2l.08-.06a5.24,5.24,0,0,1,2.15-1,3,3,0,0,1,2.28.51h0a3,3,0,0,1,1.22,2.33,6.65,6.65,0,0,1-1.15,3.88l-.41.47a8,8,0,0,0-.61.72,7.06,7.06,0,0,0-.76,1.5l-.09.22a8.11,8.11,0,0,1-.79,1.55,6.17,6.17,0,0,1-2.29,1.87,14.65,14.65,0,0,1-2.63.93l-.28.08a18.56,18.56,0,0,0-2.39.79,16.19,16.19,0,0,0-1.71.88,16.54,16.54,0,0,1-2.11,1,4.87,4.87,0,0,1-.65.21ZM90.76,74.86a5,5,0,0,0-1.73.82l-.08.06a22.85,22.85,0,0,0-2.24,2c-.49.47-1,1-1.51,1.4a17.58,17.58,0,0,1-4.37,2.77c-.36.16-.72.3-1.08.44a17.67,17.67,0,0,0-2,.92,13.54,13.54,0,0,0-1.36.93l-.36.27a8.3,8.3,0,0,1-1.26.7,8.73,8.73,0,0,0-1.47.86,2,2,0,0,0-.64,2.57A4,4,0,0,0,75,90.71a5.61,5.61,0,0,0,3.41.23,4.89,4.89,0,0,0,.62-.19,15,15,0,0,0,2-1,19,19,0,0,1,1.74-.9A20.63,20.63,0,0,1,85.3,88l.28-.08a14.08,14.08,0,0,0,2.56-.9,5.71,5.71,0,0,0,2.12-1.73A7,7,0,0,0,91,83.84l.09-.21A7.24,7.24,0,0,1,91.91,82a7.79,7.79,0,0,1,.64-.76c.13-.15.27-.3.39-.45a6.06,6.06,0,0,0,1-3.6,2.5,2.5,0,0,0-1-2,2.47,2.47,0,0,0-2-.43Z"/><path class="cls-2" d="M80.11,89.65a6.62,6.62,0,0,1-2.72.18,3.25,3.25,0,0,1-2.51-1.91,2.07,2.07,0,0,1,0-1.69c.45-.9,1.7-1.26,2.8-1.57a9.17,9.17,0,0,0,1.11-.35,21.06,21.06,0,0,0,6.68-4.66l.42-.43a9,9,0,0,1,2.62-2.1,3,3,0,0,1,3.77.81c.89,1.44-.15,3.24-.85,4.18a20.2,20.2,0,0,1-10.89,7.44Zm5.5-9.85.15.15a21.83,21.83,0,0,1-6.82,4.75,10,10,0,0,1-1.16.37c-1,.29-2.16.61-2.54,1.35a1.64,1.64,0,0,0,0,1.35,2.82,2.82,0,0,0,2.19,1.64,6.73,6.73,0,0,0,3-.27,19.8,19.8,0,0,0,10.66-7.28c.64-.86,1.59-2.48.83-3.71a2.63,2.63,0,0,0-3.23-.64,8.43,8.43,0,0,0-2.5,2l-.42.43Z"/></g></g></g></svg>