<svg xmlns="http://www.w3.org/2000/svg" viewBox="0 0 156 159.08"><defs><style>.cls-1{opacity:0.28;}.cls-2{fill:#fff;}</style></defs><g id="圖層_2" data-name="圖層 2"><g id="圖層_1-2" data-name="圖層 1"><g class="cls-1"><path class="cls-2" d="M21.41,29.32A44,44,0,0,1,34.35,11,47,47,0,0,1,64.55,0c9.9-.09,20.69,2.52,32.06,7.77a141.8,141.8,0,0,1,29.5,18.76A165.22,165.22,0,0,1,148.7,48.64c6.62,8,8.75,14.9,6.34,20.64-2.52,6-9.33,9.24-20.25,9.71-3.06.13-6.19.19-9.21.25-9.14.17-18.59.35-27.63,2.51-13.84,3.31-24.4,11.15-29,21.51-2.44,5.53-3.14,11.71-3.81,17.68-.61,5.4-1.24,11-3.15,16.16a2.09,2.09,0,0,1-.08.23A34.06,34.06,0,0,1,51.06,152,32.31,32.31,0,0,1,34.21,159a30.89,30.89,0,0,1-17.56-3.66A31.39,31.39,0,0,1,3.82,142.62a33.16,33.16,0,0,1-3.74-18,34.17,34.17,0,0,1,6.08-17.54,68.05,68.05,0,0,1,5.25-6.29,49.28,49.28,0,0,0,6.74-8.67c3.45-6.19,4.44-14.07,3.09-24.81-.29-2.3-.65-4.64-1-6.9-.95-6.06-1.93-12.33-1.54-18.59A43.17,43.17,0,0,1,21.41,29.32Zm127,19.59-.32.27C137.12,36.05,117.78,18.47,96.26,8.53,79.39.74,55.05-5,34.88,11.64A43.49,43.49,0,0,0,19.53,41.89c-.38,6.16.59,12.38,1.53,18.4.36,2.27.73,4.61,1,6.93,1.37,10.92.35,19-3.2,25.32A49.13,49.13,0,0,1,12,101.36a70.12,70.12,0,0,0-5.18,6.21c-7,9.92-7.95,24.17-2.29,34.65a31.13,31.13,0,0,0,29.57,15.89c11.69-1.11,22.77-9.77,27-21.09,0-.07,0-.14.07-.21,1.87-5.08,2.5-10.61,3.1-16,.68-6,1.39-12.28,3.88-17.93A34.64,34.64,0,0,1,80.38,88.58a51.11,51.11,0,0,1,17.37-7.64c9.14-2.19,18.63-2.37,27.82-2.54,3-.06,6.13-.12,9.19-.25,10.56-.45,17.13-3.54,19.5-9.19,2.28-5.43.19-12.09-6.21-19.78Z"/><path class="cls-2" d="M21.65,29a43.33,43.33,0,0,1,12.7-18A47,47,0,0,1,64.55,0c9.91-.09,20.69,2.52,32.06,7.77a142,142,0,0,1,29.5,18.76A165.22,165.22,0,0,1,148.7,48.64c6.62,8,8.75,14.9,6.34,20.64-2.52,6-9.33,9.24-20.25,9.71-3.06.13-6.19.19-9.21.25-9.14.17-18.59.35-27.63,2.51-13.84,3.31-24.4,11.15-29,21.51-2.44,5.53-3.14,11.71-3.81,17.68-.61,5.4-1.24,11-3.15,16.16a33.91,33.91,0,0,1-11,14.92A32.31,32.31,0,0,1,34.21,159a30.89,30.89,0,0,1-17.56-3.66A31.39,31.39,0,0,1,3.82,142.62a32.51,32.51,0,0,1-3.76-14A35.24,35.24,0,0,1,2.53,114.1a37.49,37.49,0,0,1,4.46-8c1.18-1.61,2.48-3.17,3.74-4.67l.07-.09c3-3.59,5.83-7,7.75-11.07a29.44,29.44,0,0,0,2-5.9c1.51-6.63,1.05-13.77.41-19.88-.23-2.13-.52-4.3-.8-6.4-.78-5.83-1.59-11.86-1.08-17.86A42.45,42.45,0,0,1,21.65,29ZM148.37,48.91l-.32.27C137.12,36.05,117.78,18.47,96.26,8.53,79.39.74,55.05-5,34.88,11.64a42.65,42.65,0,0,0-15,28.66c-.51,5.91.3,11.89,1.07,17.68.29,2.1.58,4.28.8,6.42.66,6.18,1.12,13.4-.42,20.16a29.88,29.88,0,0,1-2.06,6.07c-2,4.18-5,7.78-7.86,11.25l-.07.08c-1.25,1.5-2.54,3-3.71,4.64a36.42,36.42,0,0,0-4.36,7.81c-3.62,9-3.14,19.68,1.25,27.81a31.13,31.13,0,0,0,29.57,15.89c11.69-1.11,22.77-9.77,27-21.09,0-.07,0-.14.07-.21,1.87-5.08,2.5-10.61,3.1-16,.68-6,1.39-12.28,3.88-17.93A34.64,34.64,0,0,1,80.38,88.58a51.11,51.11,0,0,1,17.37-7.64c9.14-2.19,18.63-2.37,27.82-2.54,3-.06,6.13-.12,9.19-.25,10.56-.45,17.13-3.54,19.5-9.19,2.28-5.43.19-12.09-6.21-19.78Z"/><path class="cls-2" d="M21.9,28.6a42.83,42.83,0,0,1,2.36-5.21A42.11,42.11,0,0,1,34.35,11,47,47,0,0,1,64.55,0c9.91-.09,20.69,2.52,32.06,7.77a142,142,0,0,1,29.5,18.76A165.22,165.22,0,0,1,148.7,48.64c6.62,8,8.75,14.9,6.34,20.64-2.52,6-9.33,9.24-20.25,9.71-3.06.13-6.19.19-9.21.25-9.14.17-18.59.35-27.63,2.51-13.84,3.31-24.4,11.15-29,21.51-2.44,5.53-3.14,11.71-3.81,17.68-.61,5.4-1.24,11-3.15,16.16a33.91,33.91,0,0,1-11,14.92A32.31,32.31,0,0,1,34.21,159a30.89,30.89,0,0,1-17.56-3.66A31.39,31.39,0,0,1,3.82,142.62,34,34,0,0,1,2.26,115q.33-.9.72-1.77a42,42,0,0,1,4.85-8.1c.84-1.12,1.72-2.22,2.58-3.29.44-.55.88-1.09,1.31-1.64A46.48,46.48,0,0,0,19,88.41a31.75,31.75,0,0,0,1.68-6.16c1.12-6.5.66-13.45,0-20.59-.16-1.91-.37-3.84-.58-5.71-.62-5.67-1.27-11.52-.62-17.32A41.36,41.36,0,0,1,21.9,28.6ZM148.37,48.91l-.32.27C137.12,36.05,117.78,18.47,96.26,8.53,79.39.74,55.05-5,34.88,11.64A42,42,0,0,0,20.3,38.72c-.63,5.71,0,11.52.63,17.14.2,1.87.42,3.81.58,5.73.62,7.19,1.08,14.2-.05,20.8a32.59,32.59,0,0,1-1.73,6.33,46.94,46.94,0,0,1-7.35,12c-.44.55-.87,1.1-1.31,1.64-.86,1.07-1.74,2.17-2.57,3.28a41,41,0,0,0-4.75,7.93,33.2,33.2,0,0,0,.81,28.66,31.13,31.13,0,0,0,29.57,15.89c11.69-1.11,22.77-9.77,27-21.09,0-.07,0-.14.07-.21,1.87-5.08,2.5-10.61,3.1-16,.68-6,1.39-12.28,3.88-17.93A34.64,34.64,0,0,1,80.38,88.58a51.11,51.11,0,0,1,17.37-7.64c9.14-2.19,18.63-2.37,27.82-2.54,3-.06,6.13-.12,9.19-.25,10.56-.45,17.13-3.54,19.5-9.19,2.28-5.43.19-12.09-6.21-19.78Z"/><path class="cls-2" d="M22.09,28.29A41.56,41.56,0,0,1,34.35,11,47,47,0,0,1,64.55,0c9.91-.09,20.69,2.52,32.06,7.77a142,142,0,0,1,29.5,18.76A165.22,165.22,0,0,1,148.7,48.64c6.62,8,8.75,14.9,6.34,20.64-2.52,6-9.33,9.24-20.25,9.71-3.06.13-6.19.19-9.21.25-9.14.17-18.59.35-27.63,2.51-13.84,3.31-24.4,11.15-29,21.51-2.44,5.53-3.14,11.71-3.81,17.68-.61,5.4-1.24,11-3.15,16.16a33.91,33.91,0,0,1-11,14.92A32.31,32.31,0,0,1,34.21,159a30.89,30.89,0,0,1-17.56-3.66A31.39,31.39,0,0,1,3.82,142.62a32.39,32.39,0,0,1-3.75-15,34.29,34.29,0,0,1,3.37-15.25,47.29,47.29,0,0,1,5.22-8.2c.55-.71,1.11-1.42,1.66-2.11.77-1,1.56-2,2.31-3a41.69,41.69,0,0,0,6.73-12.48,36.26,36.26,0,0,0,1.36-6.44c.73-6.1.28-12.57-.16-18.84-.06-.82-.11-1.64-.17-2.45-.11-1.61-.24-3.23-.38-4.81-.47-5.57-1-11.33-.16-17A41.17,41.17,0,0,1,22.09,28.29ZM148.37,48.91l-.32.27C137.12,36.05,117.78,18.47,96.26,8.53,79.39.74,55.05-5,34.88,11.64a40.85,40.85,0,0,0-14.2,25.5c-.78,5.58-.29,11.29.17,16.81.14,1.58.27,3.21.38,4.82.05.82.11,1.64.17,2.46.44,6.3.89,12.81.15,19a36,36,0,0,1-1.39,6.59,42.38,42.38,0,0,1-6.85,12.73c-.76,1-1.56,2-2.33,3-.55.69-1.11,1.4-1.65,2.11a46.56,46.56,0,0,0-5.14,8,32.91,32.91,0,0,0,.37,29.51,31.13,31.13,0,0,0,29.57,15.89c11.69-1.11,22.77-9.77,27-21.09,0-.07,0-.14.07-.21,1.87-5.08,2.5-10.61,3.1-16,.68-6,1.39-12.28,3.88-17.93A34.64,34.64,0,0,1,80.38,88.58a51.11,51.11,0,0,1,17.37-7.64c9.14-2.19,18.63-2.37,27.82-2.54,3-.06,6.13-.12,9.19-.25,10.56-.45,17.13-3.54,19.5-9.19,2.28-5.43.19-12.09-6.21-19.78Z"/><path class="cls-2" d="M22.24,28.11A41.07,41.07,0,0,1,34.35,11,47,47,0,0,1,64.55,0c9.9-.09,20.69,2.52,32.06,7.77a142,142,0,0,1,29.5,18.76A165.22,165.22,0,0,1,148.7,48.64c6.62,8,8.75,14.9,6.34,20.64-2.52,6-9.33,9.24-20.25,9.71-3.06.13-6.19.19-9.21.25-9.14.17-18.59.35-27.63,2.51-13.84,3.31-24.4,11.15-29,21.51-2.44,5.53-3.14,11.71-3.81,17.68-.61,5.4-1.24,11-3.15,16.16a33.91,33.91,0,0,1-11,14.92A32.31,32.31,0,0,1,34.21,159a30.89,30.89,0,0,1-17.56-3.66A31.39,31.39,0,0,1,3.82,142.62a34,34,0,0,1-1.55-27.54,33.56,33.56,0,0,1,1.62-3.62,55.89,55.89,0,0,1,5.61-8.3l.85-1.08c1.08-1.36,2.19-2.76,3.2-4.19A38.83,38.83,0,0,0,19.76,84.7a38.66,38.66,0,0,0,1-6.71A116.67,116.67,0,0,0,20.47,62c-.13-2-.27-4-.36-6-.06-1.2-.13-2.42-.2-3.6-.31-5.58-.64-11.35.33-17A39.57,39.57,0,0,1,22.24,28.11Zm126.13,20.8-.32.27C137.12,36.05,117.78,18.47,96.26,8.53,79.39.74,55.05-5,34.88,11.64A40.44,40.44,0,0,0,21.07,35.56c-1,5.54-.63,11.26-.32,16.79.07,1.18.14,2.4.2,3.61.09,2,.23,4,.36,6a118.15,118.15,0,0,1,.33,16.06,41.15,41.15,0,0,1-1.06,6.85,39.53,39.53,0,0,1-6.34,13.47c-1,1.45-2.14,2.87-3.23,4.23l-.85,1.08a54.93,54.93,0,0,0-5.52,8.17c-4.94,9.41-5,21.33-.08,30.37a31.13,31.13,0,0,0,29.57,15.89c11.69-1.11,22.77-9.77,27-21.09,0-.07,0-.14.07-.21,1.87-5.08,2.5-10.61,3.1-16,.68-6,1.39-12.28,3.88-17.93A34.64,34.64,0,0,1,80.38,88.58a51.11,51.11,0,0,1,17.37-7.64c9.14-2.19,18.63-2.37,27.82-2.54,3-.06,6.13-.12,9.19-.25,10.56-.45,17.13-3.54,19.5-9.19,2.28-5.43.19-12.09-6.21-19.78Z"/><path class="cls-2" d="M22.33,28a41.07,41.07,0,0,1,12-17A47,47,0,0,1,64.55,0c9.9-.09,20.69,2.52,32.06,7.77a142.21,142.21,0,0,1,29.5,18.76A165.22,165.22,0,0,1,148.7,48.64c6.62,8,8.75,14.9,6.34,20.64-2.52,6-9.33,9.24-20.25,9.71-3.06.13-6.19.19-9.21.25-9.14.17-18.59.35-27.63,2.51-13.84,3.31-24.4,11.15-29,21.51-2.44,5.53-3.14,11.71-3.81,17.68-.61,5.4-1.24,11-3.15,16.16a34,34,0,0,1-11,14.92A32.31,32.31,0,0,1,34.21,159a30.89,30.89,0,0,1-17.56-3.66A31.39,31.39,0,0,1,3.82,142.62a33.87,33.87,0,0,1,.53-32,62.58,62.58,0,0,1,6-8.41l.15-.18c1.36-1.69,2.77-3.44,4-5.26a37.09,37.09,0,0,0,5.7-13.9,43.77,43.77,0,0,0,.72-7c.12-4.4-.21-9-.53-13.41-.22-3.05-.45-6.19-.54-9.29,0-.63,0-1.27-.05-1.9-.17-5.75-.35-11.7.86-17.45A38.57,38.57,0,0,1,22.33,28Zm126,20.91-.32.27C137.12,36.05,117.78,18.47,96.26,8.53,79.39.74,55.05-5,34.88,11.64A40.26,40.26,0,0,0,21.45,34c-1.19,5.66-1,11.29-.84,17.26,0,.63,0,1.27.05,1.9.09,3.07.32,6.21.53,9.25.33,4.45.66,9,.54,13.49A44,44,0,0,1,21,83a38,38,0,0,1-5.83,14.22c-1.25,1.85-2.66,3.61-4,5.32l-.14.18A61.32,61.32,0,0,0,5.08,111a33,33,0,0,0-.52,31.22,31.13,31.13,0,0,0,29.57,15.89c11.69-1.11,22.77-9.77,27-21.09,0-.07,0-.14.07-.21,1.87-5.08,2.5-10.61,3.1-16,.68-6,1.39-12.28,3.88-17.93A34.64,34.64,0,0,1,80.38,88.58a51.11,51.11,0,0,1,17.37-7.64c9.14-2.19,18.63-2.37,27.82-2.54,3-.06,6.13-.12,9.19-.25,10.56-.45,17.13-3.54,19.5-9.19,2.28-5.43.19-12.09-6.21-19.78Z"/><path class="cls-2" d="M22.38,27.87A40.46,40.46,0,0,1,34.35,11,47,47,0,0,1,64.55,0c9.9-.09,20.69,2.52,32.06,7.77a142.21,142.21,0,0,1,29.5,18.76A165.22,165.22,0,0,1,148.7,48.64c6.62,8,8.75,14.9,6.34,20.64-2.52,6-9.33,9.24-20.25,9.71-3.06.13-6.19.19-9.21.25-9.14.17-18.59.35-27.63,2.51-13.84,3.31-24.4,11.15-29,21.51-2.44,5.53-3.14,11.71-3.81,17.68-.61,5.4-1.24,11-3.15,16.16a33.91,33.91,0,0,1-11,14.92A32.31,32.31,0,0,1,34.21,159a30.89,30.89,0,0,1-17.56-3.66A31.39,31.39,0,0,1,3.82,142.62,32.61,32.61,0,0,1,.07,126.11a34,34,0,0,1,4.73-16.4,67.38,67.38,0,0,1,5.87-7.9l.5-.61a60,60,0,0,0,4.22-5.61A35.43,35.43,0,0,0,20.58,81a50.15,50.15,0,0,0,.4-7.25c-.06-3.71-.39-7.53-.71-11.23-.35-4-.7-8.11-.73-12.17,0-6.78,0-12.43,1.48-18.13A38.14,38.14,0,0,1,22.38,27.87Zm126,21-.32.27C137.12,36.05,117.78,18.47,96.26,8.53,79.39.74,55.05-5,34.88,11.64A39.78,39.78,0,0,0,21.83,32.41C20.42,38,20.34,43.6,20.38,50.33c0,4,.38,8.13.73,12.09.32,3.72.65,7.56.71,11.29a51.92,51.92,0,0,1-.4,7.38A36.31,36.31,0,0,1,16.1,96a64.18,64.18,0,0,1-4.28,5.7l-.5.6a68,68,0,0,0-5.8,7.8c-5.76,9.59-6.14,22.49-1,32.08a31.13,31.13,0,0,0,29.57,15.89c11.69-1.11,22.77-9.77,27-21.09,0-.07,0-.14.07-.21,1.87-5.08,2.5-10.61,3.1-16,.68-6,1.39-12.28,3.88-17.93A34.64,34.64,0,0,1,80.38,88.58a51.11,51.11,0,0,1,17.37-7.64c9.14-2.19,18.63-2.37,27.82-2.54,3-.06,6.13-.12,9.19-.25,10.56-.45,17.13-3.54,19.5-9.19,2.28-5.43.19-12.09-6.21-19.78Z"/><path class="cls-2" d="M22.27,28.05A41,41,0,0,1,34.35,11,47,47,0,0,1,64.55,0c9.9-.09,20.69,2.52,32.06,7.77a142.21,142.21,0,0,1,29.5,18.76A165.22,165.22,0,0,1,148.7,48.64c6.62,8,8.75,14.9,6.34,20.64-2.52,6-9.33,9.24-20.25,9.71-3.06.13-6.19.19-9.21.25-9.14.17-18.59.35-27.63,2.51-13.84,3.31-24.4,11.15-29,21.51-2.44,5.53-3.14,11.71-3.81,17.68-.61,5.4-1.24,11-3.15,16.16a33.91,33.91,0,0,1-11,14.92A32.31,32.31,0,0,1,34.21,159a30.89,30.89,0,0,1-17.56-3.66A31.39,31.39,0,0,1,3.82,142.62c-5.51-10.2-4.94-23.78,1.43-33.79a68.71,68.71,0,0,1,5.55-7.19l1.2-1.41a48.76,48.76,0,0,0,4.31-5.8A34.55,34.55,0,0,0,21,79.11a54.88,54.88,0,0,0,.06-7.52c-.16-3.12-.51-6.32-.84-9.42a120.74,120.74,0,0,1-1-14.67,61.61,61.61,0,0,1,2.15-16.91C21.67,29.73,22,28.89,22.27,28.05ZM148.05,49.18h0C137.12,36.05,117.78,18.47,96.26,8.53,79.39.74,55.05-5,34.88,11.64A40.34,40.34,0,0,0,22.21,30.83,61.31,61.31,0,0,0,20.1,47.51a121.53,121.53,0,0,0,1,14.57c.33,3.11.67,6.32.84,9.47a54.84,54.84,0,0,1-.07,7.63A35.27,35.27,0,0,1,17,94.87a48.74,48.74,0,0,1-4.39,5.89c-.39.48-.79.95-1.2,1.43A66.7,66.7,0,0,0,6,109.29c-6.21,9.75-6.77,23-1.4,32.93a31.13,31.13,0,0,0,29.57,15.89c11.69-1.11,22.77-9.77,27-21.09,0-.07,0-.14.07-.21,1.87-5.08,2.5-10.61,3.1-16,.68-6,1.39-12.28,3.88-17.93A34.64,34.64,0,0,1,80.38,88.58a51.11,51.11,0,0,1,17.37-7.64c9.14-2.19,18.63-2.37,27.82-2.54,3-.06,6.13-.12,9.19-.25,10.56-.45,17.13-3.54,19.5-9.19C156.54,63.53,154.45,56.87,148.05,49.18Z"/><path class="cls-2" d="M22,28.46A42.33,42.33,0,0,1,34.35,11,47,47,0,0,1,64.55,0c9.9-.09,20.69,2.52,32.06,7.77a141.8,141.8,0,0,1,29.5,18.76A165.22,165.22,0,0,1,148.7,48.64c6.62,8,8.75,14.9,6.34,20.64-2.52,6-9.33,9.24-20.25,9.71-3.06.13-6.19.19-9.21.25-9.14.17-18.59.35-27.63,2.51-13.84,3.31-24.4,11.15-29,21.51-2.44,5.53-3.14,11.71-3.81,17.68-.61,5.4-1.24,11-3.15,16.16a33.91,33.91,0,0,1-11,14.92A32.31,32.31,0,0,1,34.21,159a30.89,30.89,0,0,1-17.56-3.66A31.39,31.39,0,0,1,3.82,142.62C-1.89,132.06-1.13,118.13,5.71,108a67,67,0,0,1,5.36-6.68c.58-.66,1.18-1.35,1.76-2a42.59,42.59,0,0,0,4.4-6c2.59-4.45,4-9.69,4.18-16a62.23,62.23,0,0,0-.26-7.79c-.24-2.66-.59-5.37-.93-8A99.83,99.83,0,0,1,19,44.67,51.13,51.13,0,0,1,21.8,29C21.86,28.8,21.93,28.63,22,28.46ZM148.05,49.18h0C137.12,36.05,117.78,18.47,96.26,8.53,79.39.74,55.05-5,34.88,11.64A41.43,41.43,0,0,0,22.59,29.26,50.46,50.46,0,0,0,19.82,44.7a99.45,99.45,0,0,0,1.23,16.66c.34,2.63.7,5.35.94,8a62.05,62.05,0,0,1,.26,7.9C22,83.76,20.62,89.13,18,93.7a41.25,41.25,0,0,1-4.48,6.09c-.58.69-1.19,1.38-1.77,2a67.6,67.6,0,0,0-5.3,6.59c-6.66,9.91-7.4,23.5-1.84,33.79a31.13,31.13,0,0,0,29.57,15.89c11.69-1.11,22.77-9.77,27-21.09,0-.07,0-.14.07-.21,1.87-5.08,2.5-10.61,3.1-16,.68-6,1.39-12.28,3.88-17.93A34.64,34.64,0,0,1,80.38,88.58a51.11,51.11,0,0,1,17.37-7.64c9.14-2.19,18.63-2.37,27.82-2.54,3-.06,6.13-.12,9.19-.25,10.56-.45,17.13-3.54,19.5-9.19C156.54,63.53,154.45,56.87,148.05,49.18Z"/><path class="cls-2" d="M21.41,29.32A44,44,0,0,1,34.35,11,47,47,0,0,1,64.55,0c9.9-.09,20.69,2.52,32.06,7.77a141.8,141.8,0,0,1,29.5,18.76A165.22,165.22,0,0,1,148.7,48.64c6.62,8,8.75,14.9,6.34,20.64-2.52,6-9.33,9.24-20.25,9.71-3.06.13-6.19.19-9.21.25-9.14.17-18.59.35-27.63,2.51-13.84,3.31-24.4,11.15-29,21.51-2.44,5.53-3.14,11.71-3.81,17.68-.61,5.4-1.24,11-3.15,16.16a33.91,33.91,0,0,1-11,14.92A32.31,32.31,0,0,1,34.21,159a30.89,30.89,0,0,1-17.56-3.66A31.39,31.39,0,0,1,3.82,142.62a33.16,33.16,0,0,1-3.74-18,34.17,34.17,0,0,1,6.08-17.54,68.05,68.05,0,0,1,5.25-6.29,49.28,49.28,0,0,0,6.74-8.67c3.46-6.19,4.44-14.07,3.09-24.81-.29-2.3-.65-4.64-1-6.9-.95-6.06-1.93-12.33-1.54-18.59A43.17,43.17,0,0,1,21.41,29.32ZM148.05,49.18h0C137.12,36.05,117.78,18.47,96.26,8.53,79.39.74,55.05-5,34.88,11.64A43.49,43.49,0,0,0,19.53,41.89c-.38,6.16.59,12.38,1.53,18.4.36,2.27.73,4.61,1,6.93,1.37,10.92.35,19-3.2,25.32A49.13,49.13,0,0,1,12,101.36a70.12,70.12,0,0,0-5.18,6.21c-7,9.92-7.95,24.17-2.29,34.65a31.13,31.13,0,0,0,29.57,15.89c11.69-1.11,22.77-9.77,27-21.09,0-.07,0-.14.07-.21,1.87-5.08,2.5-10.61,3.1-16,.68-6,1.39-12.28,3.88-17.93A34.64,34.64,0,0,1,80.38,88.58a51.11,51.11,0,0,1,17.37-7.64c9.14-2.19,18.63-2.37,27.82-2.54,3-.06,6.13-.12,9.19-.25,10.56-.45,17.13-3.54,19.5-9.19C156.54,63.53,154.45,56.87,148.05,49.18Z"/><path class="cls-2" d="M22.81,30.41A42.47,42.47,0,0,1,35.34,12.67,45.47,45.47,0,0,1,64.54,2c9.59-.1,20,2.42,31,7.49a135.77,135.77,0,0,1,28.51,18.17,158.09,158.09,0,0,1,21.79,21.42c6.38,7.68,8.43,14.39,6.1,19.94-2.43,5.77-9,8.93-19.55,9.4-3,.13-6,.19-8.89.25-8.82.18-17.94.36-26.67,2.46-13.36,3.2-23.55,10.77-28,20.77a36.9,36.9,0,0,0-2.35,7.67c-.62,3.07-1,6.29-1.34,9.39-.6,5.22-1.21,10.61-3.06,15.6A32.74,32.74,0,0,1,51.52,149a31.26,31.26,0,0,1-16.27,6.7,29.93,29.93,0,0,1-17-3.54A30.33,30.33,0,0,1,5.85,139.88,32.1,32.1,0,0,1,2.21,122.5a33.2,33.2,0,0,1,5.85-17,66.52,66.52,0,0,1,5.07-6.09,47.54,47.54,0,0,0,6.49-8.38,30.3,30.3,0,0,0,3.51-13.8,61.44,61.44,0,0,0-.51-10.17c-.28-2.22-.63-4.48-1-6.66-.91-5.86-1.85-11.92-1.46-18A41.72,41.72,0,0,1,22.81,30.41ZM151.34,68.32c1.94-5.17-.12-11.46-6.13-18.7C134.69,36.89,116,19.86,95.2,10.25,78.9,2.73,55.38-2.85,35.87,13.3h0A42.07,42.07,0,0,0,21,42.52c-.38,6,.56,12,1.46,17.79.34,2.19.69,4.46,1,6.69A62,62,0,0,1,24,77.3a31,31,0,0,1-3.62,14.17,47.92,47.92,0,0,1-6.6,8.54,65.68,65.68,0,0,0-5,6C2,115.6,1.1,129.37,6.58,139.49a30.12,30.12,0,0,0,28.59,15.35c11.29-1.07,22-9.44,26.12-20.38l.06-.17c1.81-4.91,2.42-10.25,3-15.41.36-3.12.73-6.36,1.36-9.46a37.84,37.84,0,0,1,2.4-7.85A33.49,33.49,0,0,1,79.87,87.73a49.68,49.68,0,0,1,16.78-7.4c8.82-2.11,18-2.3,26.85-2.48,2.91-.06,5.92-.12,8.87-.25,10.19-.45,16.52-3.44,18.81-8.89C151.24,68.58,151.29,68.45,151.34,68.32Z"/><path class="cls-2" d="M24.21,31.5A41.2,41.2,0,0,1,36.33,14.34,43.89,43.89,0,0,1,64.53,4c9.27-.11,19.35,2.31,30,7.2A129.88,129.88,0,0,1,122,28.81a152.6,152.6,0,0,1,21,20.72c6.14,7.44,8.11,13.91,5.87,19.25-2.34,5.57-8.68,8.62-18.85,9.08-2.85.13-5.76.2-8.57.26-8.5.18-17.29.37-25.71,2.4-12.87,3.1-22.7,10.41-27,20A36.6,36.6,0,0,0,66.5,108c-.6,3-1,6.06-1.31,9.06-.57,5-1.17,10.22-3,15A31.71,31.71,0,0,1,52,145.93a30.18,30.18,0,0,1-15.7,6.45A28.93,28.93,0,0,1,19.87,149a29.39,29.39,0,0,1-12-11.82,30.93,30.93,0,0,1-3.52-16.78A31.93,31.93,0,0,1,10,104a63.28,63.28,0,0,1,4.88-5.89A45.91,45.91,0,0,0,21.09,90a29.17,29.17,0,0,0,3.39-13.32A60.2,60.2,0,0,0,24,66.88c-.26-2.14-.6-4.31-.92-6.41C22.2,54.81,21.3,49,21.68,43.11A40.69,40.69,0,0,1,24.21,31.5Zm124,36.59c1.87-5-.11-11-5.89-18C132.18,37.69,114.16,21.2,94.14,12,78.41,4.72,55.71-.65,36.85,15h0A40.33,40.33,0,0,0,25,31.78a39.85,39.85,0,0,0-2.49,11.38c-.37,5.76.52,11.57,1.39,17.18.32,2.11.66,4.29.92,6.44a60.76,60.76,0,0,1,.5,9.94,30,30,0,0,1-3.49,13.69,46.27,46.27,0,0,1-6.36,8.24,61.28,61.28,0,0,0-4.81,5.81c-6.5,9.26-7.34,22.54-2.05,32.3A29.13,29.13,0,0,0,36.2,151.57c10.89-1,21.24-9.12,25.21-19.67l.06-.14c1.75-4.72,2.34-9.87,2.91-14.85.35-3,.71-6.12,1.32-9.12A36.8,36.8,0,0,1,68,100.23,32.31,32.31,0,0,1,79.37,86.87a47.93,47.93,0,0,1,16.17-7.14c8.5-2,17.34-2.24,25.88-2.43,2.81-.06,5.71-.12,8.56-.25,9.82-.45,15.91-3.34,18.12-8.58Z"/><path class="cls-2" d="M25.61,32.59A39.93,39.93,0,0,1,37.31,16,42.57,42.57,0,0,1,64.52,6c9-.12,18.68,2.21,28.9,6.92a124.35,124.35,0,0,1,26.53,17,147.8,147.8,0,0,1,20.19,20c5.89,7.18,7.78,13.43,5.63,18.55-2.26,5.36-8.36,8.31-18.15,8.77-2.74.13-5.54.19-8.25.26-8.18.19-16.64.38-24.74,2.35-12.39,3-21.86,10-26,19.3a34.94,34.94,0,0,0-2.2,7.12c-.58,2.85-.93,5.83-1.27,8.71-.56,4.84-1.15,9.84-2.87,14.48l0,.11a30.62,30.62,0,0,1-9.85,13.25,29,29,0,0,1-15.13,6.21,27.81,27.81,0,0,1-15.82-3.28A28.35,28.35,0,0,1,9.9,134.41a29.9,29.9,0,0,1-3.42-16.18,30.8,30.8,0,0,1,5.39-15.79,64.74,64.74,0,0,1,4.69-5.69,44.2,44.2,0,0,0,6-7.79,28.44,28.44,0,0,0,3.26-12.85,57.81,57.81,0,0,0-.46-9.45c-.25-2.06-.57-4.15-.88-6.17C23.66,55,22.8,49.38,23.17,43.74A38.93,38.93,0,0,1,25.61,32.59ZM145.17,67.86c1.79-4.77-.11-10.61-5.65-17.37-9.82-12-27.17-27.93-46.43-36.8C77.93,6.71,56,1.55,37.83,16.63h0A39.28,39.28,0,0,0,24,43.8c-.36,5.55.49,11.15,1.32,16.57.3,2,.62,4.12.88,6.19a59.57,59.57,0,0,1,.47,9.59,29.17,29.17,0,0,1-3.37,13.2,44.83,44.83,0,0,1-6.11,7.94,62.69,62.69,0,0,0-4.63,5.61c-6.24,8.93-7,21.73-1.92,31.13a27.74,27.74,0,0,0,26.63,14.26c10.49-1,20.47-8.79,24.3-18.95l0-.1c1.69-4.55,2.26-9.5,2.82-14.29.34-2.9.69-5.9,1.28-8.78a35.69,35.69,0,0,1,2.25-7.28A31.14,31.14,0,0,1,78.86,86a46.3,46.3,0,0,1,15.58-6.9c8.18-2,16.69-2.18,24.91-2.37,2.7-.06,5.5-.12,8.23-.25,9.45-.45,15.32-3.23,17.44-8.28Z"/><path class="cls-2" d="M27,33.68a38.58,38.58,0,0,1,11.29-16h0c17.88-14.82,39.27-9.81,54.06-3A118.51,118.51,0,0,1,117.9,31.08a141.27,141.27,0,0,1,19.39,19.35,31.13,31.13,0,0,1,5.17,8.41,12.35,12.35,0,0,1,.22,9.44c-2.17,5.16-8,8-17.45,8.46-2.64.13-5.33.19-7.93.26-7.86.19-16,.39-23.78,2.29-11.91,2.9-21,9.67-25,18.57a33.41,33.41,0,0,0-2.12,6.84c-.56,2.74-.9,5.6-1.23,8.37-.55,4.65-1.12,9.46-2.78,13.92l0,.07a29.46,29.46,0,0,1-9.49,12.78,28.09,28.09,0,0,1-14.57,6,26.91,26.91,0,0,1-15.24-3.16,27.38,27.38,0,0,1-11.18-11A28.86,28.86,0,0,1,8.61,116.1a29.75,29.75,0,0,1,5.17-15.21,57,57,0,0,1,4.5-5.48A42.53,42.53,0,0,0,24,87.9a27.43,27.43,0,0,0,3.14-12.36,56.89,56.89,0,0,0-.44-9.11c-.24-2-.54-4-.83-5.91-.8-5.27-1.62-10.71-1.25-16.14A37.91,37.91,0,0,1,27,33.68ZM142.09,67.61c1.74-4.62,0-10.08-5.41-16.68-9.45-11.59-26.14-27-44.65-35.52C77.44,8.69,56.37,3.74,38.81,18.3h0A37.87,37.87,0,0,0,25.45,44.43c-.36,5.35.46,10.75,1.24,16,.3,1.94.6,3.95.84,5.94A57.17,57.17,0,0,1,28,75.57a28.22,28.22,0,0,1-3.23,12.71,43.68,43.68,0,0,1-5.86,7.65,57.88,57.88,0,0,0-4.45,5.41c-6,8.6-6.73,20.92-1.81,29.95A26.74,26.74,0,0,0,38.27,145c10.1-1,19.71-8.46,23.39-18.24l0-.07c1.63-4.37,2.19-9.13,2.73-13.73.33-2.79.67-5.67,1.25-8.44a33.55,33.55,0,0,1,2.17-7A30.11,30.11,0,0,1,78.35,85.16a44.68,44.68,0,0,1,15-6.64c7.87-1.92,16-2.12,24-2.31,2.6-.07,5.28-.14,7.91-.26,9.08-.44,14.71-3.13,16.76-8Z"/><path class="cls-2" d="M28.42,34.77A37,37,0,0,1,39.29,19.36h0c17.22-14.28,37.79-9.48,52-2.94a112.46,112.46,0,0,1,24.55,15.8,134.68,134.68,0,0,1,18.59,18.66c5.48,6.76,7.16,12.37,5.15,17.15-2.09,5-7.72,7.69-16.75,8.15-2.53.12-5.12.19-7.61.26-7.54.2-15.34.4-22.82,2.23C81,81.47,72.26,88,68.45,96.51a32.4,32.4,0,0,0-2,6.57c-.54,2.62-.87,5.37-1.19,8-.54,4.47-1.09,9.08-2.69,13.36v0a28.32,28.32,0,0,1-9.15,12.3,26.94,26.94,0,0,1-14,5.73,25.85,25.85,0,0,1-14.67-3A26.38,26.38,0,0,1,14,128.93a27.73,27.73,0,0,1-3.2-15,28.56,28.56,0,0,1,4.93-14.63A57,57,0,0,1,20,94.06a40.79,40.79,0,0,0,5.51-7.22,26.4,26.4,0,0,0,3-11.88,54.44,54.44,0,0,0-.41-8.75c-.23-1.89-.52-3.81-.79-5.67-.76-5.06-1.54-10.29-1.17-15.52A36.28,36.28,0,0,1,28.42,34.77ZM139,67.37c1.66-4.42,0-9.66-5.18-16-4.4-5.44-20.5-24-42.86-34.24C77,10.68,56.7,5.94,39.79,20h0A36.46,36.46,0,0,0,26.94,45.07c-.36,5.14.41,10.34,1.16,15.36.28,1.86.57,3.79.79,5.69A54.87,54.87,0,0,1,29.31,75,27.35,27.35,0,0,1,26.2,87.22a42.7,42.7,0,0,1-5.61,7.36,57.85,57.85,0,0,0-4.27,5.2,28.09,28.09,0,0,0-1.69,28.78A25.76,25.76,0,0,0,39.3,141.75c9.86-.94,18.89-8,22.49-17.53v0c1.57-4.19,2.11-8.76,2.64-13.18.32-2.67.65-5.43,1.21-8.09a32.42,32.42,0,0,1,2.09-6.72A29,29,0,0,1,77.85,84.31a42.72,42.72,0,0,1,14.38-6.4c7.55-1.84,15.39-2,23-2.25,2.49-.07,5.07-.14,7.59-.26,8.7-.44,14.11-3,16.07-7.67Z"/><path class="cls-2" d="M29.82,35.86A35.65,35.65,0,0,1,40.28,21c16.56-13.74,36.31-9.15,50-2.88a107.13,107.13,0,0,1,23.56,15.2,129.62,129.62,0,0,1,17.8,18c5.23,6.5,6.83,11.89,4.91,16.46-2,4.75-7.4,7.38-16,7.84-2.43.12-4.9.19-7.29.26-7.23.2-14.7.41-21.85,2.18C80.37,80.75,72,87,68.35,95.17a30.54,30.54,0,0,0-2,6.28c-.52,2.52-.84,5.14-1.15,7.69-.52,4.27-1.06,8.7-2.6,12.79a27.12,27.12,0,0,1-8.8,11.81,25.89,25.89,0,0,1-13.42,5.5,25,25,0,0,1-14.09-2.91A25.44,25.44,0,0,1,16,126.2a26.65,26.65,0,0,1-3.09-14.37,27.38,27.38,0,0,1,4.71-14,53.8,53.8,0,0,1,4.13-5.08A39.22,39.22,0,0,0,27,85.78a25.6,25.6,0,0,0,2.89-11.4A53.32,53.32,0,0,0,29.49,66c-.21-1.81-.48-3.65-.74-5.42-.72-4.87-1.46-9.89-1.1-14.92A34.86,34.86,0,0,1,29.82,35.86Zm106.1,31.28c1.59-4.22,0-9.24-4.93-15.34-4.22-5.24-19.66-23.12-41.08-32.95C76.47,12.67,57,8.14,40.77,21.62h0A35.07,35.07,0,0,0,28.42,45.71c-.36,4.94.38,9.92,1.09,14.74.26,1.79.53,3.63.74,5.45a52.55,52.55,0,0,1,.39,8.52,26.14,26.14,0,0,1-3,11.73,39.74,39.74,0,0,1-5.36,7.07,53.37,53.37,0,0,0-4.08,5,26.92,26.92,0,0,0-1.57,27.6,24.72,24.72,0,0,0,23.69,12.64,26.34,26.34,0,0,0,21.57-16.81c1.51-4,2-8.38,2.55-12.62.31-2.55.64-5.2,1.17-7.75a31.7,31.7,0,0,1,2-6.44,28,28,0,0,1,9.7-11.4,41.3,41.3,0,0,1,13.78-6.14c7.24-1.78,14.75-2,22-2.2,2.38-.07,4.85-.14,7.27-.26,8.33-.44,13.5-2.92,15.38-7.37C135.83,67.37,135.88,67.26,135.92,67.14Z"/><path class="cls-2" d="M31.22,37A34.27,34.27,0,0,1,41.27,22.71h0C57.18,9.5,76.1,13.88,89.17,19.88a101.39,101.39,0,0,1,22.57,14.61,122.74,122.74,0,0,1,17,17.28c5,6.24,6.51,11.39,4.67,15.76-1.92,4.54-7.08,7.07-15.35,7.52-2.32.13-4.69.2-7,.27-6.91.21-14,.43-20.89,2.12C79.74,80,71.74,86,68.24,93.82a29.63,29.63,0,0,0-1.89,6c-.5,2.41-.81,4.92-1.11,7.35a53.23,53.23,0,0,1-2.5,12.2v0a26.15,26.15,0,0,1-8.44,11.29A24.82,24.82,0,0,1,41.44,136a23.81,23.81,0,0,1-13.51-2.79,24.3,24.3,0,0,1-9.93-9.7,25.62,25.62,0,0,1-3-13.76,26.48,26.48,0,0,1,4.48-13.46,53.59,53.59,0,0,1,4-4.88,38.27,38.27,0,0,0,5-6.63,24.54,24.54,0,0,0,2.76-10.92,50.89,50.89,0,0,0-.35-8c-.2-1.73-.46-3.48-.7-5.18a66.15,66.15,0,0,1-1-14.3A33.37,33.37,0,0,1,31.22,37ZM132.84,66.91c1.51-4,0-8.82-4.69-14.67-4-5.06-18.82-22.28-39.29-31.67C76,14.66,57.36,10.33,41.75,23.29h0A33.66,33.66,0,0,0,29.9,46.34a65.48,65.48,0,0,0,1,14.14c.25,1.7.51,3.46.71,5.2A51.31,51.31,0,0,1,32,73.84a25.41,25.41,0,0,1-2.85,11.25A38.46,38.46,0,0,1,24,91.86a51.72,51.72,0,0,0-3.89,4.81,25.8,25.8,0,0,0-1.46,26.42A23.74,23.74,0,0,0,41.37,135.2,25.26,25.26,0,0,0,62,119.14a52.2,52.2,0,0,0,2.46-12.06c.31-2.45.62-5,1.13-7.41a30.38,30.38,0,0,1,1.94-6.16A26.74,26.74,0,0,1,76.83,82.6,39.47,39.47,0,0,1,90,76.71c6.92-1.72,14.1-1.94,21-2.15,2.29-.07,4.65-.14,7-.26,8-.44,12.91-2.81,14.7-7.07C132.75,67.13,132.8,67,132.84,66.91Z"/><path class="cls-2" d="M32.62,38.05a32.84,32.84,0,0,1,9.64-13.67c15.25-12.67,33.35-8.5,45.85-2.77,19.69,9,33.89,25.71,37.78,30.61,4.73,6,6.18,10.89,4.43,15-1.83,4.34-6.76,6.77-14.66,7.22-2.21.13-4.46.2-6.64.27-6.59.21-13.4.44-19.93,2.06-10,2.49-17.61,8.2-21,15.65a28.62,28.62,0,0,0-1.81,5.73c-.48,2.29-.79,4.69-1.08,7a50.27,50.27,0,0,1-2.39,11.6l0,.08a24.82,24.82,0,0,1-8.07,10.77,23.77,23.77,0,0,1-12.27,5A23.49,23.49,0,0,1,20,120.72a24.48,24.48,0,0,1-2.87-13.15A25.2,25.2,0,0,1,21.4,94.69,48.89,48.89,0,0,1,25.16,90a37.57,37.57,0,0,0,4.78-6.35,23.78,23.78,0,0,0,2.63-10.44,47.37,47.37,0,0,0-.33-7.68c-.19-1.65-.42-3.32-.66-4.93a64.41,64.41,0,0,1-.95-13.69A31.94,31.94,0,0,1,32.62,38.05Zm97.13,28.63c1.44-3.83,0-8.41-4.45-14-3.86-4.87-18-21.45-37.5-30.39C75.49,16.65,57.69,12.53,42.73,25h0A32.33,32.33,0,0,0,31.38,47a63.05,63.05,0,0,0,.94,13.53c.23,1.62.47,3.3.66,4.95a50.21,50.21,0,0,1,.34,7.8A24.55,24.55,0,0,1,30.59,84a37.48,37.48,0,0,1-4.87,6.48A50.06,50.06,0,0,0,22,95.11a24.72,24.72,0,0,0-1.33,25.25,22.71,22.71,0,0,0,21.73,11.56,24.13,24.13,0,0,0,19.72-15.31,49.92,49.92,0,0,0,2.37-11.5c.3-2.33.6-4.74,1.1-7.07a29.05,29.05,0,0,1,1.85-5.88,25.71,25.71,0,0,1,8.88-10.42A37.92,37.92,0,0,1,88.91,76.1C95.52,74.45,102.37,74.23,109,74c2.18-.08,4.43-.15,6.63-.27,7.59-.43,12.3-2.71,14-6.76Z"/><path class="cls-2" d="M34,39.14a31.67,31.67,0,0,1,9.22-13.09h0c14.6-12.13,31.88-8.17,43.81-2.71C105.8,31.91,119.33,48,123,52.66c4.48,5.72,5.85,10.42,4.19,14.36-1.75,4.14-6.44,6.46-14,6.91-2.1.12-4.25.2-6.32.27-6.27.22-12.75.45-19,2C78.5,78.6,71.22,84,68,91.12a26.46,26.46,0,0,0-1.73,5.45c-.47,2.18-.77,4.46-1,6.66a48.26,48.26,0,0,1-2.28,11l0,.12a23.88,23.88,0,0,1-7.7,10.26,22.72,22.72,0,0,1-11.71,4.77A22.48,22.48,0,0,1,22.05,118a23.45,23.45,0,0,1-2.77-12.54,24.11,24.11,0,0,1,4-12.3,47.34,47.34,0,0,1,3.58-4.47,35.05,35.05,0,0,0,4.53-6.06,22.58,22.58,0,0,0,2.51-10,47.52,47.52,0,0,0-.3-7.33c-.18-1.56-.4-3.14-.62-4.68a61.25,61.25,0,0,1-.87-13.08A30.67,30.67,0,0,1,34,39.14Zm92.65,27.31c1.36-3.63,0-8-4.21-13.33C118.78,48.44,105.34,32.51,86.74,24,75,18.63,58,14.73,43.71,26.62h0a30.94,30.94,0,0,0-10.85,21,60,60,0,0,0,.87,12.92c.22,1.54.44,3.13.61,4.7a47.83,47.83,0,0,1,.31,7.45A23.43,23.43,0,0,1,32.05,83a35,35,0,0,1-4.62,6.19,46.78,46.78,0,0,0-3.52,4.4,23.6,23.6,0,0,0-1.22,24.08,21.74,21.74,0,0,0,20.75,11,23,23,0,0,0,18.8-14.56l0-.11a47.7,47.7,0,0,0,2.24-10.84c.29-2.22.58-4.51,1.06-6.72a27.73,27.73,0,0,1,1.78-5.6,24.49,24.49,0,0,1,8.46-9.93,36.09,36.09,0,0,1,12-5.39c6.28-1.58,12.81-1.81,19.11-2,2.07-.07,4.21-.15,6.31-.27,7.21-.43,11.7-2.61,13.32-6.46Z"/><path class="cls-2" d="M35.42,40.23a30.08,30.08,0,0,1,8.81-12.5,32.25,32.25,0,0,1,20.23-7.61c6.73-.17,14,1.49,21.52,4.95,17.82,8.13,30.69,23.52,34.2,28,4.25,5.45,5.53,9.93,4,13.66-1.66,3.93-6.12,6.15-13.26,6.6-2,.12-4,.2-6,.27-5.95.22-12.1.46-18,2-9,2.29-15.92,7.46-19,14.18A24.84,24.84,0,0,0,66.27,95c-.46,2.06-.74,4.23-1,6.32a46.08,46.08,0,0,1-2.18,10.4l-.06.15a22.65,22.65,0,0,1-7.34,9.74,21.58,21.58,0,0,1-11.14,4.53,21.43,21.43,0,0,1-20.46-10.84,23.13,23.13,0,0,1-1.2-19.12,22.35,22.35,0,0,1,2.32-4.54,44.53,44.53,0,0,1,3.4-4.27,33.63,33.63,0,0,0,4.28-5.76,21.8,21.8,0,0,0,2.39-9.49,43.94,43.94,0,0,0-.28-7c-.16-1.48-.37-3-.57-4.43a57.59,57.59,0,0,1-.8-12.47A29.71,29.71,0,0,1,35.42,40.23Zm88.17,26c1.71-4.56-1.43-9.39-4-12.66-3.5-4.49-16.27-19.76-33.94-27.83-11.16-5.1-27.33-8.8-41,2.56h0a29.55,29.55,0,0,0-10.35,20,56.91,56.91,0,0,0,.8,12.31c.2,1.46.4,3,.57,4.45A45.43,45.43,0,0,1,36,72.11a22.44,22.44,0,0,1-2.47,9.79,34.13,34.13,0,0,1-4.38,5.89A47,47,0,0,0,25.8,92a22.51,22.51,0,0,0-1.09,22.91,20.74,20.74,0,0,0,19.76,10.48,22,22,0,0,0,17.88-13.82l.06-.15a45.71,45.71,0,0,0,2.13-10.24c.28-2.1.56-4.28,1-6.38a26.52,26.52,0,0,1,1.7-5.31,23.39,23.39,0,0,1,8-9.45A34.9,34.9,0,0,1,86.7,74.89c6-1.51,12.16-1.74,18.15-2,2-.07,4-.15,6-.27,6.84-.43,11.09-2.5,12.63-6.16Z"/><path class="cls-2" d="M36.82,41.32a28.81,28.81,0,0,1,8.4-11.92h0a30.72,30.72,0,0,1,19.24-7.26c6.4-.19,13.28,1.38,20.46,4.66,16.89,7.69,29.08,22.43,32.41,26.76,2.5,3.24,5.58,8,3.84,12.67l-.12.29c-1.57,3.73-5.8,5.84-12.56,6.29-1.89.12-3.82.19-5.69.27-5.62.23-11.45.47-17,1.9-8.52,2.18-15.07,7.08-18,13.44a24.54,24.54,0,0,0-1.57,4.9c-.44,2-.71,4-1,6a43.65,43.65,0,0,1-2.15,10,21.56,21.56,0,0,1-17.55,13.51,20.46,20.46,0,0,1-19.47-10.3,22.12,22.12,0,0,1,1-22.47A44.1,44.1,0,0,1,30.31,86a31.61,31.61,0,0,0,4.05-5.47,21.05,21.05,0,0,0,2.26-9,44.17,44.17,0,0,0-.25-6.62c-.15-1.4-.34-2.82-.53-4.19a55,55,0,0,1-.73-11.85A27.91,27.91,0,0,1,36.82,41.32ZM120.5,66c1.62-4.29-1.34-8.88-3.73-12-3.31-4.3-15.41-18.92-32.14-26.55-10.6-4.83-25.95-8.32-39,2.5h0a28.18,28.18,0,0,0-9.85,19,55.17,55.17,0,0,0,.72,11.71c.19,1.38.38,2.8.53,4.2a43,43,0,0,1,.25,6.73A21.33,21.33,0,0,1,35,80.83a32,32,0,0,1-4.13,5.6,43.75,43.75,0,0,0-3.15,4,21.35,21.35,0,0,0-1,21.72,19.72,19.72,0,0,0,18.79,9.94,20.83,20.83,0,0,0,17-13.06,43.3,43.3,0,0,0,2.11-9.83c.26-2,.54-4.06,1-6a24.65,24.65,0,0,1,1.63-5c3-6.56,9.69-11.61,18.43-13.84,5.65-1.45,11.51-1.69,17.18-1.92,1.86-.07,3.78-.15,5.67-.27,6.46-.43,10.49-2.4,12-5.85Z"/><path class="cls-2" d="M38.22,42.42a27.44,27.44,0,0,1,8-11.35h0a29.28,29.28,0,0,1,18.24-6.92,43.71,43.71,0,0,1,19.41,4.38c16,7.25,27.47,21.33,30.62,25.48,2.34,3.07,5.23,7.63,3.59,12,0,.09-.07.19-.11.28-1.51,3.57-5.39,5.52-11.86,6-1.79.12-3.61.2-5.37.28-5.31.24-10.8.48-16.06,1.84-8,2.08-14.23,6.71-17,12.72a23.44,23.44,0,0,0-1.49,4.62c-.42,1.84-.68,3.77-.93,5.63a41,41,0,0,1-2.06,9.44,20.44,20.44,0,0,1-16.61,12.75,19.39,19.39,0,0,1-18.48-9.75A20.87,20.87,0,0,1,27,92.45a20.2,20.2,0,0,1,2-4,42.62,42.62,0,0,1,3-3.87,30.4,30.4,0,0,0,3.8-5.18A19.74,19.74,0,0,0,38,70.92a40.42,40.42,0,0,0-.22-6.26c-.14-1.32-.31-2.65-.48-3.94a52.05,52.05,0,0,1-.65-11.25A26.43,26.43,0,0,1,38.22,42.42Zm79.2,23.33c1.51-4-1.25-8.38-3.49-11.32-3.13-4.11-14.55-18.08-30.36-25.27-10-4.56-24.56-7.84-36.92,2.45h0A26.79,26.79,0,0,0,37.3,49.53,51.45,51.45,0,0,0,38,60.63c.17,1.29.35,2.63.48,3.95A42,42,0,0,1,38.66,71a20.47,20.47,0,0,1-2.22,8.81,30.59,30.59,0,0,1-3.88,5.3,44.16,44.16,0,0,0-3,3.81,20.23,20.23,0,0,0-.86,20.55,18.71,18.71,0,0,0,17.81,9.4,19.73,19.73,0,0,0,16-12.32,40.7,40.7,0,0,0,2-9.27c.25-1.88.52-3.82.94-5.7a23.44,23.44,0,0,1,1.54-4.75c2.83-6.2,9.18-11,17.42-13.11,5.34-1.38,10.87-1.62,16.21-1.85,1.76-.08,3.58-.16,5.35-.28,6.19-.43,9.87-2.25,11.27-5.55Z"/><path class="cls-2" d="M39.62,43.51A26,26,0,0,1,47.2,32.75h0a27.78,27.78,0,0,1,17.24-6.59,41.1,41.1,0,0,1,18.36,4.1c15,6.82,25.87,20.24,28.83,24.19,2.23,3,5,7.42,3.24,11.57-1.42,3.36-5.07,5.21-11.16,5.66-1.68.12-3.39.2-5,.28-5,.24-10.15.49-15.1,1.78-7.56,2-13.38,6.35-16,12a21.25,21.25,0,0,0-1.42,4.34c-.4,1.73-.65,3.54-.9,5.29a38.35,38.35,0,0,1-2,8.88,19.35,19.35,0,0,1-15.68,12A18.37,18.37,0,0,1,30.15,107a19.83,19.83,0,0,1,.77-20.09,39.55,39.55,0,0,1,2.83-3.66,28.75,28.75,0,0,0,3.55-4.9,18.86,18.86,0,0,0,2-8,38.23,38.23,0,0,0-.2-5.91c-.12-1.23-.28-2.48-.43-3.68a49.63,49.63,0,0,1-.58-10.64A25.21,25.21,0,0,1,39.62,43.51Zm74.71,22c1.42-3.77-1.16-7.87-3.25-10.66-2.94-3.92-13.68-17.23-28.57-24-9.45-4.29-23.17-7.37-34.87,2.39h0a25.42,25.42,0,0,0-8.86,16.9,49,49,0,0,0,.58,10.49c.15,1.21.31,2.47.44,3.7a41,41,0,0,1,.2,6,19.63,19.63,0,0,1-2.09,8.33,30.37,30.37,0,0,1-3.63,5,36.37,36.37,0,0,0-2.79,3.6,19.13,19.13,0,0,0-.74,19.38,17.7,17.7,0,0,0,16.83,8.86A18.64,18.64,0,0,0,62.68,104a38.19,38.19,0,0,0,1.93-8.72c.24-1.77.5-3.59.9-5.35A22.65,22.65,0,0,1,67,85.44c2.68-5.82,8.66-10.33,16.42-12.36,5-1.31,10.21-1.56,15.24-1.8,1.65-.08,3.36-.16,5-.28,5.81-.43,9.27-2.14,10.58-5.25Z"/><path class="cls-2" d="M41,44.6a24.58,24.58,0,0,1,7.17-10.18,26.31,26.31,0,0,1,16.24-6.25A38.52,38.52,0,0,1,81.73,32C95.84,38.37,106,51.14,108.78,54.9c2.25,3.05,4.62,7,3,10.87-1.34,3.15-4.76,4.9-10.46,5.35-1.57.12-3.18.2-4.73.28a69.46,69.46,0,0,0-14.14,1.73c-7.07,1.87-12.53,6-15,11.25a20.35,20.35,0,0,0-1.34,4.06c-.38,1.63-.62,3.32-.86,5a36.21,36.21,0,0,1-1.87,8.31A18.21,18.21,0,0,1,48.67,113a17.37,17.37,0,0,1-16.49-8.65,18.69,18.69,0,0,1,.64-18.9,36.49,36.49,0,0,1,2.65-3.47,28,28,0,0,0,3.31-4.6,18.06,18.06,0,0,0,1.88-7.56,37.19,37.19,0,0,0-.17-5.56c-.11-1.15-.26-2.31-.39-3.44a46.53,46.53,0,0,1-.51-10A24.35,24.35,0,0,1,41,44.6Zm70.23,20.68c1.3-3.46-.91-7.14-3-10-2.75-3.73-12.82-16.38-26.79-22.7-8.88-4-21.78-6.89-32.83,2.34h0a24,24,0,0,0-8.36,15.87,46.59,46.59,0,0,0,.5,9.88c.14,1.13.29,2.3.4,3.46a38.42,38.42,0,0,1,.17,5.65,18.56,18.56,0,0,1-2,7.84A27.84,27.84,0,0,1,36,82.36a34.7,34.7,0,0,0-2.6,3.4,18,18,0,0,0-.63,18.2,16.67,16.67,0,0,0,15.85,8.32,17.5,17.5,0,0,0,14.18-10.82,36,36,0,0,0,1.84-8.16c.23-1.65.48-3.36.86-5a21.44,21.44,0,0,1,1.39-4.19c2.52-5.46,8.13-9.7,15.4-11.62a69.69,69.69,0,0,1,14.28-1.75c1.54-.08,3.14-.16,4.71-.28,5.43-.43,8.66-2,9.89-4.94Z"/><path class="cls-2" d="M42.42,45.7a23.37,23.37,0,0,1,6.75-9.61h0a24.94,24.94,0,0,1,15.25-5.91,36,36,0,0,1,16.25,3.54c13.19,6,22.67,18.06,25.26,21.63,2,2.8,4.17,6.43,2.86,9.92l-.1.25c-1.25,2.94-4.44,4.59-9.76,5-1.47.11-3,.2-4.41.28a65,65,0,0,0-13.17,1.67c-6.6,1.77-11.69,5.61-14,10.52a19.35,19.35,0,0,0-1.26,3.79c-.36,1.51-.59,3.08-.82,4.61a34.39,34.39,0,0,1-1.79,7.76,17.08,17.08,0,0,1-13.8,10.48,16.37,16.37,0,0,1-15.51-8.11,17.54,17.54,0,0,1-1-14.64,16.86,16.86,0,0,1,1.52-3.07,35,35,0,0,1,2.47-3.27,26.25,26.25,0,0,0,3.06-4.31A17,17,0,0,0,42,69.19a34.84,34.84,0,0,0-.15-5.2c-.09-1.07-.22-2.15-.35-3.19a44.77,44.77,0,0,1-.43-9.42A22.47,22.47,0,0,1,42.42,45.7ZM108.17,65c1.2-3.19-.84-6.64-2.77-9.3-2.57-3.54-12-15.54-25-21.42C68.65,29,57.71,29.82,49.6,36.6h0a22.61,22.61,0,0,0-7.86,14.84,43.58,43.58,0,0,0,.43,9.28c.12,1.05.25,2.14.35,3.21a36.17,36.17,0,0,1,.15,5.3,17.88,17.88,0,0,1-1.83,7.35A27.09,27.09,0,0,1,37.7,81a34.42,34.42,0,0,0-2.42,3.2,16.89,16.89,0,0,0-.5,17A15.67,15.67,0,0,0,49.64,109,16.44,16.44,0,0,0,62.9,98.94a33.51,33.51,0,0,0,1.75-7.61c.23-1.54.46-3.13.82-4.66a20.45,20.45,0,0,1,1.31-3.92c2.37-5.09,7.61-9,14.4-10.88a65.11,65.11,0,0,1,13.3-1.69c1.45-.08,2.94-.16,4.4-.28,5.05-.42,8.06-1.94,9.2-4.64Z"/><path class="cls-2" d="M43.82,46.79a21.91,21.91,0,0,1,6.34-9A23.39,23.39,0,0,1,64.41,32.2a33.2,33.2,0,0,1,15.2,3.25,52.24,52.24,0,0,1,13.66,9.26,70.74,70.74,0,0,1,9.81,11.09C105,58.48,107,62,105.6,65.27c-1.16,2.74-4.13,4.28-9.06,4.73-1.36.11-2.75.2-4.09.28a61.4,61.4,0,0,0-12.21,1.61c-6.11,1.67-10.83,5.24-13,9.79a17.8,17.8,0,0,0-1.19,3.51c-.34,1.4-.56,2.86-.78,4.27a31.69,31.69,0,0,1-1.7,7.2,16,16,0,0,1-12.87,9.72,15.32,15.32,0,0,1-14.51-7.56,16.44,16.44,0,0,1,.4-16.52,30.52,30.52,0,0,1,2.28-3.07,23.71,23.71,0,0,0,2.81-4,16.19,16.19,0,0,0,1.64-6.6,34,34,0,0,0-.12-4.85c-.09-1-.2-2-.31-2.93A41.08,41.08,0,0,1,42.58,52,20.75,20.75,0,0,1,43.82,46.79Zm61.26,18c1.1-2.92-.65-6-2.53-8.64C100.17,52.83,91.47,41.49,79.34,36,68.4,31.11,58.19,31.9,50.58,38.26h0a21.25,21.25,0,0,0-7.36,13.82,41.25,41.25,0,0,0,.36,8.68c.11,1,.22,2,.31,3A33.63,33.63,0,0,1,44,68.65a16.82,16.82,0,0,1-1.7,6.86,25.4,25.4,0,0,1-2.89,4.13,32.83,32.83,0,0,0-2.23,3,15.79,15.79,0,0,0-.39,15.86,14.66,14.66,0,0,0,13.89,7.23A15.31,15.31,0,0,0,63,96.41a31.46,31.46,0,0,0,1.66-7c.22-1.42.45-2.89.79-4.32a18.57,18.57,0,0,1,1.23-3.63C68.9,76.69,73.78,73,80.07,71.27a60.73,60.73,0,0,1,12.34-1.63c1.34-.09,2.72-.18,4.07-.29,4.68-.42,7.46-1.84,8.52-4.34C105,64.94,105.06,64.87,105.08,64.81Z"/><path class="cls-2" d="M45.22,47.89a20.54,20.54,0,0,1,5.93-8.45h0c7.3-6.12,17-6.92,27.39-2.26,11.07,5,18.86,15,21.69,19.07,1.84,2.65,3.56,5.77,2.28,8.76-1.08,2.55-3.81,4-8.36,4.42-1.29.13-2.61.22-3.89.31a55,55,0,0,0-11.12,1.54c-5.63,1.57-10,4.87-12,9.06a16.47,16.47,0,0,0-1.11,3.23c-.32,1.28-.53,2.63-.74,3.92a29.52,29.52,0,0,1-1.61,6.64,14.91,14.91,0,0,1-11.94,9,14.35,14.35,0,0,1-13.52-7,15.35,15.35,0,0,1,.28-15.33,30.19,30.19,0,0,1,2.1-2.87,23.63,23.63,0,0,0,2.57-3.72A15.27,15.27,0,0,0,44.7,68a31.64,31.64,0,0,0-.09-4.5c-.07-.89-.17-1.8-.26-2.68a38.08,38.08,0,0,1-.28-8.21A19.8,19.8,0,0,1,45.22,47.89ZM102,64.58c1-2.67-.59-5.52-2.29-8-2.19-3.15-10.2-13.82-21.43-18.85C68.15,33.2,58.66,34,51.56,39.93h0A19.85,19.85,0,0,0,44.7,52.72,38.14,38.14,0,0,0,45,60.79c.1.88.19,1.8.27,2.7a32.78,32.78,0,0,1,.09,4.58,15.81,15.81,0,0,1-1.58,6.38,23,23,0,0,1-2.64,3.83,30,30,0,0,0-2,2.8,14.7,14.7,0,0,0-.27,14.68,13.69,13.69,0,0,0,12.91,6.7,14.23,14.23,0,0,0,11.41-8.57,28.42,28.42,0,0,0,1.57-6.5c.21-1.31.43-2.66.75-4a18.08,18.08,0,0,1,1.15-3.36c2.06-4.35,6.57-7.78,12.38-9.4A56.52,56.52,0,0,1,90.22,69.1c1.27-.09,2.58-.18,3.87-.3,4.29-.41,6.85-1.73,7.83-4C102,64.7,102,64.64,102,64.58Z"/><path class="cls-2" d="M46.62,49a19.08,19.08,0,0,1,5.52-7.88c6.79-5.7,15.79-6.48,25.34-2.2,10.19,4.54,17.31,14,19.9,17.78,1.74,2.59,3.2,5.36,2,8.07-1,2.34-3.5,3.68-7.66,4.11-1.19.12-2.4.22-3.58.31A51.38,51.38,0,0,0,78,70.66c-5.15,1.47-9.14,4.5-11,8.33a15.62,15.62,0,0,0-1,3c-.3,1.18-.5,2.4-.7,3.59a27.63,27.63,0,0,1-1.52,6.08,13.79,13.79,0,0,1-11,8.2,13.31,13.31,0,0,1-12.52-6.46,14.18,14.18,0,0,1-.89-12,12.76,12.76,0,0,1,1-2.17,26.81,26.81,0,0,1,1.9-2.67,20.9,20.9,0,0,0,2.33-3.43,14.44,14.44,0,0,0,1.38-5.64A29.21,29.21,0,0,0,46,63.32c-.06-.81-.14-1.64-.22-2.43a35.67,35.67,0,0,1-.21-7.6A17.92,17.92,0,0,1,46.62,49Zm52.3,15.35c.9-2.4-.45-4.92-2.06-7.3C94.3,53.25,87.27,44,77.23,39.48c-9.33-4.18-18.1-3.43-24.69,2.11h0a18.55,18.55,0,0,0-6.36,11.77,35.83,35.83,0,0,0,.21,7.47c.08.8.16,1.62.22,2.44a32.26,32.26,0,0,1,.07,4.23,15.09,15.09,0,0,1-1.45,5.88,22.62,22.62,0,0,1-2.39,3.54A26.76,26.76,0,0,0,41,79.52,13.6,13.6,0,0,0,40.82,93a12.68,12.68,0,0,0,11.92,6.16,13.13,13.13,0,0,0,10.49-7.83,26.37,26.37,0,0,0,1.48-5.94c.2-1.19.41-2.43.71-3.63a16.18,16.18,0,0,1,1.08-3.07c1.9-4,6-7.15,11.36-8.66a51.34,51.34,0,0,1,10.28-1.5c1.17-.09,2.37-.19,3.56-.31,3.91-.4,6.25-1.62,7.14-3.73A1.42,1.42,0,0,0,98.92,64.34Z"/><path class="cls-2" d="M48,50a17.51,17.51,0,0,1,5.11-7.23c6.27-5.29,14.54-6,23.29-2.15,9.32,4.13,15.77,12.92,18.11,16.5,1.55,2.38,2.85,4.92,1.8,7.37-.91,2.13-3.18,3.37-7,3.8-1.08.12-2.19.22-3.26.31A47.8,47.8,0,0,0,76.92,70c-4.66,1.37-8.29,4.14-10,7.6a14,14,0,0,0-1,2.68c-.28,1.06-.48,2.17-.67,3.24a24.5,24.5,0,0,1-1.42,5.52,12.67,12.67,0,0,1-10.07,7.44A12.3,12.3,0,0,1,42.3,90.61a13.11,13.11,0,0,1,0-13,26,26,0,0,1,1.72-2.48A19.21,19.21,0,0,0,46.14,72a13.27,13.27,0,0,0,1.26-5.16,28.66,28.66,0,0,0,0-3.79c0-.72-.11-1.46-.18-2.17a32.71,32.71,0,0,1-.12-7A17,17,0,0,1,48,50ZM95.83,64.1c.85-2.24-.49-4.59-1.81-6.62-2.31-3.54-8.68-12.21-17.85-16.28-8.52-3.8-16.56-3.07-22.65,2.06h0A17.16,17.16,0,0,0,47.66,54a32.75,32.75,0,0,0,.13,6.86c.07.72.13,1.46.18,2.19a28.18,28.18,0,0,1,0,3.87,14.15,14.15,0,0,1-1.32,5.4,20.33,20.33,0,0,1-2.14,3.23A25.29,25.29,0,0,0,42.87,78a12.48,12.48,0,0,0,0,12.34,11.69,11.69,0,0,0,11,5.61,12,12,0,0,0,9.56-7.07,23.87,23.87,0,0,0,1.39-5.39c.19-1.08.39-2.2.68-3.29a14.66,14.66,0,0,1,1-2.79c1.75-3.62,5.52-6.5,10.35-7.91A47.79,47.79,0,0,1,86.05,68c1.07-.09,2.17-.19,3.25-.31,3.54-.4,5.65-1.52,6.47-3.43Z"/><path class="cls-2" d="M49.42,51.13a16.3,16.3,0,0,1,4.69-6.67c5.77-4.86,13.31-5.61,21.25-2.09,8.46,3.73,14.23,11.89,16.32,15.22,1.27,2,2.54,4.38,1.56,6.67-.82,1.92-2.87,3.06-6.26,3.49-1,.12-2,.22-3,.32a41.76,41.76,0,0,0-8.21,1.36c-4.18,1.26-7.45,3.76-9,6.86a12.66,12.66,0,0,0-.88,2.4c-.26,1-.45,2-.63,2.9a22.19,22.19,0,0,1-1.33,5,11.57,11.57,0,0,1-9.14,6.69,11.14,11.14,0,0,1-10.54-5.37,12,12,0,0,1-.82-10.2,12.32,12.32,0,0,1,.73-1.56,24.57,24.57,0,0,1,1.54-2.28A17.44,17.44,0,0,0,47.61,71a12.58,12.58,0,0,0,1.14-4.69,28.09,28.09,0,0,0,0-3.43c0-.64-.09-1.29-.14-1.92a29.65,29.65,0,0,1-.05-6.39A15.7,15.7,0,0,1,49.42,51.13ZM92.75,63.87c.74-2-.42-4.11-1.58-6-2.06-3.28-7.74-11.33-16.06-15-7.71-3.42-15-2.71-20.61,2h0a15.61,15.61,0,0,0-5.36,9.72,29.86,29.86,0,0,0,.06,6.27c0,.63.1,1.28.14,1.92a27.45,27.45,0,0,1,0,3.51,13.52,13.52,0,0,1-1.19,4.91,19.23,19.23,0,0,1-1.9,2.94,23.83,23.83,0,0,0-1.5,2.21,11.4,11.4,0,0,0,.08,11.16,10.55,10.55,0,0,0,10,5.08,11,11,0,0,0,8.65-6.33,21.66,21.66,0,0,0,1.29-4.83c.19-1,.37-2,.64-2.94A12.89,12.89,0,0,1,66.31,76c1.59-3.25,5-5.87,9.34-7.18A43.14,43.14,0,0,1,84,67.47c1-.1,2-.2,2.94-.32,3.16-.4,5-1.42,5.78-3.12Z"/><path class="cls-2" d="M50.81,52.24a15,15,0,0,1,4.29-6.11h0a16.16,16.16,0,0,1,9.26-3.87,20.3,20.3,0,0,1,9.93,1.84C81.92,47.43,87,55,88.83,58.05c.9,1.5,2.25,3.78,1.32,6-.73,1.71-2.55,2.75-5.56,3.17-.87.13-1.77.23-2.64.33a38,38,0,0,0-7.23,1.3,13.06,13.06,0,0,0-8,6.14,11.31,11.31,0,0,0-.8,2.12c-.24.84-.42,1.71-.59,2.55A19.23,19.23,0,0,1,64.1,84,10.43,10.43,0,0,1,55.9,90a10.14,10.14,0,0,1-9.54-4.81,10.9,10.9,0,0,1-.22-10.58,21.26,21.26,0,0,1,1.36-2.08,17.35,17.35,0,0,0,1.59-2.55,12.05,12.05,0,0,0,1-4.2,26.09,26.09,0,0,0,0-3.08c0-.56-.06-1.12-.1-1.66a28.13,28.13,0,0,1,0-5.8A14.57,14.57,0,0,1,50.81,52.24ZM89.67,63.63c.64-1.71-.27-3.47-1.34-5.28-1.81-3-6.81-10.45-14.27-13.71-6.91-3-13.51-2.35-18.58,1.94h0a14.28,14.28,0,0,0-4.86,8.7,26.85,26.85,0,0,0,0,5.67c0,.55.07,1.11.1,1.67a25,25,0,0,1,0,3.15,12.06,12.06,0,0,1-1.06,4.41A17.81,17.81,0,0,1,48,72.82a20.52,20.52,0,0,0-1.32,2,10.31,10.31,0,0,0,.2,10,9.57,9.57,0,0,0,9,4.54,9.86,9.86,0,0,0,7.72-5.59,20.23,20.23,0,0,0,1.21-4.27c.17-.86.35-1.74.59-2.6a12.82,12.82,0,0,1,.84-2.23c1.44-2.88,4.48-5.23,8.33-6.43a39.65,39.65,0,0,1,7.34-1.33c.87-.09,1.76-.2,2.63-.32,2.79-.39,4.45-1.31,5.1-2.82Z"/><path class="cls-2" d="M52.2,53.35a13.58,13.58,0,0,1,3.89-5.54h0c4.67-4,10.92-4.7,17.14-2C80,48.77,84.41,55.67,86,58.5c.83,1.51,1.88,3.39,1.07,5.26-.65,1.5-2.23,2.44-4.85,2.86-.78.13-1.57.23-2.34.33a35.55,35.55,0,0,0-6.26,1.24,11.84,11.84,0,0,0-7,5.41,10.66,10.66,0,0,0-.72,1.85c-.22.72-.39,1.48-.55,2.21A17.84,17.84,0,0,1,64.2,81.5a9.34,9.34,0,0,1-7.26,5.17,9.16,9.16,0,0,1-8.56-4.27A9.79,9.79,0,0,1,48.05,73a17.11,17.11,0,0,1,1.17-1.89,16.29,16.29,0,0,0,1.34-2.25,10.82,10.82,0,0,0,.88-3.73,23.68,23.68,0,0,0,.05-2.73L51.43,61a23.86,23.86,0,0,1,.11-5.2A12.12,12.12,0,0,1,52.2,53.35ZM86.58,63.41c.6-1.58-.34-3.27-1.1-4.63C83.94,56,79.63,49.23,73,46.35c-6-2.62-12-1.93-16.54,1.9h0a13,13,0,0,0-4.36,7.67A23.88,23.88,0,0,0,52,61c0,.47,0,.93.06,1.4a22.73,22.73,0,0,1,0,2.79,11.4,11.4,0,0,1-.94,3.93,14.94,14.94,0,0,1-1.39,2.33,21,21,0,0,0-1.13,1.83,9.23,9.23,0,0,0,.31,8.82,8.58,8.58,0,0,0,8,4,8.74,8.74,0,0,0,6.8-4.83,16.81,16.81,0,0,0,1.12-3.73c.16-.74.33-1.5.55-2.25a10.89,10.89,0,0,1,.77-1.94,12.33,12.33,0,0,1,7.31-5.69,34.6,34.6,0,0,1,6.36-1.27c.77-.1,1.56-.21,2.33-.33,2.44-.39,3.84-1.19,4.41-2.52A.61.61,0,0,0,86.58,63.41Z"/><path class="cls-2" d="M53.58,54.47a12.39,12.39,0,0,1,3.5-5h0c4.17-3.56,9.67-4.26,15.09-1.92,6,2.56,9.66,8.82,11,11.39l0,.11c.65,1.28,1.46,2.87.78,4.45s-2.72,2.28-4.15,2.55l-2,.34a30.35,30.35,0,0,0-5.28,1.18,10.59,10.59,0,0,0-6,4.67,9.43,9.43,0,0,0-.64,1.58c-.2.6-.35,1.23-.5,1.84A15.43,15.43,0,0,1,64.3,79a8,8,0,0,1-13.89.69,8.58,8.58,0,0,1-.46-8.2,16.69,16.69,0,0,1,1-1.7,13.65,13.65,0,0,0,1.1-2,10.15,10.15,0,0,0,.76-3.25,21.69,21.69,0,0,0,.07-2.38q0-.55,0-1.11a22.45,22.45,0,0,1,.2-4.62A11.77,11.77,0,0,1,53.58,54.47Zm29.92,8.7c.49-1.3-.2-2.66-.81-3.86l-.06-.1c-1.27-2.52-4.87-8.64-10.69-11.14-5.21-2.25-10.5-1.58-14.49,1.84h0a11.67,11.67,0,0,0-3.87,6.65,21.72,21.72,0,0,0-.18,4.5l0,1.12c0,1,0,1.72-.07,2.44a11,11,0,0,1-.81,3.43,15.11,15.11,0,0,1-1.14,2,16.27,16.27,0,0,0-.95,1.65,8,8,0,0,0,.42,7.64,7.39,7.39,0,0,0,12.91-.63,15.28,15.28,0,0,0,1-3.19c.15-.62.31-1.26.51-1.89A10.39,10.39,0,0,1,66,72,11.18,11.18,0,0,1,72.32,67a32.15,32.15,0,0,1,5.38-1.2c.67-.1,1.35-.21,2-.34,1.29-.24,3.09-.74,3.73-2.21Z"/><path class="cls-2" d="M55,55.61a10.94,10.94,0,0,1,3.11-4.46,12.09,12.09,0,0,1,13-1.87c5,2.12,7.91,7.26,9.19,10.13l.09.21c.48,1.05,1.07,2.35.5,3.64-.63,1.44-2.26,2-3.44,2.23-.57.13-1.16.25-1.73.36A26.42,26.42,0,0,0,71.41,67a9.55,9.55,0,0,0-5,4,8.42,8.42,0,0,0-.57,1.3c-.17.49-.31,1-.45,1.49a13.43,13.43,0,0,1-1,2.76,6.92,6.92,0,0,1-12,.47,7.54,7.54,0,0,1-.59-7,15.65,15.65,0,0,1,.8-1.52,14.08,14.08,0,0,0,.85-1.64A9.9,9.9,0,0,0,54.14,64c.06-.58.09-1.23.1-2v-.83a19.86,19.86,0,0,1,.28-4A9.66,9.66,0,0,1,55,55.61Zm25.46,7.32a4.18,4.18,0,0,0-.54-3.08l-.09-.22c-1-2.25-3.88-7.72-8.9-9.84a11.57,11.57,0,0,0-12.46,1.78h0a10.42,10.42,0,0,0-3.37,5.63,19.06,19.06,0,0,0-.27,3.94V62c0,.82,0,1.47-.1,2.07A9.94,9.94,0,0,1,54,67a13.72,13.72,0,0,1-.88,1.71,12.05,12.05,0,0,0-.77,1.46,7,7,0,0,0,.54,6.47,6.37,6.37,0,0,0,11-.42,12.83,12.83,0,0,0,1-2.65c.14-.5.28-1,.46-1.53a8.91,8.91,0,0,1,.61-1.38,10.05,10.05,0,0,1,5.28-4.2,27.27,27.27,0,0,1,4.39-1.13c.57-.11,1.15-.23,1.72-.36,1.06-.24,2.53-.7,3.05-1.91Z"/><path class="cls-2" d="M56.32,56.76a9.87,9.87,0,0,1,2.73-3.93h0A10.41,10.41,0,0,1,70,51c4.46,1.84,6.66,6.81,7.41,8.86,0,.09.06.18.1.28A3.66,3.66,0,0,1,77.79,63a3.91,3.91,0,0,1-2.73,1.92l-1.43.38a23.87,23.87,0,0,0-3.32,1,8.44,8.44,0,0,0-4,3.23,7.52,7.52,0,0,0-.49,1c-.15.38-.28.77-.41,1.15a11.24,11.24,0,0,1-.91,2.2,5.92,5.92,0,0,1-10,.26,6.55,6.55,0,0,1-.71-5.8A11.25,11.25,0,0,1,54.37,67a13.06,13.06,0,0,0,.6-1.31h0a9.08,9.08,0,0,0,.52-2.31c.07-.61.1-1.21.12-1.67,0-.17,0-.34,0-.5A17,17,0,0,1,56,57.72,7.65,7.65,0,0,1,56.32,56.76Zm21,5.93A3.33,3.33,0,0,0,77,60.33c0-.09-.07-.18-.1-.27-.72-2-2.85-6.79-7.11-8.55a9.85,9.85,0,0,0-10.42,1.73h0a9.18,9.18,0,0,0-2.87,4.61,16.72,16.72,0,0,0-.37,3.41c0,.17,0,.33,0,.5,0,.47,0,1.09-.12,1.71a10.13,10.13,0,0,1-.55,2.44,14.49,14.49,0,0,1-.63,1.37,12.44,12.44,0,0,0-.59,1.3,6,6,0,0,0,.65,5.31A5.56,5.56,0,0,0,60,76.27a5.49,5.49,0,0,0,4-2.61,10.31,10.31,0,0,0,.87-2.1c.13-.38.26-.78.42-1.17a7.55,7.55,0,0,1,.53-1.1,9,9,0,0,1,4.26-3.45,23.07,23.07,0,0,1,3.39-1l1.42-.38a3.49,3.49,0,0,0,2.39-1.62Z"/><path class="cls-2" d="M57.66,57.93A8.72,8.72,0,0,1,60,54.5,8.53,8.53,0,0,1,69,52.74c3.78,1.51,5.2,5.82,5.63,7.6,0,.1.05.19.07.29a3,3,0,0,1,0,2.13,3.43,3.43,0,0,1-2,1.6c-.38.15-.78.29-1.16.42a20.15,20.15,0,0,0-2.32.94,7.48,7.48,0,0,0-3,2.51,5.62,5.62,0,0,0-.41.75c-.13.26-.24.52-.35.78a8.73,8.73,0,0,1-.86,1.66,5,5,0,0,1-3.5,2.1,5.09,5.09,0,0,1-4.58-2,5.48,5.48,0,0,1-.84-4.6,10.11,10.11,0,0,1,.44-1.24c.12-.31.25-.62.35-1a10,10,0,0,0,.4-1.84c.06-.45.11-.9.15-1.33v-.08a15.24,15.24,0,0,1,.51-3.08Zm16.59,4.52a2.73,2.73,0,0,0-.09-1.69c0-.1,0-.19-.07-.29-.42-1.7-1.77-5.82-5.31-7.24a8,8,0,0,0-8.39,1.67h0A8,8,0,0,0,58,58.5a14.52,14.52,0,0,0-.5,3v.08c0,.43-.08.89-.15,1.35A12.27,12.27,0,0,1,57,64.84c-.11.34-.25.67-.37,1A9.71,9.71,0,0,0,56.16,67a4.92,4.92,0,0,0,.76,4.15A4.54,4.54,0,0,0,61,73a4.44,4.44,0,0,0,3.12-1.88,8.9,8.9,0,0,0,.8-1.57c.11-.26.23-.53.36-.8a5.45,5.45,0,0,1,.45-.81A8.15,8.15,0,0,1,69,65.24a21.69,21.69,0,0,1,2.37-.95l1.15-.42a2.93,2.93,0,0,0,1.72-1.33Z"/><path class="cls-2" d="M58.89,59.26,59,59a7.91,7.91,0,0,1,2-2.77c2.11-1.91,4.69-2.55,6.88-1.71,2.63,1,3.71,4.05,3.84,6.36a1.79,1.79,0,0,1,0,.23,2.69,2.69,0,0,1-.16,1.45,3.08,3.08,0,0,1-1.27,1.26c-.31.2-.63.38-1,.58s-.82.47-1.24.74a8.13,8.13,0,0,0-2.06,1.8l-.34.49-.24.38a8,8,0,0,1-.84,1.16,4.15,4.15,0,0,1-2.55,1.32,4.09,4.09,0,0,1-3.57-1.5,4.48,4.48,0,0,1-1-3.39,8.18,8.18,0,0,1,.26-1.27c0-.15.07-.29.1-.44.11-.46.2-.94.28-1.4l0-.22c0-.26.09-.51.14-.76A12.31,12.31,0,0,1,58.89,59.26ZM71.18,62.2a2.41,2.41,0,0,0,.08-1.1,1.94,1.94,0,0,1,0-.24c-.12-2.15-1.12-5-3.52-5.91a6.25,6.25,0,0,0-6.35,1.61h0a7.53,7.53,0,0,0-1.88,2.6,11.33,11.33,0,0,0-.62,2.19c0,.25-.09.5-.13.76l0,.22c-.09.47-.17,1-.28,1.42,0,.16-.08.3-.11.45a7.9,7.9,0,0,0-.25,1.21,4.07,4.07,0,0,0,.86,3,3.52,3.52,0,0,0,3.13,1.31,3.57,3.57,0,0,0,2.22-1.15,7.27,7.27,0,0,0,.78-1.08c.08-.13.16-.26.25-.39s.22-.33.36-.52a8.64,8.64,0,0,1,2.19-1.93c.43-.28.85-.52,1.26-.75l1-.56a2.64,2.64,0,0,0,1.07-1.05Z"/><path class="cls-2" d="M59.72,61.08A8.67,8.67,0,0,1,62,57.86c1.64-1.55,3.4-2.15,4.83-1.66,2,.68,2.67,3.27,2,5.17h0a10.5,10.5,0,0,1-3.24,4.44A5.1,5.1,0,0,1,63.14,67,3.08,3.08,0,0,1,60.57,66a4.52,4.52,0,0,1-1-4.37Q59.62,61.37,59.72,61.08Zm8.69.13h0c.54-1.67,0-4-1.74-4.53s-3.6.87-4.31,1.54A7.78,7.78,0,0,0,60,61.77a4,4,0,0,0,.89,3.89,2.6,2.6,0,0,0,2.16.79,4.65,4.65,0,0,0,2.25-1A10,10,0,0,0,68.41,61.21Z"/></g></g></g></svg>