<svg xmlns="http://www.w3.org/2000/svg" viewBox="0 0 291.65 135.6"><defs><style>.cls-1{fill:#fff;}</style></defs><g id="圖層_2" data-name="圖層 2"><g id="圖層_1-2" data-name="圖層 1"><rect class="cls-1" x="41.78" y="13.46" width="71.23" height="3.37"/><rect class="cls-1" x="41.78" y="61.87" width="71.23" height="3.37"/><rect class="cls-1" x="46.06" y="75.37" width="62.66" height="3.37"/><rect class="cls-1" x="41.78" y="88.86" width="71.23" height="3.37"/><rect class="cls-1" x="11.53" y="45.03" width="29.5" height="3.37"/><rect class="cls-1" x="52.53" y="25.88" width="16.68" height="3.37"/><rect class="cls-1" x="52.53" y="42.39" width="16.68" height="3.37"/><rect class="cls-1" x="11.53" y="69.5" width="29.5" height="3.37"/><path class="cls-1" d="M63.18,0a73,73,0,0,0,6.15,14.74H84.58C86.32,1.71,63.18,0,63.18,0Z"/><path class="cls-1" d="M12.93,4.6s-6,51.86-12.93,63c0,0,19.34-13.78,28.46-57.55Z"/><path class="cls-1" d="M28.89,12.19A37.6,37.6,0,0,1,45.84,34l-11.93,6S31.25,20.65,28.89,12.19Z"/><path class="cls-1" d="M5.06,82.25a37.56,37.56,0,0,1,17,21.83l-11.24,5.47C8.12,90.16,7.47,90.9,5.06,82.25Z"/><rect class="cls-1" x="19.4" y="47.82" width="12.05" height="64.69"/><polygon class="cls-1" points="68.51 91.52 56.46 91.52 56.46 53.09 68.51 55.58 68.51 91.52"/><polygon class="cls-1" points="96.67 90.92 84.62 90.92 84.62 52.5 96.67 54.99 96.67 90.92"/><path class="cls-1" d="M43.88,100.17s-31.45,17.36-41,18.63L13.26,131S37.84,111.64,43.88,100.17Z"/><path class="cls-1" d="M34.12,77.12,44.46,79.9s-2.1,14.15-12.9,21.36C31.56,101.26,34.54,87.43,34.12,77.12Z"/><polygon class="cls-1" points="54.93 49.85 44.4 52.51 44.4 21.58 54.93 25.78 54.93 49.85"/><polygon class="cls-1" points="75.01 52.51 64.48 49.85 64.48 25.78 75.01 21.58 75.01 52.51"/><rect class="cls-1" x="88.24" y="25.88" width="16.68" height="3.37"/><rect class="cls-1" x="88.24" y="42.39" width="16.68" height="3.37"/><polygon class="cls-1" points="90.64 49.85 80.11 52.51 80.11 21.58 90.64 25.78 90.64 49.85"/><polygon class="cls-1" points="110.72 52.51 100.19 49.85 100.19 25.78 110.72 21.58 110.72 52.51"/><path class="cls-1" d="M74,91.55s-20.33,23.08-44.46,31c0,0,17.22-13.34,27.59-31Z"/><path class="cls-1" d="M78.47,92.71s5.4,17.74,38.7,22.91L107,130.14s-23.9-7.47-30.84-37.43Z"/><polygon class="cls-1" points="49.87 124.69 61.56 124.69 61.56 100.79 49.87 109.05 49.87 124.69"/><path class="cls-1" d="M83.66,116.88s-32,7.08-43.17,7.33l6.93,11.39S75,123.65,83.66,116.88Z"/><path class="cls-1" d="M100.6,94.63s-5.76,13.45-11.13,15.82c0,0,19.65-4.06,22.82-8.49Z"/><polygon class="cls-1" points="216.59 88.33 204.35 90.12 204.35 43.17 216.59 43.17 216.59 88.33"/><polygon class="cls-1" points="187.1 90.71 174.86 92.5 174.86 37.23 187.1 40.79 187.1 90.71"/><polygon class="cls-1" points="147.69 93.2 172.02 33.31 156.48 103.3 148.27 101.52 147.69 93.2"/><rect class="cls-1" x="174.65" y="11.96" width="58" height="3.37"/><rect class="cls-1" x="183.4" y="41.04" width="58" height="3.37"/><rect class="cls-1" x="181.94" y="53.8" width="58" height="3.37"/><rect class="cls-1" x="181.94" y="66.6" width="58" height="3.37"/><rect class="cls-1" x="165.01" y="98.4" width="76.39" height="3.37"/><path class="cls-1" d="M144,5.72a43.74,43.74,0,0,1,22.69,20.5l-11.54,8.19S148.27,14.3,144,5.72Z"/><path class="cls-1" d="M191.61,20.51s17,.1,28.5,11.88L210,43.07S197.92,27.05,191.61,20.51Z"/><path class="cls-1" d="M135.9,38.43a43.74,43.74,0,0,1,22.69,20.51l-11.54,8.18S140.18,47,135.9,38.43Z"/><path class="cls-1" d="M139.26,85.24S156.73,94.83,166,120.4l-13.55,11.89S144.3,99.41,139.26,85.24Z"/><path class="cls-1" d="M230.34,4.34S225.74,20.7,214.46,31c0,0,20.47-8.19,29.84-15.69Z"/><polygon class="cls-1" points="247.1 69.13 234.86 70.25 234.86 40.79 247.1 37.23 247.1 69.13"/><path class="cls-1" d="M234.88,51.16V72s.9,7.66-3.6,7.37l-10.54-.79s11.95,4.29,11.34,13.6c0,0,15-.12,15-13.2V61.11"/><path class="cls-1" d="M234.86,98.36l11.44-3.5L245,119.08s.09,14.68-21,14.4c0,0,2-8.41-14.38-12.71l15.3.64s7.65.76,8.59-5Z"/><path class="cls-1" d="M200.28,92.69s3.94,28.94-35.72,41.42c0,0,22.82-14.27,22.76-43.86Z"/><path class="cls-1" d="M288.26,16.63s0,.06.07.06h.21c1.5,0,1.86,0,2.17,0s.44-.12.54-.44a2.17,2.17,0,0,0,0-.4c0-.11,0-.17.11-.17s.09.07.09.22c0,.55,0,1.27,0,1.53s0,.92,0,1.31c0,.16,0,.22-.09.22s-.11-.06-.11-.18a1.89,1.89,0,0,0,0-.3c-.05-.27-.19-.35-.54-.37s-.59,0-2.09,0h-1.74c-.9,0-1.68,0-2.11.05-.28,0-.46.09-.51.41a4.07,4.07,0,0,0,0,.52c0,.1-.05.16-.1.16s-.1-.08-.1-.21c0-.66,0-1.33,0-1.61s0-.95,0-1.35c0-.14,0-.22.1-.22s.1,0,.1.16a1.59,1.59,0,0,0,0,.37c.05.21.23.27.52.31s1.17,0,2.08,0h.75a.06.06,0,0,0,.06-.06V12.78s0-.07-.06-.07h-.75c-.91,0-1.66,0-2.09.06-.28,0-.46.09-.51.39a4.55,4.55,0,0,0,0,.53c0,.11-.05.16-.1.16s-.1-.08-.1-.21c0-.66,0-1.37,0-1.66s0-.91,0-1.31c0-.13,0-.2.1-.2s.1,0,.1.16a1.63,1.63,0,0,0,0,.36c.05.21.23.27.52.31s1.2,0,2.1,0h3.83c.34,0,.44-.12.54-.44a2.22,2.22,0,0,0,0-.41c0-.1,0-.17.11-.17s.09.08.09.22c0,.54,0,1.22,0,1.5s0,1,0,1.35c0,.14,0,.21-.09.21s-.11-.05-.11-.18a1.68,1.68,0,0,0,0-.29c-.05-.28-.19-.36-.54-.39s-.67,0-2.17,0h-.21a.07.07,0,0,0-.07.07Z"/><path class="cls-1" d="M287.75,22.73A3.91,3.91,0,0,1,291.62,27c0,2.57-1.43,4.17-3.69,4.17a4,4,0,0,1-4-4.28A3.85,3.85,0,0,1,287.75,22.73Zm-.18,6.94c2.18,0,3.53-1.31,3.53-3,0-1.13-.61-2.47-3-2.47-2,0-3.64,1.16-3.64,3.09C284.42,28.05,284.76,29.67,287.57,29.67Z"/><path class="cls-1" d="M285.36,36.29c-.76,0-1,.15-1.07.35a2.05,2.05,0,0,0-.07.54c0,.11,0,.17-.1.17s-.1-.09-.1-.23c0-.66,0-1.14,0-1.33s0-.58,0-1.1c0-.14,0-.23.1-.23s.1.07.1.16a2.5,2.5,0,0,0,0,.47c.07.26.34.3,1.2.31l5.85.09c.19,0,.33.07.33.18s-.15.26-.32.44-1.7,1.66-3.15,3.14c-.68.7-2.07,2.06-2.21,2.21v0l4.38-.11c.61,0,.78-.1.87-.35a1.63,1.63,0,0,0,.06-.53c0-.13.05-.16.11-.16s.09.1.09.25c0,.54,0,1.08,0,1.3s0,.5,0,1c0,.14,0,.23-.09.23s-.11-.06-.11-.17a1.23,1.23,0,0,0,0-.32c-.08-.27-.26-.35-.82-.37l-6.22-.11c-.22,0-.31-.08-.31-.17a.57.57,0,0,1,.21-.41c.59-.64,1.81-1.92,2.84-3s2.27-2.19,2.44-2.39v0Z"/><path class="cls-1" d="M284.68,54.09c-.27,0-.28,0-.35-.13a6.06,6.06,0,0,1-.44-2.49c0-2.51,1.14-4.73,3.86-4.73A3.66,3.66,0,0,1,291,48.53a5.11,5.11,0,0,1,.64,2.75,12.59,12.59,0,0,1-.16,1.81,6.51,6.51,0,0,0-.11.82c0,.11,0,.14-.11.14a13.59,13.59,0,0,0-1.63-.07c-.15,0-.22-.06-.22-.14s.05-.1.13-.11a1.28,1.28,0,0,0,.81-.35,3.15,3.15,0,0,0,.76-2.21,2.89,2.89,0,0,0-.59-2,2.85,2.85,0,0,0-2.4-.94,3.43,3.43,0,0,0-3.67,3.56,1.56,1.56,0,0,0,.11.71.32.32,0,0,0,.35.2H287c.34,0,.44-.12.54-.44a2.17,2.17,0,0,0,0-.4c0-.09.05-.16.11-.16s.09.08.09.22c0,.54,0,1.27,0,1.57s0,.86,0,1.2c0,.13,0,.2-.09.2a.11.11,0,0,1-.11-.12,1.58,1.58,0,0,0,0-.28c-.05-.28-.19-.38-.54-.4h-2.27Z"/><path class="cls-1" d="M284.68,71.78c-.27,0-.28,0-.35-.13a6.13,6.13,0,0,1-.44-2.5c0-2.51,1.14-4.72,3.86-4.72A3.64,3.64,0,0,1,291,66.22a5.09,5.09,0,0,1,.64,2.75,12.75,12.75,0,0,1-.16,1.81,6.6,6.6,0,0,0-.11.81c0,.12,0,.14-.11.14a13.59,13.59,0,0,0-1.63-.07c-.15,0-.22-.06-.22-.14s.05-.09.13-.1a1.4,1.4,0,0,0,.81-.35,3.18,3.18,0,0,0,.76-2.22,2.65,2.65,0,0,0-3-2.91,3.43,3.43,0,0,0-3.67,3.55,1.6,1.6,0,0,0,.11.72.33.33,0,0,0,.35.2h.9c.49,0,.86,0,1.16,0s.44-.11.54-.44a2.06,2.06,0,0,0,0-.39c0-.09.05-.16.11-.16s.09.08.09.22c0,.53,0,1.26,0,1.56s0,.86,0,1.2c0,.14,0,.21-.09.21a.12.12,0,0,1-.11-.13,1.67,1.67,0,0,0,0-.28c-.05-.28-.19-.38-.54-.39h-2.27Z"/><path class="cls-1" d="M288.62,77.19h2.09c.34,0,.46-.13.53-.35a1.55,1.55,0,0,0,0-.37c0-.11,0-.17.12-.17s.08.09.08.25c0,.38,0,1.08,0,1.37s0,.91,0,1.31c0,.13,0,.21-.08.21s-.12-.06-.12-.16a1.71,1.71,0,0,0,0-.31c-.05-.27-.19-.36-.54-.38s-.59,0-2.09,0h-1.74c-.95,0-1.74,0-2.16,0-.26,0-.41.11-.46.41a4.38,4.38,0,0,0,0,.52c0,.12-.05.17-.1.17s-.1-.09-.1-.2c0-.68,0-1.37,0-1.65s0-.93,0-1.34c0-.12,0-.19.1-.19s.1,0,.1.16a1.63,1.63,0,0,0,0,.36c.05.21.19.27.48.3s1.19,0,2.14,0Z"/><path class="cls-1" d="M272.72,11.72c.16,0,.26.12.26.2s-.05.18-.32.32L267.21,15l5.52,2.74c.16.09.25.18.25.27s-.11.2-.32.23l-6.07.93c-.61.09-.88.19-1,.5a1.8,1.8,0,0,0-.1.58c0,.09,0,.16-.09.16s-.12-.11-.12-.26,0-1.71.06-2.12c0-.24.06-.3.12-.3s.08.05.1.12.14.08.42.05l4.26-.57v0l-4.36-2.19c-.47-.23-.56-.29-.56-.41s.2-.24.5-.4,2-1.06,2.24-1.18l2.06-1v0l-3.8-.49a3.89,3.89,0,0,0-.47,0c-.18,0-.25.14-.29.32a1.94,1.94,0,0,0,0,.36c0,.09-.05.16-.1.16s-.11-.09-.11-.24c0-.43,0-.9,0-1.08s0-.69,0-1c0-.11,0-.19.11-.19s.1.06.1.16a2.28,2.28,0,0,0,0,.32c0,.28.43.37.75.41Z"/><path class="cls-1" d="M267.83,25.17c0-.06,0-.07-.07-.09l-1.33-.55a2,2,0,0,0-.6-.15c-.18,0-.28.09-.28.41v.15c0,.13-.05.15-.11.15s-.1-.06-.1-.16c0-.34,0-.82,0-1.14,0-.11,0-.65,0-1.19,0-.12,0-.18.1-.18s.11,0,.11.12,0,.2,0,.3c.07.46.37.64.87.84l6.16,2.67c.28.12.4.2.4.31s-.1.19-.32.3l-6,2.6c-.9.39-1,.68-1.06.87a2.87,2.87,0,0,0,0,.38c0,.09,0,.14-.11.14s-.1-.06-.1-.44,0-1.1,0-2c0-.19,0-.3.08-.3s.09,0,.11.12a.16.16,0,0,0,.22.1l2-.79a.1.1,0,0,0,.07-.11Zm.55,2.18s0,.06.06,0l2.47-1s.09,0,.09-.05-.06-.05-.09-.06l-2.46-1c-.05,0-.07,0-.07,0Z"/><path class="cls-1" d="M266.68,35.26c-.76,0-1,.15-1.06.35a1.65,1.65,0,0,0-.07.53c0,.12-.05.18-.11.18s-.1-.1-.1-.24c0-.66,0-1.13,0-1.32s0-.58,0-1.1c0-.14,0-.23.1-.23s.11.07.11.16a2.38,2.38,0,0,0,0,.46c.07.27.34.3,1.2.32l5.85.09c.2,0,.34.07.34.17s-.16.27-.33.44-1.69,1.66-3.15,3.15c-.68.7-2.07,2.05-2.21,2.21v0l4.39-.1c.6,0,.77-.11.87-.35a2,2,0,0,0,.05-.53c0-.13,0-.17.11-.17s.09.11.09.26c0,.53,0,1.08,0,1.3s0,.5,0,1c0,.14,0,.23-.09.23s-.11-.06-.11-.18a1.2,1.2,0,0,0,0-.31c-.08-.28-.26-.36-.81-.37l-6.23-.12c-.22,0-.31-.08-.31-.16a.65.65,0,0,1,.21-.42c.59-.64,1.81-1.91,2.84-3s2.27-2.19,2.44-2.39v0Z"/><path class="cls-1" d="M265.47,46.38c.06-.16.11-.19.33-.19.54,0,1.15,0,1.31.05s.26,0,.26.13-.09.11-.16.11a1.72,1.72,0,0,0-.51.09,1.57,1.57,0,0,0-1,1.62A1.28,1.28,0,0,0,267,49.61c.43,0,.86-.1,1.4-1l.35-.59c.7-1.21,1.37-1.6,2.24-1.6,1.2,0,2,1.16,2,2.57a6,6,0,0,1-.16,1.45c0,.1-.06.14-.13.14s-.41,0-1.18,0c-.21,0-.32,0-.32-.13s.06-.1.18-.1A1.15,1.15,0,0,0,272,50a1.4,1.4,0,0,0,.46-1.14c0-.73-.38-1.39-1.05-1.39-.45,0-.79.16-1.3,1.08l-.24.42c-.74,1.34-1.49,1.76-2.39,1.76a2.1,2.1,0,0,1-1.84-1,3,3,0,0,1-.41-1.71A4.29,4.29,0,0,1,265.47,46.38Z"/><path class="cls-1" d="M270,55.53H272c.33,0,.45-.13.52-.35a1.45,1.45,0,0,0,0-.37c0-.1,0-.16.12-.16s.08.08.08.24c0,.39,0,1.08,0,1.37s0,.92,0,1.31c0,.13,0,.21-.08.21s-.12-.05-.12-.16a1.69,1.69,0,0,0,0-.3c-.05-.28-.19-.36-.53-.38s-.6,0-2.09,0H268.2c-.95,0-1.74,0-2.15.05s-.42.1-.47.41a4.28,4.28,0,0,0,0,.52c0,.11-.06.16-.11.16s-.1-.08-.1-.2c0-.67,0-1.37,0-1.65s0-.92,0-1.33c0-.13,0-.2.1-.2s.11,0,.11.16a1.66,1.66,0,0,0,0,.36c.05.21.19.27.48.31s1.19,0,2.14,0Z"/><path class="cls-1" d="M269.08,61.58a3.91,3.91,0,0,1,3.86,4.29c0,2.57-1.43,4.18-3.69,4.18a4,4,0,0,1-4-4.29A3.85,3.85,0,0,1,269.08,61.58Zm-.19,6.94c2.18,0,3.53-1.31,3.53-3,0-1.13-.61-2.47-3-2.47-2,0-3.64,1.16-3.64,3.09C265.74,66.9,266.08,68.52,268.89,68.52Z"/><path class="cls-1" d="M266.68,75.14c-.76,0-1,.16-1.06.35a1.71,1.71,0,0,0-.07.54c0,.11-.05.17-.11.17s-.1-.09-.1-.23c0-.66,0-1.14,0-1.33s0-.58,0-1.1c0-.14,0-.23.1-.23s.11.07.11.16a2.49,2.49,0,0,0,0,.47c.07.26.34.3,1.2.31l5.85.09c.2,0,.34.07.34.18s-.16.26-.33.44S271,76.62,269.5,78.1c-.68.7-2.07,2.06-2.21,2.21v0l4.39-.11c.6,0,.77-.1.87-.35a1.94,1.94,0,0,0,.05-.53c0-.13,0-.16.11-.16s.09.1.09.25c0,.54,0,1.08,0,1.3s0,.5,0,1c0,.14,0,.23-.09.23s-.11-.06-.11-.17a1.12,1.12,0,0,0,0-.31c-.08-.28-.26-.36-.81-.38L265.53,81c-.22,0-.31-.08-.31-.16a.61.61,0,0,1,.21-.42c.59-.64,1.81-1.92,2.84-3s2.27-2.19,2.44-2.39v0Z"/></g></g></svg>