<svg xmlns="http://www.w3.org/2000/svg" viewBox="0 0 165.64 101.21"><defs><style>.cls-1,.cls-2{fill:#fff;}.cls-1{fill-rule:evenodd;}</style></defs><g id="圖層_2" data-name="圖層 2"><g id="圖層_1-2" data-name="圖層 1"><path class="cls-1" d="M75.82,42.56c4,0,7.66,0,11.31,0a2.79,2.79,0,0,1,3.06,2.83,36.77,36.77,0,0,1,.11,3.93c0,.73,0,1.46,0,2.19.16,4.58,4.35,7,8.39,4.78a4.76,4.76,0,0,0,2.47-4.62q0-13.86,0-27.71c0-1.32,0-2.63,0-3.94a5.68,5.68,0,0,0-3.78-5.13,6.66,6.66,0,0,1-3-2.32c-2.13-3.45-4-7.07-6-10.72A17.89,17.89,0,0,1,98.35.22a19.21,19.21,0,0,1,17,15.83,27.2,27.2,0,0,1,.3,4.51c0,10.69-.08,21.39-.08,32.08,0,9.14-6.83,16.41-15.3,18.33C89.8,73.34,79.08,67,76.56,56.72c-.66-2.69-.56-5.58-.72-8.39C75.74,46.45,75.82,44.56,75.82,42.56Z"/><path class="cls-1" d="M75.8,28.73c0-2.62,0-5.14,0-7.66a11.1,11.1,0,0,0-.4-2.87,5.22,5.22,0,0,0-6-3.71A4.78,4.78,0,0,0,65,19.31c-.17,7.15-.19,14.3-.21,21.45,0,3.36.12,6.71.18,10.07,0,2.91,1.38,4.68,4.08,5.84a5.68,5.68,0,0,1,2.58,2c2.17,3.56,4.14,7.22,6.24,10.93a17.79,17.79,0,0,1-15.58.16c-7.3-3.31-11.57-8.88-11.63-17.14-.07-11.24.09-22.47-.08-33.71C50.39,10.25,57.46,1.73,67.22.23A19.78,19.78,0,0,1,89.49,14.81a53.71,53.71,0,0,1,1.05,10.4,3,3,0,0,1-3,3.5c-2.27.23-4.56.28-6.85.29C79.16,29,77.57,28.84,75.8,28.73Z"/><path class="cls-2" d="M7.79,88.8H2v12.35H0V82.23H7.79ZM5.92,83.72H2v1.12h4ZM2,87.31h4V86.16H2Zm12.56,4.85H7.35c-.65,3-1.74,5.61-3.42,7.25a7.35,7.35,0,0,0-1.35-1,12.37,12.37,0,0,0,3.05-6.26H3V90.65H5.92c.08-.57.17-1.13.23-1.72l2.1.36c0,.17-.17.27-.44.27,0,.38-.1.74-.17,1.09h6.87ZM12,94.22a16.28,16.28,0,0,1,2,4.18L12.43,99a8.46,8.46,0,0,0-.29-1c-2,.32-3.91.61-5.19.8a.4.4,0,0,1-.29.31L6,97.24c.36,0,.76-.06,1.2-.1A36,36,0,0,0,8.5,92.31l2.08.53c-.06.16-.23.25-.5.25-.3,1.13-.8,2.66-1.26,3.9l2.75-.27a17.54,17.54,0,0,0-1-1.93Zm5.6-12V99c0,1.84-.82,2.18-3.84,2.14a7.22,7.22,0,0,0-.59-1.79c.51,0,1,0,1.45,0,.9,0,1,0,1-.42V88.8H9.53V82.23Zm-2,1.49H11.44v1.12h4.14Zm-4.14,3.59h4.14V86.16H11.44Z"/><path class="cls-2" d="M47.88,93.38H43.59a12.36,12.36,0,0,0,4.54,2.92,8.23,8.23,0,0,0-1.3,1.53,13.32,13.32,0,0,1-5.4-4.45H35.05a13,13,0,0,1-1.87,2.14h3.9V93.8l2.5.15c0,.19-.14.29-.48.33v1.24h4.22v1.62H39.1V99h7.16v1.66H30.16V99h6.92V97.14H33V95.71a14.2,14.2,0,0,1-3.53,2.35,7.33,7.33,0,0,0-1.28-1.51,12.61,12.61,0,0,0,4.62-3.17H28.39V91.72h4.39V85.19H29.44V83.56h3.34V81.5l2.5.14c0,.19-.17.3-.51.36v1.56h6.74V81.5l2.52.14c0,.19-.14.3-.5.36v1.56h3.38v1.63H43.53v6.53h4.35Zm-6.37-8.19H34.77v1.2h6.74Zm-6.74,2.65v1.22h6.74V87.84Zm0,2.64v1.24h6.74V90.48Z"/><path class="cls-2" d="M63.15,88.74l1.13.34a.72.72,0,0,1-.15.33,25.57,25.57,0,0,1-1.63,7.1c2,1.78,4.85,2.18,8.2,2.2,1,0,5.53,0,6.83,0a6.8,6.8,0,0,0-.78,1.93H70.66c-3.73,0-6.74-.46-9-2.37a9.26,9.26,0,0,1-2.59,3,7.53,7.53,0,0,0-1.51-1.36,8.59,8.59,0,0,0,2.73-3.09,13.9,13.9,0,0,1-2-4.16L59.85,92a11.1,11.1,0,0,0,1.28,2.85,22.06,22.06,0,0,0,1-4.34H60.08l-.36.73-1.8-.48c1-1.93,2.16-4.41,3-6.28H57.75V82.78H62l.36-.06,1.2.44a2.66,2.66,0,0,1-.21.33c-.59,1.32-1.51,3.34-2.44,5.31h1.87ZM69.23,86V84.71h-4V83.18h4V81.46l2.42.12c0,.19-.17.3-.48.36v1.24h4.41V86h1.74v1.57H75.58v2.82H71.17v1.3h4.76v1.49H71.17v1.3h5.71v1.62H71.17v2H69.23v-2H63.88V94.43h5.35v-1.3H64.8V91.64h4.43v-1.3H65.12V88.8h4.11V87.52H63.59V86Zm4.39-1.24H71.17V86h2.45Zm0,4.09V87.52H71.17V88.8Z"/><path class="cls-2" d="M106.49,96.11H99.33a20.83,20.83,0,0,0,7.56,2.77,8.32,8.32,0,0,0-1.26,1.7,20,20,0,0,1-7.75-3.69v4.26H96V96.89a20.64,20.64,0,0,1-7.71,3.76A8.32,8.32,0,0,0,87,99a20.68,20.68,0,0,0,7.42-2.9h-7V94.52H96v-1.1a7.87,7.87,0,0,1-1.3.63,7.56,7.56,0,0,0-1.33-1.32A7.37,7.37,0,0,0,94.88,92v0c-2.48.45-5,.89-6.64,1.14a.34.34,0,0,1-.29.29l-.65-1.82,3.36-.4V88.57H87.78V87.14h7.54v1.43H92.48V91l2.88-.38,0,1a3,3,0,0,0,1-2.46V87h7.6v4c0,.69,0,.78.36.78.63,0,.69,0,.82-.06s.23-.4.27-2a4.06,4.06,0,0,0,1.34.69c-.1,2-.14,3-1.93,3h-1c-1.75,0-1.75-1.19-1.75-2.35V88.38h-3.9v.8a4.62,4.62,0,0,1-1.47,3.59l1.57.11c0,.19-.15.29-.48.33v1.31h8.61ZM92,86.7a10.74,10.74,0,0,0-.94-2h-.74a11.84,11.84,0,0,1-1.76,2,11.49,11.49,0,0,0-1.49-1,12.15,12.15,0,0,0,3-4.31l2.14.69a.45.45,0,0,1-.48.19,9.06,9.06,0,0,1-.42.82h5.25v1.39a10.35,10.35,0,0,0,2-3.09l2.21.63c-.07.17-.23.23-.49.23-.12.28-.27.57-.42.84h6.79v1.6h-4.33a8.11,8.11,0,0,1,1,1.53l-1.68.52a10.53,10.53,0,0,0-1.3-2H98.8A10.83,10.83,0,0,1,97,86.52a10.09,10.09,0,0,0-1.62-.93,6.85,6.85,0,0,0,1-.92H92.9a9.06,9.06,0,0,1,.76,1.55Zm8.86,5.67a14,14,0,0,0-2.66-2.24l1.13-1a14.56,14.56,0,0,1,2.75,2.12Z"/><path class="cls-2" d="M131,93.91a16.6,16.6,0,0,0,.65,2.47,9.22,9.22,0,0,0,1.49-2.31l2,.68c0,.14-.19.23-.44.23a11.27,11.27,0,0,1-2.29,3.08c.52.91,1.13,1.43,1.83,1.43s.82-.5.94-2.31a3.62,3.62,0,0,0,1.26.95c-.31,2.41-.86,3.06-2.35,3.06a3.56,3.56,0,0,1-3-2,15.27,15.27,0,0,1-3.49,1.93,6.93,6.93,0,0,0-1-1.28,13.52,13.52,0,0,0,3.8-2.14,20.46,20.46,0,0,1-1.05-3.78h-2.94c0,.33-.08.69-.14,1A18.39,18.39,0,0,1,129,97l-1.07,1.37a15.77,15.77,0,0,0-2-1.68,7.55,7.55,0,0,1-2.79,4.47,5.22,5.22,0,0,0-1.16-1.32c1.89-1.33,2.44-3.55,2.65-5.9h-1.32v-.78l-.84,1.2c-.26-.68-.8-1.83-1.3-2.84v9.66h-1.81v-9a20.6,20.6,0,0,1-2.06,5,10.36,10.36,0,0,0-.92-1.68,23.87,23.87,0,0,0,2.81-7.66h-2.35V86h2.52V81.5l2.27.12c0,.17-.15.28-.46.34V86h2.07v1.83h-2.07v1.38c.5.74,1.65,2.61,2.14,3.45v-.36H129a68.47,68.47,0,0,1-.59-7.47,1.42,1.42,0,0,1-.31,0,45.17,45.17,0,0,1-2.92,4.47l1.72-.13c-.15-.4-.31-.82-.48-1.19l1.15-.4a10.71,10.71,0,0,1,1.1,3.13l-1.24.5c-.05-.23-.09-.48-.15-.76-1.37.19-2.63.34-3.53.44a.35.35,0,0,1-.29.28l-.59-1.74.67,0c.44-.56.93-1.26,1.41-2a16.7,16.7,0,0,0-2.18-2.08l.77-1.09.42.31a21.42,21.42,0,0,0,1.22-2.87l1.72.73a.44.44,0,0,1-.46.19c-.36.78-1,1.91-1.49,2.77.29.27.54.53.78.78.46-.8.88-1.6,1.21-2.29l1.45.75c0-1,0-2,0-3.08l2.23.1c0,.19-.15.32-.47.36,0,1.09,0,2.16,0,3.19l.68-.94.42.31a23.07,23.07,0,0,0,1.21-2.87l1.75.73a.47.47,0,0,1-.47.19,22.38,22.38,0,0,1-1.53,2.75c.3.27.57.55.8.8.46-.8.9-1.6,1.22-2.29l1.64.84a.51.51,0,0,1-.47.19A45,45,0,0,1,132.63,89l1.87-.13c-.17-.38-.33-.74-.5-1.07l1.15-.46a11.35,11.35,0,0,1,1.24,3.12l-1.24.55a6.35,6.35,0,0,0-.23-.94l-2.18.29a9.86,9.86,0,0,1,2,1.47l-.45.44H136v1.6Zm-.63-4.75.63,0c.37-.5.79-1.11,1.21-1.74a15.32,15.32,0,0,0-2.08-2,61.55,61.55,0,0,0,.59,6.91h2.42a17.72,17.72,0,0,0-1.45-1l.92-.84-1.32.17a.35.35,0,0,1-.29.27Z"/><path class="cls-2" d="M150.8,89.12c.59.8,2.18,3.21,2.54,3.8l-1.07,1.45c-.29-.69-.9-1.87-1.47-2.88v9.66H149V92.06a20.14,20.14,0,0,1-2.31,5.16,10.18,10.18,0,0,0-.94-1.72,22.51,22.51,0,0,0,3.09-7.64h-2.63V86H149V81.5l2.31.12c0,.17-.14.28-.48.34V86h2.31v1.85H150.8Zm14.84,7.12v1.51h-1.28v1.51c0,1.83-.94,1.89-3.75,1.89a8.67,8.67,0,0,0-.55-1.6c.46,0,.9,0,1.28,0,1,0,1.18,0,1.18-.33V97.75h-6.47v3.4h-1.83v-3.4h-1.49V96.24h1.49V91h4.08v-1h-5.21V88.47h2.81v-1.2H154V85.86h1.89V84.73h-2.33V83.3h2.33V81.5l2.35.12c0,.17-.16.3-.48.34V83.3h2.94V81.5l2.35.12c0,.19-.14.3-.48.34V83.3h2.6v1.43h-2.6v1.13h2.2v1.41h-2.2v1.2h2.94v1.47H160.1v1h4.26v5.25Zm-7.34-3.82h-2.25v1.17h2.25ZM156.05,95v1.28h2.25V95Zm1.72-10.23v1.13h2.94V84.73Zm0,2.54v1.2h2.94v-1.2Zm4.75,5.15H160.1v1.17h2.42Zm-2.42,3.82h2.42V95H160.1Z"/></g></g></svg>