<svg xmlns="http://www.w3.org/2000/svg" viewBox="0 0 316.75 109.17"><defs><style>.cls-1,.cls-2{fill:#fff;}.cls-1{fill-rule:evenodd;}.cls-3{fill:#d3dfd4;}</style></defs><g id="圖層_2" data-name="圖層 2"><g id="圖層_1-2" data-name="圖層 1"><path class="cls-1" d="M153.25,31.64c3,0,5.69,0,8.4,0a2.08,2.08,0,0,1,2.28,2.11c.11,1,.06,1.94.08,2.92,0,.54,0,1.08,0,1.62a4.05,4.05,0,0,0,6.24,3.56,3.56,3.56,0,0,0,1.84-3.43q0-10.3,0-20.61c0-1,0-2,0-2.93a4.21,4.21,0,0,0-2.81-3.81A5,5,0,0,1,167,9.35c-1.59-2.56-3-5.25-4.48-8A13.24,13.24,0,0,1,170,.16a14.3,14.3,0,0,1,12.61,11.77,20.87,20.87,0,0,1,.22,3.35c0,8-.06,15.91-.06,23.86,0,6.79-5.07,12.2-11.37,13.62a14.75,14.75,0,0,1-17.61-10.59,33.92,33.92,0,0,1-.53-6.24C153.19,34.54,153.25,33.13,153.25,31.64Z"/><path class="cls-1" d="M153.23,21.36c0-1.95,0-3.83,0-5.69a7.68,7.68,0,0,0-.3-2.14,3.87,3.87,0,0,0-4.46-2.76,3.56,3.56,0,0,0-3.29,3.59C145,19.67,145,25,145,30.3c0,2.5.09,5,.14,7.49a4.4,4.4,0,0,0,3,4.34,4.22,4.22,0,0,1,1.92,1.5c1.61,2.64,3.08,5.37,4.64,8.12a13.19,13.19,0,0,1-11.58.12c-5.43-2.46-8.61-6.6-8.65-12.74-.05-8.36.07-16.71-.06-25.06-.1-6.45,5.15-12.79,12.41-13.9A14.7,14.7,0,0,1,163.4,11a39.85,39.85,0,0,1,.79,7.74,2.23,2.23,0,0,1-2.2,2.6c-1.68.17-3.39.2-5.09.21C155.72,21.57,154.54,21.44,153.23,21.36Z"/><path class="cls-2" d="M61.76,25.2H54.47v16H51.26v-25h10.5Zm-3.09-6.64h-4.2v1h4.2Zm-4.2,4.22h4.2V21.66h-4.2Zm12.89,9.27a21.26,21.26,0,0,1,2.28,5.35l-2.42,1a10.35,10.35,0,0,0-.3-1.15c-2.33.43-4.61.84-6.14,1.06a.6.6,0,0,1-.44.44l-1-3,1.45-.14a42.14,42.14,0,0,0,1.51-5.95h-1c-.83,3.89-2.17,7.29-4.2,9.49a12.93,12.93,0,0,0-2.25-1.59c1.76-1.79,2.91-4.58,3.62-7.9h-3V27.23h3.4c.11-.66.19-1.32.25-2l3.34.57c-.05.22-.27.36-.66.36,0,.35-.08.71-.13,1.07h8.53v2.44H62.37l3.18.79a.71.71,0,0,1-.71.36,42.87,42.87,0,0,1-1.43,4.55l2.72-.27c-.33-.74-.69-1.51-1-2.17Zm7.07-15.9V37.81c0,2.77-1.26,3.38-5.37,3.32a11.06,11.06,0,0,0-.93-2.85c.57,0,1.23,0,1.72,0,1.18,0,1.32,0,1.32-.54V25.2H63.63v-9Zm-3.26,2.41H66.76v1h4.41Zm-4.41,4.22h4.41V21.66H66.76Z"/><path class="cls-2" d="M111.69,31.2h-5.1a16.07,16.07,0,0,0,5.4,3.21A12.18,12.18,0,0,0,109.83,37a17.43,17.43,0,0,1-4.36-2.9v2h-5V37.9h9v2.71H88.38V37.9h8.7V36H92.17V34.39a18.82,18.82,0,0,1-4.39,2.82,13.38,13.38,0,0,0-2.11-2.52,16.24,16.24,0,0,0,5.59-3.49H85.94V28.52h5.62V20.43H87.39V17.77h4.17V15.33l4.06.19c0,.3-.24.44-.74.55v1.7h7.85V15.33l4.14.19c0,.3-.25.46-.77.55v1.7h4.25v2.66H106.1v8.09h5.59Zm-11.27,2.25h4.39a18.83,18.83,0,0,1-2-2.25H95.05a15.41,15.41,0,0,1-1.9,2.25h3.93V31.51l4.08.22c0,.27-.22.43-.74.52Zm2.31-13H94.88v1.15h7.85Zm-7.85,3.42V25h7.85V23.85Zm0,3.49v1.18h7.85V27.34Z"/><path class="cls-2" d="M212.36,24.57l1.81.52a1.78,1.78,0,0,1-.19.55,37.9,37.9,0,0,1-1.92,9.24c2.57,2,6.06,2.47,10.12,2.49,1.64,0,7.26,0,9.29-.08a11.49,11.49,0,0,0-1.29,3.21h-8.09c-4.66,0-8.47-.55-11.38-2.77a12.37,12.37,0,0,1-3.07,3.57,11.56,11.56,0,0,0-2.47-2.22,10.4,10.4,0,0,0,3.24-3.71A19.19,19.19,0,0,1,205.8,30l2.58-.93a15.64,15.64,0,0,0,1.35,3.12,27,27,0,0,0,1-4.66h-1.89l-.36.79-3-.76c1.2-2.42,2.55-5.43,3.56-7.85h-3.62V16.83h5.43l.6-.08,1.9.69c-.09.16-.17.35-.28.52-.71,1.73-1.81,4.19-2.93,6.69h1.64Zm7.73-3.65V19.8h-4.85V17.3h4.85V15.24l3.92.22c0,.28-.22.44-.71.52V17.3h5.54v3.62h2.28v2.52h-2.28v3.65H223.3v1.15h6v2.39h-6v1.18h7.21v2.6H223.3v2.31h-3.21V34.41h-6.58v-2.6h6.58V30.63h-5.37V28.24h5.37V27.09h-5v-2.5h5V23.44h-7V20.92Zm5.51-1.12h-2.3v1.12h2.3Zm0,4.79V23.44h-2.3v1.15Z"/><path class="cls-2" d="M266.84,34.74h-8.75a27.67,27.67,0,0,0,9.27,2.91,14.58,14.58,0,0,0-2.11,2.8,23.68,23.68,0,0,1-9.35-4.28v5h-3.21v-5a25.19,25.19,0,0,1-9.38,4.39,16.09,16.09,0,0,0-2-2.69,26.87,26.87,0,0,0,9-3.1H241.8V32.16h10.89v-.71l-.52.22a11.46,11.46,0,0,0-2.06-2.06c-2.63.44-5.16.85-7,1.13a.49.49,0,0,1-.41.41l-1-2.91c1.15-.11,2.6-.24,4.22-.44V24.9h-3.48V22.62h9.92V24.9H249v2.6l3.48-.41.06,1a3.55,3.55,0,0,0,1.15-2.88V22.48h10.12v4.88c0,.86,0,1,.33,1,.6,0,.68,0,.77-.08s.27-.77.32-2.47a7.86,7.86,0,0,0,2.14,1.16c-.22,2.71-.3,4-2.74,4h-1.37a2.28,2.28,0,0,1-2.52-2.55l-1.57,1.43a16.68,16.68,0,0,0-2.68-2.58,5.66,5.66,0,0,1-1.7,2.91l1.86.11c0,.24-.25.44-.71.49v1.45h10.94ZM247.75,22.35a12.15,12.15,0,0,0-1.18-2.53H246a16.62,16.62,0,0,1-2.16,2.42,18.31,18.31,0,0,0-2.47-1.65,15.38,15.38,0,0,0,4-5.51l3.48,1.15a.67.67,0,0,1-.68.27l-.42.74h6.2v2a14.16,14.16,0,0,0,2.63-4.17l3.54,1c-.11.25-.35.33-.68.3l-.41.82h8.06v2.58h-4.85a11.31,11.31,0,0,1,1,1.7l-2.8.8a13.48,13.48,0,0,0-1.51-2.5h-1.67a14.93,14.93,0,0,1-2,2.14,23.22,23.22,0,0,0-2.72-1.45,8.42,8.42,0,0,0,.83-.69h-3.82a13.69,13.69,0,0,1,.88,1.76Zm12.92,2.3h-4a9.74,9.74,0,0,1-.09,1.84l1.4-1.21a22.91,22.91,0,0,1,2.72,2.17Z"/><path class="cls-3" d="M4,73.32c0-1.28,0-1.5-.16-1.78s-.44-.25-.79-.25a2.6,2.6,0,0,0-1.66.49,4.12,4.12,0,0,0-1,1.49c0,.07-.06.11-.23.08S0,73.28,0,73.2c.11-.71.21-1.7.26-2.41,1.59,0,3.07,0,4.59,0s3,0,4.62,0c0,.71.15,1.7.25,2.41,0,.08,0,.12-.16.15s-.21,0-.23-.08a3.88,3.88,0,0,0-1-1.49,2.59,2.59,0,0,0-1.7-.49c-.35,0-.63,0-.82.28a4,4,0,0,0-.18,1.75v5.06c0,1.4,0,1.55.12,1.86s.55.29,1.07.35c.1,0,.13,0,.13.18s0,.18-.14.18c-.6,0-1.38,0-2,0s-1.38,0-1.92,0c-.1,0-.13,0-.13-.17s0-.18.13-.19c.49-.06.81-.07,1-.35A5.22,5.22,0,0,0,4,78.38Z"/><path class="cls-3" d="M13.86,75.69A2.43,2.43,0,0,1,16,74.4a1.92,1.92,0,0,1,2.09,2c0,.76,0,1.21,0,1.57v1a4.07,4.07,0,0,0,.1,1.46c.08.23.34.23.76.27.09,0,.11,0,.11.17s0,.15-.12.15c-.53,0-1.09,0-1.55,0s-1,0-1.56,0c-.11,0-.14,0-.14-.15s0-.16.13-.17c.4,0,.62,0,.72-.27a3.92,3.92,0,0,0,.1-1.46V77a3.06,3.06,0,0,0-.13-1.18,1.08,1.08,0,0,0-1.06-.71,1.49,1.49,0,0,0-1.24.79A2,2,0,0,0,13.86,77V78.9a5.3,5.3,0,0,0,.08,1.46c.09.2.31.23.77.27.11,0,.14,0,.14.15s0,.17-.14.17c-.52,0-1,0-1.48,0s-1.11,0-1.66,0c-.08,0-.11,0-.11-.17s0-.14.11-.15c.44,0,.64,0,.74-.27a4.33,4.33,0,0,0,.11-1.46V72.6a8.14,8.14,0,0,0-.05-1.13.38.38,0,0,0-.46-.33l-.39,0c-.14,0-.16,0-.17-.16s0-.17.14-.2a22,22,0,0,0,2.3-.61c.06,0,.14.07.14.11,0,1-.07,2-.07,3.4Z"/><path class="cls-3" d="M22.56,77.76c0,1.84,1.13,2.76,2,2.76a2.12,2.12,0,0,0,1.93-1,.19.19,0,0,1,.14-.07.25.25,0,0,1,.13.06s.11.1.11.14a.45.45,0,0,1-.07.15,2.76,2.76,0,0,1-2.58,1.38A3.15,3.15,0,0,1,21,77.83a3.29,3.29,0,0,1,3.23-3.45A2.76,2.76,0,0,1,27,77a.28.28,0,0,1-.07.23c-.07.09-.12.07-.21.07-1.4,0-2.81,0-4.05,0A1.87,1.87,0,0,0,22.56,77.76Zm2.73-1.05c.12,0,.13-.1.13-.22,0-.78-.38-1.69-1.19-1.69s-1.33.81-1.54,2A22.56,22.56,0,0,0,25.29,76.71Z"/><path class="cls-3" d="M37,75.47a2.23,2.23,0,0,1,1.85-1.11,3.05,3.05,0,0,1,3,3.37,3.16,3.16,0,0,1-3.2,3.44,2.5,2.5,0,0,1-1.84-.78.27.27,0,0,0-.32,0l-.61.55a.36.36,0,0,1-.28.08c-.15,0-.18,0-.17-.13.07-1,.11-1.75.11-3.08V72.63a6.39,6.39,0,0,0-.07-1.2c0-.24-.22-.29-.46-.28l-.34,0c-.14,0-.17,0-.19-.17s0-.17.13-.21a18.14,18.14,0,0,0,2.29-.6c.08,0,.15.06.15.11,0,1-.07,2-.07,3.42Zm0,3.17a2.21,2.21,0,0,0,.21,1.22,1.45,1.45,0,0,0,1.27.85c1,0,1.71-1.21,1.71-3S39.41,75,38.46,75a1.49,1.49,0,0,0-1.24.71A1.65,1.65,0,0,0,37,76.84Z"/><path class="cls-3" d="M51.22,80.6c.12,0,.14,0,.14.17s0,.15-.13.15c-.52,0-1.62.16-2.15.24a.17.17,0,0,1-.16-.17c0-.4,0-.69,0-1.09a2.35,2.35,0,0,1-2.09,1.27,1.92,1.92,0,0,1-2.09-2c0-.53,0-1,0-1.49V76.6a5.91,5.91,0,0,0,0-1.07c-.06-.25-.2-.38-.43-.37l-.37,0c-.14,0-.16,0-.18-.16s0-.19.14-.2c.63-.09,1.63-.25,2.25-.39a.17.17,0,0,1,.16.14c0,1,0,1.81,0,2.43v1.47a3.3,3.3,0,0,0,.15,1.34,1,1,0,0,0,1,.67,1.44,1.44,0,0,0,1.22-.81,1.82,1.82,0,0,0,.3-1.1v-2a4.54,4.54,0,0,0-.09-1.06c0-.25-.18-.39-.43-.38l-.37,0c-.13,0-.16,0-.17-.17s0-.18.15-.19c.56-.07,1.63-.28,2.19-.4.07,0,.15.07.15.12,0,1,0,1.83,0,2.45v1.93a4.27,4.27,0,0,0,.09,1.38c.08.24.25.26.51.28Z"/><path class="cls-3" d="M54.17,76.88a6.15,6.15,0,0,0-.07-1.19c-.07-.22-.2-.3-.51-.27l-.36,0c-.14,0-.17,0-.19-.15s0-.18.16-.21c.54-.12,1.6-.42,2.26-.64a.15.15,0,0,1,.16.14c0,1,0,1.8,0,2.47v1.82a4.8,4.8,0,0,0,.1,1.49c.11.21.34.21.79.24.08,0,.1.06.1.18s0,.17-.1.17c-.5,0-1.07,0-1.55,0s-1.1,0-1.57,0c-.11,0-.14,0-.14-.17s0-.18.12-.18c.41,0,.63,0,.74-.24a3.79,3.79,0,0,0,.11-1.49Zm1.54-5.4a.94.94,0,1,1-1.88,0,.94.94,0,0,1,1.88,0Z"/><path class="cls-3" d="M59.28,72.59a5.2,5.2,0,0,0-.1-1.15.4.4,0,0,0-.46-.32l-.38,0c-.12,0-.15,0-.16-.15s0-.18.13-.21a21.8,21.8,0,0,0,2.31-.62c.09,0,.16,0,.16.1,0,1-.07,2.06-.07,3.43v5.16a4.42,4.42,0,0,0,.1,1.49c.11.22.34.24.78.28.08,0,.1,0,.1.17s0,.15-.11.15c-.52,0-1.06,0-1.52,0s-1.08,0-1.59,0c-.13,0-.16,0-.16-.15s0-.16.14-.17c.44,0,.6-.06.72-.28a4.52,4.52,0,0,0,.11-1.49Z"/><path class="cls-3" d="M68.48,72.61a5.72,5.72,0,0,0-.06-1.2c0-.22-.26-.29-.5-.27l-.33,0c-.17,0-.2,0-.21-.15s0-.18.17-.21a19,19,0,0,0,2.28-.63c.07,0,.17.07.17.14-.06,1-.08,2-.08,3.39v5.23A4.47,4.47,0,0,0,70,80.38c.1.21.25.21.44.22l.32,0c.09,0,.12,0,.12.15s0,.17-.12.18c-.56,0-1.55.13-2.18.24-.1,0-.14,0-.14-.17,0-.33,0-.6,0-1a2.11,2.11,0,0,1-1.83,1.12c-1.91,0-3-1.38-3-3.35a3.16,3.16,0,0,1,3.19-3.47,2.22,2.22,0,0,1,1.65.71Zm0,4.24a2.15,2.15,0,0,0-.26-1.23,1.45,1.45,0,0,0-1.2-.79c-1.09,0-1.73,1.2-1.73,3S66,80.52,67,80.52a1.5,1.5,0,0,0,1.2-.74,1.62,1.62,0,0,0,.28-1.13Z"/><path class="cls-3" d="M73.64,76.88a6.15,6.15,0,0,0-.07-1.19c-.07-.22-.21-.3-.52-.27l-.36,0c-.14,0-.17,0-.18-.15s0-.18.15-.21c.55-.12,1.61-.42,2.26-.64a.15.15,0,0,1,.17.14c0,1-.06,1.8-.06,2.47v1.82a4.8,4.8,0,0,0,.1,1.49c.11.21.35.21.8.24.08,0,.09.06.09.18s0,.17-.09.17c-.51,0-1.08,0-1.55,0s-1.1,0-1.58,0c-.11,0-.14,0-.14-.17s0-.18.13-.18c.4,0,.63,0,.74-.24a3.79,3.79,0,0,0,.11-1.49Zm1.53-5.4a1,1,0,0,1-.92,1,1,1,0,0,1-1-1,1,1,0,0,1,1-.93A1,1,0,0,1,75.17,71.48Z"/><path class="cls-3" d="M78,75.39c-.14,0-.18,0-.2-.16s0-.18.17-.21a18.76,18.76,0,0,0,2.2-.61c.09,0,.17.06.17.11,0,.39,0,.83,0,1.19a2.49,2.49,0,0,1,2.16-1.33,2,2,0,0,1,2,2c0,.51,0,1.21,0,1.54v1a4.48,4.48,0,0,0,.11,1.47c.09.21.32.23.72.27.09,0,.11,0,.11.17s0,.15-.11.15c-.51,0-1,0-1.52,0s-1.06,0-1.59,0c-.09,0-.11,0-.11-.15s0-.17.11-.17c.38,0,.6,0,.71-.27a4,4,0,0,0,.12-1.47V77a2.69,2.69,0,0,0-.17-1.2,1,1,0,0,0-1-.7,1.54,1.54,0,0,0-1.25.8,1.83,1.83,0,0,0-.3,1.11v1.89a4.73,4.73,0,0,0,.09,1.47c.11.23.33.23.76.27.1,0,.13,0,.13.17s0,.15-.13.15c-.48,0-1,0-1.49,0s-1.07,0-1.6,0c-.08,0-.1,0-.1-.15s0-.16.1-.17c.4,0,.63,0,.74-.27a4.44,4.44,0,0,0,.1-1.47V76.82a3.7,3.7,0,0,0-.1-1.17.38.38,0,0,0-.43-.29Z"/><path class="cls-3" d="M91.25,79.9C93.68,79.88,94,81,94,81.77c0,1.13-.67,2.53-3.64,2.53-1.87,0-2.94-.8-2.94-1.69s.47-1.24,1.54-1.65c-.85-.23-1.1-.6-1.1-1s.5-1,1.52-1.38c-1-.28-1.76-.82-1.76-2a2.37,2.37,0,0,1,2.57-2.19,3.2,3.2,0,0,1,1.53.34c1,0,1.68-.06,2.25-.11a.1.1,0,0,1,.1.09l-.2.44s-.06.09-.11.09c-.5,0-.89,0-1.46,0a1.72,1.72,0,0,1,.64,1.33c0,1.2-.85,2.13-2.58,2.13a3.53,3.53,0,0,1-.48,0c-.47.28-.71.49-.71.85s.32.45.84.45Zm-.89,1.23c-.29,0-.67,0-1,0a1.68,1.68,0,0,0-.29.25,1.53,1.53,0,0,0-.38,1.08c0,.85.73,1.47,1.87,1.47,1.31,0,2.08-.66,2.08-1.59,0-.59-.18-1.16-1.77-1.16Zm-1.28-4.6c0,1.06.44,1.76,1.18,1.76s1.16-.69,1.16-1.76-.45-1.76-1.16-1.76S89.08,75.51,89.08,76.53Z"/><path class="cls-3" d="M97.72,78.05c-1-.47-1.62-.81-1.62-2,0-.78.66-1.67,2.21-1.67a4.63,4.63,0,0,1,1,.14,2.56,2.56,0,0,0,.92,0c0,.49.07,1.16.13,1.62,0,.08,0,.11-.16.13s-.16,0-.21-.1c-.37-.77-1-1.41-1.63-1.41s-1.08.42-1.08,1c0,.39.3.68,1,1l.49.21c1.21.53,1.91,1,1.91,2.19,0,1-.73,2-2.45,2a4.92,4.92,0,0,1-2-.39A11.06,11.06,0,0,1,96,79.25c0-.1,0-.11.14-.13s.15,0,.19.09a2.51,2.51,0,0,0,2,1.54,1.12,1.12,0,0,0,1.21-1.24c0-.6-.48-.85-1.28-1.24Z"/><path class="cls-3" d="M110.93,75.47a2.23,2.23,0,0,1,1.85-1.11c1.8,0,3,1.38,3,3.37a3.16,3.16,0,0,1-3.19,3.44,2.5,2.5,0,0,1-1.84-.78.27.27,0,0,0-.32,0l-.61.55a.36.36,0,0,1-.28.08c-.16,0-.18,0-.17-.13.07-1,.11-1.75.11-3.08V72.63a6.39,6.39,0,0,0-.07-1.2c0-.24-.22-.29-.46-.28l-.35,0c-.14,0-.16,0-.18-.17s0-.17.13-.21a17.58,17.58,0,0,0,2.28-.6c.09,0,.16.06.16.11,0,1-.07,2-.07,3.42Zm0,3.17a2.12,2.12,0,0,0,.21,1.22,1.45,1.45,0,0,0,1.27.85c1,0,1.71-1.21,1.71-3s-.77-2.7-1.71-2.7a1.52,1.52,0,0,0-1.25.71,1.65,1.65,0,0,0-.23,1.09Z"/><path class="cls-3" d="M122.12,79.22c-.33.85-.61,1.58-.9,2.2-.8,1.72-1.59,2.88-2.9,2.88-.48,0-.6-.14-.6-.38a1,1,0,0,1,.86-1c.32,0,.45.18.7.18a.64.64,0,0,0,.54-.28,6.29,6.29,0,0,0,1-1.67c-.28-.63-.49-1.1-.8-1.87L119,76.61a6.27,6.27,0,0,0-.67-1.36c-.15-.2-.32-.27-.73-.29-.07,0-.12,0-.12-.19s0-.16.12-.16c.52,0,1.15,0,1.61,0s1.15,0,1.68,0c.08,0,.12,0,.12.16s0,.19-.11.19c-.38,0-.67.08-.75.25s0,.64.37,1.4l.73,1.87c.18.46.23.66.32.94.11-.25.18-.48.37-1l.69-1.84c.26-.72.28-1.13.14-1.35s-.32-.27-.69-.29c-.09,0-.12,0-.12-.19s0-.16.14-.16c.37,0,.9,0,1.28,0s.8,0,1.19,0c.09,0,.12,0,.12.16s0,.17-.12.19a.94.94,0,0,0-.62.27,3.43,3.43,0,0,0-.78,1.37Z"/><path class="cls-3" d="M132,75.21c-.12,0-.15,0-.15-.2s0-.18.17-.19a2.39,2.39,0,0,0,1.22-.6,3.18,3.18,0,0,0,.73-1c0-.11.08-.14.23-.14s.2,0,.2.14c0,.46,0,1,0,1.42.63,0,1.39,0,2,0,.05,0,.07,0,.05.09l-.15.41a.14.14,0,0,1-.14.1c-.52,0-1.17-.06-1.77-.06l0,3.57a2.38,2.38,0,0,0,.27,1.44.92.92,0,0,0,.75.37,1.4,1.4,0,0,0,.89-.37c.07-.06.14,0,.23,0s.13.15,0,.26a2.19,2.19,0,0,1-1.68.73,2,2,0,0,1-1.47-.48,2.12,2.12,0,0,1-.47-1.56c0-.67,0-1.29,0-2l0-2Z"/><path class="cls-3" d="M140.56,75.69a2.42,2.42,0,0,1,2.1-1.29,1.93,1.93,0,0,1,2.1,2c0,.76,0,1.21,0,1.57v1a4.45,4.45,0,0,0,.09,1.46c.09.23.35.23.77.27.09,0,.11,0,.11.17s0,.15-.12.15c-.53,0-1.09,0-1.55,0s-1,0-1.56,0c-.11,0-.14,0-.14-.15s0-.16.13-.17c.4,0,.62,0,.72-.27a3.92,3.92,0,0,0,.1-1.46V77a3.06,3.06,0,0,0-.13-1.18,1.08,1.08,0,0,0-1.06-.71,1.49,1.49,0,0,0-1.24.79,2,2,0,0,0-.29,1.12V78.9a5.3,5.3,0,0,0,.08,1.46c.09.2.31.23.77.27.11,0,.14,0,.14.15s0,.17-.14.17c-.52,0-1,0-1.48,0s-1.11,0-1.66,0c-.08,0-.11,0-.11-.17s0-.14.11-.15c.44,0,.64,0,.74-.27a4.33,4.33,0,0,0,.11-1.46V72.6a8.14,8.14,0,0,0-.05-1.13.38.38,0,0,0-.46-.33l-.39,0c-.14,0-.16,0-.17-.16s0-.17.14-.2a22.66,22.66,0,0,0,2.3-.61c.06,0,.14.07.14.11,0,1-.07,2-.07,3.4Z"/><path class="cls-3" d="M149.26,77.76c0,1.84,1.13,2.76,2,2.76a2.13,2.13,0,0,0,1.94-1,.19.19,0,0,1,.14-.07.25.25,0,0,1,.13.06s.11.1.11.14a.45.45,0,0,1-.07.15,2.76,2.76,0,0,1-2.58,1.38,3.15,3.15,0,0,1-3.22-3.34,3.29,3.29,0,0,1,3.23-3.45,2.76,2.76,0,0,1,2.72,2.6.28.28,0,0,1-.07.23c-.07.09-.12.07-.21.07-1.4,0-2.81,0-4.05,0A1.87,1.87,0,0,0,149.26,77.76ZM152,76.71c.11,0,.13-.1.13-.22,0-.78-.38-1.69-1.19-1.69s-1.33.81-1.54,2A22.56,22.56,0,0,0,152,76.71Z"/><path class="cls-3" d="M161.69,75.4c-.16,0-.19,0-.2-.15s0-.18.17-.21a19.33,19.33,0,0,0,2.23-.63c.1,0,.18.06.18.13,0,.39,0,.81,0,1.36.42-.75,1-1.53,1.8-1.53.47,0,.76.18.76.43,0,.56-.42,1-.75,1s-.5-.31-.78-.31-.36.07-.64.42a1.78,1.78,0,0,0-.39,1.23v1.7a4.56,4.56,0,0,0,.1,1.47c.11.23.33.23.82.27.08,0,.1,0,.1.18s0,.14-.1.14c-.53,0-1.12,0-1.58,0s-1.11,0-1.63,0c-.08,0-.11,0-.11-.14s0-.17.11-.18c.42,0,.64,0,.74-.27a3.66,3.66,0,0,0,.14-1.47V76.82a4.18,4.18,0,0,0-.11-1.14.41.41,0,0,0-.48-.31Z"/><path class="cls-3" d="M169.31,76.88a6.15,6.15,0,0,0-.07-1.19c-.07-.22-.21-.3-.51-.27l-.37,0c-.13,0-.16,0-.18-.15s0-.18.16-.21c.54-.12,1.6-.42,2.26-.64a.15.15,0,0,1,.16.14c0,1,0,1.8,0,2.47v1.82a4.8,4.8,0,0,0,.1,1.49c.11.21.34.21.79.24.08,0,.1.06.1.18s0,.17-.1.17c-.5,0-1.07,0-1.55,0s-1.1,0-1.57,0c-.12,0-.14,0-.14-.17s0-.18.12-.18c.41,0,.63,0,.74-.24a3.79,3.79,0,0,0,.11-1.49Zm1.54-5.4a.95.95,0,1,1-.92-.93A1,1,0,0,1,170.85,71.48Z"/><path class="cls-3" d="M176.75,78.5c.15.43.22.68.36,1.15.18-.48.28-.72.43-1.22l.58-1.83a2.26,2.26,0,0,0,.19-1.38c-.1-.18-.35-.24-.73-.28-.07,0-.1,0-.1-.17s0-.16.12-.16c.4,0,.93,0,1.31,0s.8,0,1.17,0c.11,0,.14,0,.14.16s0,.16-.14.17a1.21,1.21,0,0,0-.71.34,4,4,0,0,0-.7,1.32l-.94,2.59c-.26.73-.36,1-.58,1.63a3.85,3.85,0,0,1-.85.33.14.14,0,0,1-.13-.09c-.19-.58-.36-1.06-.64-1.82l-1-2.64a6.41,6.41,0,0,0-.65-1.44c-.18-.18-.34-.19-.74-.22-.09,0-.11,0-.11-.17s0-.16.11-.16c.53,0,1.14,0,1.6,0s1.16,0,1.69,0c.1,0,.11,0,.11.16s0,.17-.1.17c-.39,0-.69,0-.78.24s.1.64.39,1.42Z"/><path class="cls-3" d="M183.51,77.76c0,1.84,1.13,2.76,2,2.76a2.14,2.14,0,0,0,1.94-1,.19.19,0,0,1,.14-.07.23.23,0,0,1,.12.06c.06,0,.12.1.12.14a.45.45,0,0,1-.07.15,2.77,2.77,0,0,1-2.58,1.38A3.15,3.15,0,0,1,182,77.83a3.29,3.29,0,0,1,3.23-3.45A2.76,2.76,0,0,1,187.9,77a.28.28,0,0,1-.07.23c-.07.09-.13.07-.21.07-1.41,0-2.82,0-4.06,0A2.57,2.57,0,0,0,183.51,77.76Zm2.73-1.05c.11,0,.13-.1.13-.22-.05-.78-.38-1.69-1.19-1.69s-1.34.81-1.55,2A22.73,22.73,0,0,0,186.24,76.71Z"/><path class="cls-3" d="M190,75.4c-.15,0-.18,0-.19-.15s0-.18.17-.21a19.33,19.33,0,0,0,2.23-.63c.09,0,.18.06.18.13,0,.39,0,.81,0,1.36.42-.75,1-1.53,1.8-1.53.47,0,.76.18.76.43,0,.56-.42,1-.75,1s-.5-.31-.78-.31-.36.07-.64.42a1.78,1.78,0,0,0-.39,1.23v1.7a5.05,5.05,0,0,0,.09,1.47c.12.23.34.23.83.27.08,0,.09,0,.09.18s0,.14-.09.14c-.53,0-1.12,0-1.58,0s-1.11,0-1.63,0c-.08,0-.11,0-.11-.14s0-.17.11-.18c.42,0,.64,0,.74-.27a3.66,3.66,0,0,0,.14-1.47V76.82a4.18,4.18,0,0,0-.11-1.14.41.41,0,0,0-.48-.31Z"/><path class="cls-3" d="M198.58,78.05c-1-.47-1.61-.81-1.61-2,0-.78.65-1.67,2.2-1.67a4.63,4.63,0,0,1,1,.14,2.56,2.56,0,0,0,.92,0c0,.49.07,1.16.13,1.62,0,.08,0,.11-.16.13s-.16,0-.21-.1c-.37-.77-1-1.41-1.63-1.41s-1.08.42-1.08,1c0,.39.3.68,1,1l.49.21c1.21.53,1.91,1,1.91,2.19,0,1-.73,2-2.45,2a5,5,0,0,1-2-.39,11.06,11.06,0,0,1-.31-1.52c0-.1,0-.11.14-.13s.15,0,.19.09a2.51,2.51,0,0,0,2,1.54,1.12,1.12,0,0,0,1.21-1.24c0-.6-.48-.85-1.28-1.24Z"/><path class="cls-3" d="M204.8,76.88a6.15,6.15,0,0,0-.07-1.19c-.07-.22-.21-.3-.51-.27l-.37,0c-.14,0-.16,0-.18-.15s0-.18.16-.21c.54-.12,1.6-.42,2.25-.64a.15.15,0,0,1,.17.14c0,1-.05,1.8-.05,2.47v1.82a5.31,5.31,0,0,0,.09,1.49c.11.21.35.21.8.24.08,0,.1.06.1.18s0,.17-.1.17c-.5,0-1.08,0-1.55,0s-1.1,0-1.58,0c-.11,0-.13,0-.13-.17s0-.18.12-.18c.41,0,.63,0,.74-.24a3.79,3.79,0,0,0,.11-1.49Zm1.54-5.4a.95.95,0,1,1-.93-.93A1,1,0,0,1,206.34,71.48Z"/><path class="cls-3" d="M214.09,72.61a5.72,5.72,0,0,0-.06-1.2c-.05-.22-.26-.29-.5-.27l-.33,0c-.17,0-.2,0-.21-.15s0-.18.16-.21a18.68,18.68,0,0,0,2.29-.63c.07,0,.17.07.17.14-.06,1-.09,2-.09,3.39v5.23a4.36,4.36,0,0,0,.1,1.45c.1.21.25.21.43.22l.32,0c.1,0,.13,0,.13.15s0,.17-.13.18c-.55,0-1.54.13-2.17.24-.1,0-.14,0-.14-.17,0-.33,0-.6,0-1a2.12,2.12,0,0,1-1.83,1.12c-1.91,0-3-1.38-3-3.35a3.16,3.16,0,0,1,3.19-3.47,2.24,2.24,0,0,1,1.65.71Zm0,4.24a2.08,2.08,0,0,0-.27-1.23,1.42,1.42,0,0,0-1.2-.79c-1.08,0-1.72,1.2-1.72,3s.69,2.73,1.71,2.73a1.51,1.51,0,0,0,1.2-.74,1.67,1.67,0,0,0,.28-1.13Z"/><path class="cls-3" d="M220,77.76c0,1.84,1.13,2.76,2,2.76a2.12,2.12,0,0,0,1.93-1,.21.21,0,0,1,.14-.07.22.22,0,0,1,.13.06c.06,0,.11.1.11.14a.45.45,0,0,1-.07.15,2.76,2.76,0,0,1-2.58,1.38,3.15,3.15,0,0,1-3.22-3.34,3.29,3.29,0,0,1,3.24-3.45,2.75,2.75,0,0,1,2.71,2.6.31.31,0,0,1-.06.23c-.07.09-.13.07-.21.07-1.41,0-2.82,0-4.06,0A1.87,1.87,0,0,0,220,77.76Zm2.74-1.05c.11,0,.12-.1.12-.22,0-.78-.38-1.69-1.18-1.69s-1.34.81-1.55,2A22.77,22.77,0,0,0,222.71,76.71Z"/><path class="cls-3" d="M237.53,79.38c0,.89.18,1.22.5,1.22a.63.63,0,0,0,.4-.1.15.15,0,0,1,.19.07c0,.1,0,.14-.05.21a2,2,0,0,1-1.18.32,1.2,1.2,0,0,1-1.19-.75,2.44,2.44,0,0,1-1.95.82c-1.36,0-1.78-.85-1.78-1.47a1.65,1.65,0,0,1,.47-1.25,4.51,4.51,0,0,1,1.79-.76,3,3,0,0,0,1.08-.5.73.73,0,0,0,.32-.55v-.39c0-1-.26-1.48-.83-1.48a1,1,0,0,0-.73.28,1,1,0,0,0-.25.78c0,.38-.35.67-1.07.67-.43,0-.55-.16-.55-.44,0-.66,1.08-1.68,2.79-1.68,2,0,2.08,1,2.07,2.08Zm-1.4-2c-.13.21-.33.32-1.11.61a1.42,1.42,0,0,0-1,1.47,1,1,0,0,0,.88,1.14,1.21,1.21,0,0,0,1.24-1.21Z"/><path class="cls-3" d="M240.43,75.4c-.15,0-.18,0-.2-.15s0-.18.17-.21a18.27,18.27,0,0,0,2.23-.63c.1,0,.18.06.18.13,0,.39,0,.81,0,1.36.42-.75,1-1.53,1.8-1.53.47,0,.77.18.77.43,0,.56-.42,1-.76,1s-.5-.31-.78-.31-.36.07-.64.42a1.83,1.83,0,0,0-.39,1.23v1.7a4.56,4.56,0,0,0,.1,1.47c.11.23.33.23.82.27.09,0,.1,0,.1.18s0,.14-.1.14c-.53,0-1.11,0-1.57,0s-1.12,0-1.63,0c-.09,0-.12,0-.12-.14s0-.17.12-.18c.41,0,.64,0,.73-.27a3.66,3.66,0,0,0,.14-1.47V76.82a3.82,3.82,0,0,0-.11-1.14.4.4,0,0,0-.47-.31Z"/><path class="cls-3" d="M248.78,77.76c0,1.84,1.13,2.76,2,2.76a2.12,2.12,0,0,0,1.93-1,.21.21,0,0,1,.14-.07.25.25,0,0,1,.13.06c.05,0,.11.1.11.14a.45.45,0,0,1-.07.15,2.76,2.76,0,0,1-2.58,1.38,3.15,3.15,0,0,1-3.22-3.34,3.29,3.29,0,0,1,3.24-3.45,2.75,2.75,0,0,1,2.71,2.6.28.28,0,0,1-.07.23c-.07.09-.12.07-.21.07-1.4,0-2.81,0-4,0A1.87,1.87,0,0,0,248.78,77.76Zm2.73-1.05c.12,0,.13-.1.13-.22,0-.78-.38-1.69-1.18-1.69s-1.34.81-1.55,2A22.56,22.56,0,0,0,251.51,76.71Z"/><path class="cls-3" d="M266.1,72.61a5.72,5.72,0,0,0-.06-1.2c-.05-.22-.26-.29-.5-.27l-.33,0c-.17,0-.2,0-.21-.15s0-.18.17-.21a19,19,0,0,0,2.28-.63c.07,0,.17.07.17.14-.06,1-.08,2-.08,3.39v5.23a4.47,4.47,0,0,0,.09,1.45c.1.21.25.21.44.22l.32,0c.09,0,.12,0,.12.15s0,.17-.12.18c-.56,0-1.55.13-2.18.24-.1,0-.14,0-.14-.17,0-.33,0-.6,0-1a2.11,2.11,0,0,1-1.83,1.12c-1.91,0-3-1.38-3-3.35a3.16,3.16,0,0,1,3.2-3.47,2.22,2.22,0,0,1,1.64.71Zm0,4.24a2.15,2.15,0,0,0-.26-1.23,1.45,1.45,0,0,0-1.2-.79c-1.09,0-1.73,1.2-1.73,3s.69,2.73,1.71,2.73a1.5,1.5,0,0,0,1.2-.74,1.62,1.62,0,0,0,.28-1.13Z"/><path class="cls-3" d="M275.49,79.38c0,.89.18,1.22.5,1.22a.65.65,0,0,0,.4-.1.14.14,0,0,1,.18.07c.06.1.06.14,0,.21a2,2,0,0,1-1.18.32,1.19,1.19,0,0,1-1.19-.75,2.44,2.44,0,0,1-2,.82c-1.37,0-1.79-.85-1.79-1.47a1.65,1.65,0,0,1,.48-1.25,4.52,4.52,0,0,1,1.78-.76,3,3,0,0,0,1.09-.5.76.76,0,0,0,.32-.55v-.39c0-1-.26-1.48-.84-1.48a1,1,0,0,0-.72.28,1,1,0,0,0-.25.78c0,.38-.35.67-1.07.67-.44,0-.55-.16-.55-.44,0-.66,1.07-1.68,2.79-1.68,2.05,0,2.08,1,2.06,2.08Zm-1.4-2c-.14.21-.33.32-1.11.61a1.42,1.42,0,0,0-1,1.47,1,1,0,0,0,.88,1.14,1.21,1.21,0,0,0,1.24-1.21Z"/><path class="cls-3" d="M278.37,75.39c-.14,0-.18,0-.19-.16s0-.18.16-.21a18.9,18.9,0,0,0,2.21-.61c.08,0,.16.06.16.11,0,.39,0,.83,0,1.19a2.49,2.49,0,0,1,2.16-1.33,2,2,0,0,1,2,2c0,.51,0,1.21,0,1.54v1a4.48,4.48,0,0,0,.11,1.47c.1.21.32.23.73.27.08,0,.11,0,.11.17s0,.15-.11.15c-.52,0-1,0-1.52,0s-1.06,0-1.59,0c-.1,0-.11,0-.11-.15s0-.17.11-.17c.37,0,.6,0,.71-.27a4.34,4.34,0,0,0,.11-1.47V77a2.56,2.56,0,0,0-.17-1.2,1,1,0,0,0-1-.7,1.54,1.54,0,0,0-1.25.8,1.82,1.82,0,0,0-.29,1.11v1.89a4.87,4.87,0,0,0,.08,1.47c.11.23.33.23.77.27.09,0,.12,0,.12.17s0,.15-.12.15c-.49,0-1,0-1.49,0s-1.08,0-1.61,0c-.08,0-.1,0-.1-.15s0-.16.1-.17c.41,0,.63,0,.74-.27a4.44,4.44,0,0,0,.1-1.47V76.82a3.7,3.7,0,0,0-.1-1.17.36.36,0,0,0-.43-.29Z"/><path class="cls-3" d="M292.75,74.7a.77.77,0,0,1,.56.66c0,.5-.16.92-.62.92s-.67-.53-.83-.86-.38-.59-.74-.59c-1.08,0-1.62,1.21-1.62,2.93s1,2.73,1.94,2.73a1.94,1.94,0,0,0,1.77-1c.07-.11.14-.09.25,0s.12.13.08.21A2.72,2.72,0,0,1,291,81.17a3.12,3.12,0,0,1-3.17-3.34,3.3,3.3,0,0,1,3.2-3.45A4.1,4.1,0,0,1,292.75,74.7Z"/><path class="cls-3" d="M296.36,76.88a6.15,6.15,0,0,0-.07-1.19c-.07-.22-.21-.3-.51-.27l-.37,0c-.14,0-.16,0-.18-.15s0-.18.16-.21c.54-.12,1.6-.42,2.25-.64a.15.15,0,0,1,.17.14c0,1-.06,1.8-.06,2.47v1.82a4.8,4.8,0,0,0,.1,1.49c.11.21.35.21.8.24.08,0,.09.06.09.18s0,.17-.09.17c-.51,0-1.08,0-1.55,0s-1.1,0-1.58,0c-.11,0-.13,0-.13-.17s0-.18.12-.18c.4,0,.63,0,.74-.24a3.79,3.79,0,0,0,.11-1.49Zm1.53-5.4a1,1,0,0,1-.92,1,1,1,0,0,1-1-1,1,1,0,0,1,1-.93A1,1,0,0,1,297.89,71.48Z"/><path class="cls-3" d="M300.74,75.39c-.14,0-.18,0-.2-.16s0-.18.17-.21a18.76,18.76,0,0,0,2.2-.61c.09,0,.17.06.17.11,0,.39,0,.83,0,1.19a2.49,2.49,0,0,1,2.16-1.33,2,2,0,0,1,2,2c0,.51,0,1.21,0,1.54v1a4.48,4.48,0,0,0,.11,1.47c.1.21.32.23.72.27.09,0,.11,0,.11.17s0,.15-.11.15c-.51,0-1,0-1.52,0s-1.06,0-1.59,0c-.09,0-.11,0-.11-.15s0-.17.11-.17c.38,0,.6,0,.71-.27a4,4,0,0,0,.12-1.47V77a2.69,2.69,0,0,0-.17-1.2,1,1,0,0,0-1-.7,1.54,1.54,0,0,0-1.25.8,1.83,1.83,0,0,0-.3,1.11v1.89a4.73,4.73,0,0,0,.09,1.47c.11.23.33.23.76.27.1,0,.13,0,.13.17s0,.15-.13.15c-.48,0-1,0-1.49,0s-1.07,0-1.6,0c-.08,0-.1,0-.1-.15s0-.16.1-.17c.4,0,.63,0,.74-.27a4.44,4.44,0,0,0,.1-1.47V76.82a3.7,3.7,0,0,0-.1-1.17.38.38,0,0,0-.43-.29Z"/><path class="cls-3" d="M314,79.9c2.43,0,2.71,1.11,2.71,1.87,0,1.13-.67,2.53-3.64,2.53-1.87,0-2.94-.8-2.94-1.69s.47-1.24,1.54-1.65c-.85-.23-1.1-.6-1.1-1s.5-1,1.52-1.38c-1-.28-1.75-.82-1.75-2a2.36,2.36,0,0,1,2.56-2.19,3.2,3.2,0,0,1,1.53.34c1,0,1.68-.06,2.25-.11a.1.1,0,0,1,.1.09l-.2.44s-.05.09-.11.09c-.5,0-.89,0-1.46,0a1.72,1.72,0,0,1,.64,1.33c0,1.2-.85,2.13-2.58,2.13a3.53,3.53,0,0,1-.48,0c-.47.28-.71.49-.71.85s.32.45.84.45Zm-.89,1.23c-.29,0-.67,0-.95,0a1.68,1.68,0,0,0-.29.25,1.53,1.53,0,0,0-.38,1.08c0,.85.73,1.47,1.87,1.47,1.31,0,2.08-.66,2.08-1.59,0-.59-.18-1.16-1.77-1.16Zm-1.28-4.6c0,1.06.44,1.76,1.18,1.76s1.16-.69,1.16-1.76-.45-1.76-1.16-1.76S311.8,75.51,311.8,76.53Z"/><path class="cls-3" d="M53.25,102.92c-1-.47-1.61-.81-1.61-2,0-.78.65-1.67,2.2-1.67a4.63,4.63,0,0,1,1,.14,2.56,2.56,0,0,0,.92,0c0,.49.07,1.16.13,1.62,0,.08,0,.11-.16.13a.16.16,0,0,1-.2-.1c-.38-.77-1-1.41-1.64-1.41s-1.08.42-1.08,1c0,.39.3.68,1,1l.49.21c1.21.53,1.91,1,1.91,2.19,0,1-.72,2-2.45,2a5,5,0,0,1-2-.39,11.06,11.06,0,0,1-.31-1.52c0-.1,0-.11.14-.13s.15,0,.2.09a2.48,2.48,0,0,0,1.95,1.54A1.12,1.12,0,0,0,55,104.38c0-.6-.47-.85-1.28-1.24Z"/><path class="cls-3" d="M65.61,105.47c.12,0,.14,0,.14.17s0,.15-.13.15c-.52,0-1.62.16-2.15.24a.17.17,0,0,1-.16-.17c0-.4,0-.69,0-1.09A2.35,2.35,0,0,1,61.26,106a1.92,1.92,0,0,1-2.09-2c0-.53,0-1,0-1.49v-1.1a5.91,5.91,0,0,0,0-1.07c-.06-.25-.2-.38-.43-.37l-.37,0c-.14,0-.16,0-.18-.16s0-.19.14-.2c.63-.09,1.63-.25,2.25-.39a.17.17,0,0,1,.16.14c0,1-.05,1.81-.05,2.43v1.47a3.3,3.3,0,0,0,.15,1.34,1,1,0,0,0,1,.67,1.46,1.46,0,0,0,1.23-.81,1.88,1.88,0,0,0,.29-1.1v-2a4.54,4.54,0,0,0-.09-1.06c0-.25-.18-.39-.43-.38l-.37,0c-.13,0-.16,0-.17-.17s0-.18.15-.19c.56-.07,1.63-.28,2.19-.4.07,0,.15.07.15.12,0,1,0,1.83,0,2.45v1.93a4.27,4.27,0,0,0,.09,1.38c.08.24.25.26.51.28Z"/><path class="cls-3" d="M67.66,100.27c-.15,0-.18,0-.2-.15s0-.18.17-.21a18.78,18.78,0,0,0,2.23-.63c.1,0,.18.06.18.13,0,.39,0,.81,0,1.36.42-.75,1-1.53,1.8-1.53.47,0,.77.18.77.43,0,.56-.42,1-.76,1s-.5-.31-.78-.31-.36.07-.64.42a1.83,1.83,0,0,0-.39,1.23v1.7a4.56,4.56,0,0,0,.1,1.47c.11.23.33.23.82.27.08,0,.1,0,.1.18s0,.14-.1.14c-.53,0-1.11,0-1.57,0s-1.12,0-1.64,0c-.08,0-.11,0-.11-.14s0-.17.11-.18c.42,0,.65,0,.74-.27a3.66,3.66,0,0,0,.14-1.47v-2.07a4.18,4.18,0,0,0-.11-1.14.4.4,0,0,0-.47-.31Z"/><path class="cls-3" d="M74.38,100.27c-.15,0-.18,0-.2-.15s0-.18.17-.21a18.27,18.27,0,0,0,2.23-.63c.1,0,.18.06.18.13,0,.39,0,.81,0,1.36.42-.75,1-1.53,1.8-1.53.47,0,.77.18.77.43,0,.56-.42,1-.76,1s-.5-.31-.78-.31-.36.07-.64.42a1.83,1.83,0,0,0-.39,1.23v1.7a4.56,4.56,0,0,0,.1,1.47c.11.23.33.23.82.27.09,0,.1,0,.1.18s0,.14-.1.14c-.53,0-1.11,0-1.57,0s-1.12,0-1.63,0c-.09,0-.12,0-.12-.14s0-.17.12-.18c.41,0,.64,0,.73-.27a3.66,3.66,0,0,0,.14-1.47v-2.07a3.82,3.82,0,0,0-.11-1.14.4.4,0,0,0-.47-.31Z"/><path class="cls-3" d="M87.68,102.66a3.26,3.26,0,1,1-6.51,0,3.26,3.26,0,1,1,6.51,0Zm-4.88,0c0,1.74.52,3,1.62,3s1.63-1.32,1.63-3-.52-3-1.63-3S82.8,101,82.8,102.66Z"/><path class="cls-3" d="M97.05,105.47c.13,0,.14,0,.14.17s0,.15-.13.15c-.51,0-1.61.16-2.14.24a.18.18,0,0,1-.17-.17c0-.4,0-.69,0-1.09A2.35,2.35,0,0,1,92.7,106a1.93,1.93,0,0,1-2.09-2c0-.53,0-1,0-1.49v-1.1a4.94,4.94,0,0,0-.06-1.07.39.39,0,0,0-.43-.37l-.36,0c-.14,0-.17,0-.18-.16s0-.19.14-.2c.62-.09,1.63-.25,2.24-.39.07,0,.17.07.17.14,0,1-.06,1.81-.06,2.43v1.47a3.3,3.3,0,0,0,.16,1.34,1,1,0,0,0,1,.67,1.46,1.46,0,0,0,1.23-.81,1.81,1.81,0,0,0,.29-1.1v-2a5.33,5.33,0,0,0-.08-1.06c-.06-.25-.18-.39-.43-.38l-.38,0c-.13,0-.15,0-.17-.17s0-.18.16-.19c.55-.07,1.63-.28,2.19-.4.06,0,.15.07.15.12,0,1,0,1.83,0,2.45v1.93a4.79,4.79,0,0,0,.08,1.38c.08.24.25.26.52.28Z"/><path class="cls-3" d="M99.09,100.26c-.14,0-.18,0-.2-.16s0-.18.17-.21a18.76,18.76,0,0,0,2.2-.61c.09,0,.17.06.17.11,0,.39,0,.83,0,1.19a2.49,2.49,0,0,1,2.16-1.33,2,2,0,0,1,2,2c0,.51,0,1.21,0,1.54v1a4.48,4.48,0,0,0,.11,1.47c.09.21.32.23.72.27.09,0,.11,0,.11.17s0,.15-.11.15c-.51,0-1,0-1.52,0s-1.06,0-1.59,0c-.09,0-.11,0-.11-.15s0-.17.11-.17c.38,0,.6,0,.71-.27a4,4,0,0,0,.12-1.47v-1.9a2.69,2.69,0,0,0-.17-1.2,1,1,0,0,0-1-.7,1.54,1.54,0,0,0-1.25.8,1.83,1.83,0,0,0-.3,1.11v1.89a4.73,4.73,0,0,0,.09,1.47c.11.23.33.23.76.27.1,0,.13,0,.13.17s0,.15-.13.15c-.48,0-1,0-1.49,0s-1.07,0-1.6,0c-.08,0-.1,0-.1-.15s0-.16.1-.17c.4,0,.63,0,.74-.27a4.44,4.44,0,0,0,.1-1.47v-2.07a3.7,3.7,0,0,0-.1-1.17.38.38,0,0,0-.43-.29Z"/><path class="cls-3" d="M113.39,97.48a5.86,5.86,0,0,0,0-1.2c-.06-.22-.27-.29-.5-.27l-.34,0c-.16,0-.19,0-.21-.15s0-.18.17-.21a19.18,19.18,0,0,0,2.29-.63c.07,0,.16.07.16.14,0,1-.08,2-.08,3.39v5.23a4.36,4.36,0,0,0,.1,1.45c.1.21.25.21.43.22l.32,0c.1,0,.13,0,.13.15s0,.17-.13.18a21.79,21.79,0,0,0-2.17.24c-.1,0-.14,0-.14-.17,0-.33,0-.6,0-1a2.11,2.11,0,0,1-1.82,1.12c-1.91,0-3-1.38-3-3.35a3.16,3.16,0,0,1,3.19-3.47,2.2,2.2,0,0,1,1.64.71Zm0,4.24a2.15,2.15,0,0,0-.26-1.23,1.44,1.44,0,0,0-1.2-.79c-1.09,0-1.73,1.2-1.73,3s.7,2.73,1.72,2.73a1.51,1.51,0,0,0,1.2-.74,1.67,1.67,0,0,0,.27-1.13Z"/><path class="cls-3" d="M119.28,102.63c0,1.84,1.13,2.76,2,2.76a2.13,2.13,0,0,0,1.94-1,.19.19,0,0,1,.14-.07.3.3,0,0,1,.13.06s.11.1.11.14a.45.45,0,0,1-.07.15,2.76,2.76,0,0,1-2.58,1.38,3.15,3.15,0,0,1-3.22-3.34A3.29,3.29,0,0,1,121,99.25a2.76,2.76,0,0,1,2.72,2.6.28.28,0,0,1-.07.23c-.07.09-.12.07-.21.07-1.41,0-2.81-.05-4,0A1.87,1.87,0,0,0,119.28,102.63Zm2.73-1c.11,0,.13-.1.13-.22,0-.78-.38-1.69-1.19-1.69s-1.34.81-1.54,2A22.56,22.56,0,0,0,122,101.58Z"/><path class="cls-3" d="M130.7,97.48a5.72,5.72,0,0,0-.06-1.2c0-.22-.26-.29-.5-.27l-.33,0c-.17,0-.2,0-.21-.15s0-.18.17-.21a19,19,0,0,0,2.28-.63c.07,0,.17.07.17.14-.06,1-.08,2-.08,3.39v5.23a4.47,4.47,0,0,0,.09,1.45c.1.21.25.21.44.22l.32,0c.09,0,.12,0,.12.15s0,.17-.12.18c-.56,0-1.55.13-2.18.24-.1,0-.14,0-.14-.17,0-.33,0-.6,0-1a2.11,2.11,0,0,1-1.83,1.12c-1.91,0-3-1.38-3-3.35a3.16,3.16,0,0,1,3.19-3.47,2.22,2.22,0,0,1,1.65.71Zm0,4.24a2.08,2.08,0,0,0-.27-1.23,1.42,1.42,0,0,0-1.19-.79c-1.09,0-1.73,1.2-1.73,3s.69,2.73,1.71,2.73a1.5,1.5,0,0,0,1.2-.74,1.62,1.62,0,0,0,.28-1.13Z"/><path class="cls-3" d="M142.85,100.34a2.23,2.23,0,0,1,1.85-1.11c1.8,0,3,1.38,3,3.37a3.16,3.16,0,0,1-3.19,3.44,2.48,2.48,0,0,1-1.84-.78.27.27,0,0,0-.32,0l-.61.55a.36.36,0,0,1-.28.08c-.16,0-.19,0-.17-.13.07-1,.11-1.75.11-3.08V97.5a6.39,6.39,0,0,0-.07-1.2c-.06-.24-.22-.29-.46-.28l-.35,0c-.14,0-.17,0-.18-.17s0-.17.13-.21a17.58,17.58,0,0,0,2.28-.6c.09,0,.16.06.16.11,0,1-.07,2-.07,3.42Zm0,3.17a2.12,2.12,0,0,0,.21,1.22,1.44,1.44,0,0,0,1.26.85c1,0,1.72-1.21,1.72-3s-.77-2.7-1.72-2.7a1.5,1.5,0,0,0-1.24.71,1.65,1.65,0,0,0-.23,1.09Z"/><path class="cls-3" d="M154,104.09c-.33.85-.61,1.58-.9,2.2-.8,1.72-1.59,2.88-2.9,2.88-.48,0-.6-.14-.6-.38a1,1,0,0,1,.86-1c.32,0,.45.18.7.18a.64.64,0,0,0,.54-.28,6.29,6.29,0,0,0,1-1.67c-.28-.63-.49-1.1-.8-1.87l-1.06-2.65a6.27,6.27,0,0,0-.67-1.36c-.15-.2-.32-.27-.74-.29-.06,0-.11,0-.11-.19s0-.16.11-.16c.53,0,1.16,0,1.62,0s1.14,0,1.67,0c.09,0,.13,0,.13.16s0,.19-.11.19c-.38,0-.67.08-.75.25s.05.64.37,1.4l.73,1.87c.18.46.23.66.32.94.11-.25.18-.48.37-1l.69-1.84c.26-.72.28-1.13.14-1.35s-.32-.27-.69-.29c-.09,0-.12,0-.12-.19s0-.16.14-.16c.37,0,.9,0,1.28,0s.79,0,1.19,0c.09,0,.12,0,.12.16s0,.17-.12.19a.94.94,0,0,0-.62.27,3.43,3.43,0,0,0-.78,1.37Z"/><path class="cls-3" d="M164.85,97.46a5.2,5.2,0,0,0-.1-1.15.39.39,0,0,0-.46-.32l-.37,0c-.13,0-.16,0-.17-.15s0-.19.14-.21a21.66,21.66,0,0,0,2.3-.62c.1,0,.17,0,.17.1,0,1-.07,2.06-.07,3.43v5.16a4.53,4.53,0,0,0,.09,1.49c.12.22.34.24.79.28.08,0,.09,0,.09.17s0,.15-.11.15c-.51,0-1.06,0-1.52,0s-1.07,0-1.59,0c-.12,0-.15,0-.15-.15s0-.16.14-.17c.43,0,.6-.06.71-.28a4.52,4.52,0,0,0,.11-1.49Z"/><path class="cls-3" d="M176.2,105.47c.13,0,.14,0,.14.17s0,.15-.13.15c-.51,0-1.61.16-2.14.24a.18.18,0,0,1-.17-.17c0-.4,0-.69,0-1.09a2.35,2.35,0,0,1-2.09,1.27,1.92,1.92,0,0,1-2.09-2c0-.53,0-1,0-1.49v-1.1a4.94,4.94,0,0,0-.06-1.07.39.39,0,0,0-.43-.37l-.36,0c-.14,0-.17,0-.19-.16s0-.19.14-.2c.63-.09,1.64-.25,2.25-.39.07,0,.17.07.17.14-.05,1-.06,1.81-.06,2.43v1.47a3.49,3.49,0,0,0,.15,1.34,1,1,0,0,0,1,.67,1.46,1.46,0,0,0,1.23-.81,1.81,1.81,0,0,0,.29-1.1v-2a5.33,5.33,0,0,0-.08-1.06c-.06-.25-.18-.39-.43-.38l-.38,0c-.13,0-.15,0-.17-.17s0-.18.16-.19c.55-.07,1.63-.28,2.18-.4.07,0,.16.07.16.12,0,1,0,1.83,0,2.45v1.93a4.79,4.79,0,0,0,.08,1.38c.08.24.25.26.52.28Z"/><path class="cls-3" d="M180.08,102.92c-1-.47-1.62-.81-1.62-2,0-.78.66-1.67,2.2-1.67a4.73,4.73,0,0,1,1,.14,2.55,2.55,0,0,0,.92,0c0,.49.07,1.16.12,1.62,0,.08,0,.11-.15.13s-.17,0-.21-.1c-.38-.77-1-1.41-1.63-1.41s-1.09.42-1.09,1c0,.39.31.68,1.05,1l.49.21c1.21.53,1.91,1,1.91,2.19,0,1-.73,2-2.46,2a5,5,0,0,1-2-.39,11,11,0,0,1-.3-1.52c0-.1,0-.11.13-.13s.16,0,.2.09a2.51,2.51,0,0,0,2,1.54,1.12,1.12,0,0,0,1.21-1.24c0-.6-.47-.85-1.28-1.24Z"/><path class="cls-3" d="M187.57,100.56a2.4,2.4,0,0,1,2.1-1.29,1.92,1.92,0,0,1,2.09,2c0,.76,0,1.21,0,1.57v1a4.34,4.34,0,0,0,.1,1.46c.09.23.35.23.77.27.08,0,.11,0,.11.17s0,.15-.13.15c-.53,0-1.08,0-1.54,0s-1,0-1.56,0c-.12,0-.14,0-.14-.15s0-.16.12-.17c.41,0,.63,0,.73-.27a4.26,4.26,0,0,0,.09-1.46v-1.9a3.25,3.25,0,0,0-.12-1.18,1.09,1.09,0,0,0-1.06-.71,1.46,1.46,0,0,0-1.24.79,2,2,0,0,0-.29,1.12v1.88a4.9,4.9,0,0,0,.08,1.46c.08.2.31.23.77.27.11,0,.14,0,.14.15s0,.17-.14.17c-.52,0-1,0-1.48,0s-1.12,0-1.66,0c-.08,0-.11,0-.11-.17s0-.14.11-.15c.43,0,.64,0,.74-.27a4.33,4.33,0,0,0,.11-1.46v-6.3a6.59,6.59,0,0,0-.06-1.13.37.37,0,0,0-.46-.33l-.39,0c-.14,0-.15,0-.16-.16s0-.17.14-.2a22.66,22.66,0,0,0,2.3-.61c.05,0,.14.07.14.11,0,1-.07,2-.07,3.4Z"/><path class="cls-3" d="M204.35,104.77c2.43,0,2.71,1.11,2.71,1.87,0,1.13-.67,2.53-3.64,2.53-1.87,0-2.94-.8-2.94-1.69s.47-1.24,1.55-1.65c-.85-.23-1.1-.6-1.1-1s.5-1,1.51-1.38c-1-.28-1.75-.82-1.75-2a2.36,2.36,0,0,1,2.56-2.19,3.28,3.28,0,0,1,1.54.34c1,0,1.67-.06,2.24-.11a.09.09,0,0,1,.1.09l-.2.44a.12.12,0,0,1-.11.09c-.5,0-.89,0-1.46,0a1.72,1.72,0,0,1,.64,1.33c0,1.2-.85,2.13-2.58,2.13a3.38,3.38,0,0,1-.47,0c-.48.28-.71.49-.71.85s.32.45.83.45Zm-.89,1.23c-.29,0-.67,0-1,0a1.68,1.68,0,0,0-.29.25,1.52,1.52,0,0,0-.37,1.08c0,.85.72,1.47,1.86,1.47,1.31,0,2.08-.66,2.08-1.59,0-.59-.18-1.16-1.77-1.16Zm-1.28-4.6c0,1.06.45,1.76,1.18,1.76s1.16-.69,1.16-1.76-.44-1.76-1.16-1.76S202.18,100.38,202.18,101.4Z"/><path class="cls-3" d="M209,100.27c-.15,0-.18,0-.2-.15s0-.18.17-.21a18.78,18.78,0,0,0,2.23-.63c.1,0,.18.06.18.13,0,.39,0,.81,0,1.36.42-.75,1-1.53,1.8-1.53.47,0,.77.18.77.43,0,.56-.42,1-.76,1s-.5-.31-.78-.31-.36.07-.64.42a1.83,1.83,0,0,0-.39,1.23v1.7a4.56,4.56,0,0,0,.1,1.47c.11.23.33.23.82.27.08,0,.1,0,.1.18s0,.14-.1.14c-.53,0-1.11,0-1.57,0s-1.12,0-1.64,0c-.08,0-.11,0-.11-.14s0-.17.11-.18c.42,0,.65,0,.74-.27a3.66,3.66,0,0,0,.14-1.47v-2.07a4.18,4.18,0,0,0-.11-1.14.4.4,0,0,0-.47-.31Z"/><path class="cls-3" d="M217.35,102.63c0,1.84,1.13,2.76,2,2.76a2.12,2.12,0,0,0,1.93-1,.19.19,0,0,1,.14-.07.25.25,0,0,1,.13.06s.11.1.11.14a.45.45,0,0,1-.07.15A2.76,2.76,0,0,1,219,106a3.15,3.15,0,0,1-3.22-3.34A3.29,3.29,0,0,1,219,99.25a2.75,2.75,0,0,1,2.72,2.6.28.28,0,0,1-.07.23c-.07.09-.12.07-.21.07-1.4,0-2.81-.05-4.05,0A1.87,1.87,0,0,0,217.35,102.63Zm2.73-1c.12,0,.13-.1.13-.22,0-.78-.38-1.69-1.19-1.69s-1.33.81-1.54,2A22.56,22.56,0,0,0,220.08,101.58Z"/><path class="cls-3" d="M225.51,102.63c0,1.84,1.13,2.76,2,2.76a2.14,2.14,0,0,0,1.94-1,.19.19,0,0,1,.14-.07.3.3,0,0,1,.13.06s.11.1.11.14a.45.45,0,0,1-.07.15,2.77,2.77,0,0,1-2.58,1.38A3.15,3.15,0,0,1,224,102.7a3.29,3.29,0,0,1,3.23-3.45,2.76,2.76,0,0,1,2.72,2.6.28.28,0,0,1-.07.23c-.07.09-.12.07-.21.07-1.41,0-2.81-.05-4.06,0A2.57,2.57,0,0,0,225.51,102.63Zm2.73-1c.11,0,.13-.1.13-.22-.05-.78-.38-1.69-1.19-1.69s-1.34.81-1.55,2A22.7,22.7,0,0,0,228.24,101.58Z"/><path class="cls-3" d="M232,100.26c-.14,0-.18,0-.19-.16s0-.18.16-.21a18.9,18.9,0,0,0,2.21-.61c.08,0,.16.06.16.11,0,.39,0,.83,0,1.19a2.47,2.47,0,0,1,2.16-1.33,2,2,0,0,1,2,2c0,.51,0,1.21,0,1.54v1a4.48,4.48,0,0,0,.11,1.47c.1.21.32.23.72.27.09,0,.12,0,.12.17s0,.15-.12.15c-.51,0-1,0-1.52,0s-1.06,0-1.58,0c-.1,0-.12,0-.12-.15s0-.17.12-.17c.37,0,.6,0,.71-.27a4.34,4.34,0,0,0,.11-1.47v-1.9a2.56,2.56,0,0,0-.17-1.2,1,1,0,0,0-1-.7,1.54,1.54,0,0,0-1.25.8,1.82,1.82,0,0,0-.29,1.11v1.89a4.87,4.87,0,0,0,.08,1.47c.11.23.33.23.77.27.09,0,.12,0,.12.17s0,.15-.12.15c-.49,0-1,0-1.5,0s-1.07,0-1.6,0c-.08,0-.1,0-.1-.15s0-.16.1-.17c.41,0,.63,0,.74-.27a4.44,4.44,0,0,0,.1-1.47v-2.07a3.7,3.7,0,0,0-.1-1.17.37.37,0,0,0-.43-.29Z"/><path class="cls-3" d="M243.07,102.63c0,1.84,1.12,2.76,2,2.76a2.15,2.15,0,0,0,1.94-1,.17.17,0,0,1,.14-.07.23.23,0,0,1,.12.06c.06,0,.11.1.11.14a.31.31,0,0,1-.07.15,2.76,2.76,0,0,1-2.58,1.38,3.15,3.15,0,0,1-3.22-3.34,3.29,3.29,0,0,1,3.24-3.45,2.76,2.76,0,0,1,2.72,2.6.28.28,0,0,1-.07.23c-.07.09-.13.07-.21.07-1.41,0-2.82-.05-4.06,0A2,2,0,0,0,243.07,102.63Zm2.73-1c.11,0,.12-.1.12-.22,0-.78-.37-1.69-1.18-1.69s-1.34.81-1.55,2A22.73,22.73,0,0,0,245.8,101.58Z"/><path class="cls-3" d="M249.59,100.27c-.15,0-.18,0-.19-.15s0-.18.16-.21a18.27,18.27,0,0,0,2.23-.63c.1,0,.19.06.19.13,0,.39,0,.81,0,1.36.42-.75,1-1.53,1.8-1.53.48,0,.77.18.77.43,0,.56-.42,1-.75,1s-.51-.31-.79-.31-.36.07-.64.42a1.83,1.83,0,0,0-.39,1.23v1.7a4.56,4.56,0,0,0,.1,1.47c.11.23.34.23.82.27.09,0,.1,0,.1.18s0,.14-.1.14c-.53,0-1.11,0-1.57,0s-1.12,0-1.63,0c-.09,0-.11,0-.11-.14s0-.17.11-.18c.42,0,.64,0,.74-.27a3.86,3.86,0,0,0,.14-1.47v-2.07a3.76,3.76,0,0,0-.12-1.14.4.4,0,0,0-.47-.31Z"/><path class="cls-3" d="M260.31,104.09c-.33.85-.61,1.58-.9,2.2-.8,1.72-1.59,2.88-2.9,2.88-.48,0-.6-.14-.6-.38a1,1,0,0,1,.86-1c.32,0,.45.18.7.18a.64.64,0,0,0,.54-.28,6.29,6.29,0,0,0,1-1.67c-.28-.63-.49-1.1-.8-1.87l-1.06-2.65a6.27,6.27,0,0,0-.67-1.36c-.15-.2-.32-.27-.74-.29-.06,0-.11,0-.11-.19s0-.16.11-.16c.53,0,1.16,0,1.62,0s1.15,0,1.68,0c.08,0,.12,0,.12.16s0,.19-.11.19c-.38,0-.67.08-.75.25s.05.64.37,1.4l.73,1.87c.18.46.23.66.32.94.11-.25.18-.48.37-1l.69-1.84c.26-.72.28-1.13.14-1.35s-.32-.27-.69-.29c-.09,0-.12,0-.12-.19s0-.16.14-.16c.37,0,.9,0,1.28,0s.79,0,1.19,0c.09,0,.12,0,.12.16s0,.17-.12.19a.94.94,0,0,0-.62.27,3.43,3.43,0,0,0-.78,1.37Z"/><path class="cls-3" d="M266,105.08a.95.95,0,1,1-.94-.93A1,1,0,0,1,266,105.08Z"/></g></g></svg>